G04 #@! TF.GenerationSoftware,KiCad,Pcbnew,8.0.2*
G04 #@! TF.CreationDate,2024-06-19T11:25:55-04:00*
G04 #@! TF.ProjectId,StringsVR-PiHat,53747269-6e67-4735-9652-2d5069486174,1*
G04 #@! TF.SameCoordinates,Original*
G04 #@! TF.FileFunction,Soldermask,Top*
G04 #@! TF.FilePolarity,Negative*
%FSLAX46Y46*%
G04 Gerber Fmt 4.6, Leading zero omitted, Abs format (unit mm)*
G04 Created by KiCad (PCBNEW 8.0.2) date 2024-06-19 11:25:55*
%MOMM*%
%LPD*%
G01*
G04 APERTURE LIST*
G04 APERTURE END LIST*
G36*
X147755000Y-136110000D02*
G01*
X146685000Y-136110000D01*
X146685000Y-134310000D01*
X147755000Y-134310000D01*
X147755000Y-136110000D01*
G37*
G36*
X148694736Y-134350724D02*
G01*
X148815687Y-134420556D01*
X148914444Y-134519313D01*
X148984276Y-134640264D01*
X149020423Y-134775168D01*
X149025000Y-135575000D01*
X149020423Y-135644832D01*
X148984276Y-135779736D01*
X148914444Y-135900687D01*
X148815687Y-135999444D01*
X148694736Y-136069276D01*
X148559832Y-136105423D01*
X148420168Y-136105423D01*
X148285264Y-136069276D01*
X148164313Y-135999444D01*
X148065556Y-135900687D01*
X147995724Y-135779736D01*
X147959577Y-135644832D01*
X147955000Y-134845000D01*
X147959577Y-134775168D01*
X147995724Y-134640264D01*
X148065556Y-134519313D01*
X148164313Y-134420556D01*
X148285264Y-134350724D01*
X148420168Y-134314577D01*
X148559832Y-134314577D01*
X148694736Y-134350724D01*
G37*
G36*
X149964736Y-134350724D02*
G01*
X150085687Y-134420556D01*
X150184444Y-134519313D01*
X150254276Y-134640264D01*
X150290423Y-134775168D01*
X150295000Y-135575000D01*
X150290423Y-135644832D01*
X150254276Y-135779736D01*
X150184444Y-135900687D01*
X150085687Y-135999444D01*
X149964736Y-136069276D01*
X149829832Y-136105423D01*
X149690168Y-136105423D01*
X149555264Y-136069276D01*
X149434313Y-135999444D01*
X149335556Y-135900687D01*
X149265724Y-135779736D01*
X149229577Y-135644832D01*
X149225000Y-134845000D01*
X149229577Y-134775168D01*
X149265724Y-134640264D01*
X149335556Y-134519313D01*
X149434313Y-134420556D01*
X149555264Y-134350724D01*
X149690168Y-134314577D01*
X149829832Y-134314577D01*
X149964736Y-134350724D01*
G37*
G36*
X151234736Y-134350724D02*
G01*
X151355687Y-134420556D01*
X151454444Y-134519313D01*
X151524276Y-134640264D01*
X151560423Y-134775168D01*
X151565000Y-135575000D01*
X151560423Y-135644832D01*
X151524276Y-135779736D01*
X151454444Y-135900687D01*
X151355687Y-135999444D01*
X151234736Y-136069276D01*
X151099832Y-136105423D01*
X150960168Y-136105423D01*
X150825264Y-136069276D01*
X150704313Y-135999444D01*
X150605556Y-135900687D01*
X150535724Y-135779736D01*
X150499577Y-135644832D01*
X150495000Y-134845000D01*
X150499577Y-134775168D01*
X150535724Y-134640264D01*
X150605556Y-134519313D01*
X150704313Y-134420556D01*
X150825264Y-134350724D01*
X150960168Y-134314577D01*
X151099832Y-134314577D01*
X151234736Y-134350724D01*
G37*
G36*
X141071537Y-134850224D02*
G01*
X141136421Y-134893579D01*
X141179776Y-134958463D01*
X141195000Y-135035000D01*
X141195000Y-135435000D01*
X141179776Y-135511537D01*
X141136421Y-135576421D01*
X141071537Y-135619776D01*
X140995000Y-135635000D01*
X140445000Y-135635000D01*
X140368463Y-135619776D01*
X140303579Y-135576421D01*
X140260224Y-135511537D01*
X140245000Y-135435000D01*
X140245000Y-135035000D01*
X140260224Y-134958463D01*
X140303579Y-134893579D01*
X140368463Y-134850224D01*
X140445000Y-134835000D01*
X140995000Y-134835000D01*
X141071537Y-134850224D01*
G37*
G36*
X160671537Y-134725224D02*
G01*
X160736421Y-134768579D01*
X160779776Y-134833463D01*
X160795000Y-134910000D01*
X160795000Y-135310000D01*
X160779776Y-135386537D01*
X160736421Y-135451421D01*
X160671537Y-135494776D01*
X160595000Y-135510000D01*
X160045000Y-135510000D01*
X159968463Y-135494776D01*
X159903579Y-135451421D01*
X159860224Y-135386537D01*
X159845000Y-135310000D01*
X159845000Y-134910000D01*
X159860224Y-134833463D01*
X159903579Y-134768579D01*
X159968463Y-134725224D01*
X160045000Y-134710000D01*
X160595000Y-134710000D01*
X160671537Y-134725224D01*
G37*
G36*
X156071537Y-134675224D02*
G01*
X156136421Y-134718579D01*
X156179776Y-134783463D01*
X156195000Y-134860000D01*
X156195000Y-135260000D01*
X156179776Y-135336537D01*
X156136421Y-135401421D01*
X156071537Y-135444776D01*
X155995000Y-135460000D01*
X155445000Y-135460000D01*
X155368463Y-135444776D01*
X155303579Y-135401421D01*
X155260224Y-135336537D01*
X155245000Y-135260000D01*
X155245000Y-134860000D01*
X155260224Y-134783463D01*
X155303579Y-134718579D01*
X155368463Y-134675224D01*
X155445000Y-134660000D01*
X155995000Y-134660000D01*
X156071537Y-134675224D01*
G37*
G36*
X141071537Y-133200224D02*
G01*
X141136421Y-133243579D01*
X141179776Y-133308463D01*
X141195000Y-133385000D01*
X141195000Y-133785000D01*
X141179776Y-133861537D01*
X141136421Y-133926421D01*
X141071537Y-133969776D01*
X140995000Y-133985000D01*
X140445000Y-133985000D01*
X140368463Y-133969776D01*
X140303579Y-133926421D01*
X140260224Y-133861537D01*
X140245000Y-133785000D01*
X140245000Y-133385000D01*
X140260224Y-133308463D01*
X140303579Y-133243579D01*
X140368463Y-133200224D01*
X140445000Y-133185000D01*
X140995000Y-133185000D01*
X141071537Y-133200224D01*
G37*
G36*
X160671537Y-133075224D02*
G01*
X160736421Y-133118579D01*
X160779776Y-133183463D01*
X160795000Y-133260000D01*
X160795000Y-133660000D01*
X160779776Y-133736537D01*
X160736421Y-133801421D01*
X160671537Y-133844776D01*
X160595000Y-133860000D01*
X160045000Y-133860000D01*
X159968463Y-133844776D01*
X159903579Y-133801421D01*
X159860224Y-133736537D01*
X159845000Y-133660000D01*
X159845000Y-133260000D01*
X159860224Y-133183463D01*
X159903579Y-133118579D01*
X159968463Y-133075224D01*
X160045000Y-133060000D01*
X160595000Y-133060000D01*
X160671537Y-133075224D01*
G37*
G36*
X156071537Y-133025224D02*
G01*
X156136421Y-133068579D01*
X156179776Y-133133463D01*
X156195000Y-133210000D01*
X156195000Y-133610000D01*
X156179776Y-133686537D01*
X156136421Y-133751421D01*
X156071537Y-133794776D01*
X155995000Y-133810000D01*
X155445000Y-133810000D01*
X155368463Y-133794776D01*
X155303579Y-133751421D01*
X155260224Y-133686537D01*
X155245000Y-133610000D01*
X155245000Y-133210000D01*
X155260224Y-133133463D01*
X155303579Y-133068579D01*
X155368463Y-133025224D01*
X155445000Y-133010000D01*
X155995000Y-133010000D01*
X156071537Y-133025224D01*
G37*
G36*
X135186891Y-127878804D02*
G01*
X135345413Y-127934273D01*
X135487617Y-128023626D01*
X135606374Y-128142383D01*
X135695727Y-128284587D01*
X135751196Y-128443109D01*
X135770000Y-128610000D01*
X135751196Y-128776891D01*
X135695727Y-128935413D01*
X135606374Y-129077617D01*
X135487617Y-129196374D01*
X135345413Y-129285727D01*
X135186891Y-129341196D01*
X135020000Y-129360000D01*
X134853109Y-129341196D01*
X134694587Y-129285727D01*
X134552383Y-129196374D01*
X134433626Y-129077617D01*
X134344273Y-128935413D01*
X134288804Y-128776891D01*
X134270000Y-128610000D01*
X134288804Y-128443109D01*
X134344273Y-128284587D01*
X134433626Y-128142383D01*
X134552383Y-128023626D01*
X134694587Y-127934273D01*
X134853109Y-127878804D01*
X135020000Y-127860000D01*
X135186891Y-127878804D01*
G37*
G36*
X137726891Y-127878804D02*
G01*
X137885413Y-127934273D01*
X138027617Y-128023626D01*
X138146374Y-128142383D01*
X138235727Y-128284587D01*
X138291196Y-128443109D01*
X138310000Y-128610000D01*
X138291196Y-128776891D01*
X138235727Y-128935413D01*
X138146374Y-129077617D01*
X138027617Y-129196374D01*
X137885413Y-129285727D01*
X137726891Y-129341196D01*
X137560000Y-129360000D01*
X137393109Y-129341196D01*
X137234587Y-129285727D01*
X137092383Y-129196374D01*
X136973626Y-129077617D01*
X136884273Y-128935413D01*
X136828804Y-128776891D01*
X136810000Y-128610000D01*
X136828804Y-128443109D01*
X136884273Y-128284587D01*
X136973626Y-128142383D01*
X137092383Y-128023626D01*
X137234587Y-127934273D01*
X137393109Y-127878804D01*
X137560000Y-127860000D01*
X137726891Y-127878804D01*
G37*
G36*
X140266891Y-127878804D02*
G01*
X140425413Y-127934273D01*
X140567617Y-128023626D01*
X140686374Y-128142383D01*
X140775727Y-128284587D01*
X140831196Y-128443109D01*
X140850000Y-128610000D01*
X140831196Y-128776891D01*
X140775727Y-128935413D01*
X140686374Y-129077617D01*
X140567617Y-129196374D01*
X140425413Y-129285727D01*
X140266891Y-129341196D01*
X140100000Y-129360000D01*
X139933109Y-129341196D01*
X139774587Y-129285727D01*
X139632383Y-129196374D01*
X139513626Y-129077617D01*
X139424273Y-128935413D01*
X139368804Y-128776891D01*
X139350000Y-128610000D01*
X139368804Y-128443109D01*
X139424273Y-128284587D01*
X139513626Y-128142383D01*
X139632383Y-128023626D01*
X139774587Y-127934273D01*
X139933109Y-127878804D01*
X140100000Y-127860000D01*
X140266891Y-127878804D01*
G37*
G36*
X142806891Y-127878804D02*
G01*
X142965413Y-127934273D01*
X143107617Y-128023626D01*
X143226374Y-128142383D01*
X143315727Y-128284587D01*
X143371196Y-128443109D01*
X143390000Y-128610000D01*
X143371196Y-128776891D01*
X143315727Y-128935413D01*
X143226374Y-129077617D01*
X143107617Y-129196374D01*
X142965413Y-129285727D01*
X142806891Y-129341196D01*
X142640000Y-129360000D01*
X142473109Y-129341196D01*
X142314587Y-129285727D01*
X142172383Y-129196374D01*
X142053626Y-129077617D01*
X141964273Y-128935413D01*
X141908804Y-128776891D01*
X141890000Y-128610000D01*
X141908804Y-128443109D01*
X141964273Y-128284587D01*
X142053626Y-128142383D01*
X142172383Y-128023626D01*
X142314587Y-127934273D01*
X142473109Y-127878804D01*
X142640000Y-127860000D01*
X142806891Y-127878804D01*
G37*
G36*
X145346891Y-127878804D02*
G01*
X145505413Y-127934273D01*
X145647617Y-128023626D01*
X145766374Y-128142383D01*
X145855727Y-128284587D01*
X145911196Y-128443109D01*
X145930000Y-128610000D01*
X145911196Y-128776891D01*
X145855727Y-128935413D01*
X145766374Y-129077617D01*
X145647617Y-129196374D01*
X145505413Y-129285727D01*
X145346891Y-129341196D01*
X145180000Y-129360000D01*
X145013109Y-129341196D01*
X144854587Y-129285727D01*
X144712383Y-129196374D01*
X144593626Y-129077617D01*
X144504273Y-128935413D01*
X144448804Y-128776891D01*
X144430000Y-128610000D01*
X144448804Y-128443109D01*
X144504273Y-128284587D01*
X144593626Y-128142383D01*
X144712383Y-128023626D01*
X144854587Y-127934273D01*
X145013109Y-127878804D01*
X145180000Y-127860000D01*
X145346891Y-127878804D01*
G37*
G36*
X147886891Y-127878804D02*
G01*
X148045413Y-127934273D01*
X148187617Y-128023626D01*
X148306374Y-128142383D01*
X148395727Y-128284587D01*
X148451196Y-128443109D01*
X148470000Y-128610000D01*
X148451196Y-128776891D01*
X148395727Y-128935413D01*
X148306374Y-129077617D01*
X148187617Y-129196374D01*
X148045413Y-129285727D01*
X147886891Y-129341196D01*
X147720000Y-129360000D01*
X147553109Y-129341196D01*
X147394587Y-129285727D01*
X147252383Y-129196374D01*
X147133626Y-129077617D01*
X147044273Y-128935413D01*
X146988804Y-128776891D01*
X146970000Y-128610000D01*
X146988804Y-128443109D01*
X147044273Y-128284587D01*
X147133626Y-128142383D01*
X147252383Y-128023626D01*
X147394587Y-127934273D01*
X147553109Y-127878804D01*
X147720000Y-127860000D01*
X147886891Y-127878804D01*
G37*
G36*
X150426891Y-127878804D02*
G01*
X150585413Y-127934273D01*
X150727617Y-128023626D01*
X150846374Y-128142383D01*
X150935727Y-128284587D01*
X150991196Y-128443109D01*
X151010000Y-128610000D01*
X150991196Y-128776891D01*
X150935727Y-128935413D01*
X150846374Y-129077617D01*
X150727617Y-129196374D01*
X150585413Y-129285727D01*
X150426891Y-129341196D01*
X150260000Y-129360000D01*
X150093109Y-129341196D01*
X149934587Y-129285727D01*
X149792383Y-129196374D01*
X149673626Y-129077617D01*
X149584273Y-128935413D01*
X149528804Y-128776891D01*
X149510000Y-128610000D01*
X149528804Y-128443109D01*
X149584273Y-128284587D01*
X149673626Y-128142383D01*
X149792383Y-128023626D01*
X149934587Y-127934273D01*
X150093109Y-127878804D01*
X150260000Y-127860000D01*
X150426891Y-127878804D01*
G37*
G36*
X152966891Y-127878804D02*
G01*
X153125413Y-127934273D01*
X153267617Y-128023626D01*
X153386374Y-128142383D01*
X153475727Y-128284587D01*
X153531196Y-128443109D01*
X153550000Y-128610000D01*
X153531196Y-128776891D01*
X153475727Y-128935413D01*
X153386374Y-129077617D01*
X153267617Y-129196374D01*
X153125413Y-129285727D01*
X152966891Y-129341196D01*
X152800000Y-129360000D01*
X152633109Y-129341196D01*
X152474587Y-129285727D01*
X152332383Y-129196374D01*
X152213626Y-129077617D01*
X152124273Y-128935413D01*
X152068804Y-128776891D01*
X152050000Y-128610000D01*
X152068804Y-128443109D01*
X152124273Y-128284587D01*
X152213626Y-128142383D01*
X152332383Y-128023626D01*
X152474587Y-127934273D01*
X152633109Y-127878804D01*
X152800000Y-127860000D01*
X152966891Y-127878804D01*
G37*
G36*
X155506891Y-127878804D02*
G01*
X155665413Y-127934273D01*
X155807617Y-128023626D01*
X155926374Y-128142383D01*
X156015727Y-128284587D01*
X156071196Y-128443109D01*
X156090000Y-128610000D01*
X156071196Y-128776891D01*
X156015727Y-128935413D01*
X155926374Y-129077617D01*
X155807617Y-129196374D01*
X155665413Y-129285727D01*
X155506891Y-129341196D01*
X155340000Y-129360000D01*
X155173109Y-129341196D01*
X155014587Y-129285727D01*
X154872383Y-129196374D01*
X154753626Y-129077617D01*
X154664273Y-128935413D01*
X154608804Y-128776891D01*
X154590000Y-128610000D01*
X154608804Y-128443109D01*
X154664273Y-128284587D01*
X154753626Y-128142383D01*
X154872383Y-128023626D01*
X155014587Y-127934273D01*
X155173109Y-127878804D01*
X155340000Y-127860000D01*
X155506891Y-127878804D01*
G37*
G36*
X158046891Y-127878804D02*
G01*
X158205413Y-127934273D01*
X158347617Y-128023626D01*
X158466374Y-128142383D01*
X158555727Y-128284587D01*
X158611196Y-128443109D01*
X158630000Y-128610000D01*
X158611196Y-128776891D01*
X158555727Y-128935413D01*
X158466374Y-129077617D01*
X158347617Y-129196374D01*
X158205413Y-129285727D01*
X158046891Y-129341196D01*
X157880000Y-129360000D01*
X157713109Y-129341196D01*
X157554587Y-129285727D01*
X157412383Y-129196374D01*
X157293626Y-129077617D01*
X157204273Y-128935413D01*
X157148804Y-128776891D01*
X157130000Y-128610000D01*
X157148804Y-128443109D01*
X157204273Y-128284587D01*
X157293626Y-128142383D01*
X157412383Y-128023626D01*
X157554587Y-127934273D01*
X157713109Y-127878804D01*
X157880000Y-127860000D01*
X158046891Y-127878804D01*
G37*
G36*
X160586891Y-127878804D02*
G01*
X160745413Y-127934273D01*
X160887617Y-128023626D01*
X161006374Y-128142383D01*
X161095727Y-128284587D01*
X161151196Y-128443109D01*
X161170000Y-128610000D01*
X161151196Y-128776891D01*
X161095727Y-128935413D01*
X161006374Y-129077617D01*
X160887617Y-129196374D01*
X160745413Y-129285727D01*
X160586891Y-129341196D01*
X160420000Y-129360000D01*
X160253109Y-129341196D01*
X160094587Y-129285727D01*
X159952383Y-129196374D01*
X159833626Y-129077617D01*
X159744273Y-128935413D01*
X159688804Y-128776891D01*
X159670000Y-128610000D01*
X159688804Y-128443109D01*
X159744273Y-128284587D01*
X159833626Y-128142383D01*
X159952383Y-128023626D01*
X160094587Y-127934273D01*
X160253109Y-127878804D01*
X160420000Y-127860000D01*
X160586891Y-127878804D01*
G37*
G36*
X163126891Y-127878804D02*
G01*
X163285413Y-127934273D01*
X163427617Y-128023626D01*
X163546374Y-128142383D01*
X163635727Y-128284587D01*
X163691196Y-128443109D01*
X163710000Y-128610000D01*
X163691196Y-128776891D01*
X163635727Y-128935413D01*
X163546374Y-129077617D01*
X163427617Y-129196374D01*
X163285413Y-129285727D01*
X163126891Y-129341196D01*
X162960000Y-129360000D01*
X162793109Y-129341196D01*
X162634587Y-129285727D01*
X162492383Y-129196374D01*
X162373626Y-129077617D01*
X162284273Y-128935413D01*
X162228804Y-128776891D01*
X162210000Y-128610000D01*
X162228804Y-128443109D01*
X162284273Y-128284587D01*
X162373626Y-128142383D01*
X162492383Y-128023626D01*
X162634587Y-127934273D01*
X162793109Y-127878804D01*
X162960000Y-127860000D01*
X163126891Y-127878804D01*
G37*
G36*
X176935046Y-122384816D02*
G01*
X176991463Y-122384816D01*
X177053643Y-122395192D01*
X177114425Y-122400510D01*
X177162160Y-122413300D01*
X177211356Y-122421510D01*
X177277346Y-122444164D01*
X177341727Y-122461415D01*
X177381163Y-122479804D01*
X177422205Y-122493894D01*
X177489643Y-122530389D01*
X177555000Y-122560866D01*
X177585765Y-122582407D01*
X177618267Y-122599997D01*
X177684427Y-122651492D01*
X177747763Y-122695840D01*
X177770086Y-122718163D01*
X177794190Y-122736924D01*
X177856107Y-122804184D01*
X177914160Y-122862237D01*
X177928813Y-122883164D01*
X177945178Y-122900941D01*
X177999776Y-122984510D01*
X178049134Y-123055000D01*
X178057372Y-123072666D01*
X178067109Y-123087570D01*
X178111298Y-123188312D01*
X178148585Y-123268273D01*
X178152057Y-123281234D01*
X178156657Y-123291719D01*
X178187460Y-123413359D01*
X178209490Y-123495575D01*
X178210128Y-123502873D01*
X178211384Y-123507831D01*
X178226103Y-123685467D01*
X178230000Y-123730000D01*
X178226103Y-123774536D01*
X178211384Y-123952168D01*
X178210128Y-123957125D01*
X178209490Y-123964425D01*
X178187455Y-124046657D01*
X178156657Y-124168280D01*
X178152058Y-124178763D01*
X178148585Y-124191727D01*
X178111291Y-124271703D01*
X178067109Y-124372429D01*
X178057373Y-124387330D01*
X178049134Y-124405000D01*
X177999767Y-124475503D01*
X177945178Y-124559058D01*
X177928816Y-124576831D01*
X177914160Y-124597763D01*
X177856096Y-124655826D01*
X177794190Y-124723075D01*
X177770090Y-124741832D01*
X177747763Y-124764160D01*
X177684414Y-124808516D01*
X177618267Y-124860002D01*
X177585771Y-124877587D01*
X177555000Y-124899134D01*
X177489629Y-124929616D01*
X177422205Y-124966105D01*
X177381171Y-124980191D01*
X177341727Y-124998585D01*
X177277333Y-125015839D01*
X177211356Y-125038489D01*
X177162168Y-125046697D01*
X177114425Y-125059490D01*
X177053639Y-125064808D01*
X176991463Y-125075184D01*
X176935046Y-125075184D01*
X176880000Y-125080000D01*
X176824954Y-125075184D01*
X176768537Y-125075184D01*
X176706359Y-125064808D01*
X176645575Y-125059490D01*
X176597832Y-125046697D01*
X176548643Y-125038489D01*
X176482662Y-125015837D01*
X176418273Y-124998585D01*
X176378831Y-124980193D01*
X176337794Y-124966105D01*
X176270362Y-124929613D01*
X176205000Y-124899134D01*
X176174232Y-124877590D01*
X176141732Y-124860002D01*
X176075575Y-124808509D01*
X176012237Y-124764160D01*
X175989912Y-124741835D01*
X175965809Y-124723075D01*
X175903891Y-124655814D01*
X175845840Y-124597763D01*
X175831186Y-124576835D01*
X175814821Y-124559058D01*
X175760217Y-124475482D01*
X175710866Y-124405000D01*
X175702628Y-124387335D01*
X175692890Y-124372429D01*
X175648692Y-124271667D01*
X175611415Y-124191727D01*
X175607942Y-124178769D01*
X175603342Y-124168280D01*
X175572525Y-124046589D01*
X175550510Y-123964425D01*
X175549871Y-123957131D01*
X175548615Y-123952168D01*
X175533877Y-123774320D01*
X175530000Y-123730000D01*
X175533877Y-123685683D01*
X175548615Y-123507831D01*
X175549871Y-123502867D01*
X175550510Y-123495575D01*
X175572521Y-123413427D01*
X175603342Y-123291719D01*
X175607943Y-123281228D01*
X175611415Y-123268273D01*
X175648684Y-123188348D01*
X175692890Y-123087570D01*
X175702630Y-123072661D01*
X175710866Y-123055000D01*
X175760208Y-122984531D01*
X175814821Y-122900941D01*
X175831189Y-122883159D01*
X175845840Y-122862237D01*
X175903879Y-122804197D01*
X175965809Y-122736924D01*
X175989917Y-122718159D01*
X176012237Y-122695840D01*
X176075562Y-122651499D01*
X176141732Y-122599997D01*
X176174238Y-122582405D01*
X176205000Y-122560866D01*
X176270349Y-122530392D01*
X176337794Y-122493894D01*
X176378839Y-122479803D01*
X176418273Y-122461415D01*
X176482648Y-122444165D01*
X176548643Y-122421510D01*
X176597840Y-122413300D01*
X176645575Y-122400510D01*
X176706355Y-122395192D01*
X176768537Y-122384816D01*
X176824954Y-122384816D01*
X176880000Y-122380000D01*
X176935046Y-122384816D01*
G37*
G36*
X118155046Y-122364816D02*
G01*
X118211463Y-122364816D01*
X118273643Y-122375192D01*
X118334425Y-122380510D01*
X118382160Y-122393300D01*
X118431356Y-122401510D01*
X118497346Y-122424164D01*
X118561727Y-122441415D01*
X118601163Y-122459804D01*
X118642205Y-122473894D01*
X118709643Y-122510389D01*
X118775000Y-122540866D01*
X118805765Y-122562407D01*
X118838267Y-122579997D01*
X118904427Y-122631492D01*
X118967763Y-122675840D01*
X118990086Y-122698163D01*
X119014190Y-122716924D01*
X119076107Y-122784184D01*
X119134160Y-122842237D01*
X119148813Y-122863164D01*
X119165178Y-122880941D01*
X119219776Y-122964510D01*
X119269134Y-123035000D01*
X119277372Y-123052666D01*
X119287109Y-123067570D01*
X119331298Y-123168312D01*
X119368585Y-123248273D01*
X119372057Y-123261234D01*
X119376657Y-123271719D01*
X119407460Y-123393359D01*
X119429490Y-123475575D01*
X119430128Y-123482873D01*
X119431384Y-123487831D01*
X119446103Y-123665467D01*
X119450000Y-123710000D01*
X119446103Y-123754536D01*
X119431384Y-123932168D01*
X119430128Y-123937125D01*
X119429490Y-123944425D01*
X119407455Y-124026657D01*
X119376657Y-124148280D01*
X119372058Y-124158763D01*
X119368585Y-124171727D01*
X119331291Y-124251703D01*
X119287109Y-124352429D01*
X119277373Y-124367330D01*
X119269134Y-124385000D01*
X119219767Y-124455503D01*
X119165178Y-124539058D01*
X119148816Y-124556831D01*
X119134160Y-124577763D01*
X119076096Y-124635826D01*
X119014190Y-124703075D01*
X118990090Y-124721832D01*
X118967763Y-124744160D01*
X118904414Y-124788516D01*
X118838267Y-124840002D01*
X118805771Y-124857587D01*
X118775000Y-124879134D01*
X118709629Y-124909616D01*
X118642205Y-124946105D01*
X118601171Y-124960191D01*
X118561727Y-124978585D01*
X118497333Y-124995839D01*
X118431356Y-125018489D01*
X118382168Y-125026697D01*
X118334425Y-125039490D01*
X118273639Y-125044808D01*
X118211463Y-125055184D01*
X118155046Y-125055184D01*
X118100000Y-125060000D01*
X118044954Y-125055184D01*
X117988537Y-125055184D01*
X117926359Y-125044808D01*
X117865575Y-125039490D01*
X117817832Y-125026697D01*
X117768643Y-125018489D01*
X117702662Y-124995837D01*
X117638273Y-124978585D01*
X117598831Y-124960193D01*
X117557794Y-124946105D01*
X117490362Y-124909613D01*
X117425000Y-124879134D01*
X117394232Y-124857590D01*
X117361732Y-124840002D01*
X117295575Y-124788509D01*
X117232237Y-124744160D01*
X117209912Y-124721835D01*
X117185809Y-124703075D01*
X117123891Y-124635814D01*
X117065840Y-124577763D01*
X117051186Y-124556835D01*
X117034821Y-124539058D01*
X116980217Y-124455482D01*
X116930866Y-124385000D01*
X116922628Y-124367335D01*
X116912890Y-124352429D01*
X116868692Y-124251667D01*
X116831415Y-124171727D01*
X116827942Y-124158769D01*
X116823342Y-124148280D01*
X116792525Y-124026589D01*
X116770510Y-123944425D01*
X116769871Y-123937131D01*
X116768615Y-123932168D01*
X116753877Y-123754320D01*
X116750000Y-123710000D01*
X116753877Y-123665683D01*
X116768615Y-123487831D01*
X116769871Y-123482867D01*
X116770510Y-123475575D01*
X116792521Y-123393427D01*
X116823342Y-123271719D01*
X116827943Y-123261228D01*
X116831415Y-123248273D01*
X116868684Y-123168348D01*
X116912890Y-123067570D01*
X116922630Y-123052661D01*
X116930866Y-123035000D01*
X116980208Y-122964531D01*
X117034821Y-122880941D01*
X117051189Y-122863159D01*
X117065840Y-122842237D01*
X117123879Y-122784197D01*
X117185809Y-122716924D01*
X117209917Y-122698159D01*
X117232237Y-122675840D01*
X117295562Y-122631499D01*
X117361732Y-122579997D01*
X117394238Y-122562405D01*
X117425000Y-122540866D01*
X117490349Y-122510392D01*
X117557794Y-122473894D01*
X117598839Y-122459803D01*
X117638273Y-122441415D01*
X117702648Y-122424165D01*
X117768643Y-122401510D01*
X117817840Y-122393300D01*
X117865575Y-122380510D01*
X117926355Y-122375192D01*
X117988537Y-122364816D01*
X118044954Y-122364816D01*
X118100000Y-122360000D01*
X118155046Y-122364816D01*
G37*
G36*
X166755090Y-114129215D02*
G01*
X166942683Y-114186120D01*
X167115570Y-114278530D01*
X167267107Y-114402893D01*
X167391470Y-114554430D01*
X167483880Y-114727317D01*
X167540785Y-114914910D01*
X167560000Y-115110000D01*
X167540785Y-115305090D01*
X167483880Y-115492683D01*
X167391470Y-115665570D01*
X167267107Y-115817107D01*
X167115570Y-115941470D01*
X166942683Y-116033880D01*
X166755090Y-116090785D01*
X166560000Y-116110000D01*
X166364910Y-116090785D01*
X166177317Y-116033880D01*
X166004430Y-115941470D01*
X165852893Y-115817107D01*
X165728530Y-115665570D01*
X165636120Y-115492683D01*
X165579215Y-115305090D01*
X165560000Y-115110000D01*
X165579215Y-114914910D01*
X165636120Y-114727317D01*
X165728530Y-114554430D01*
X165852893Y-114402893D01*
X166004430Y-114278530D01*
X166177317Y-114186120D01*
X166364910Y-114129215D01*
X166560000Y-114110000D01*
X166755090Y-114129215D01*
G37*
G36*
X169215090Y-114129215D02*
G01*
X169402683Y-114186120D01*
X169575570Y-114278530D01*
X169727107Y-114402893D01*
X169851470Y-114554430D01*
X169943880Y-114727317D01*
X170000785Y-114914910D01*
X170020000Y-115110000D01*
X170000785Y-115305090D01*
X169943880Y-115492683D01*
X169851470Y-115665570D01*
X169727107Y-115817107D01*
X169575570Y-115941470D01*
X169402683Y-116033880D01*
X169215090Y-116090785D01*
X169020000Y-116110000D01*
X168824910Y-116090785D01*
X168637317Y-116033880D01*
X168464430Y-115941470D01*
X168312893Y-115817107D01*
X168188530Y-115665570D01*
X168096120Y-115492683D01*
X168039215Y-115305090D01*
X168020000Y-115110000D01*
X168039215Y-114914910D01*
X168096120Y-114727317D01*
X168188530Y-114554430D01*
X168312893Y-114402893D01*
X168464430Y-114278530D01*
X168637317Y-114186120D01*
X168824910Y-114129215D01*
X169020000Y-114110000D01*
X169215090Y-114129215D01*
G37*
G36*
X171675090Y-114129215D02*
G01*
X171862683Y-114186120D01*
X172035570Y-114278530D01*
X172187107Y-114402893D01*
X172311470Y-114554430D01*
X172403880Y-114727317D01*
X172460785Y-114914910D01*
X172480000Y-115110000D01*
X172460785Y-115305090D01*
X172403880Y-115492683D01*
X172311470Y-115665570D01*
X172187107Y-115817107D01*
X172035570Y-115941470D01*
X171862683Y-116033880D01*
X171675090Y-116090785D01*
X171480000Y-116110000D01*
X171284910Y-116090785D01*
X171097317Y-116033880D01*
X170924430Y-115941470D01*
X170772893Y-115817107D01*
X170648530Y-115665570D01*
X170556120Y-115492683D01*
X170499215Y-115305090D01*
X170480000Y-115110000D01*
X170499215Y-114914910D01*
X170556120Y-114727317D01*
X170648530Y-114554430D01*
X170772893Y-114402893D01*
X170924430Y-114278530D01*
X171097317Y-114186120D01*
X171284910Y-114129215D01*
X171480000Y-114110000D01*
X171675090Y-114129215D01*
G37*
G36*
X174135090Y-114129215D02*
G01*
X174322683Y-114186120D01*
X174495570Y-114278530D01*
X174647107Y-114402893D01*
X174771470Y-114554430D01*
X174863880Y-114727317D01*
X174920785Y-114914910D01*
X174940000Y-115110000D01*
X174920785Y-115305090D01*
X174863880Y-115492683D01*
X174771470Y-115665570D01*
X174647107Y-115817107D01*
X174495570Y-115941470D01*
X174322683Y-116033880D01*
X174135090Y-116090785D01*
X173940000Y-116110000D01*
X173744910Y-116090785D01*
X173557317Y-116033880D01*
X173384430Y-115941470D01*
X173232893Y-115817107D01*
X173108530Y-115665570D01*
X173016120Y-115492683D01*
X172959215Y-115305090D01*
X172940000Y-115110000D01*
X172959215Y-114914910D01*
X173016120Y-114727317D01*
X173108530Y-114554430D01*
X173232893Y-114402893D01*
X173384430Y-114278530D01*
X173557317Y-114186120D01*
X173744910Y-114129215D01*
X173940000Y-114110000D01*
X174135090Y-114129215D01*
G37*
G36*
X135346891Y-112678804D02*
G01*
X135505413Y-112734273D01*
X135647617Y-112823626D01*
X135766374Y-112942383D01*
X135855727Y-113084587D01*
X135911196Y-113243109D01*
X135930000Y-113410000D01*
X135911196Y-113576891D01*
X135855727Y-113735413D01*
X135766374Y-113877617D01*
X135647617Y-113996374D01*
X135505413Y-114085727D01*
X135346891Y-114141196D01*
X135180000Y-114160000D01*
X135013109Y-114141196D01*
X134854587Y-114085727D01*
X134712383Y-113996374D01*
X134593626Y-113877617D01*
X134504273Y-113735413D01*
X134448804Y-113576891D01*
X134430000Y-113410000D01*
X134448804Y-113243109D01*
X134504273Y-113084587D01*
X134593626Y-112942383D01*
X134712383Y-112823626D01*
X134854587Y-112734273D01*
X135013109Y-112678804D01*
X135180000Y-112660000D01*
X135346891Y-112678804D01*
G37*
G36*
X137886891Y-112678804D02*
G01*
X138045413Y-112734273D01*
X138187617Y-112823626D01*
X138306374Y-112942383D01*
X138395727Y-113084587D01*
X138451196Y-113243109D01*
X138470000Y-113410000D01*
X138451196Y-113576891D01*
X138395727Y-113735413D01*
X138306374Y-113877617D01*
X138187617Y-113996374D01*
X138045413Y-114085727D01*
X137886891Y-114141196D01*
X137720000Y-114160000D01*
X137553109Y-114141196D01*
X137394587Y-114085727D01*
X137252383Y-113996374D01*
X137133626Y-113877617D01*
X137044273Y-113735413D01*
X136988804Y-113576891D01*
X136970000Y-113410000D01*
X136988804Y-113243109D01*
X137044273Y-113084587D01*
X137133626Y-112942383D01*
X137252383Y-112823626D01*
X137394587Y-112734273D01*
X137553109Y-112678804D01*
X137720000Y-112660000D01*
X137886891Y-112678804D01*
G37*
G36*
X140426891Y-112678804D02*
G01*
X140585413Y-112734273D01*
X140727617Y-112823626D01*
X140846374Y-112942383D01*
X140935727Y-113084587D01*
X140991196Y-113243109D01*
X141010000Y-113410000D01*
X140991196Y-113576891D01*
X140935727Y-113735413D01*
X140846374Y-113877617D01*
X140727617Y-113996374D01*
X140585413Y-114085727D01*
X140426891Y-114141196D01*
X140260000Y-114160000D01*
X140093109Y-114141196D01*
X139934587Y-114085727D01*
X139792383Y-113996374D01*
X139673626Y-113877617D01*
X139584273Y-113735413D01*
X139528804Y-113576891D01*
X139510000Y-113410000D01*
X139528804Y-113243109D01*
X139584273Y-113084587D01*
X139673626Y-112942383D01*
X139792383Y-112823626D01*
X139934587Y-112734273D01*
X140093109Y-112678804D01*
X140260000Y-112660000D01*
X140426891Y-112678804D01*
G37*
G36*
X142966891Y-112678804D02*
G01*
X143125413Y-112734273D01*
X143267617Y-112823626D01*
X143386374Y-112942383D01*
X143475727Y-113084587D01*
X143531196Y-113243109D01*
X143550000Y-113410000D01*
X143531196Y-113576891D01*
X143475727Y-113735413D01*
X143386374Y-113877617D01*
X143267617Y-113996374D01*
X143125413Y-114085727D01*
X142966891Y-114141196D01*
X142800000Y-114160000D01*
X142633109Y-114141196D01*
X142474587Y-114085727D01*
X142332383Y-113996374D01*
X142213626Y-113877617D01*
X142124273Y-113735413D01*
X142068804Y-113576891D01*
X142050000Y-113410000D01*
X142068804Y-113243109D01*
X142124273Y-113084587D01*
X142213626Y-112942383D01*
X142332383Y-112823626D01*
X142474587Y-112734273D01*
X142633109Y-112678804D01*
X142800000Y-112660000D01*
X142966891Y-112678804D01*
G37*
G36*
X145506891Y-112678804D02*
G01*
X145665413Y-112734273D01*
X145807617Y-112823626D01*
X145926374Y-112942383D01*
X146015727Y-113084587D01*
X146071196Y-113243109D01*
X146090000Y-113410000D01*
X146071196Y-113576891D01*
X146015727Y-113735413D01*
X145926374Y-113877617D01*
X145807617Y-113996374D01*
X145665413Y-114085727D01*
X145506891Y-114141196D01*
X145340000Y-114160000D01*
X145173109Y-114141196D01*
X145014587Y-114085727D01*
X144872383Y-113996374D01*
X144753626Y-113877617D01*
X144664273Y-113735413D01*
X144608804Y-113576891D01*
X144590000Y-113410000D01*
X144608804Y-113243109D01*
X144664273Y-113084587D01*
X144753626Y-112942383D01*
X144872383Y-112823626D01*
X145014587Y-112734273D01*
X145173109Y-112678804D01*
X145340000Y-112660000D01*
X145506891Y-112678804D01*
G37*
G36*
X148046891Y-112678804D02*
G01*
X148205413Y-112734273D01*
X148347617Y-112823626D01*
X148466374Y-112942383D01*
X148555727Y-113084587D01*
X148611196Y-113243109D01*
X148630000Y-113410000D01*
X148611196Y-113576891D01*
X148555727Y-113735413D01*
X148466374Y-113877617D01*
X148347617Y-113996374D01*
X148205413Y-114085727D01*
X148046891Y-114141196D01*
X147880000Y-114160000D01*
X147713109Y-114141196D01*
X147554587Y-114085727D01*
X147412383Y-113996374D01*
X147293626Y-113877617D01*
X147204273Y-113735413D01*
X147148804Y-113576891D01*
X147130000Y-113410000D01*
X147148804Y-113243109D01*
X147204273Y-113084587D01*
X147293626Y-112942383D01*
X147412383Y-112823626D01*
X147554587Y-112734273D01*
X147713109Y-112678804D01*
X147880000Y-112660000D01*
X148046891Y-112678804D01*
G37*
G36*
X150586891Y-112678804D02*
G01*
X150745413Y-112734273D01*
X150887617Y-112823626D01*
X151006374Y-112942383D01*
X151095727Y-113084587D01*
X151151196Y-113243109D01*
X151170000Y-113410000D01*
X151151196Y-113576891D01*
X151095727Y-113735413D01*
X151006374Y-113877617D01*
X150887617Y-113996374D01*
X150745413Y-114085727D01*
X150586891Y-114141196D01*
X150420000Y-114160000D01*
X150253109Y-114141196D01*
X150094587Y-114085727D01*
X149952383Y-113996374D01*
X149833626Y-113877617D01*
X149744273Y-113735413D01*
X149688804Y-113576891D01*
X149670000Y-113410000D01*
X149688804Y-113243109D01*
X149744273Y-113084587D01*
X149833626Y-112942383D01*
X149952383Y-112823626D01*
X150094587Y-112734273D01*
X150253109Y-112678804D01*
X150420000Y-112660000D01*
X150586891Y-112678804D01*
G37*
G36*
X153126891Y-112678804D02*
G01*
X153285413Y-112734273D01*
X153427617Y-112823626D01*
X153546374Y-112942383D01*
X153635727Y-113084587D01*
X153691196Y-113243109D01*
X153710000Y-113410000D01*
X153691196Y-113576891D01*
X153635727Y-113735413D01*
X153546374Y-113877617D01*
X153427617Y-113996374D01*
X153285413Y-114085727D01*
X153126891Y-114141196D01*
X152960000Y-114160000D01*
X152793109Y-114141196D01*
X152634587Y-114085727D01*
X152492383Y-113996374D01*
X152373626Y-113877617D01*
X152284273Y-113735413D01*
X152228804Y-113576891D01*
X152210000Y-113410000D01*
X152228804Y-113243109D01*
X152284273Y-113084587D01*
X152373626Y-112942383D01*
X152492383Y-112823626D01*
X152634587Y-112734273D01*
X152793109Y-112678804D01*
X152960000Y-112660000D01*
X153126891Y-112678804D01*
G37*
G36*
X155666891Y-112678804D02*
G01*
X155825413Y-112734273D01*
X155967617Y-112823626D01*
X156086374Y-112942383D01*
X156175727Y-113084587D01*
X156231196Y-113243109D01*
X156250000Y-113410000D01*
X156231196Y-113576891D01*
X156175727Y-113735413D01*
X156086374Y-113877617D01*
X155967617Y-113996374D01*
X155825413Y-114085727D01*
X155666891Y-114141196D01*
X155500000Y-114160000D01*
X155333109Y-114141196D01*
X155174587Y-114085727D01*
X155032383Y-113996374D01*
X154913626Y-113877617D01*
X154824273Y-113735413D01*
X154768804Y-113576891D01*
X154750000Y-113410000D01*
X154768804Y-113243109D01*
X154824273Y-113084587D01*
X154913626Y-112942383D01*
X155032383Y-112823626D01*
X155174587Y-112734273D01*
X155333109Y-112678804D01*
X155500000Y-112660000D01*
X155666891Y-112678804D01*
G37*
G36*
X158206891Y-112678804D02*
G01*
X158365413Y-112734273D01*
X158507617Y-112823626D01*
X158626374Y-112942383D01*
X158715727Y-113084587D01*
X158771196Y-113243109D01*
X158790000Y-113410000D01*
X158771196Y-113576891D01*
X158715727Y-113735413D01*
X158626374Y-113877617D01*
X158507617Y-113996374D01*
X158365413Y-114085727D01*
X158206891Y-114141196D01*
X158040000Y-114160000D01*
X157873109Y-114141196D01*
X157714587Y-114085727D01*
X157572383Y-113996374D01*
X157453626Y-113877617D01*
X157364273Y-113735413D01*
X157308804Y-113576891D01*
X157290000Y-113410000D01*
X157308804Y-113243109D01*
X157364273Y-113084587D01*
X157453626Y-112942383D01*
X157572383Y-112823626D01*
X157714587Y-112734273D01*
X157873109Y-112678804D01*
X158040000Y-112660000D01*
X158206891Y-112678804D01*
G37*
G36*
X160746891Y-112678804D02*
G01*
X160905413Y-112734273D01*
X161047617Y-112823626D01*
X161166374Y-112942383D01*
X161255727Y-113084587D01*
X161311196Y-113243109D01*
X161330000Y-113410000D01*
X161311196Y-113576891D01*
X161255727Y-113735413D01*
X161166374Y-113877617D01*
X161047617Y-113996374D01*
X160905413Y-114085727D01*
X160746891Y-114141196D01*
X160580000Y-114160000D01*
X160413109Y-114141196D01*
X160254587Y-114085727D01*
X160112383Y-113996374D01*
X159993626Y-113877617D01*
X159904273Y-113735413D01*
X159848804Y-113576891D01*
X159830000Y-113410000D01*
X159848804Y-113243109D01*
X159904273Y-113084587D01*
X159993626Y-112942383D01*
X160112383Y-112823626D01*
X160254587Y-112734273D01*
X160413109Y-112678804D01*
X160580000Y-112660000D01*
X160746891Y-112678804D01*
G37*
G36*
X163286891Y-112678804D02*
G01*
X163445413Y-112734273D01*
X163587617Y-112823626D01*
X163706374Y-112942383D01*
X163795727Y-113084587D01*
X163851196Y-113243109D01*
X163870000Y-113410000D01*
X163851196Y-113576891D01*
X163795727Y-113735413D01*
X163706374Y-113877617D01*
X163587617Y-113996374D01*
X163445413Y-114085727D01*
X163286891Y-114141196D01*
X163120000Y-114160000D01*
X162953109Y-114141196D01*
X162794587Y-114085727D01*
X162652383Y-113996374D01*
X162533626Y-113877617D01*
X162444273Y-113735413D01*
X162388804Y-113576891D01*
X162370000Y-113410000D01*
X162388804Y-113243109D01*
X162444273Y-113084587D01*
X162533626Y-112942383D01*
X162652383Y-112823626D01*
X162794587Y-112734273D01*
X162953109Y-112678804D01*
X163120000Y-112660000D01*
X163286891Y-112678804D01*
G37*
G36*
X166735090Y-111669215D02*
G01*
X166922683Y-111726120D01*
X167095570Y-111818530D01*
X167247107Y-111942893D01*
X167371470Y-112094430D01*
X167463880Y-112267317D01*
X167520785Y-112454910D01*
X167540000Y-112650000D01*
X167520785Y-112845090D01*
X167463880Y-113032683D01*
X167371470Y-113205570D01*
X167247107Y-113357107D01*
X167095570Y-113481470D01*
X166922683Y-113573880D01*
X166735090Y-113630785D01*
X166540000Y-113650000D01*
X166344910Y-113630785D01*
X166157317Y-113573880D01*
X165984430Y-113481470D01*
X165832893Y-113357107D01*
X165708530Y-113205570D01*
X165616120Y-113032683D01*
X165559215Y-112845090D01*
X165540000Y-112650000D01*
X165559215Y-112454910D01*
X165616120Y-112267317D01*
X165708530Y-112094430D01*
X165832893Y-111942893D01*
X165984430Y-111818530D01*
X166157317Y-111726120D01*
X166344910Y-111669215D01*
X166540000Y-111650000D01*
X166735090Y-111669215D01*
G37*
G36*
X169195090Y-111669215D02*
G01*
X169382683Y-111726120D01*
X169555570Y-111818530D01*
X169707107Y-111942893D01*
X169831470Y-112094430D01*
X169923880Y-112267317D01*
X169980785Y-112454910D01*
X170000000Y-112650000D01*
X169980785Y-112845090D01*
X169923880Y-113032683D01*
X169831470Y-113205570D01*
X169707107Y-113357107D01*
X169555570Y-113481470D01*
X169382683Y-113573880D01*
X169195090Y-113630785D01*
X169000000Y-113650000D01*
X168804910Y-113630785D01*
X168617317Y-113573880D01*
X168444430Y-113481470D01*
X168292893Y-113357107D01*
X168168530Y-113205570D01*
X168076120Y-113032683D01*
X168019215Y-112845090D01*
X168000000Y-112650000D01*
X168019215Y-112454910D01*
X168076120Y-112267317D01*
X168168530Y-112094430D01*
X168292893Y-111942893D01*
X168444430Y-111818530D01*
X168617317Y-111726120D01*
X168804910Y-111669215D01*
X169000000Y-111650000D01*
X169195090Y-111669215D01*
G37*
G36*
X171655090Y-111669215D02*
G01*
X171842683Y-111726120D01*
X172015570Y-111818530D01*
X172167107Y-111942893D01*
X172291470Y-112094430D01*
X172383880Y-112267317D01*
X172440785Y-112454910D01*
X172460000Y-112650000D01*
X172440785Y-112845090D01*
X172383880Y-113032683D01*
X172291470Y-113205570D01*
X172167107Y-113357107D01*
X172015570Y-113481470D01*
X171842683Y-113573880D01*
X171655090Y-113630785D01*
X171460000Y-113650000D01*
X171264910Y-113630785D01*
X171077317Y-113573880D01*
X170904430Y-113481470D01*
X170752893Y-113357107D01*
X170628530Y-113205570D01*
X170536120Y-113032683D01*
X170479215Y-112845090D01*
X170460000Y-112650000D01*
X170479215Y-112454910D01*
X170536120Y-112267317D01*
X170628530Y-112094430D01*
X170752893Y-111942893D01*
X170904430Y-111818530D01*
X171077317Y-111726120D01*
X171264910Y-111669215D01*
X171460000Y-111650000D01*
X171655090Y-111669215D01*
G37*
G36*
X174115090Y-111669215D02*
G01*
X174302683Y-111726120D01*
X174475570Y-111818530D01*
X174627107Y-111942893D01*
X174751470Y-112094430D01*
X174843880Y-112267317D01*
X174900785Y-112454910D01*
X174920000Y-112650000D01*
X174900785Y-112845090D01*
X174843880Y-113032683D01*
X174751470Y-113205570D01*
X174627107Y-113357107D01*
X174475570Y-113481470D01*
X174302683Y-113573880D01*
X174115090Y-113630785D01*
X173920000Y-113650000D01*
X173724910Y-113630785D01*
X173537317Y-113573880D01*
X173364430Y-113481470D01*
X173212893Y-113357107D01*
X173088530Y-113205570D01*
X172996120Y-113032683D01*
X172939215Y-112845090D01*
X172920000Y-112650000D01*
X172939215Y-112454910D01*
X172996120Y-112267317D01*
X173088530Y-112094430D01*
X173212893Y-111942893D01*
X173364430Y-111818530D01*
X173537317Y-111726120D01*
X173724910Y-111669215D01*
X173920000Y-111650000D01*
X174115090Y-111669215D01*
G37*
G36*
X139930090Y-105179215D02*
G01*
X140117683Y-105236120D01*
X140290570Y-105328530D01*
X140442107Y-105452893D01*
X140566470Y-105604430D01*
X140658880Y-105777317D01*
X140715785Y-105964910D01*
X140735000Y-106160000D01*
X140715785Y-106355090D01*
X140658880Y-106542683D01*
X140566470Y-106715570D01*
X140442107Y-106867107D01*
X140290570Y-106991470D01*
X140117683Y-107083880D01*
X139930090Y-107140785D01*
X139735000Y-107160000D01*
X139539910Y-107140785D01*
X139352317Y-107083880D01*
X139179430Y-106991470D01*
X139027893Y-106867107D01*
X138903530Y-106715570D01*
X138811120Y-106542683D01*
X138754215Y-106355090D01*
X138735000Y-106160000D01*
X138754215Y-105964910D01*
X138811120Y-105777317D01*
X138903530Y-105604430D01*
X139027893Y-105452893D01*
X139179430Y-105328530D01*
X139352317Y-105236120D01*
X139539910Y-105179215D01*
X139735000Y-105160000D01*
X139930090Y-105179215D01*
G37*
G36*
X142470090Y-105179215D02*
G01*
X142657683Y-105236120D01*
X142830570Y-105328530D01*
X142982107Y-105452893D01*
X143106470Y-105604430D01*
X143198880Y-105777317D01*
X143255785Y-105964910D01*
X143275000Y-106160000D01*
X143255785Y-106355090D01*
X143198880Y-106542683D01*
X143106470Y-106715570D01*
X142982107Y-106867107D01*
X142830570Y-106991470D01*
X142657683Y-107083880D01*
X142470090Y-107140785D01*
X142275000Y-107160000D01*
X142079910Y-107140785D01*
X141892317Y-107083880D01*
X141719430Y-106991470D01*
X141567893Y-106867107D01*
X141443530Y-106715570D01*
X141351120Y-106542683D01*
X141294215Y-106355090D01*
X141275000Y-106160000D01*
X141294215Y-105964910D01*
X141351120Y-105777317D01*
X141443530Y-105604430D01*
X141567893Y-105452893D01*
X141719430Y-105328530D01*
X141892317Y-105236120D01*
X142079910Y-105179215D01*
X142275000Y-105160000D01*
X142470090Y-105179215D01*
G37*
G36*
X145010090Y-105179215D02*
G01*
X145197683Y-105236120D01*
X145370570Y-105328530D01*
X145522107Y-105452893D01*
X145646470Y-105604430D01*
X145738880Y-105777317D01*
X145795785Y-105964910D01*
X145815000Y-106160000D01*
X145795785Y-106355090D01*
X145738880Y-106542683D01*
X145646470Y-106715570D01*
X145522107Y-106867107D01*
X145370570Y-106991470D01*
X145197683Y-107083880D01*
X145010090Y-107140785D01*
X144815000Y-107160000D01*
X144619910Y-107140785D01*
X144432317Y-107083880D01*
X144259430Y-106991470D01*
X144107893Y-106867107D01*
X143983530Y-106715570D01*
X143891120Y-106542683D01*
X143834215Y-106355090D01*
X143815000Y-106160000D01*
X143834215Y-105964910D01*
X143891120Y-105777317D01*
X143983530Y-105604430D01*
X144107893Y-105452893D01*
X144259430Y-105328530D01*
X144432317Y-105236120D01*
X144619910Y-105179215D01*
X144815000Y-105160000D01*
X145010090Y-105179215D01*
G37*
G36*
X147550090Y-105179215D02*
G01*
X147737683Y-105236120D01*
X147910570Y-105328530D01*
X148062107Y-105452893D01*
X148186470Y-105604430D01*
X148278880Y-105777317D01*
X148335785Y-105964910D01*
X148355000Y-106160000D01*
X148335785Y-106355090D01*
X148278880Y-106542683D01*
X148186470Y-106715570D01*
X148062107Y-106867107D01*
X147910570Y-106991470D01*
X147737683Y-107083880D01*
X147550090Y-107140785D01*
X147355000Y-107160000D01*
X147159910Y-107140785D01*
X146972317Y-107083880D01*
X146799430Y-106991470D01*
X146647893Y-106867107D01*
X146523530Y-106715570D01*
X146431120Y-106542683D01*
X146374215Y-106355090D01*
X146355000Y-106160000D01*
X146374215Y-105964910D01*
X146431120Y-105777317D01*
X146523530Y-105604430D01*
X146647893Y-105452893D01*
X146799430Y-105328530D01*
X146972317Y-105236120D01*
X147159910Y-105179215D01*
X147355000Y-105160000D01*
X147550090Y-105179215D01*
G37*
G36*
X150090090Y-105179215D02*
G01*
X150277683Y-105236120D01*
X150450570Y-105328530D01*
X150602107Y-105452893D01*
X150726470Y-105604430D01*
X150818880Y-105777317D01*
X150875785Y-105964910D01*
X150895000Y-106160000D01*
X150875785Y-106355090D01*
X150818880Y-106542683D01*
X150726470Y-106715570D01*
X150602107Y-106867107D01*
X150450570Y-106991470D01*
X150277683Y-107083880D01*
X150090090Y-107140785D01*
X149895000Y-107160000D01*
X149699910Y-107140785D01*
X149512317Y-107083880D01*
X149339430Y-106991470D01*
X149187893Y-106867107D01*
X149063530Y-106715570D01*
X148971120Y-106542683D01*
X148914215Y-106355090D01*
X148895000Y-106160000D01*
X148914215Y-105964910D01*
X148971120Y-105777317D01*
X149063530Y-105604430D01*
X149187893Y-105452893D01*
X149339430Y-105328530D01*
X149512317Y-105236120D01*
X149699910Y-105179215D01*
X149895000Y-105160000D01*
X150090090Y-105179215D01*
G37*
G36*
X152630090Y-105179215D02*
G01*
X152817683Y-105236120D01*
X152990570Y-105328530D01*
X153142107Y-105452893D01*
X153266470Y-105604430D01*
X153358880Y-105777317D01*
X153415785Y-105964910D01*
X153435000Y-106160000D01*
X153415785Y-106355090D01*
X153358880Y-106542683D01*
X153266470Y-106715570D01*
X153142107Y-106867107D01*
X152990570Y-106991470D01*
X152817683Y-107083880D01*
X152630090Y-107140785D01*
X152435000Y-107160000D01*
X152239910Y-107140785D01*
X152052317Y-107083880D01*
X151879430Y-106991470D01*
X151727893Y-106867107D01*
X151603530Y-106715570D01*
X151511120Y-106542683D01*
X151454215Y-106355090D01*
X151435000Y-106160000D01*
X151454215Y-105964910D01*
X151511120Y-105777317D01*
X151603530Y-105604430D01*
X151727893Y-105452893D01*
X151879430Y-105328530D01*
X152052317Y-105236120D01*
X152239910Y-105179215D01*
X152435000Y-105160000D01*
X152630090Y-105179215D01*
G37*
G36*
X155170090Y-105179215D02*
G01*
X155357683Y-105236120D01*
X155530570Y-105328530D01*
X155682107Y-105452893D01*
X155806470Y-105604430D01*
X155898880Y-105777317D01*
X155955785Y-105964910D01*
X155975000Y-106160000D01*
X155955785Y-106355090D01*
X155898880Y-106542683D01*
X155806470Y-106715570D01*
X155682107Y-106867107D01*
X155530570Y-106991470D01*
X155357683Y-107083880D01*
X155170090Y-107140785D01*
X154975000Y-107160000D01*
X154779910Y-107140785D01*
X154592317Y-107083880D01*
X154419430Y-106991470D01*
X154267893Y-106867107D01*
X154143530Y-106715570D01*
X154051120Y-106542683D01*
X153994215Y-106355090D01*
X153975000Y-106160000D01*
X153994215Y-105964910D01*
X154051120Y-105777317D01*
X154143530Y-105604430D01*
X154267893Y-105452893D01*
X154419430Y-105328530D01*
X154592317Y-105236120D01*
X154779910Y-105179215D01*
X154975000Y-105160000D01*
X155170090Y-105179215D01*
G37*
G36*
X157710090Y-105179215D02*
G01*
X157897683Y-105236120D01*
X158070570Y-105328530D01*
X158222107Y-105452893D01*
X158346470Y-105604430D01*
X158438880Y-105777317D01*
X158495785Y-105964910D01*
X158515000Y-106160000D01*
X158495785Y-106355090D01*
X158438880Y-106542683D01*
X158346470Y-106715570D01*
X158222107Y-106867107D01*
X158070570Y-106991470D01*
X157897683Y-107083880D01*
X157710090Y-107140785D01*
X157515000Y-107160000D01*
X157319910Y-107140785D01*
X157132317Y-107083880D01*
X156959430Y-106991470D01*
X156807893Y-106867107D01*
X156683530Y-106715570D01*
X156591120Y-106542683D01*
X156534215Y-106355090D01*
X156515000Y-106160000D01*
X156534215Y-105964910D01*
X156591120Y-105777317D01*
X156683530Y-105604430D01*
X156807893Y-105452893D01*
X156959430Y-105328530D01*
X157132317Y-105236120D01*
X157319910Y-105179215D01*
X157515000Y-105160000D01*
X157710090Y-105179215D01*
G37*
G36*
X121815090Y-91989215D02*
G01*
X122002683Y-92046120D01*
X122175570Y-92138530D01*
X122327107Y-92262893D01*
X122451470Y-92414430D01*
X122543880Y-92587317D01*
X122600785Y-92774910D01*
X122620000Y-92970000D01*
X122600785Y-93165090D01*
X122543880Y-93352683D01*
X122451470Y-93525570D01*
X122327107Y-93677107D01*
X122175570Y-93801470D01*
X122002683Y-93893880D01*
X121815090Y-93950785D01*
X121620000Y-93970000D01*
X121424910Y-93950785D01*
X121237317Y-93893880D01*
X121064430Y-93801470D01*
X120912893Y-93677107D01*
X120788530Y-93525570D01*
X120696120Y-93352683D01*
X120639215Y-93165090D01*
X120620000Y-92970000D01*
X120639215Y-92774910D01*
X120696120Y-92587317D01*
X120788530Y-92414430D01*
X120912893Y-92262893D01*
X121064430Y-92138530D01*
X121237317Y-92046120D01*
X121424910Y-91989215D01*
X121620000Y-91970000D01*
X121815090Y-91989215D01*
G37*
G36*
X124275090Y-91989215D02*
G01*
X124462683Y-92046120D01*
X124635570Y-92138530D01*
X124787107Y-92262893D01*
X124911470Y-92414430D01*
X125003880Y-92587317D01*
X125060785Y-92774910D01*
X125080000Y-92970000D01*
X125060785Y-93165090D01*
X125003880Y-93352683D01*
X124911470Y-93525570D01*
X124787107Y-93677107D01*
X124635570Y-93801470D01*
X124462683Y-93893880D01*
X124275090Y-93950785D01*
X124080000Y-93970000D01*
X123884910Y-93950785D01*
X123697317Y-93893880D01*
X123524430Y-93801470D01*
X123372893Y-93677107D01*
X123248530Y-93525570D01*
X123156120Y-93352683D01*
X123099215Y-93165090D01*
X123080000Y-92970000D01*
X123099215Y-92774910D01*
X123156120Y-92587317D01*
X123248530Y-92414430D01*
X123372893Y-92262893D01*
X123524430Y-92138530D01*
X123697317Y-92046120D01*
X123884910Y-91989215D01*
X124080000Y-91970000D01*
X124275090Y-91989215D01*
G37*
G36*
X126735090Y-91989215D02*
G01*
X126922683Y-92046120D01*
X127095570Y-92138530D01*
X127247107Y-92262893D01*
X127371470Y-92414430D01*
X127463880Y-92587317D01*
X127520785Y-92774910D01*
X127540000Y-92970000D01*
X127520785Y-93165090D01*
X127463880Y-93352683D01*
X127371470Y-93525570D01*
X127247107Y-93677107D01*
X127095570Y-93801470D01*
X126922683Y-93893880D01*
X126735090Y-93950785D01*
X126540000Y-93970000D01*
X126344910Y-93950785D01*
X126157317Y-93893880D01*
X125984430Y-93801470D01*
X125832893Y-93677107D01*
X125708530Y-93525570D01*
X125616120Y-93352683D01*
X125559215Y-93165090D01*
X125540000Y-92970000D01*
X125559215Y-92774910D01*
X125616120Y-92587317D01*
X125708530Y-92414430D01*
X125832893Y-92262893D01*
X125984430Y-92138530D01*
X126157317Y-92046120D01*
X126344910Y-91989215D01*
X126540000Y-91970000D01*
X126735090Y-91989215D01*
G37*
G36*
X129195090Y-91989215D02*
G01*
X129382683Y-92046120D01*
X129555570Y-92138530D01*
X129707107Y-92262893D01*
X129831470Y-92414430D01*
X129923880Y-92587317D01*
X129980785Y-92774910D01*
X130000000Y-92970000D01*
X129980785Y-93165090D01*
X129923880Y-93352683D01*
X129831470Y-93525570D01*
X129707107Y-93677107D01*
X129555570Y-93801470D01*
X129382683Y-93893880D01*
X129195090Y-93950785D01*
X129000000Y-93970000D01*
X128804910Y-93950785D01*
X128617317Y-93893880D01*
X128444430Y-93801470D01*
X128292893Y-93677107D01*
X128168530Y-93525570D01*
X128076120Y-93352683D01*
X128019215Y-93165090D01*
X128000000Y-92970000D01*
X128019215Y-92774910D01*
X128076120Y-92587317D01*
X128168530Y-92414430D01*
X128292893Y-92262893D01*
X128444430Y-92138530D01*
X128617317Y-92046120D01*
X128804910Y-91989215D01*
X129000000Y-91970000D01*
X129195090Y-91989215D01*
G37*
G36*
X121795090Y-89529215D02*
G01*
X121982683Y-89586120D01*
X122155570Y-89678530D01*
X122307107Y-89802893D01*
X122431470Y-89954430D01*
X122523880Y-90127317D01*
X122580785Y-90314910D01*
X122600000Y-90510000D01*
X122580785Y-90705090D01*
X122523880Y-90892683D01*
X122431470Y-91065570D01*
X122307107Y-91217107D01*
X122155570Y-91341470D01*
X121982683Y-91433880D01*
X121795090Y-91490785D01*
X121600000Y-91510000D01*
X121404910Y-91490785D01*
X121217317Y-91433880D01*
X121044430Y-91341470D01*
X120892893Y-91217107D01*
X120768530Y-91065570D01*
X120676120Y-90892683D01*
X120619215Y-90705090D01*
X120600000Y-90510000D01*
X120619215Y-90314910D01*
X120676120Y-90127317D01*
X120768530Y-89954430D01*
X120892893Y-89802893D01*
X121044430Y-89678530D01*
X121217317Y-89586120D01*
X121404910Y-89529215D01*
X121600000Y-89510000D01*
X121795090Y-89529215D01*
G37*
G36*
X124255090Y-89529215D02*
G01*
X124442683Y-89586120D01*
X124615570Y-89678530D01*
X124767107Y-89802893D01*
X124891470Y-89954430D01*
X124983880Y-90127317D01*
X125040785Y-90314910D01*
X125060000Y-90510000D01*
X125040785Y-90705090D01*
X124983880Y-90892683D01*
X124891470Y-91065570D01*
X124767107Y-91217107D01*
X124615570Y-91341470D01*
X124442683Y-91433880D01*
X124255090Y-91490785D01*
X124060000Y-91510000D01*
X123864910Y-91490785D01*
X123677317Y-91433880D01*
X123504430Y-91341470D01*
X123352893Y-91217107D01*
X123228530Y-91065570D01*
X123136120Y-90892683D01*
X123079215Y-90705090D01*
X123060000Y-90510000D01*
X123079215Y-90314910D01*
X123136120Y-90127317D01*
X123228530Y-89954430D01*
X123352893Y-89802893D01*
X123504430Y-89678530D01*
X123677317Y-89586120D01*
X123864910Y-89529215D01*
X124060000Y-89510000D01*
X124255090Y-89529215D01*
G37*
G36*
X126715090Y-89529215D02*
G01*
X126902683Y-89586120D01*
X127075570Y-89678530D01*
X127227107Y-89802893D01*
X127351470Y-89954430D01*
X127443880Y-90127317D01*
X127500785Y-90314910D01*
X127520000Y-90510000D01*
X127500785Y-90705090D01*
X127443880Y-90892683D01*
X127351470Y-91065570D01*
X127227107Y-91217107D01*
X127075570Y-91341470D01*
X126902683Y-91433880D01*
X126715090Y-91490785D01*
X126520000Y-91510000D01*
X126324910Y-91490785D01*
X126137317Y-91433880D01*
X125964430Y-91341470D01*
X125812893Y-91217107D01*
X125688530Y-91065570D01*
X125596120Y-90892683D01*
X125539215Y-90705090D01*
X125520000Y-90510000D01*
X125539215Y-90314910D01*
X125596120Y-90127317D01*
X125688530Y-89954430D01*
X125812893Y-89802893D01*
X125964430Y-89678530D01*
X126137317Y-89586120D01*
X126324910Y-89529215D01*
X126520000Y-89510000D01*
X126715090Y-89529215D01*
G37*
G36*
X129175090Y-89529215D02*
G01*
X129362683Y-89586120D01*
X129535570Y-89678530D01*
X129687107Y-89802893D01*
X129811470Y-89954430D01*
X129903880Y-90127317D01*
X129960785Y-90314910D01*
X129980000Y-90510000D01*
X129960785Y-90705090D01*
X129903880Y-90892683D01*
X129811470Y-91065570D01*
X129687107Y-91217107D01*
X129535570Y-91341470D01*
X129362683Y-91433880D01*
X129175090Y-91490785D01*
X128980000Y-91510000D01*
X128784910Y-91490785D01*
X128597317Y-91433880D01*
X128424430Y-91341470D01*
X128272893Y-91217107D01*
X128148530Y-91065570D01*
X128056120Y-90892683D01*
X127999215Y-90705090D01*
X127980000Y-90510000D01*
X127999215Y-90314910D01*
X128056120Y-90127317D01*
X128148530Y-89954430D01*
X128272893Y-89802893D01*
X128424430Y-89678530D01*
X128597317Y-89586120D01*
X128784910Y-89529215D01*
X128980000Y-89510000D01*
X129175090Y-89529215D01*
G37*
G36*
X175912664Y-81531602D02*
G01*
X176075000Y-81603878D01*
X176218761Y-81708327D01*
X176337664Y-81840383D01*
X176426514Y-81994274D01*
X176481425Y-82163275D01*
X176500000Y-82340000D01*
X176481425Y-82516725D01*
X176426514Y-82685726D01*
X176337664Y-82839617D01*
X176218761Y-82971673D01*
X176075000Y-83076122D01*
X175912664Y-83148398D01*
X175738849Y-83185344D01*
X175561151Y-83185344D01*
X175387336Y-83148398D01*
X175225000Y-83076122D01*
X175081239Y-82971673D01*
X174962336Y-82839617D01*
X174873486Y-82685726D01*
X174818575Y-82516725D01*
X174800000Y-82340000D01*
X174818575Y-82163275D01*
X174873486Y-81994274D01*
X174962336Y-81840383D01*
X175081239Y-81708327D01*
X175225000Y-81603878D01*
X175387336Y-81531602D01*
X175561151Y-81494656D01*
X175738849Y-81494656D01*
X175912664Y-81531602D01*
G37*
G36*
X178452664Y-81531602D02*
G01*
X178615000Y-81603878D01*
X178758761Y-81708327D01*
X178877664Y-81840383D01*
X178966514Y-81994274D01*
X179021425Y-82163275D01*
X179040000Y-82340000D01*
X179021425Y-82516725D01*
X178966514Y-82685726D01*
X178877664Y-82839617D01*
X178758761Y-82971673D01*
X178615000Y-83076122D01*
X178452664Y-83148398D01*
X178278849Y-83185344D01*
X178101151Y-83185344D01*
X177927336Y-83148398D01*
X177765000Y-83076122D01*
X177621239Y-82971673D01*
X177502336Y-82839617D01*
X177413486Y-82685726D01*
X177358575Y-82516725D01*
X177340000Y-82340000D01*
X177358575Y-82163275D01*
X177413486Y-81994274D01*
X177502336Y-81840383D01*
X177621239Y-81708327D01*
X177765000Y-81603878D01*
X177927336Y-81531602D01*
X178101151Y-81494656D01*
X178278849Y-81494656D01*
X178452664Y-81531602D01*
G37*
G36*
X176500000Y-80650000D02*
G01*
X174800000Y-80650000D01*
X174800000Y-78950000D01*
X176500000Y-78950000D01*
X176500000Y-80650000D01*
G37*
G36*
X178452664Y-78991602D02*
G01*
X178615000Y-79063878D01*
X178758761Y-79168327D01*
X178877664Y-79300383D01*
X178966514Y-79454274D01*
X179021425Y-79623275D01*
X179040000Y-79800000D01*
X179021425Y-79976725D01*
X178966514Y-80145726D01*
X178877664Y-80299617D01*
X178758761Y-80431673D01*
X178615000Y-80536122D01*
X178452664Y-80608398D01*
X178278849Y-80645344D01*
X178101151Y-80645344D01*
X177927336Y-80608398D01*
X177765000Y-80536122D01*
X177621239Y-80431673D01*
X177502336Y-80299617D01*
X177413486Y-80145726D01*
X177358575Y-79976725D01*
X177340000Y-79800000D01*
X177358575Y-79623275D01*
X177413486Y-79454274D01*
X177502336Y-79300383D01*
X177621239Y-79168327D01*
X177765000Y-79063878D01*
X177927336Y-78991602D01*
X178101151Y-78954656D01*
X178278849Y-78954656D01*
X178452664Y-78991602D01*
G37*
G36*
X124270000Y-77160000D02*
G01*
X122570000Y-77160000D01*
X122570000Y-75460000D01*
X124270000Y-75460000D01*
X124270000Y-77160000D01*
G37*
G36*
X126222664Y-75501602D02*
G01*
X126385000Y-75573878D01*
X126528761Y-75678327D01*
X126647664Y-75810383D01*
X126736514Y-75964274D01*
X126791425Y-76133275D01*
X126810000Y-76310000D01*
X126791425Y-76486725D01*
X126736514Y-76655726D01*
X126647664Y-76809617D01*
X126528761Y-76941673D01*
X126385000Y-77046122D01*
X126222664Y-77118398D01*
X126048849Y-77155344D01*
X125871151Y-77155344D01*
X125697336Y-77118398D01*
X125535000Y-77046122D01*
X125391239Y-76941673D01*
X125272336Y-76809617D01*
X125183486Y-76655726D01*
X125128575Y-76486725D01*
X125110000Y-76310000D01*
X125128575Y-76133275D01*
X125183486Y-75964274D01*
X125272336Y-75810383D01*
X125391239Y-75678327D01*
X125535000Y-75573878D01*
X125697336Y-75501602D01*
X125871151Y-75464656D01*
X126048849Y-75464656D01*
X126222664Y-75501602D01*
G37*
G36*
X128762664Y-75501602D02*
G01*
X128925000Y-75573878D01*
X129068761Y-75678327D01*
X129187664Y-75810383D01*
X129276514Y-75964274D01*
X129331425Y-76133275D01*
X129350000Y-76310000D01*
X129331425Y-76486725D01*
X129276514Y-76655726D01*
X129187664Y-76809617D01*
X129068761Y-76941673D01*
X128925000Y-77046122D01*
X128762664Y-77118398D01*
X128588849Y-77155344D01*
X128411151Y-77155344D01*
X128237336Y-77118398D01*
X128075000Y-77046122D01*
X127931239Y-76941673D01*
X127812336Y-76809617D01*
X127723486Y-76655726D01*
X127668575Y-76486725D01*
X127650000Y-76310000D01*
X127668575Y-76133275D01*
X127723486Y-75964274D01*
X127812336Y-75810383D01*
X127931239Y-75678327D01*
X128075000Y-75573878D01*
X128237336Y-75501602D01*
X128411151Y-75464656D01*
X128588849Y-75464656D01*
X128762664Y-75501602D01*
G37*
G36*
X131302664Y-75501602D02*
G01*
X131465000Y-75573878D01*
X131608761Y-75678327D01*
X131727664Y-75810383D01*
X131816514Y-75964274D01*
X131871425Y-76133275D01*
X131890000Y-76310000D01*
X131871425Y-76486725D01*
X131816514Y-76655726D01*
X131727664Y-76809617D01*
X131608761Y-76941673D01*
X131465000Y-77046122D01*
X131302664Y-77118398D01*
X131128849Y-77155344D01*
X130951151Y-77155344D01*
X130777336Y-77118398D01*
X130615000Y-77046122D01*
X130471239Y-76941673D01*
X130352336Y-76809617D01*
X130263486Y-76655726D01*
X130208575Y-76486725D01*
X130190000Y-76310000D01*
X130208575Y-76133275D01*
X130263486Y-75964274D01*
X130352336Y-75810383D01*
X130471239Y-75678327D01*
X130615000Y-75573878D01*
X130777336Y-75501602D01*
X130951151Y-75464656D01*
X131128849Y-75464656D01*
X131302664Y-75501602D01*
G37*
G36*
X133842664Y-75501602D02*
G01*
X134005000Y-75573878D01*
X134148761Y-75678327D01*
X134267664Y-75810383D01*
X134356514Y-75964274D01*
X134411425Y-76133275D01*
X134430000Y-76310000D01*
X134411425Y-76486725D01*
X134356514Y-76655726D01*
X134267664Y-76809617D01*
X134148761Y-76941673D01*
X134005000Y-77046122D01*
X133842664Y-77118398D01*
X133668849Y-77155344D01*
X133491151Y-77155344D01*
X133317336Y-77118398D01*
X133155000Y-77046122D01*
X133011239Y-76941673D01*
X132892336Y-76809617D01*
X132803486Y-76655726D01*
X132748575Y-76486725D01*
X132730000Y-76310000D01*
X132748575Y-76133275D01*
X132803486Y-75964274D01*
X132892336Y-75810383D01*
X133011239Y-75678327D01*
X133155000Y-75573878D01*
X133317336Y-75501602D01*
X133491151Y-75464656D01*
X133668849Y-75464656D01*
X133842664Y-75501602D01*
G37*
G36*
X136382664Y-75501602D02*
G01*
X136545000Y-75573878D01*
X136688761Y-75678327D01*
X136807664Y-75810383D01*
X136896514Y-75964274D01*
X136951425Y-76133275D01*
X136970000Y-76310000D01*
X136951425Y-76486725D01*
X136896514Y-76655726D01*
X136807664Y-76809617D01*
X136688761Y-76941673D01*
X136545000Y-77046122D01*
X136382664Y-77118398D01*
X136208849Y-77155344D01*
X136031151Y-77155344D01*
X135857336Y-77118398D01*
X135695000Y-77046122D01*
X135551239Y-76941673D01*
X135432336Y-76809617D01*
X135343486Y-76655726D01*
X135288575Y-76486725D01*
X135270000Y-76310000D01*
X135288575Y-76133275D01*
X135343486Y-75964274D01*
X135432336Y-75810383D01*
X135551239Y-75678327D01*
X135695000Y-75573878D01*
X135857336Y-75501602D01*
X136031151Y-75464656D01*
X136208849Y-75464656D01*
X136382664Y-75501602D01*
G37*
G36*
X138922664Y-75501602D02*
G01*
X139085000Y-75573878D01*
X139228761Y-75678327D01*
X139347664Y-75810383D01*
X139436514Y-75964274D01*
X139491425Y-76133275D01*
X139510000Y-76310000D01*
X139491425Y-76486725D01*
X139436514Y-76655726D01*
X139347664Y-76809617D01*
X139228761Y-76941673D01*
X139085000Y-77046122D01*
X138922664Y-77118398D01*
X138748849Y-77155344D01*
X138571151Y-77155344D01*
X138397336Y-77118398D01*
X138235000Y-77046122D01*
X138091239Y-76941673D01*
X137972336Y-76809617D01*
X137883486Y-76655726D01*
X137828575Y-76486725D01*
X137810000Y-76310000D01*
X137828575Y-76133275D01*
X137883486Y-75964274D01*
X137972336Y-75810383D01*
X138091239Y-75678327D01*
X138235000Y-75573878D01*
X138397336Y-75501602D01*
X138571151Y-75464656D01*
X138748849Y-75464656D01*
X138922664Y-75501602D01*
G37*
G36*
X141462664Y-75501602D02*
G01*
X141625000Y-75573878D01*
X141768761Y-75678327D01*
X141887664Y-75810383D01*
X141976514Y-75964274D01*
X142031425Y-76133275D01*
X142050000Y-76310000D01*
X142031425Y-76486725D01*
X141976514Y-76655726D01*
X141887664Y-76809617D01*
X141768761Y-76941673D01*
X141625000Y-77046122D01*
X141462664Y-77118398D01*
X141288849Y-77155344D01*
X141111151Y-77155344D01*
X140937336Y-77118398D01*
X140775000Y-77046122D01*
X140631239Y-76941673D01*
X140512336Y-76809617D01*
X140423486Y-76655726D01*
X140368575Y-76486725D01*
X140350000Y-76310000D01*
X140368575Y-76133275D01*
X140423486Y-75964274D01*
X140512336Y-75810383D01*
X140631239Y-75678327D01*
X140775000Y-75573878D01*
X140937336Y-75501602D01*
X141111151Y-75464656D01*
X141288849Y-75464656D01*
X141462664Y-75501602D01*
G37*
G36*
X144002664Y-75501602D02*
G01*
X144165000Y-75573878D01*
X144308761Y-75678327D01*
X144427664Y-75810383D01*
X144516514Y-75964274D01*
X144571425Y-76133275D01*
X144590000Y-76310000D01*
X144571425Y-76486725D01*
X144516514Y-76655726D01*
X144427664Y-76809617D01*
X144308761Y-76941673D01*
X144165000Y-77046122D01*
X144002664Y-77118398D01*
X143828849Y-77155344D01*
X143651151Y-77155344D01*
X143477336Y-77118398D01*
X143315000Y-77046122D01*
X143171239Y-76941673D01*
X143052336Y-76809617D01*
X142963486Y-76655726D01*
X142908575Y-76486725D01*
X142890000Y-76310000D01*
X142908575Y-76133275D01*
X142963486Y-75964274D01*
X143052336Y-75810383D01*
X143171239Y-75678327D01*
X143315000Y-75573878D01*
X143477336Y-75501602D01*
X143651151Y-75464656D01*
X143828849Y-75464656D01*
X144002664Y-75501602D01*
G37*
G36*
X146542664Y-75501602D02*
G01*
X146705000Y-75573878D01*
X146848761Y-75678327D01*
X146967664Y-75810383D01*
X147056514Y-75964274D01*
X147111425Y-76133275D01*
X147130000Y-76310000D01*
X147111425Y-76486725D01*
X147056514Y-76655726D01*
X146967664Y-76809617D01*
X146848761Y-76941673D01*
X146705000Y-77046122D01*
X146542664Y-77118398D01*
X146368849Y-77155344D01*
X146191151Y-77155344D01*
X146017336Y-77118398D01*
X145855000Y-77046122D01*
X145711239Y-76941673D01*
X145592336Y-76809617D01*
X145503486Y-76655726D01*
X145448575Y-76486725D01*
X145430000Y-76310000D01*
X145448575Y-76133275D01*
X145503486Y-75964274D01*
X145592336Y-75810383D01*
X145711239Y-75678327D01*
X145855000Y-75573878D01*
X146017336Y-75501602D01*
X146191151Y-75464656D01*
X146368849Y-75464656D01*
X146542664Y-75501602D01*
G37*
G36*
X149082664Y-75501602D02*
G01*
X149245000Y-75573878D01*
X149388761Y-75678327D01*
X149507664Y-75810383D01*
X149596514Y-75964274D01*
X149651425Y-76133275D01*
X149670000Y-76310000D01*
X149651425Y-76486725D01*
X149596514Y-76655726D01*
X149507664Y-76809617D01*
X149388761Y-76941673D01*
X149245000Y-77046122D01*
X149082664Y-77118398D01*
X148908849Y-77155344D01*
X148731151Y-77155344D01*
X148557336Y-77118398D01*
X148395000Y-77046122D01*
X148251239Y-76941673D01*
X148132336Y-76809617D01*
X148043486Y-76655726D01*
X147988575Y-76486725D01*
X147970000Y-76310000D01*
X147988575Y-76133275D01*
X148043486Y-75964274D01*
X148132336Y-75810383D01*
X148251239Y-75678327D01*
X148395000Y-75573878D01*
X148557336Y-75501602D01*
X148731151Y-75464656D01*
X148908849Y-75464656D01*
X149082664Y-75501602D01*
G37*
G36*
X151622664Y-75501602D02*
G01*
X151785000Y-75573878D01*
X151928761Y-75678327D01*
X152047664Y-75810383D01*
X152136514Y-75964274D01*
X152191425Y-76133275D01*
X152210000Y-76310000D01*
X152191425Y-76486725D01*
X152136514Y-76655726D01*
X152047664Y-76809617D01*
X151928761Y-76941673D01*
X151785000Y-77046122D01*
X151622664Y-77118398D01*
X151448849Y-77155344D01*
X151271151Y-77155344D01*
X151097336Y-77118398D01*
X150935000Y-77046122D01*
X150791239Y-76941673D01*
X150672336Y-76809617D01*
X150583486Y-76655726D01*
X150528575Y-76486725D01*
X150510000Y-76310000D01*
X150528575Y-76133275D01*
X150583486Y-75964274D01*
X150672336Y-75810383D01*
X150791239Y-75678327D01*
X150935000Y-75573878D01*
X151097336Y-75501602D01*
X151271151Y-75464656D01*
X151448849Y-75464656D01*
X151622664Y-75501602D01*
G37*
G36*
X154162664Y-75501602D02*
G01*
X154325000Y-75573878D01*
X154468761Y-75678327D01*
X154587664Y-75810383D01*
X154676514Y-75964274D01*
X154731425Y-76133275D01*
X154750000Y-76310000D01*
X154731425Y-76486725D01*
X154676514Y-76655726D01*
X154587664Y-76809617D01*
X154468761Y-76941673D01*
X154325000Y-77046122D01*
X154162664Y-77118398D01*
X153988849Y-77155344D01*
X153811151Y-77155344D01*
X153637336Y-77118398D01*
X153475000Y-77046122D01*
X153331239Y-76941673D01*
X153212336Y-76809617D01*
X153123486Y-76655726D01*
X153068575Y-76486725D01*
X153050000Y-76310000D01*
X153068575Y-76133275D01*
X153123486Y-75964274D01*
X153212336Y-75810383D01*
X153331239Y-75678327D01*
X153475000Y-75573878D01*
X153637336Y-75501602D01*
X153811151Y-75464656D01*
X153988849Y-75464656D01*
X154162664Y-75501602D01*
G37*
G36*
X156702664Y-75501602D02*
G01*
X156865000Y-75573878D01*
X157008761Y-75678327D01*
X157127664Y-75810383D01*
X157216514Y-75964274D01*
X157271425Y-76133275D01*
X157290000Y-76310000D01*
X157271425Y-76486725D01*
X157216514Y-76655726D01*
X157127664Y-76809617D01*
X157008761Y-76941673D01*
X156865000Y-77046122D01*
X156702664Y-77118398D01*
X156528849Y-77155344D01*
X156351151Y-77155344D01*
X156177336Y-77118398D01*
X156015000Y-77046122D01*
X155871239Y-76941673D01*
X155752336Y-76809617D01*
X155663486Y-76655726D01*
X155608575Y-76486725D01*
X155590000Y-76310000D01*
X155608575Y-76133275D01*
X155663486Y-75964274D01*
X155752336Y-75810383D01*
X155871239Y-75678327D01*
X156015000Y-75573878D01*
X156177336Y-75501602D01*
X156351151Y-75464656D01*
X156528849Y-75464656D01*
X156702664Y-75501602D01*
G37*
G36*
X159242664Y-75501602D02*
G01*
X159405000Y-75573878D01*
X159548761Y-75678327D01*
X159667664Y-75810383D01*
X159756514Y-75964274D01*
X159811425Y-76133275D01*
X159830000Y-76310000D01*
X159811425Y-76486725D01*
X159756514Y-76655726D01*
X159667664Y-76809617D01*
X159548761Y-76941673D01*
X159405000Y-77046122D01*
X159242664Y-77118398D01*
X159068849Y-77155344D01*
X158891151Y-77155344D01*
X158717336Y-77118398D01*
X158555000Y-77046122D01*
X158411239Y-76941673D01*
X158292336Y-76809617D01*
X158203486Y-76655726D01*
X158148575Y-76486725D01*
X158130000Y-76310000D01*
X158148575Y-76133275D01*
X158203486Y-75964274D01*
X158292336Y-75810383D01*
X158411239Y-75678327D01*
X158555000Y-75573878D01*
X158717336Y-75501602D01*
X158891151Y-75464656D01*
X159068849Y-75464656D01*
X159242664Y-75501602D01*
G37*
G36*
X161782664Y-75501602D02*
G01*
X161945000Y-75573878D01*
X162088761Y-75678327D01*
X162207664Y-75810383D01*
X162296514Y-75964274D01*
X162351425Y-76133275D01*
X162370000Y-76310000D01*
X162351425Y-76486725D01*
X162296514Y-76655726D01*
X162207664Y-76809617D01*
X162088761Y-76941673D01*
X161945000Y-77046122D01*
X161782664Y-77118398D01*
X161608849Y-77155344D01*
X161431151Y-77155344D01*
X161257336Y-77118398D01*
X161095000Y-77046122D01*
X160951239Y-76941673D01*
X160832336Y-76809617D01*
X160743486Y-76655726D01*
X160688575Y-76486725D01*
X160670000Y-76310000D01*
X160688575Y-76133275D01*
X160743486Y-75964274D01*
X160832336Y-75810383D01*
X160951239Y-75678327D01*
X161095000Y-75573878D01*
X161257336Y-75501602D01*
X161431151Y-75464656D01*
X161608849Y-75464656D01*
X161782664Y-75501602D01*
G37*
G36*
X164322664Y-75501602D02*
G01*
X164485000Y-75573878D01*
X164628761Y-75678327D01*
X164747664Y-75810383D01*
X164836514Y-75964274D01*
X164891425Y-76133275D01*
X164910000Y-76310000D01*
X164891425Y-76486725D01*
X164836514Y-76655726D01*
X164747664Y-76809617D01*
X164628761Y-76941673D01*
X164485000Y-77046122D01*
X164322664Y-77118398D01*
X164148849Y-77155344D01*
X163971151Y-77155344D01*
X163797336Y-77118398D01*
X163635000Y-77046122D01*
X163491239Y-76941673D01*
X163372336Y-76809617D01*
X163283486Y-76655726D01*
X163228575Y-76486725D01*
X163210000Y-76310000D01*
X163228575Y-76133275D01*
X163283486Y-75964274D01*
X163372336Y-75810383D01*
X163491239Y-75678327D01*
X163635000Y-75573878D01*
X163797336Y-75501602D01*
X163971151Y-75464656D01*
X164148849Y-75464656D01*
X164322664Y-75501602D01*
G37*
G36*
X166862664Y-75501602D02*
G01*
X167025000Y-75573878D01*
X167168761Y-75678327D01*
X167287664Y-75810383D01*
X167376514Y-75964274D01*
X167431425Y-76133275D01*
X167450000Y-76310000D01*
X167431425Y-76486725D01*
X167376514Y-76655726D01*
X167287664Y-76809617D01*
X167168761Y-76941673D01*
X167025000Y-77046122D01*
X166862664Y-77118398D01*
X166688849Y-77155344D01*
X166511151Y-77155344D01*
X166337336Y-77118398D01*
X166175000Y-77046122D01*
X166031239Y-76941673D01*
X165912336Y-76809617D01*
X165823486Y-76655726D01*
X165768575Y-76486725D01*
X165750000Y-76310000D01*
X165768575Y-76133275D01*
X165823486Y-75964274D01*
X165912336Y-75810383D01*
X166031239Y-75678327D01*
X166175000Y-75573878D01*
X166337336Y-75501602D01*
X166511151Y-75464656D01*
X166688849Y-75464656D01*
X166862664Y-75501602D01*
G37*
G36*
X169402664Y-75501602D02*
G01*
X169565000Y-75573878D01*
X169708761Y-75678327D01*
X169827664Y-75810383D01*
X169916514Y-75964274D01*
X169971425Y-76133275D01*
X169990000Y-76310000D01*
X169971425Y-76486725D01*
X169916514Y-76655726D01*
X169827664Y-76809617D01*
X169708761Y-76941673D01*
X169565000Y-77046122D01*
X169402664Y-77118398D01*
X169228849Y-77155344D01*
X169051151Y-77155344D01*
X168877336Y-77118398D01*
X168715000Y-77046122D01*
X168571239Y-76941673D01*
X168452336Y-76809617D01*
X168363486Y-76655726D01*
X168308575Y-76486725D01*
X168290000Y-76310000D01*
X168308575Y-76133275D01*
X168363486Y-75964274D01*
X168452336Y-75810383D01*
X168571239Y-75678327D01*
X168715000Y-75573878D01*
X168877336Y-75501602D01*
X169051151Y-75464656D01*
X169228849Y-75464656D01*
X169402664Y-75501602D01*
G37*
G36*
X171942664Y-75501602D02*
G01*
X172105000Y-75573878D01*
X172248761Y-75678327D01*
X172367664Y-75810383D01*
X172456514Y-75964274D01*
X172511425Y-76133275D01*
X172530000Y-76310000D01*
X172511425Y-76486725D01*
X172456514Y-76655726D01*
X172367664Y-76809617D01*
X172248761Y-76941673D01*
X172105000Y-77046122D01*
X171942664Y-77118398D01*
X171768849Y-77155344D01*
X171591151Y-77155344D01*
X171417336Y-77118398D01*
X171255000Y-77046122D01*
X171111239Y-76941673D01*
X170992336Y-76809617D01*
X170903486Y-76655726D01*
X170848575Y-76486725D01*
X170830000Y-76310000D01*
X170848575Y-76133275D01*
X170903486Y-75964274D01*
X170992336Y-75810383D01*
X171111239Y-75678327D01*
X171255000Y-75573878D01*
X171417336Y-75501602D01*
X171591151Y-75464656D01*
X171768849Y-75464656D01*
X171942664Y-75501602D01*
G37*
G36*
X176945046Y-73594816D02*
G01*
X177001463Y-73594816D01*
X177063643Y-73605192D01*
X177124425Y-73610510D01*
X177172160Y-73623300D01*
X177221356Y-73631510D01*
X177287346Y-73654164D01*
X177351727Y-73671415D01*
X177391163Y-73689804D01*
X177432205Y-73703894D01*
X177499643Y-73740389D01*
X177565000Y-73770866D01*
X177595765Y-73792407D01*
X177628267Y-73809997D01*
X177694427Y-73861492D01*
X177757763Y-73905840D01*
X177780086Y-73928163D01*
X177804190Y-73946924D01*
X177866107Y-74014184D01*
X177924160Y-74072237D01*
X177938813Y-74093164D01*
X177955178Y-74110941D01*
X178009776Y-74194510D01*
X178059134Y-74265000D01*
X178067372Y-74282666D01*
X178077109Y-74297570D01*
X178121298Y-74398312D01*
X178158585Y-74478273D01*
X178162057Y-74491234D01*
X178166657Y-74501719D01*
X178197460Y-74623359D01*
X178219490Y-74705575D01*
X178220128Y-74712873D01*
X178221384Y-74717831D01*
X178236103Y-74895467D01*
X178240000Y-74940000D01*
X178236103Y-74984536D01*
X178221384Y-75162168D01*
X178220128Y-75167125D01*
X178219490Y-75174425D01*
X178197455Y-75256657D01*
X178166657Y-75378280D01*
X178162058Y-75388763D01*
X178158585Y-75401727D01*
X178121291Y-75481703D01*
X178077109Y-75582429D01*
X178067373Y-75597330D01*
X178059134Y-75615000D01*
X178009767Y-75685503D01*
X177955178Y-75769058D01*
X177938816Y-75786831D01*
X177924160Y-75807763D01*
X177866096Y-75865826D01*
X177804190Y-75933075D01*
X177780090Y-75951832D01*
X177757763Y-75974160D01*
X177694414Y-76018516D01*
X177628267Y-76070002D01*
X177595771Y-76087587D01*
X177565000Y-76109134D01*
X177499629Y-76139616D01*
X177432205Y-76176105D01*
X177391171Y-76190191D01*
X177351727Y-76208585D01*
X177287333Y-76225839D01*
X177221356Y-76248489D01*
X177172168Y-76256697D01*
X177124425Y-76269490D01*
X177063639Y-76274808D01*
X177001463Y-76285184D01*
X176945046Y-76285184D01*
X176890000Y-76290000D01*
X176834954Y-76285184D01*
X176778537Y-76285184D01*
X176716359Y-76274808D01*
X176655575Y-76269490D01*
X176607832Y-76256697D01*
X176558643Y-76248489D01*
X176492662Y-76225837D01*
X176428273Y-76208585D01*
X176388831Y-76190193D01*
X176347794Y-76176105D01*
X176280362Y-76139613D01*
X176215000Y-76109134D01*
X176184232Y-76087590D01*
X176151732Y-76070002D01*
X176085575Y-76018509D01*
X176022237Y-75974160D01*
X175999912Y-75951835D01*
X175975809Y-75933075D01*
X175913891Y-75865814D01*
X175855840Y-75807763D01*
X175841186Y-75786835D01*
X175824821Y-75769058D01*
X175770217Y-75685482D01*
X175720866Y-75615000D01*
X175712628Y-75597335D01*
X175702890Y-75582429D01*
X175658692Y-75481667D01*
X175621415Y-75401727D01*
X175617942Y-75388769D01*
X175613342Y-75378280D01*
X175582525Y-75256589D01*
X175560510Y-75174425D01*
X175559871Y-75167131D01*
X175558615Y-75162168D01*
X175543877Y-74984320D01*
X175540000Y-74940000D01*
X175543877Y-74895683D01*
X175558615Y-74717831D01*
X175559871Y-74712867D01*
X175560510Y-74705575D01*
X175582521Y-74623427D01*
X175613342Y-74501719D01*
X175617943Y-74491228D01*
X175621415Y-74478273D01*
X175658684Y-74398348D01*
X175702890Y-74297570D01*
X175712630Y-74282661D01*
X175720866Y-74265000D01*
X175770208Y-74194531D01*
X175824821Y-74110941D01*
X175841189Y-74093159D01*
X175855840Y-74072237D01*
X175913879Y-74014197D01*
X175975809Y-73946924D01*
X175999917Y-73928159D01*
X176022237Y-73905840D01*
X176085562Y-73861499D01*
X176151732Y-73809997D01*
X176184238Y-73792405D01*
X176215000Y-73770866D01*
X176280349Y-73740392D01*
X176347794Y-73703894D01*
X176388839Y-73689803D01*
X176428273Y-73671415D01*
X176492648Y-73654165D01*
X176558643Y-73631510D01*
X176607840Y-73623300D01*
X176655575Y-73610510D01*
X176716355Y-73605192D01*
X176778537Y-73594816D01*
X176834954Y-73594816D01*
X176890000Y-73590000D01*
X176945046Y-73594816D01*
G37*
G36*
X118165046Y-73584816D02*
G01*
X118221463Y-73584816D01*
X118283643Y-73595192D01*
X118344425Y-73600510D01*
X118392160Y-73613300D01*
X118441356Y-73621510D01*
X118507346Y-73644164D01*
X118571727Y-73661415D01*
X118611163Y-73679804D01*
X118652205Y-73693894D01*
X118719643Y-73730389D01*
X118785000Y-73760866D01*
X118815765Y-73782407D01*
X118848267Y-73799997D01*
X118914427Y-73851492D01*
X118977763Y-73895840D01*
X119000086Y-73918163D01*
X119024190Y-73936924D01*
X119086107Y-74004184D01*
X119144160Y-74062237D01*
X119158813Y-74083164D01*
X119175178Y-74100941D01*
X119229776Y-74184510D01*
X119279134Y-74255000D01*
X119287372Y-74272666D01*
X119297109Y-74287570D01*
X119341298Y-74388312D01*
X119378585Y-74468273D01*
X119382057Y-74481234D01*
X119386657Y-74491719D01*
X119417460Y-74613359D01*
X119439490Y-74695575D01*
X119440128Y-74702873D01*
X119441384Y-74707831D01*
X119456103Y-74885467D01*
X119460000Y-74930000D01*
X119456103Y-74974536D01*
X119441384Y-75152168D01*
X119440128Y-75157125D01*
X119439490Y-75164425D01*
X119417455Y-75246657D01*
X119386657Y-75368280D01*
X119382058Y-75378763D01*
X119378585Y-75391727D01*
X119341291Y-75471703D01*
X119297109Y-75572429D01*
X119287373Y-75587330D01*
X119279134Y-75605000D01*
X119229767Y-75675503D01*
X119175178Y-75759058D01*
X119158816Y-75776831D01*
X119144160Y-75797763D01*
X119086096Y-75855826D01*
X119024190Y-75923075D01*
X119000090Y-75941832D01*
X118977763Y-75964160D01*
X118914414Y-76008516D01*
X118848267Y-76060002D01*
X118815771Y-76077587D01*
X118785000Y-76099134D01*
X118719629Y-76129616D01*
X118652205Y-76166105D01*
X118611171Y-76180191D01*
X118571727Y-76198585D01*
X118507333Y-76215839D01*
X118441356Y-76238489D01*
X118392168Y-76246697D01*
X118344425Y-76259490D01*
X118283639Y-76264808D01*
X118221463Y-76275184D01*
X118165046Y-76275184D01*
X118110000Y-76280000D01*
X118054954Y-76275184D01*
X117998537Y-76275184D01*
X117936359Y-76264808D01*
X117875575Y-76259490D01*
X117827832Y-76246697D01*
X117778643Y-76238489D01*
X117712662Y-76215837D01*
X117648273Y-76198585D01*
X117608831Y-76180193D01*
X117567794Y-76166105D01*
X117500362Y-76129613D01*
X117435000Y-76099134D01*
X117404232Y-76077590D01*
X117371732Y-76060002D01*
X117305575Y-76008509D01*
X117242237Y-75964160D01*
X117219912Y-75941835D01*
X117195809Y-75923075D01*
X117133891Y-75855814D01*
X117075840Y-75797763D01*
X117061186Y-75776835D01*
X117044821Y-75759058D01*
X116990217Y-75675482D01*
X116940866Y-75605000D01*
X116932628Y-75587335D01*
X116922890Y-75572429D01*
X116878692Y-75471667D01*
X116841415Y-75391727D01*
X116837942Y-75378769D01*
X116833342Y-75368280D01*
X116802525Y-75246589D01*
X116780510Y-75164425D01*
X116779871Y-75157131D01*
X116778615Y-75152168D01*
X116763877Y-74974320D01*
X116760000Y-74930000D01*
X116763877Y-74885683D01*
X116778615Y-74707831D01*
X116779871Y-74702867D01*
X116780510Y-74695575D01*
X116802521Y-74613427D01*
X116833342Y-74491719D01*
X116837943Y-74481228D01*
X116841415Y-74468273D01*
X116878684Y-74388348D01*
X116922890Y-74287570D01*
X116932630Y-74272661D01*
X116940866Y-74255000D01*
X116990208Y-74184531D01*
X117044821Y-74100941D01*
X117061189Y-74083159D01*
X117075840Y-74062237D01*
X117133879Y-74004197D01*
X117195809Y-73936924D01*
X117219917Y-73918159D01*
X117242237Y-73895840D01*
X117305562Y-73851499D01*
X117371732Y-73799997D01*
X117404238Y-73782405D01*
X117435000Y-73760866D01*
X117500349Y-73730392D01*
X117567794Y-73693894D01*
X117608839Y-73679803D01*
X117648273Y-73661415D01*
X117712648Y-73644165D01*
X117778643Y-73621510D01*
X117827840Y-73613300D01*
X117875575Y-73600510D01*
X117936355Y-73595192D01*
X117998537Y-73584816D01*
X118054954Y-73584816D01*
X118110000Y-73580000D01*
X118165046Y-73584816D01*
G37*
G36*
X123682664Y-72961602D02*
G01*
X123845000Y-73033878D01*
X123988761Y-73138327D01*
X124107664Y-73270383D01*
X124196514Y-73424274D01*
X124251425Y-73593275D01*
X124270000Y-73770000D01*
X124251425Y-73946725D01*
X124196514Y-74115726D01*
X124107664Y-74269617D01*
X123988761Y-74401673D01*
X123845000Y-74506122D01*
X123682664Y-74578398D01*
X123508849Y-74615344D01*
X123331151Y-74615344D01*
X123157336Y-74578398D01*
X122995000Y-74506122D01*
X122851239Y-74401673D01*
X122732336Y-74269617D01*
X122643486Y-74115726D01*
X122588575Y-73946725D01*
X122570000Y-73770000D01*
X122588575Y-73593275D01*
X122643486Y-73424274D01*
X122732336Y-73270383D01*
X122851239Y-73138327D01*
X122995000Y-73033878D01*
X123157336Y-72961602D01*
X123331151Y-72924656D01*
X123508849Y-72924656D01*
X123682664Y-72961602D01*
G37*
G36*
X126222664Y-72961602D02*
G01*
X126385000Y-73033878D01*
X126528761Y-73138327D01*
X126647664Y-73270383D01*
X126736514Y-73424274D01*
X126791425Y-73593275D01*
X126810000Y-73770000D01*
X126791425Y-73946725D01*
X126736514Y-74115726D01*
X126647664Y-74269617D01*
X126528761Y-74401673D01*
X126385000Y-74506122D01*
X126222664Y-74578398D01*
X126048849Y-74615344D01*
X125871151Y-74615344D01*
X125697336Y-74578398D01*
X125535000Y-74506122D01*
X125391239Y-74401673D01*
X125272336Y-74269617D01*
X125183486Y-74115726D01*
X125128575Y-73946725D01*
X125110000Y-73770000D01*
X125128575Y-73593275D01*
X125183486Y-73424274D01*
X125272336Y-73270383D01*
X125391239Y-73138327D01*
X125535000Y-73033878D01*
X125697336Y-72961602D01*
X125871151Y-72924656D01*
X126048849Y-72924656D01*
X126222664Y-72961602D01*
G37*
G36*
X128762664Y-72961602D02*
G01*
X128925000Y-73033878D01*
X129068761Y-73138327D01*
X129187664Y-73270383D01*
X129276514Y-73424274D01*
X129331425Y-73593275D01*
X129350000Y-73770000D01*
X129331425Y-73946725D01*
X129276514Y-74115726D01*
X129187664Y-74269617D01*
X129068761Y-74401673D01*
X128925000Y-74506122D01*
X128762664Y-74578398D01*
X128588849Y-74615344D01*
X128411151Y-74615344D01*
X128237336Y-74578398D01*
X128075000Y-74506122D01*
X127931239Y-74401673D01*
X127812336Y-74269617D01*
X127723486Y-74115726D01*
X127668575Y-73946725D01*
X127650000Y-73770000D01*
X127668575Y-73593275D01*
X127723486Y-73424274D01*
X127812336Y-73270383D01*
X127931239Y-73138327D01*
X128075000Y-73033878D01*
X128237336Y-72961602D01*
X128411151Y-72924656D01*
X128588849Y-72924656D01*
X128762664Y-72961602D01*
G37*
G36*
X131302664Y-72961602D02*
G01*
X131465000Y-73033878D01*
X131608761Y-73138327D01*
X131727664Y-73270383D01*
X131816514Y-73424274D01*
X131871425Y-73593275D01*
X131890000Y-73770000D01*
X131871425Y-73946725D01*
X131816514Y-74115726D01*
X131727664Y-74269617D01*
X131608761Y-74401673D01*
X131465000Y-74506122D01*
X131302664Y-74578398D01*
X131128849Y-74615344D01*
X130951151Y-74615344D01*
X130777336Y-74578398D01*
X130615000Y-74506122D01*
X130471239Y-74401673D01*
X130352336Y-74269617D01*
X130263486Y-74115726D01*
X130208575Y-73946725D01*
X130190000Y-73770000D01*
X130208575Y-73593275D01*
X130263486Y-73424274D01*
X130352336Y-73270383D01*
X130471239Y-73138327D01*
X130615000Y-73033878D01*
X130777336Y-72961602D01*
X130951151Y-72924656D01*
X131128849Y-72924656D01*
X131302664Y-72961602D01*
G37*
G36*
X133842664Y-72961602D02*
G01*
X134005000Y-73033878D01*
X134148761Y-73138327D01*
X134267664Y-73270383D01*
X134356514Y-73424274D01*
X134411425Y-73593275D01*
X134430000Y-73770000D01*
X134411425Y-73946725D01*
X134356514Y-74115726D01*
X134267664Y-74269617D01*
X134148761Y-74401673D01*
X134005000Y-74506122D01*
X133842664Y-74578398D01*
X133668849Y-74615344D01*
X133491151Y-74615344D01*
X133317336Y-74578398D01*
X133155000Y-74506122D01*
X133011239Y-74401673D01*
X132892336Y-74269617D01*
X132803486Y-74115726D01*
X132748575Y-73946725D01*
X132730000Y-73770000D01*
X132748575Y-73593275D01*
X132803486Y-73424274D01*
X132892336Y-73270383D01*
X133011239Y-73138327D01*
X133155000Y-73033878D01*
X133317336Y-72961602D01*
X133491151Y-72924656D01*
X133668849Y-72924656D01*
X133842664Y-72961602D01*
G37*
G36*
X136382664Y-72961602D02*
G01*
X136545000Y-73033878D01*
X136688761Y-73138327D01*
X136807664Y-73270383D01*
X136896514Y-73424274D01*
X136951425Y-73593275D01*
X136970000Y-73770000D01*
X136951425Y-73946725D01*
X136896514Y-74115726D01*
X136807664Y-74269617D01*
X136688761Y-74401673D01*
X136545000Y-74506122D01*
X136382664Y-74578398D01*
X136208849Y-74615344D01*
X136031151Y-74615344D01*
X135857336Y-74578398D01*
X135695000Y-74506122D01*
X135551239Y-74401673D01*
X135432336Y-74269617D01*
X135343486Y-74115726D01*
X135288575Y-73946725D01*
X135270000Y-73770000D01*
X135288575Y-73593275D01*
X135343486Y-73424274D01*
X135432336Y-73270383D01*
X135551239Y-73138327D01*
X135695000Y-73033878D01*
X135857336Y-72961602D01*
X136031151Y-72924656D01*
X136208849Y-72924656D01*
X136382664Y-72961602D01*
G37*
G36*
X138922664Y-72961602D02*
G01*
X139085000Y-73033878D01*
X139228761Y-73138327D01*
X139347664Y-73270383D01*
X139436514Y-73424274D01*
X139491425Y-73593275D01*
X139510000Y-73770000D01*
X139491425Y-73946725D01*
X139436514Y-74115726D01*
X139347664Y-74269617D01*
X139228761Y-74401673D01*
X139085000Y-74506122D01*
X138922664Y-74578398D01*
X138748849Y-74615344D01*
X138571151Y-74615344D01*
X138397336Y-74578398D01*
X138235000Y-74506122D01*
X138091239Y-74401673D01*
X137972336Y-74269617D01*
X137883486Y-74115726D01*
X137828575Y-73946725D01*
X137810000Y-73770000D01*
X137828575Y-73593275D01*
X137883486Y-73424274D01*
X137972336Y-73270383D01*
X138091239Y-73138327D01*
X138235000Y-73033878D01*
X138397336Y-72961602D01*
X138571151Y-72924656D01*
X138748849Y-72924656D01*
X138922664Y-72961602D01*
G37*
G36*
X141462664Y-72961602D02*
G01*
X141625000Y-73033878D01*
X141768761Y-73138327D01*
X141887664Y-73270383D01*
X141976514Y-73424274D01*
X142031425Y-73593275D01*
X142050000Y-73770000D01*
X142031425Y-73946725D01*
X141976514Y-74115726D01*
X141887664Y-74269617D01*
X141768761Y-74401673D01*
X141625000Y-74506122D01*
X141462664Y-74578398D01*
X141288849Y-74615344D01*
X141111151Y-74615344D01*
X140937336Y-74578398D01*
X140775000Y-74506122D01*
X140631239Y-74401673D01*
X140512336Y-74269617D01*
X140423486Y-74115726D01*
X140368575Y-73946725D01*
X140350000Y-73770000D01*
X140368575Y-73593275D01*
X140423486Y-73424274D01*
X140512336Y-73270383D01*
X140631239Y-73138327D01*
X140775000Y-73033878D01*
X140937336Y-72961602D01*
X141111151Y-72924656D01*
X141288849Y-72924656D01*
X141462664Y-72961602D01*
G37*
G36*
X144002664Y-72961602D02*
G01*
X144165000Y-73033878D01*
X144308761Y-73138327D01*
X144427664Y-73270383D01*
X144516514Y-73424274D01*
X144571425Y-73593275D01*
X144590000Y-73770000D01*
X144571425Y-73946725D01*
X144516514Y-74115726D01*
X144427664Y-74269617D01*
X144308761Y-74401673D01*
X144165000Y-74506122D01*
X144002664Y-74578398D01*
X143828849Y-74615344D01*
X143651151Y-74615344D01*
X143477336Y-74578398D01*
X143315000Y-74506122D01*
X143171239Y-74401673D01*
X143052336Y-74269617D01*
X142963486Y-74115726D01*
X142908575Y-73946725D01*
X142890000Y-73770000D01*
X142908575Y-73593275D01*
X142963486Y-73424274D01*
X143052336Y-73270383D01*
X143171239Y-73138327D01*
X143315000Y-73033878D01*
X143477336Y-72961602D01*
X143651151Y-72924656D01*
X143828849Y-72924656D01*
X144002664Y-72961602D01*
G37*
G36*
X146542664Y-72961602D02*
G01*
X146705000Y-73033878D01*
X146848761Y-73138327D01*
X146967664Y-73270383D01*
X147056514Y-73424274D01*
X147111425Y-73593275D01*
X147130000Y-73770000D01*
X147111425Y-73946725D01*
X147056514Y-74115726D01*
X146967664Y-74269617D01*
X146848761Y-74401673D01*
X146705000Y-74506122D01*
X146542664Y-74578398D01*
X146368849Y-74615344D01*
X146191151Y-74615344D01*
X146017336Y-74578398D01*
X145855000Y-74506122D01*
X145711239Y-74401673D01*
X145592336Y-74269617D01*
X145503486Y-74115726D01*
X145448575Y-73946725D01*
X145430000Y-73770000D01*
X145448575Y-73593275D01*
X145503486Y-73424274D01*
X145592336Y-73270383D01*
X145711239Y-73138327D01*
X145855000Y-73033878D01*
X146017336Y-72961602D01*
X146191151Y-72924656D01*
X146368849Y-72924656D01*
X146542664Y-72961602D01*
G37*
G36*
X149082664Y-72961602D02*
G01*
X149245000Y-73033878D01*
X149388761Y-73138327D01*
X149507664Y-73270383D01*
X149596514Y-73424274D01*
X149651425Y-73593275D01*
X149670000Y-73770000D01*
X149651425Y-73946725D01*
X149596514Y-74115726D01*
X149507664Y-74269617D01*
X149388761Y-74401673D01*
X149245000Y-74506122D01*
X149082664Y-74578398D01*
X148908849Y-74615344D01*
X148731151Y-74615344D01*
X148557336Y-74578398D01*
X148395000Y-74506122D01*
X148251239Y-74401673D01*
X148132336Y-74269617D01*
X148043486Y-74115726D01*
X147988575Y-73946725D01*
X147970000Y-73770000D01*
X147988575Y-73593275D01*
X148043486Y-73424274D01*
X148132336Y-73270383D01*
X148251239Y-73138327D01*
X148395000Y-73033878D01*
X148557336Y-72961602D01*
X148731151Y-72924656D01*
X148908849Y-72924656D01*
X149082664Y-72961602D01*
G37*
G36*
X151622664Y-72961602D02*
G01*
X151785000Y-73033878D01*
X151928761Y-73138327D01*
X152047664Y-73270383D01*
X152136514Y-73424274D01*
X152191425Y-73593275D01*
X152210000Y-73770000D01*
X152191425Y-73946725D01*
X152136514Y-74115726D01*
X152047664Y-74269617D01*
X151928761Y-74401673D01*
X151785000Y-74506122D01*
X151622664Y-74578398D01*
X151448849Y-74615344D01*
X151271151Y-74615344D01*
X151097336Y-74578398D01*
X150935000Y-74506122D01*
X150791239Y-74401673D01*
X150672336Y-74269617D01*
X150583486Y-74115726D01*
X150528575Y-73946725D01*
X150510000Y-73770000D01*
X150528575Y-73593275D01*
X150583486Y-73424274D01*
X150672336Y-73270383D01*
X150791239Y-73138327D01*
X150935000Y-73033878D01*
X151097336Y-72961602D01*
X151271151Y-72924656D01*
X151448849Y-72924656D01*
X151622664Y-72961602D01*
G37*
G36*
X154162664Y-72961602D02*
G01*
X154325000Y-73033878D01*
X154468761Y-73138327D01*
X154587664Y-73270383D01*
X154676514Y-73424274D01*
X154731425Y-73593275D01*
X154750000Y-73770000D01*
X154731425Y-73946725D01*
X154676514Y-74115726D01*
X154587664Y-74269617D01*
X154468761Y-74401673D01*
X154325000Y-74506122D01*
X154162664Y-74578398D01*
X153988849Y-74615344D01*
X153811151Y-74615344D01*
X153637336Y-74578398D01*
X153475000Y-74506122D01*
X153331239Y-74401673D01*
X153212336Y-74269617D01*
X153123486Y-74115726D01*
X153068575Y-73946725D01*
X153050000Y-73770000D01*
X153068575Y-73593275D01*
X153123486Y-73424274D01*
X153212336Y-73270383D01*
X153331239Y-73138327D01*
X153475000Y-73033878D01*
X153637336Y-72961602D01*
X153811151Y-72924656D01*
X153988849Y-72924656D01*
X154162664Y-72961602D01*
G37*
G36*
X156702664Y-72961602D02*
G01*
X156865000Y-73033878D01*
X157008761Y-73138327D01*
X157127664Y-73270383D01*
X157216514Y-73424274D01*
X157271425Y-73593275D01*
X157290000Y-73770000D01*
X157271425Y-73946725D01*
X157216514Y-74115726D01*
X157127664Y-74269617D01*
X157008761Y-74401673D01*
X156865000Y-74506122D01*
X156702664Y-74578398D01*
X156528849Y-74615344D01*
X156351151Y-74615344D01*
X156177336Y-74578398D01*
X156015000Y-74506122D01*
X155871239Y-74401673D01*
X155752336Y-74269617D01*
X155663486Y-74115726D01*
X155608575Y-73946725D01*
X155590000Y-73770000D01*
X155608575Y-73593275D01*
X155663486Y-73424274D01*
X155752336Y-73270383D01*
X155871239Y-73138327D01*
X156015000Y-73033878D01*
X156177336Y-72961602D01*
X156351151Y-72924656D01*
X156528849Y-72924656D01*
X156702664Y-72961602D01*
G37*
G36*
X159242664Y-72961602D02*
G01*
X159405000Y-73033878D01*
X159548761Y-73138327D01*
X159667664Y-73270383D01*
X159756514Y-73424274D01*
X159811425Y-73593275D01*
X159830000Y-73770000D01*
X159811425Y-73946725D01*
X159756514Y-74115726D01*
X159667664Y-74269617D01*
X159548761Y-74401673D01*
X159405000Y-74506122D01*
X159242664Y-74578398D01*
X159068849Y-74615344D01*
X158891151Y-74615344D01*
X158717336Y-74578398D01*
X158555000Y-74506122D01*
X158411239Y-74401673D01*
X158292336Y-74269617D01*
X158203486Y-74115726D01*
X158148575Y-73946725D01*
X158130000Y-73770000D01*
X158148575Y-73593275D01*
X158203486Y-73424274D01*
X158292336Y-73270383D01*
X158411239Y-73138327D01*
X158555000Y-73033878D01*
X158717336Y-72961602D01*
X158891151Y-72924656D01*
X159068849Y-72924656D01*
X159242664Y-72961602D01*
G37*
G36*
X161782664Y-72961602D02*
G01*
X161945000Y-73033878D01*
X162088761Y-73138327D01*
X162207664Y-73270383D01*
X162296514Y-73424274D01*
X162351425Y-73593275D01*
X162370000Y-73770000D01*
X162351425Y-73946725D01*
X162296514Y-74115726D01*
X162207664Y-74269617D01*
X162088761Y-74401673D01*
X161945000Y-74506122D01*
X161782664Y-74578398D01*
X161608849Y-74615344D01*
X161431151Y-74615344D01*
X161257336Y-74578398D01*
X161095000Y-74506122D01*
X160951239Y-74401673D01*
X160832336Y-74269617D01*
X160743486Y-74115726D01*
X160688575Y-73946725D01*
X160670000Y-73770000D01*
X160688575Y-73593275D01*
X160743486Y-73424274D01*
X160832336Y-73270383D01*
X160951239Y-73138327D01*
X161095000Y-73033878D01*
X161257336Y-72961602D01*
X161431151Y-72924656D01*
X161608849Y-72924656D01*
X161782664Y-72961602D01*
G37*
G36*
X164322664Y-72961602D02*
G01*
X164485000Y-73033878D01*
X164628761Y-73138327D01*
X164747664Y-73270383D01*
X164836514Y-73424274D01*
X164891425Y-73593275D01*
X164910000Y-73770000D01*
X164891425Y-73946725D01*
X164836514Y-74115726D01*
X164747664Y-74269617D01*
X164628761Y-74401673D01*
X164485000Y-74506122D01*
X164322664Y-74578398D01*
X164148849Y-74615344D01*
X163971151Y-74615344D01*
X163797336Y-74578398D01*
X163635000Y-74506122D01*
X163491239Y-74401673D01*
X163372336Y-74269617D01*
X163283486Y-74115726D01*
X163228575Y-73946725D01*
X163210000Y-73770000D01*
X163228575Y-73593275D01*
X163283486Y-73424274D01*
X163372336Y-73270383D01*
X163491239Y-73138327D01*
X163635000Y-73033878D01*
X163797336Y-72961602D01*
X163971151Y-72924656D01*
X164148849Y-72924656D01*
X164322664Y-72961602D01*
G37*
G36*
X166862664Y-72961602D02*
G01*
X167025000Y-73033878D01*
X167168761Y-73138327D01*
X167287664Y-73270383D01*
X167376514Y-73424274D01*
X167431425Y-73593275D01*
X167450000Y-73770000D01*
X167431425Y-73946725D01*
X167376514Y-74115726D01*
X167287664Y-74269617D01*
X167168761Y-74401673D01*
X167025000Y-74506122D01*
X166862664Y-74578398D01*
X166688849Y-74615344D01*
X166511151Y-74615344D01*
X166337336Y-74578398D01*
X166175000Y-74506122D01*
X166031239Y-74401673D01*
X165912336Y-74269617D01*
X165823486Y-74115726D01*
X165768575Y-73946725D01*
X165750000Y-73770000D01*
X165768575Y-73593275D01*
X165823486Y-73424274D01*
X165912336Y-73270383D01*
X166031239Y-73138327D01*
X166175000Y-73033878D01*
X166337336Y-72961602D01*
X166511151Y-72924656D01*
X166688849Y-72924656D01*
X166862664Y-72961602D01*
G37*
G36*
X169402664Y-72961602D02*
G01*
X169565000Y-73033878D01*
X169708761Y-73138327D01*
X169827664Y-73270383D01*
X169916514Y-73424274D01*
X169971425Y-73593275D01*
X169990000Y-73770000D01*
X169971425Y-73946725D01*
X169916514Y-74115726D01*
X169827664Y-74269617D01*
X169708761Y-74401673D01*
X169565000Y-74506122D01*
X169402664Y-74578398D01*
X169228849Y-74615344D01*
X169051151Y-74615344D01*
X168877336Y-74578398D01*
X168715000Y-74506122D01*
X168571239Y-74401673D01*
X168452336Y-74269617D01*
X168363486Y-74115726D01*
X168308575Y-73946725D01*
X168290000Y-73770000D01*
X168308575Y-73593275D01*
X168363486Y-73424274D01*
X168452336Y-73270383D01*
X168571239Y-73138327D01*
X168715000Y-73033878D01*
X168877336Y-72961602D01*
X169051151Y-72924656D01*
X169228849Y-72924656D01*
X169402664Y-72961602D01*
G37*
G36*
X171942664Y-72961602D02*
G01*
X172105000Y-73033878D01*
X172248761Y-73138327D01*
X172367664Y-73270383D01*
X172456514Y-73424274D01*
X172511425Y-73593275D01*
X172530000Y-73770000D01*
X172511425Y-73946725D01*
X172456514Y-74115726D01*
X172367664Y-74269617D01*
X172248761Y-74401673D01*
X172105000Y-74506122D01*
X171942664Y-74578398D01*
X171768849Y-74615344D01*
X171591151Y-74615344D01*
X171417336Y-74578398D01*
X171255000Y-74506122D01*
X171111239Y-74401673D01*
X170992336Y-74269617D01*
X170903486Y-74115726D01*
X170848575Y-73946725D01*
X170830000Y-73770000D01*
X170848575Y-73593275D01*
X170903486Y-73424274D01*
X170992336Y-73270383D01*
X171111239Y-73138327D01*
X171255000Y-73033878D01*
X171417336Y-72961602D01*
X171591151Y-72924656D01*
X171768849Y-72924656D01*
X171942664Y-72961602D01*
G37*
M02*
