G04 #@! TF.GenerationSoftware,KiCad,Pcbnew,8.0.2*
G04 #@! TF.CreationDate,2024-06-19T11:25:54-04:00*
G04 #@! TF.ProjectId,StringsVR-PiHat,53747269-6e67-4735-9652-2d5069486174,1*
G04 #@! TF.SameCoordinates,Original*
G04 #@! TF.FileFunction,Copper,L4,Bot*
G04 #@! TF.FilePolarity,Positive*
%FSLAX46Y46*%
G04 Gerber Fmt 4.6, Leading zero omitted, Abs format (unit mm)*
G04 Created by KiCad (PCBNEW 8.0.2) date 2024-06-19 11:25:54*
%MOMM*%
%LPD*%
G01*
G04 APERTURE LIST*
G04 #@! TA.AperFunction,ComponentPad*
%ADD10R,1.700000X1.700000*%
G04 #@! TD*
G04 #@! TA.AperFunction,ComponentPad*
%ADD11O,1.700000X1.700000*%
G04 #@! TD*
G04 #@! TA.AperFunction,ComponentPad*
%ADD12C,2.000000*%
G04 #@! TD*
G04 #@! TA.AperFunction,ComponentPad*
%ADD13R,1.070000X1.800000*%
G04 #@! TD*
G04 #@! TA.AperFunction,ComponentPad*
%ADD14O,1.070000X1.800000*%
G04 #@! TD*
G04 #@! TA.AperFunction,ViaPad*
%ADD15C,0.600000*%
G04 #@! TD*
G04 #@! TA.AperFunction,Conductor*
%ADD16C,0.600000*%
G04 #@! TD*
G04 #@! TA.AperFunction,Conductor*
%ADD17C,0.150000*%
G04 #@! TD*
G04 #@! TA.AperFunction,Conductor*
%ADD18C,0.200000*%
G04 #@! TD*
G04 APERTURE END LIST*
D10*
X175650000Y-79800000D03*
D11*
X178190000Y-79800000D03*
X175650000Y-82340000D03*
X178190000Y-82340000D03*
D12*
X128980000Y-90510000D03*
X126520000Y-90510000D03*
X124060000Y-90510000D03*
X121600000Y-90510000D03*
X129000000Y-92970000D03*
X126540000Y-92970000D03*
X124080000Y-92970000D03*
X121620000Y-92970000D03*
X166560000Y-115110000D03*
X169020000Y-115110000D03*
X171480000Y-115110000D03*
X173940000Y-115110000D03*
X166540000Y-112650000D03*
X169000000Y-112650000D03*
X171460000Y-112650000D03*
X173920000Y-112650000D03*
D13*
X147220000Y-135210000D03*
D14*
X148490000Y-135210000D03*
X149760000Y-135210000D03*
X151030000Y-135210000D03*
D10*
X123420000Y-76310000D03*
D11*
X123420000Y-73770000D03*
X125960000Y-76310000D03*
X125960000Y-73770000D03*
X128500000Y-76310000D03*
X128500000Y-73770000D03*
X131040000Y-76310000D03*
X131040000Y-73770000D03*
X133580000Y-76310000D03*
X133580000Y-73770000D03*
X136120000Y-76310000D03*
X136120000Y-73770000D03*
X138660000Y-76310000D03*
X138660000Y-73770000D03*
X141200000Y-76310000D03*
X141200000Y-73770000D03*
X143740000Y-76310000D03*
X143740000Y-73770000D03*
X146280000Y-76310000D03*
X146280000Y-73770000D03*
X148820000Y-76310000D03*
X148820000Y-73770000D03*
X151360000Y-76310000D03*
X151360000Y-73770000D03*
X153900000Y-76310000D03*
X153900000Y-73770000D03*
X156440000Y-76310000D03*
X156440000Y-73770000D03*
X158980000Y-76310000D03*
X158980000Y-73770000D03*
X161520000Y-76310000D03*
X161520000Y-73770000D03*
X164060000Y-76310000D03*
X164060000Y-73770000D03*
X166600000Y-76310000D03*
X166600000Y-73770000D03*
X169140000Y-76310000D03*
X169140000Y-73770000D03*
X171680000Y-76310000D03*
X171680000Y-73770000D03*
D15*
X166620000Y-79910000D03*
X147220000Y-79910000D03*
X152520000Y-131010000D03*
X136820000Y-131110000D03*
X164020000Y-110510000D03*
X159220000Y-109410000D03*
X139220000Y-109410000D03*
X168620000Y-119710000D03*
X153220000Y-111710000D03*
X139620000Y-111510000D03*
X139220000Y-108310000D03*
X163520000Y-111410000D03*
X165320000Y-111210000D03*
X151520000Y-115010000D03*
X159120000Y-118510000D03*
X135420000Y-115010000D03*
X165120000Y-120510000D03*
X140620000Y-110510000D03*
X156820000Y-110710000D03*
D16*
X147220000Y-79910000D02*
X166620000Y-79910000D01*
D17*
X136920000Y-131010000D02*
X136820000Y-131110000D01*
X152520000Y-131010000D02*
X136920000Y-131010000D01*
D18*
X164020000Y-110510000D02*
X169320000Y-110510000D01*
X169320000Y-110510000D02*
X171460000Y-112650000D01*
X139220000Y-109410000D02*
X159220000Y-109410000D01*
X153020000Y-111510000D02*
X153220000Y-111710000D01*
X139620000Y-111510000D02*
X153020000Y-111510000D01*
X171480000Y-116850000D02*
X171480000Y-115110000D01*
X168620000Y-119710000D02*
X171480000Y-116850000D01*
X165320000Y-111210000D02*
X167560000Y-111210000D01*
X139220000Y-108310000D02*
X160420000Y-108310000D01*
X160420000Y-108310000D02*
X163520000Y-111410000D01*
X167560000Y-111210000D02*
X169000000Y-112650000D01*
X135420000Y-115010000D02*
X151520000Y-115010000D01*
X165620000Y-118510000D02*
X169020000Y-115110000D01*
X159120000Y-118510000D02*
X165620000Y-118510000D01*
X173940000Y-116790000D02*
X173940000Y-115110000D01*
X165120000Y-120510000D02*
X170220000Y-120510000D01*
X170220000Y-120510000D02*
X173940000Y-116790000D01*
X140620000Y-110510000D02*
X139471471Y-110510000D01*
X139471471Y-110510000D02*
X156620000Y-110510000D01*
X156620000Y-110510000D02*
X156820000Y-110710000D01*
M02*
