G04 #@! TF.GenerationSoftware,KiCad,Pcbnew,8.0.2*
G04 #@! TF.CreationDate,2024-06-19T11:25:55-04:00*
G04 #@! TF.ProjectId,StringsVR-PiHat,53747269-6e67-4735-9652-2d5069486174,1*
G04 #@! TF.SameCoordinates,Original*
G04 #@! TF.FileFunction,Legend,Bot*
G04 #@! TF.FilePolarity,Positive*
%FSLAX46Y46*%
G04 Gerber Fmt 4.6, Leading zero omitted, Abs format (unit mm)*
G04 Created by KiCad (PCBNEW 8.0.2) date 2024-06-19 11:25:55*
%MOMM*%
%LPD*%
G01*
G04 APERTURE LIST*
%ADD10R,1.700000X1.700000*%
%ADD11O,1.700000X1.700000*%
%ADD12C,2.700000*%
%ADD13C,2.000000*%
%ADD14R,1.070000X1.800000*%
%ADD15O,1.070000X1.800000*%
G04 APERTURE END LIST*
%LPC*%
D10*
X175650000Y-79800000D03*
D11*
X178190000Y-79800000D03*
X175650000Y-82340000D03*
X178190000Y-82340000D03*
D12*
X118110000Y-74930000D03*
D13*
X128980000Y-90510000D03*
X126520000Y-90510000D03*
X124060000Y-90510000D03*
X121600000Y-90510000D03*
X129000000Y-92970000D03*
X126540000Y-92970000D03*
X124080000Y-92970000D03*
X121620000Y-92970000D03*
X166560000Y-115110000D03*
X169020000Y-115110000D03*
X171480000Y-115110000D03*
X173940000Y-115110000D03*
X166540000Y-112650000D03*
X169000000Y-112650000D03*
X171460000Y-112650000D03*
X173920000Y-112650000D03*
D14*
X147220000Y-135210000D03*
D15*
X148490000Y-135210000D03*
X149760000Y-135210000D03*
X151030000Y-135210000D03*
D12*
X176880000Y-123730000D03*
X176890000Y-74940000D03*
X118100000Y-123710000D03*
D10*
X123420000Y-76310000D03*
D11*
X123420000Y-73770000D03*
X125960000Y-76310000D03*
X125960000Y-73770000D03*
X128500000Y-76310000D03*
X128500000Y-73770000D03*
X131040000Y-76310000D03*
X131040000Y-73770000D03*
X133580000Y-76310000D03*
X133580000Y-73770000D03*
X136120000Y-76310000D03*
X136120000Y-73770000D03*
X138660000Y-76310000D03*
X138660000Y-73770000D03*
X141200000Y-76310000D03*
X141200000Y-73770000D03*
X143740000Y-76310000D03*
X143740000Y-73770000D03*
X146280000Y-76310000D03*
X146280000Y-73770000D03*
X148820000Y-76310000D03*
X148820000Y-73770000D03*
X151360000Y-76310000D03*
X151360000Y-73770000D03*
X153900000Y-76310000D03*
X153900000Y-73770000D03*
X156440000Y-76310000D03*
X156440000Y-73770000D03*
X158980000Y-76310000D03*
X158980000Y-73770000D03*
X161520000Y-76310000D03*
X161520000Y-73770000D03*
X164060000Y-76310000D03*
X164060000Y-73770000D03*
X166600000Y-76310000D03*
X166600000Y-73770000D03*
X169140000Y-76310000D03*
X169140000Y-73770000D03*
X171680000Y-76310000D03*
X171680000Y-73770000D03*
%LPD*%
M02*
