M48
; DRILL file {KiCad 8.0.2} date 2024-06-19T11:25:58-0400
; FORMAT={-:-/ absolute / inch / decimal}
; #@! TF.CreationDate,2024-06-19T11:25:58-04:00
; #@! TF.GenerationSoftware,Kicad,Pcbnew,8.0.2
; #@! TF.FileFunction,Plated,1,4,PTH
FMAT,2
INCH
; #@! TA.AperFunction,Plated,PTH,ViaDrill
T1C0.0118
; #@! TA.AperFunction,Plated,PTH,ComponentDrill
T2C0.0354
; #@! TA.AperFunction,Plated,PTH,ComponentDrill
T3C0.0394
%
G90
G05
T1
X5.3315Y-4.528
X5.3866Y-5.1618
X5.4811Y-4.2642
X5.4811Y-4.3075
X5.4969Y-4.3902
X5.5362Y-4.3508
X5.7961Y-3.1461
X5.9654Y-4.528
X6.0047Y-5.1579
X6.0323Y-4.398
X6.174Y-4.3587
X6.2646Y-4.6657
X6.2685Y-4.3075
X6.4378Y-4.3862
X6.4575Y-4.3508
X6.5008Y-4.7445
X6.5087Y-4.3783
X6.5598Y-3.1461
X6.6386Y-4.713
T2
X5.7961Y-5.3232
X5.8461Y-5.3232
X5.8961Y-5.3232
X5.9461Y-5.3232
T3
X4.7874Y-3.5634
X4.7882Y-3.6602
X4.8591Y-2.9043
X4.8591Y-3.0043
X4.8843Y-3.5634
X4.885Y-3.6602
X4.9591Y-2.9043
X4.9591Y-3.0043
X4.9811Y-3.5634
X4.9819Y-3.6602
X5.0591Y-2.9043
X5.0591Y-3.0043
X5.078Y-3.5634
X5.0787Y-3.6602
X5.1591Y-2.9043
X5.1591Y-3.0043
X5.2591Y-2.9043
X5.2591Y-3.0043
X5.3591Y-2.9043
X5.3591Y-3.0043
X5.4591Y-2.9043
X5.4591Y-3.0043
X5.5591Y-2.9043
X5.5591Y-3.0043
X5.6591Y-2.9043
X5.6591Y-3.0043
X5.7591Y-2.9043
X5.7591Y-3.0043
X5.8591Y-2.9043
X5.8591Y-3.0043
X5.9591Y-2.9043
X5.9591Y-3.0043
X6.0591Y-2.9043
X6.0591Y-3.0043
X6.1591Y-2.9043
X6.1591Y-3.0043
X6.2591Y-2.9043
X6.2591Y-3.0043
X6.3591Y-2.9043
X6.3591Y-3.0043
X6.4591Y-2.9043
X6.4591Y-3.0043
X6.5567Y-4.435
X6.5575Y-4.5319
X6.5591Y-2.9043
X6.5591Y-3.0043
X6.6535Y-4.435
X6.6543Y-4.5319
X6.6591Y-2.9043
X6.6591Y-3.0043
X6.7504Y-4.435
X6.7512Y-4.5319
X6.7591Y-2.9043
X6.7591Y-3.0043
X6.8472Y-4.435
X6.848Y-4.5319
X6.9154Y-3.1417
X6.9154Y-3.2417
X7.0154Y-3.1417
X7.0154Y-3.2417
M30
