G04 #@! TF.GenerationSoftware,KiCad,Pcbnew,8.0.2*
G04 #@! TF.CreationDate,2024-06-19T11:25:54-04:00*
G04 #@! TF.ProjectId,StringsVR-PiHat,53747269-6e67-4735-9652-2d5069486174,1*
G04 #@! TF.SameCoordinates,Original*
G04 #@! TF.FileFunction,Copper,L1,Top*
G04 #@! TF.FilePolarity,Positive*
%FSLAX46Y46*%
G04 Gerber Fmt 4.6, Leading zero omitted, Abs format (unit mm)*
G04 Created by KiCad (PCBNEW 8.0.2) date 2024-06-19 11:25:54*
%MOMM*%
%LPD*%
G01*
G04 APERTURE LIST*
G04 Aperture macros list*
%AMRoundRect*
0 Rectangle with rounded corners*
0 $1 Rounding radius*
0 $2 $3 $4 $5 $6 $7 $8 $9 X,Y pos of 4 corners*
0 Add a 4 corners polygon primitive as box body*
4,1,4,$2,$3,$4,$5,$6,$7,$8,$9,$2,$3,0*
0 Add four circle primitives for the rounded corners*
1,1,$1+$1,$2,$3*
1,1,$1+$1,$4,$5*
1,1,$1+$1,$6,$7*
1,1,$1+$1,$8,$9*
0 Add four rect primitives between the rounded corners*
20,1,$1+$1,$2,$3,$4,$5,0*
20,1,$1+$1,$4,$5,$6,$7,0*
20,1,$1+$1,$6,$7,$8,$9,0*
20,1,$1+$1,$8,$9,$2,$3,0*%
G04 Aperture macros list end*
G04 #@! TA.AperFunction,ComponentPad*
%ADD10R,1.700000X1.700000*%
G04 #@! TD*
G04 #@! TA.AperFunction,ComponentPad*
%ADD11O,1.700000X1.700000*%
G04 #@! TD*
G04 #@! TA.AperFunction,SMDPad,CuDef*
%ADD12RoundRect,0.200000X0.275000X-0.200000X0.275000X0.200000X-0.275000X0.200000X-0.275000X-0.200000X0*%
G04 #@! TD*
G04 #@! TA.AperFunction,ComponentPad*
%ADD13C,2.000000*%
G04 #@! TD*
G04 #@! TA.AperFunction,ComponentPad*
%ADD14R,1.070000X1.800000*%
G04 #@! TD*
G04 #@! TA.AperFunction,ComponentPad*
%ADD15O,1.070000X1.800000*%
G04 #@! TD*
G04 #@! TA.AperFunction,SMDPad,CuDef*
%ADD16C,1.500000*%
G04 #@! TD*
G04 #@! TA.AperFunction,SMDPad,CuDef*
%ADD17C,2.000000*%
G04 #@! TD*
G04 #@! TA.AperFunction,ViaPad*
%ADD18C,0.600000*%
G04 #@! TD*
G04 #@! TA.AperFunction,Conductor*
%ADD19C,0.600000*%
G04 #@! TD*
G04 #@! TA.AperFunction,Conductor*
%ADD20C,0.400000*%
G04 #@! TD*
G04 #@! TA.AperFunction,Conductor*
%ADD21C,0.150000*%
G04 #@! TD*
G04 #@! TA.AperFunction,Conductor*
%ADD22C,0.200000*%
G04 #@! TD*
G04 APERTURE END LIST*
D10*
X175650000Y-79800000D03*
D11*
X178190000Y-79800000D03*
X175650000Y-82340000D03*
X178190000Y-82340000D03*
D12*
X155720000Y-135060000D03*
X155720000Y-133410000D03*
X160320000Y-135110000D03*
X160320000Y-133460000D03*
D13*
X128980000Y-90510000D03*
X126520000Y-90510000D03*
X124060000Y-90510000D03*
X121600000Y-90510000D03*
X129000000Y-92970000D03*
X126540000Y-92970000D03*
X124080000Y-92970000D03*
X121620000Y-92970000D03*
X166560000Y-115110000D03*
X169020000Y-115110000D03*
X171480000Y-115110000D03*
X173940000Y-115110000D03*
X166540000Y-112650000D03*
X169000000Y-112650000D03*
X171460000Y-112650000D03*
X173920000Y-112650000D03*
D14*
X147220000Y-135210000D03*
D15*
X148490000Y-135210000D03*
X149760000Y-135210000D03*
X151030000Y-135210000D03*
D12*
X140720000Y-135235000D03*
X140720000Y-133585000D03*
D16*
X162960000Y-128610000D03*
X160420000Y-128610000D03*
X157880000Y-128610000D03*
X155340000Y-128610000D03*
X152800000Y-128610000D03*
X150260000Y-128610000D03*
X147720000Y-128610000D03*
X145180000Y-128610000D03*
X142640000Y-128610000D03*
X140100000Y-128610000D03*
X137560000Y-128610000D03*
X135020000Y-128610000D03*
X135180000Y-113410000D03*
X137720000Y-113410000D03*
X140260000Y-113410000D03*
X142800000Y-113410000D03*
X145340000Y-113410000D03*
X147880000Y-113410000D03*
X150420000Y-113410000D03*
X152960000Y-113410000D03*
X155500000Y-113410000D03*
X158040000Y-113410000D03*
X160580000Y-113410000D03*
X163120000Y-113410000D03*
D10*
X123420000Y-76310000D03*
D11*
X123420000Y-73770000D03*
X125960000Y-76310000D03*
X125960000Y-73770000D03*
X128500000Y-76310000D03*
X128500000Y-73770000D03*
X131040000Y-76310000D03*
X131040000Y-73770000D03*
X133580000Y-76310000D03*
X133580000Y-73770000D03*
X136120000Y-76310000D03*
X136120000Y-73770000D03*
X138660000Y-76310000D03*
X138660000Y-73770000D03*
X141200000Y-76310000D03*
X141200000Y-73770000D03*
X143740000Y-76310000D03*
X143740000Y-73770000D03*
X146280000Y-76310000D03*
X146280000Y-73770000D03*
X148820000Y-76310000D03*
X148820000Y-73770000D03*
X151360000Y-76310000D03*
X151360000Y-73770000D03*
X153900000Y-76310000D03*
X153900000Y-73770000D03*
X156440000Y-76310000D03*
X156440000Y-73770000D03*
X158980000Y-76310000D03*
X158980000Y-73770000D03*
X161520000Y-76310000D03*
X161520000Y-73770000D03*
X164060000Y-76310000D03*
X164060000Y-73770000D03*
X166600000Y-76310000D03*
X166600000Y-73770000D03*
X169140000Y-76310000D03*
X169140000Y-73770000D03*
X171680000Y-76310000D03*
X171680000Y-73770000D03*
D17*
X139735000Y-106160000D03*
X142275000Y-106160000D03*
X144815000Y-106160000D03*
X147355000Y-106160000D03*
X149895000Y-106160000D03*
X152435000Y-106160000D03*
X154975000Y-106160000D03*
X157515000Y-106160000D03*
D18*
X166620000Y-79910000D03*
X147220000Y-79910000D03*
X152520000Y-131010000D03*
X136820000Y-131110000D03*
X164020000Y-110510000D03*
X159220000Y-109410000D03*
X139220000Y-109410000D03*
X168620000Y-119710000D03*
X153220000Y-111710000D03*
X139620000Y-111510000D03*
X139220000Y-108310000D03*
X163520000Y-111410000D03*
X165320000Y-111210000D03*
X151520000Y-115010000D03*
X159120000Y-118510000D03*
X135420000Y-115010000D03*
X165120000Y-120510000D03*
X140620000Y-110510000D03*
X156820000Y-110710000D03*
D19*
X140600000Y-89610000D02*
X140600000Y-104485000D01*
X140600000Y-104485000D02*
X142275000Y-106160000D01*
X153900000Y-76310000D02*
X140600000Y-89610000D01*
X136620000Y-89310000D02*
X136620000Y-88810000D01*
X129000000Y-92970000D02*
X139720000Y-82250000D01*
X139720000Y-82250000D02*
X139720000Y-80330000D01*
X166620000Y-80310000D02*
X166540000Y-80390000D01*
X143740000Y-76310000D02*
X143740000Y-76630000D01*
X143720000Y-78510000D02*
X143720000Y-77910000D01*
X143720000Y-77910000D02*
X143740000Y-77890000D01*
X139720000Y-80330000D02*
X143740000Y-76310000D01*
X143740000Y-76430000D02*
X147220000Y-79910000D01*
X141920000Y-83510000D02*
X141920000Y-80310000D01*
X166620000Y-79910000D02*
X166620000Y-80310000D01*
X136620000Y-88810000D02*
X141920000Y-83510000D01*
X143740000Y-76310000D02*
X143740000Y-76430000D01*
X136720000Y-89410000D02*
X136620000Y-89310000D01*
X143740000Y-77890000D02*
X143740000Y-76310000D01*
X136720000Y-103145000D02*
X136720000Y-89410000D01*
X166540000Y-80390000D02*
X166540000Y-112650000D01*
X139735000Y-106160000D02*
X136720000Y-103145000D01*
X141920000Y-80310000D02*
X143720000Y-78510000D01*
X122070000Y-73210811D02*
X122070000Y-83600000D01*
X174220000Y-74400811D02*
X174220000Y-108010000D01*
X172239189Y-72420000D02*
X174220000Y-74400811D01*
X158980000Y-73770000D02*
X157630000Y-72420000D01*
X166560000Y-117950000D02*
X166560000Y-115110000D01*
X158980000Y-73770000D02*
X160330000Y-72420000D01*
X157630000Y-72420000D02*
X122860811Y-72420000D01*
X177720000Y-111510000D02*
X177720000Y-118510000D01*
X177720000Y-118510000D02*
X167120000Y-118510000D01*
X122860811Y-72420000D02*
X122070000Y-73210811D01*
X167120000Y-118510000D02*
X166560000Y-117950000D01*
X160330000Y-72420000D02*
X172239189Y-72420000D01*
X122070000Y-83600000D02*
X128980000Y-90510000D01*
X174220000Y-108010000D02*
X177720000Y-111510000D01*
D20*
X151180000Y-135060000D02*
X151030000Y-135210000D01*
D21*
X151030000Y-135210000D02*
X151030000Y-135575000D01*
D20*
X155720000Y-135060000D02*
X151180000Y-135060000D01*
X150020000Y-136510000D02*
X149760000Y-136250000D01*
X160320000Y-135110000D02*
X158920000Y-136510000D01*
X149760000Y-136250000D02*
X149760000Y-135210000D01*
X158920000Y-136510000D02*
X150020000Y-136510000D01*
X147195000Y-135235000D02*
X147220000Y-135210000D01*
X140720000Y-135235000D02*
X147195000Y-135235000D01*
D19*
X131020000Y-135810000D02*
X133020000Y-137810000D01*
X148120000Y-137810000D02*
X148120000Y-137510000D01*
X148120000Y-137510000D02*
X148490000Y-137140000D01*
X133020000Y-137810000D02*
X148120000Y-137810000D01*
X131020000Y-127410000D02*
X131020000Y-135810000D01*
X131020000Y-127410000D02*
X142800000Y-115630000D01*
X148490000Y-137140000D02*
X148490000Y-135210000D01*
X142800000Y-115630000D02*
X142800000Y-113410000D01*
D22*
X146740000Y-108085000D02*
X146740000Y-125090000D01*
X146740000Y-125090000D02*
X150260000Y-128610000D01*
X144815000Y-106160000D02*
X146740000Y-108085000D01*
X149220000Y-108025000D02*
X147355000Y-106160000D01*
X152800000Y-128610000D02*
X149220000Y-125030000D01*
X149220000Y-125030000D02*
X149220000Y-108025000D01*
X144130000Y-127560000D02*
X132270000Y-127560000D01*
X132270000Y-127560000D02*
X132270000Y-129710000D01*
X132270000Y-129710000D02*
X136145000Y-133585000D01*
X136145000Y-133585000D02*
X140720000Y-133585000D01*
X145180000Y-128610000D02*
X144130000Y-127560000D01*
D20*
X155720000Y-133410000D02*
X147440000Y-133410000D01*
X147440000Y-133410000D02*
X142640000Y-128610000D01*
D21*
X136820000Y-130410000D02*
X135020000Y-128610000D01*
X136820000Y-131110000D02*
X136820000Y-130410000D01*
X157870000Y-131010000D02*
X152520000Y-131010000D01*
X160320000Y-133460000D02*
X157870000Y-131010000D01*
D22*
X124120000Y-96475686D02*
X124120000Y-99610000D01*
X124080000Y-96435686D02*
X124120000Y-96475686D01*
X124120000Y-99610000D02*
X133920000Y-109410000D01*
X163480000Y-110510000D02*
X164020000Y-110510000D01*
X160580000Y-113410000D02*
X163480000Y-110510000D01*
X159220000Y-109410000D02*
X159220000Y-112050000D01*
X124080000Y-92970000D02*
X124080000Y-96435686D01*
X133920000Y-109410000D02*
X139220000Y-109410000D01*
X159220000Y-112050000D02*
X160580000Y-113410000D01*
X153220000Y-111710000D02*
X153800000Y-111710000D01*
X167920000Y-121810000D02*
X167920000Y-120410000D01*
X119120000Y-99910000D02*
X130720000Y-111510000D01*
X153800000Y-111710000D02*
X155500000Y-113410000D01*
X124060000Y-90510000D02*
X122660000Y-89110000D01*
X130720000Y-111510000D02*
X139620000Y-111510000D01*
X119120000Y-90010000D02*
X119120000Y-99910000D01*
X122660000Y-89110000D02*
X120020000Y-89110000D01*
X163900000Y-121810000D02*
X167920000Y-121810000D01*
X155500000Y-113410000D02*
X163900000Y-121810000D01*
X120020000Y-89110000D02*
X119120000Y-90010000D01*
X167920000Y-120410000D02*
X168620000Y-119710000D01*
X126520000Y-98310000D02*
X136520000Y-108310000D01*
X163120000Y-112210000D02*
X163120000Y-113410000D01*
X136520000Y-108310000D02*
X139220000Y-108310000D01*
X126520000Y-94823478D02*
X126520000Y-98310000D01*
X163520000Y-111810000D02*
X163120000Y-112210000D01*
X163520000Y-111410000D02*
X163520000Y-111810000D01*
X163120000Y-113410000D02*
X165320000Y-111210000D01*
X126540000Y-92970000D02*
X126540000Y-94803478D01*
X126540000Y-94803478D02*
X126520000Y-94823478D01*
X117520000Y-89510000D02*
X117520000Y-100010000D01*
X151520000Y-114850000D02*
X152960000Y-113410000D01*
X126520000Y-90510000D02*
X124120000Y-88110000D01*
X124120000Y-88110000D02*
X118920000Y-88110000D01*
X118920000Y-88110000D02*
X117520000Y-89510000D01*
X152960000Y-113410000D02*
X158060000Y-118510000D01*
X117520000Y-100010000D02*
X132520000Y-115010000D01*
X151520000Y-115010000D02*
X151520000Y-114850000D01*
X158060000Y-118510000D02*
X159120000Y-118510000D01*
X132520000Y-115010000D02*
X135420000Y-115010000D01*
X156820000Y-112190000D02*
X158040000Y-113410000D01*
X120320000Y-93508478D02*
X121721522Y-94910000D01*
X122320000Y-94910000D02*
X122320000Y-99910000D01*
X121600000Y-90510000D02*
X120320000Y-91790000D01*
X122320000Y-99910000D02*
X122420000Y-100010000D01*
X120320000Y-91790000D02*
X120320000Y-93508478D01*
X163740000Y-119130000D02*
X165120000Y-120510000D01*
X163740000Y-119110000D02*
X163740000Y-119130000D01*
X156820000Y-110710000D02*
X156820000Y-112190000D01*
X122420000Y-100010000D02*
X132920000Y-110510000D01*
X132920000Y-110510000D02*
X140620000Y-110510000D01*
X158040000Y-113410000D02*
X163740000Y-119110000D01*
X121721522Y-94910000D02*
X122320000Y-94910000D01*
M02*
