%TF.GenerationSoftware,KiCad,Pcbnew,8.0.2*%
%TF.CreationDate,2024-06-19T11:28:36-04:00*%
%TF.ProjectId,StringsVR-Power,53747269-6e67-4735-9652-2d506f776572,rev?*%
%TF.SameCoordinates,Original*%
%TF.FileFunction,Copper,L2,Bot*%
%TF.FilePolarity,Positive*%
%FSLAX46Y46*%
G04 Gerber Fmt 4.6, Leading zero omitted, Abs format (unit mm)*
G04 Created by KiCad (PCBNEW 8.0.2) date 2024-06-19 11:28:36*
%MOMM*%
%LPD*%
G01*
G04 APERTURE LIST*
G04 Aperture macros list*
%AMFreePoly0*
4,1,5,1.000000,-1.000000,-1.000000,-1.000000,-1.000000,1.000000,1.000000,1.000000,1.000000,-1.000000,1.000000,-1.000000,$1*%
G04 Aperture macros list end*
%TA.AperFunction,ComponentPad*%
%ADD10FreePoly0,180.000000*%
%TD*%
%TA.AperFunction,ComponentPad*%
%ADD11C,1.500000*%
%TD*%
%TA.AperFunction,ComponentPad*%
%ADD12O,2.200000X3.500000*%
%TD*%
%TA.AperFunction,ComponentPad*%
%ADD13R,1.500000X2.500000*%
%TD*%
%TA.AperFunction,ComponentPad*%
%ADD14O,1.500000X2.500000*%
%TD*%
%TA.AperFunction,ComponentPad*%
%ADD15R,1.700000X1.700000*%
%TD*%
%TA.AperFunction,ComponentPad*%
%ADD16O,1.700000X1.700000*%
%TD*%
%TA.AperFunction,ViaPad*%
%ADD17C,1.500000*%
%TD*%
%TA.AperFunction,ViaPad*%
%ADD18C,0.600000*%
%TD*%
%TA.AperFunction,ViaPad*%
%ADD19C,5.000000*%
%TD*%
%TA.AperFunction,Conductor*%
%ADD20C,2.500000*%
%TD*%
%TA.AperFunction,Conductor*%
%ADD21C,2.000000*%
%TD*%
%TA.AperFunction,Conductor*%
%ADD22C,6.200000*%
%TD*%
%TA.AperFunction,Conductor*%
%ADD23C,4.600000*%
%TD*%
G04 APERTURE END LIST*
D10*
%TO.P,U1,4,B+*%
%TO.N,/B+*%
X200700000Y-104660000D03*
%TO.P,U1,6,OUT-*%
%TO.N,GND*%
X200700000Y-93200000D03*
%TD*%
D11*
%TO.P,U5,5,GND*%
%TO.N,Net-(J1-Pin_1)*%
X200600000Y-85900000D03*
%TD*%
D12*
%TO.P,SW1,*%
%TO.N,*%
X180300000Y-59300000D03*
X188500000Y-59300000D03*
D13*
%TO.P,SW1,1,A*%
%TO.N,3.3V2*%
X182400000Y-59300000D03*
D14*
%TO.P,SW1,2,B*%
%TO.N,3.3V*%
X184400000Y-59300000D03*
%TO.P,SW1,3,C*%
%TO.N,unconnected-(SW1-C-Pad3)*%
X186400000Y-59300000D03*
%TD*%
D15*
%TO.P,J1,1,Pin_1*%
%TO.N,Net-(J1-Pin_1)*%
X219900000Y-85700000D03*
D16*
%TO.P,J1,2,Pin_2*%
%TO.N,Net-(J1-Pin_2)*%
X219900000Y-88240000D03*
%TD*%
D17*
%TO.N,Net-(J1-Pin_2)*%
X202300000Y-88300000D03*
D18*
%TO.N,3.3V2*%
X181100000Y-63200000D03*
D19*
%TO.N,/B+*%
X98000000Y-133300000D03*
D17*
%TO.N,GND*%
X193400000Y-88800000D03*
%TD*%
D20*
%TO.N,Net-(J1-Pin_1)*%
X203500000Y-82900000D02*
X216000000Y-82900000D01*
X216000000Y-82900000D02*
X216100000Y-82800000D01*
X200600000Y-85900000D02*
X200900000Y-85600000D01*
X200900000Y-85500000D02*
X203500000Y-82900000D01*
X216100000Y-82800000D02*
X218840000Y-85540000D01*
X218840000Y-85540000D02*
X219900000Y-85540000D01*
X200900000Y-85600000D02*
X200900000Y-85500000D01*
%TO.N,Net-(J1-Pin_2)*%
X207800000Y-93800000D02*
X214340000Y-93800000D01*
X202300000Y-88300000D02*
X207800000Y-93800000D01*
X214340000Y-93800000D02*
X219900000Y-88240000D01*
D21*
%TO.N,3.3V2*%
X181100000Y-62402691D02*
X182600000Y-60902691D01*
X181100000Y-63200000D02*
X181100000Y-62402691D01*
D22*
%TO.N,/B+*%
X98000000Y-133300000D02*
X191600000Y-133300000D01*
X200700000Y-124200000D02*
X200700000Y-104660000D01*
X191600000Y-133300000D02*
X200700000Y-124200000D01*
D23*
%TO.N,GND*%
X197800000Y-93200000D02*
X193400000Y-88800000D01*
D20*
X200700000Y-93200000D02*
X200600000Y-93100000D01*
D23*
X200700000Y-93200000D02*
X197800000Y-93200000D01*
%TD*%
M02*
