%TF.GenerationSoftware,KiCad,Pcbnew,8.0.2*%
%TF.CreationDate,2024-06-19T11:28:36-04:00*%
%TF.ProjectId,StringsVR-Power,53747269-6e67-4735-9652-2d506f776572,rev?*%
%TF.SameCoordinates,Original*%
%TF.FileFunction,Legend,Top*%
%TF.FilePolarity,Positive*%
%FSLAX46Y46*%
G04 Gerber Fmt 4.6, Leading zero omitted, Abs format (unit mm)*
G04 Created by KiCad (PCBNEW 8.0.2) date 2024-06-19 11:28:36*
%MOMM*%
%LPD*%
G01*
G04 APERTURE LIST*
%ADD10C,0.150000*%
%ADD11C,0.100000*%
G04 APERTURE END LIST*
D10*
X182638095Y-70254819D02*
X182638095Y-69254819D01*
X182638095Y-69731009D02*
X183209523Y-69731009D01*
X183209523Y-70254819D02*
X183209523Y-69254819D01*
X184209523Y-70254819D02*
X183638095Y-70254819D01*
X183923809Y-70254819D02*
X183923809Y-69254819D01*
X183923809Y-69254819D02*
X183828571Y-69397676D01*
X183828571Y-69397676D02*
X183733333Y-69492914D01*
X183733333Y-69492914D02*
X183638095Y-69540533D01*
X182524892Y-119454819D02*
X182524892Y-118454819D01*
X182524892Y-118931009D02*
X183096320Y-118931009D01*
X183096320Y-119454819D02*
X183096320Y-118454819D01*
X184096320Y-119454819D02*
X183524892Y-119454819D01*
X183810606Y-119454819D02*
X183810606Y-118454819D01*
X183810606Y-118454819D02*
X183715368Y-118597676D01*
X183715368Y-118597676D02*
X183620130Y-118692914D01*
X183620130Y-118692914D02*
X183524892Y-118740533D01*
X124324892Y-119441616D02*
X124324892Y-118441616D01*
X124324892Y-118917806D02*
X124896320Y-118917806D01*
X124896320Y-119441616D02*
X124896320Y-118441616D01*
X125896320Y-119441616D02*
X125324892Y-119441616D01*
X125610606Y-119441616D02*
X125610606Y-118441616D01*
X125610606Y-118441616D02*
X125515368Y-118584473D01*
X125515368Y-118584473D02*
X125420130Y-118679711D01*
X125420130Y-118679711D02*
X125324892Y-118727330D01*
D11*
X124975312Y-101682895D02*
X122118169Y-101682895D01*
X123546741Y-101682895D02*
X123546741Y-96682895D01*
X123546741Y-96682895D02*
X123070550Y-97397180D01*
X123070550Y-97397180D02*
X122594360Y-97873371D01*
X122594360Y-97873371D02*
X122118169Y-98111466D01*
X127832455Y-98825752D02*
X127356265Y-98587657D01*
X127356265Y-98587657D02*
X127118170Y-98349561D01*
X127118170Y-98349561D02*
X126880074Y-97873371D01*
X126880074Y-97873371D02*
X126880074Y-97635276D01*
X126880074Y-97635276D02*
X127118170Y-97159085D01*
X127118170Y-97159085D02*
X127356265Y-96920990D01*
X127356265Y-96920990D02*
X127832455Y-96682895D01*
X127832455Y-96682895D02*
X128784836Y-96682895D01*
X128784836Y-96682895D02*
X129261027Y-96920990D01*
X129261027Y-96920990D02*
X129499122Y-97159085D01*
X129499122Y-97159085D02*
X129737217Y-97635276D01*
X129737217Y-97635276D02*
X129737217Y-97873371D01*
X129737217Y-97873371D02*
X129499122Y-98349561D01*
X129499122Y-98349561D02*
X129261027Y-98587657D01*
X129261027Y-98587657D02*
X128784836Y-98825752D01*
X128784836Y-98825752D02*
X127832455Y-98825752D01*
X127832455Y-98825752D02*
X127356265Y-99063847D01*
X127356265Y-99063847D02*
X127118170Y-99301942D01*
X127118170Y-99301942D02*
X126880074Y-99778133D01*
X126880074Y-99778133D02*
X126880074Y-100730514D01*
X126880074Y-100730514D02*
X127118170Y-101206704D01*
X127118170Y-101206704D02*
X127356265Y-101444800D01*
X127356265Y-101444800D02*
X127832455Y-101682895D01*
X127832455Y-101682895D02*
X128784836Y-101682895D01*
X128784836Y-101682895D02*
X129261027Y-101444800D01*
X129261027Y-101444800D02*
X129499122Y-101206704D01*
X129499122Y-101206704D02*
X129737217Y-100730514D01*
X129737217Y-100730514D02*
X129737217Y-99778133D01*
X129737217Y-99778133D02*
X129499122Y-99301942D01*
X129499122Y-99301942D02*
X129261027Y-99063847D01*
X129261027Y-99063847D02*
X128784836Y-98825752D01*
X134022932Y-96682895D02*
X133070551Y-96682895D01*
X133070551Y-96682895D02*
X132594360Y-96920990D01*
X132594360Y-96920990D02*
X132356265Y-97159085D01*
X132356265Y-97159085D02*
X131880075Y-97873371D01*
X131880075Y-97873371D02*
X131641979Y-98825752D01*
X131641979Y-98825752D02*
X131641979Y-100730514D01*
X131641979Y-100730514D02*
X131880075Y-101206704D01*
X131880075Y-101206704D02*
X132118170Y-101444800D01*
X132118170Y-101444800D02*
X132594360Y-101682895D01*
X132594360Y-101682895D02*
X133546741Y-101682895D01*
X133546741Y-101682895D02*
X134022932Y-101444800D01*
X134022932Y-101444800D02*
X134261027Y-101206704D01*
X134261027Y-101206704D02*
X134499122Y-100730514D01*
X134499122Y-100730514D02*
X134499122Y-99540038D01*
X134499122Y-99540038D02*
X134261027Y-99063847D01*
X134261027Y-99063847D02*
X134022932Y-98825752D01*
X134022932Y-98825752D02*
X133546741Y-98587657D01*
X133546741Y-98587657D02*
X132594360Y-98587657D01*
X132594360Y-98587657D02*
X132118170Y-98825752D01*
X132118170Y-98825752D02*
X131880075Y-99063847D01*
X131880075Y-99063847D02*
X131641979Y-99540038D01*
X139022932Y-96682895D02*
X136641980Y-96682895D01*
X136641980Y-96682895D02*
X136403884Y-99063847D01*
X136403884Y-99063847D02*
X136641980Y-98825752D01*
X136641980Y-98825752D02*
X137118170Y-98587657D01*
X137118170Y-98587657D02*
X138308646Y-98587657D01*
X138308646Y-98587657D02*
X138784837Y-98825752D01*
X138784837Y-98825752D02*
X139022932Y-99063847D01*
X139022932Y-99063847D02*
X139261027Y-99540038D01*
X139261027Y-99540038D02*
X139261027Y-100730514D01*
X139261027Y-100730514D02*
X139022932Y-101206704D01*
X139022932Y-101206704D02*
X138784837Y-101444800D01*
X138784837Y-101444800D02*
X138308646Y-101682895D01*
X138308646Y-101682895D02*
X137118170Y-101682895D01*
X137118170Y-101682895D02*
X136641980Y-101444800D01*
X136641980Y-101444800D02*
X136403884Y-101206704D01*
X142356266Y-96682895D02*
X142832456Y-96682895D01*
X142832456Y-96682895D02*
X143308647Y-96920990D01*
X143308647Y-96920990D02*
X143546742Y-97159085D01*
X143546742Y-97159085D02*
X143784837Y-97635276D01*
X143784837Y-97635276D02*
X144022932Y-98587657D01*
X144022932Y-98587657D02*
X144022932Y-99778133D01*
X144022932Y-99778133D02*
X143784837Y-100730514D01*
X143784837Y-100730514D02*
X143546742Y-101206704D01*
X143546742Y-101206704D02*
X143308647Y-101444800D01*
X143308647Y-101444800D02*
X142832456Y-101682895D01*
X142832456Y-101682895D02*
X142356266Y-101682895D01*
X142356266Y-101682895D02*
X141880075Y-101444800D01*
X141880075Y-101444800D02*
X141641980Y-101206704D01*
X141641980Y-101206704D02*
X141403885Y-100730514D01*
X141403885Y-100730514D02*
X141165789Y-99778133D01*
X141165789Y-99778133D02*
X141165789Y-98587657D01*
X141165789Y-98587657D02*
X141403885Y-97635276D01*
X141403885Y-97635276D02*
X141641980Y-97159085D01*
X141641980Y-97159085D02*
X141880075Y-96920990D01*
X141880075Y-96920990D02*
X142356266Y-96682895D01*
X124975312Y-128582895D02*
X122118169Y-128582895D01*
X123546741Y-128582895D02*
X123546741Y-123582895D01*
X123546741Y-123582895D02*
X123070550Y-124297180D01*
X123070550Y-124297180D02*
X122594360Y-124773371D01*
X122594360Y-124773371D02*
X122118169Y-125011466D01*
X127832455Y-125725752D02*
X127356265Y-125487657D01*
X127356265Y-125487657D02*
X127118170Y-125249561D01*
X127118170Y-125249561D02*
X126880074Y-124773371D01*
X126880074Y-124773371D02*
X126880074Y-124535276D01*
X126880074Y-124535276D02*
X127118170Y-124059085D01*
X127118170Y-124059085D02*
X127356265Y-123820990D01*
X127356265Y-123820990D02*
X127832455Y-123582895D01*
X127832455Y-123582895D02*
X128784836Y-123582895D01*
X128784836Y-123582895D02*
X129261027Y-123820990D01*
X129261027Y-123820990D02*
X129499122Y-124059085D01*
X129499122Y-124059085D02*
X129737217Y-124535276D01*
X129737217Y-124535276D02*
X129737217Y-124773371D01*
X129737217Y-124773371D02*
X129499122Y-125249561D01*
X129499122Y-125249561D02*
X129261027Y-125487657D01*
X129261027Y-125487657D02*
X128784836Y-125725752D01*
X128784836Y-125725752D02*
X127832455Y-125725752D01*
X127832455Y-125725752D02*
X127356265Y-125963847D01*
X127356265Y-125963847D02*
X127118170Y-126201942D01*
X127118170Y-126201942D02*
X126880074Y-126678133D01*
X126880074Y-126678133D02*
X126880074Y-127630514D01*
X126880074Y-127630514D02*
X127118170Y-128106704D01*
X127118170Y-128106704D02*
X127356265Y-128344800D01*
X127356265Y-128344800D02*
X127832455Y-128582895D01*
X127832455Y-128582895D02*
X128784836Y-128582895D01*
X128784836Y-128582895D02*
X129261027Y-128344800D01*
X129261027Y-128344800D02*
X129499122Y-128106704D01*
X129499122Y-128106704D02*
X129737217Y-127630514D01*
X129737217Y-127630514D02*
X129737217Y-126678133D01*
X129737217Y-126678133D02*
X129499122Y-126201942D01*
X129499122Y-126201942D02*
X129261027Y-125963847D01*
X129261027Y-125963847D02*
X128784836Y-125725752D01*
X134022932Y-123582895D02*
X133070551Y-123582895D01*
X133070551Y-123582895D02*
X132594360Y-123820990D01*
X132594360Y-123820990D02*
X132356265Y-124059085D01*
X132356265Y-124059085D02*
X131880075Y-124773371D01*
X131880075Y-124773371D02*
X131641979Y-125725752D01*
X131641979Y-125725752D02*
X131641979Y-127630514D01*
X131641979Y-127630514D02*
X131880075Y-128106704D01*
X131880075Y-128106704D02*
X132118170Y-128344800D01*
X132118170Y-128344800D02*
X132594360Y-128582895D01*
X132594360Y-128582895D02*
X133546741Y-128582895D01*
X133546741Y-128582895D02*
X134022932Y-128344800D01*
X134022932Y-128344800D02*
X134261027Y-128106704D01*
X134261027Y-128106704D02*
X134499122Y-127630514D01*
X134499122Y-127630514D02*
X134499122Y-126440038D01*
X134499122Y-126440038D02*
X134261027Y-125963847D01*
X134261027Y-125963847D02*
X134022932Y-125725752D01*
X134022932Y-125725752D02*
X133546741Y-125487657D01*
X133546741Y-125487657D02*
X132594360Y-125487657D01*
X132594360Y-125487657D02*
X132118170Y-125725752D01*
X132118170Y-125725752D02*
X131880075Y-125963847D01*
X131880075Y-125963847D02*
X131641979Y-126440038D01*
X139022932Y-123582895D02*
X136641980Y-123582895D01*
X136641980Y-123582895D02*
X136403884Y-125963847D01*
X136403884Y-125963847D02*
X136641980Y-125725752D01*
X136641980Y-125725752D02*
X137118170Y-125487657D01*
X137118170Y-125487657D02*
X138308646Y-125487657D01*
X138308646Y-125487657D02*
X138784837Y-125725752D01*
X138784837Y-125725752D02*
X139022932Y-125963847D01*
X139022932Y-125963847D02*
X139261027Y-126440038D01*
X139261027Y-126440038D02*
X139261027Y-127630514D01*
X139261027Y-127630514D02*
X139022932Y-128106704D01*
X139022932Y-128106704D02*
X138784837Y-128344800D01*
X138784837Y-128344800D02*
X138308646Y-128582895D01*
X138308646Y-128582895D02*
X137118170Y-128582895D01*
X137118170Y-128582895D02*
X136641980Y-128344800D01*
X136641980Y-128344800D02*
X136403884Y-128106704D01*
X142356266Y-123582895D02*
X142832456Y-123582895D01*
X142832456Y-123582895D02*
X143308647Y-123820990D01*
X143308647Y-123820990D02*
X143546742Y-124059085D01*
X143546742Y-124059085D02*
X143784837Y-124535276D01*
X143784837Y-124535276D02*
X144022932Y-125487657D01*
X144022932Y-125487657D02*
X144022932Y-126678133D01*
X144022932Y-126678133D02*
X143784837Y-127630514D01*
X143784837Y-127630514D02*
X143546742Y-128106704D01*
X143546742Y-128106704D02*
X143308647Y-128344800D01*
X143308647Y-128344800D02*
X142832456Y-128582895D01*
X142832456Y-128582895D02*
X142356266Y-128582895D01*
X142356266Y-128582895D02*
X141880075Y-128344800D01*
X141880075Y-128344800D02*
X141641980Y-128106704D01*
X141641980Y-128106704D02*
X141403885Y-127630514D01*
X141403885Y-127630514D02*
X141165789Y-126678133D01*
X141165789Y-126678133D02*
X141165789Y-125487657D01*
X141165789Y-125487657D02*
X141403885Y-124535276D01*
X141403885Y-124535276D02*
X141641980Y-124059085D01*
X141641980Y-124059085D02*
X141880075Y-123820990D01*
X141880075Y-123820990D02*
X142356266Y-123582895D01*
X124975312Y-74782895D02*
X122118169Y-74782895D01*
X123546741Y-74782895D02*
X123546741Y-69782895D01*
X123546741Y-69782895D02*
X123070550Y-70497180D01*
X123070550Y-70497180D02*
X122594360Y-70973371D01*
X122594360Y-70973371D02*
X122118169Y-71211466D01*
X127832455Y-71925752D02*
X127356265Y-71687657D01*
X127356265Y-71687657D02*
X127118170Y-71449561D01*
X127118170Y-71449561D02*
X126880074Y-70973371D01*
X126880074Y-70973371D02*
X126880074Y-70735276D01*
X126880074Y-70735276D02*
X127118170Y-70259085D01*
X127118170Y-70259085D02*
X127356265Y-70020990D01*
X127356265Y-70020990D02*
X127832455Y-69782895D01*
X127832455Y-69782895D02*
X128784836Y-69782895D01*
X128784836Y-69782895D02*
X129261027Y-70020990D01*
X129261027Y-70020990D02*
X129499122Y-70259085D01*
X129499122Y-70259085D02*
X129737217Y-70735276D01*
X129737217Y-70735276D02*
X129737217Y-70973371D01*
X129737217Y-70973371D02*
X129499122Y-71449561D01*
X129499122Y-71449561D02*
X129261027Y-71687657D01*
X129261027Y-71687657D02*
X128784836Y-71925752D01*
X128784836Y-71925752D02*
X127832455Y-71925752D01*
X127832455Y-71925752D02*
X127356265Y-72163847D01*
X127356265Y-72163847D02*
X127118170Y-72401942D01*
X127118170Y-72401942D02*
X126880074Y-72878133D01*
X126880074Y-72878133D02*
X126880074Y-73830514D01*
X126880074Y-73830514D02*
X127118170Y-74306704D01*
X127118170Y-74306704D02*
X127356265Y-74544800D01*
X127356265Y-74544800D02*
X127832455Y-74782895D01*
X127832455Y-74782895D02*
X128784836Y-74782895D01*
X128784836Y-74782895D02*
X129261027Y-74544800D01*
X129261027Y-74544800D02*
X129499122Y-74306704D01*
X129499122Y-74306704D02*
X129737217Y-73830514D01*
X129737217Y-73830514D02*
X129737217Y-72878133D01*
X129737217Y-72878133D02*
X129499122Y-72401942D01*
X129499122Y-72401942D02*
X129261027Y-72163847D01*
X129261027Y-72163847D02*
X128784836Y-71925752D01*
X134022932Y-69782895D02*
X133070551Y-69782895D01*
X133070551Y-69782895D02*
X132594360Y-70020990D01*
X132594360Y-70020990D02*
X132356265Y-70259085D01*
X132356265Y-70259085D02*
X131880075Y-70973371D01*
X131880075Y-70973371D02*
X131641979Y-71925752D01*
X131641979Y-71925752D02*
X131641979Y-73830514D01*
X131641979Y-73830514D02*
X131880075Y-74306704D01*
X131880075Y-74306704D02*
X132118170Y-74544800D01*
X132118170Y-74544800D02*
X132594360Y-74782895D01*
X132594360Y-74782895D02*
X133546741Y-74782895D01*
X133546741Y-74782895D02*
X134022932Y-74544800D01*
X134022932Y-74544800D02*
X134261027Y-74306704D01*
X134261027Y-74306704D02*
X134499122Y-73830514D01*
X134499122Y-73830514D02*
X134499122Y-72640038D01*
X134499122Y-72640038D02*
X134261027Y-72163847D01*
X134261027Y-72163847D02*
X134022932Y-71925752D01*
X134022932Y-71925752D02*
X133546741Y-71687657D01*
X133546741Y-71687657D02*
X132594360Y-71687657D01*
X132594360Y-71687657D02*
X132118170Y-71925752D01*
X132118170Y-71925752D02*
X131880075Y-72163847D01*
X131880075Y-72163847D02*
X131641979Y-72640038D01*
X139022932Y-69782895D02*
X136641980Y-69782895D01*
X136641980Y-69782895D02*
X136403884Y-72163847D01*
X136403884Y-72163847D02*
X136641980Y-71925752D01*
X136641980Y-71925752D02*
X137118170Y-71687657D01*
X137118170Y-71687657D02*
X138308646Y-71687657D01*
X138308646Y-71687657D02*
X138784837Y-71925752D01*
X138784837Y-71925752D02*
X139022932Y-72163847D01*
X139022932Y-72163847D02*
X139261027Y-72640038D01*
X139261027Y-72640038D02*
X139261027Y-73830514D01*
X139261027Y-73830514D02*
X139022932Y-74306704D01*
X139022932Y-74306704D02*
X138784837Y-74544800D01*
X138784837Y-74544800D02*
X138308646Y-74782895D01*
X138308646Y-74782895D02*
X137118170Y-74782895D01*
X137118170Y-74782895D02*
X136641980Y-74544800D01*
X136641980Y-74544800D02*
X136403884Y-74306704D01*
X142356266Y-69782895D02*
X142832456Y-69782895D01*
X142832456Y-69782895D02*
X143308647Y-70020990D01*
X143308647Y-70020990D02*
X143546742Y-70259085D01*
X143546742Y-70259085D02*
X143784837Y-70735276D01*
X143784837Y-70735276D02*
X144022932Y-71687657D01*
X144022932Y-71687657D02*
X144022932Y-72878133D01*
X144022932Y-72878133D02*
X143784837Y-73830514D01*
X143784837Y-73830514D02*
X143546742Y-74306704D01*
X143546742Y-74306704D02*
X143308647Y-74544800D01*
X143308647Y-74544800D02*
X142832456Y-74782895D01*
X142832456Y-74782895D02*
X142356266Y-74782895D01*
X142356266Y-74782895D02*
X141880075Y-74544800D01*
X141880075Y-74544800D02*
X141641980Y-74306704D01*
X141641980Y-74306704D02*
X141403885Y-73830514D01*
X141403885Y-73830514D02*
X141165789Y-72878133D01*
X141165789Y-72878133D02*
X141165789Y-71687657D01*
X141165789Y-71687657D02*
X141403885Y-70735276D01*
X141403885Y-70735276D02*
X141641980Y-70259085D01*
X141641980Y-70259085D02*
X141880075Y-70020990D01*
X141880075Y-70020990D02*
X142356266Y-69782895D01*
D10*
X79038095Y-69854819D02*
X79038095Y-68854819D01*
X79038095Y-69331009D02*
X79609523Y-69331009D01*
X79609523Y-69854819D02*
X79609523Y-68854819D01*
X79990476Y-68854819D02*
X80609523Y-68854819D01*
X80609523Y-68854819D02*
X80276190Y-69235771D01*
X80276190Y-69235771D02*
X80419047Y-69235771D01*
X80419047Y-69235771D02*
X80514285Y-69283390D01*
X80514285Y-69283390D02*
X80561904Y-69331009D01*
X80561904Y-69331009D02*
X80609523Y-69426247D01*
X80609523Y-69426247D02*
X80609523Y-69664342D01*
X80609523Y-69664342D02*
X80561904Y-69759580D01*
X80561904Y-69759580D02*
X80514285Y-69807200D01*
X80514285Y-69807200D02*
X80419047Y-69854819D01*
X80419047Y-69854819D02*
X80133333Y-69854819D01*
X80133333Y-69854819D02*
X80038095Y-69807200D01*
X80038095Y-69807200D02*
X79990476Y-69759580D01*
X79124892Y-137554819D02*
X79124892Y-136554819D01*
X79124892Y-137031009D02*
X79696320Y-137031009D01*
X79696320Y-137554819D02*
X79696320Y-136554819D01*
X80077273Y-136554819D02*
X80696320Y-136554819D01*
X80696320Y-136554819D02*
X80362987Y-136935771D01*
X80362987Y-136935771D02*
X80505844Y-136935771D01*
X80505844Y-136935771D02*
X80601082Y-136983390D01*
X80601082Y-136983390D02*
X80648701Y-137031009D01*
X80648701Y-137031009D02*
X80696320Y-137126247D01*
X80696320Y-137126247D02*
X80696320Y-137364342D01*
X80696320Y-137364342D02*
X80648701Y-137459580D01*
X80648701Y-137459580D02*
X80601082Y-137507200D01*
X80601082Y-137507200D02*
X80505844Y-137554819D01*
X80505844Y-137554819D02*
X80220130Y-137554819D01*
X80220130Y-137554819D02*
X80124892Y-137507200D01*
X80124892Y-137507200D02*
X80077273Y-137459580D01*
X124324892Y-70241616D02*
X124324892Y-69241616D01*
X124324892Y-69717806D02*
X124896320Y-69717806D01*
X124896320Y-70241616D02*
X124896320Y-69241616D01*
X125896320Y-70241616D02*
X125324892Y-70241616D01*
X125610606Y-70241616D02*
X125610606Y-69241616D01*
X125610606Y-69241616D02*
X125515368Y-69384473D01*
X125515368Y-69384473D02*
X125420130Y-69479711D01*
X125420130Y-69479711D02*
X125324892Y-69527330D01*
D11*
X211861904Y-102442580D02*
X211861904Y-101633057D01*
X211861904Y-101633057D02*
X211814285Y-101537819D01*
X211814285Y-101537819D02*
X211766666Y-101490200D01*
X211766666Y-101490200D02*
X211671428Y-101442580D01*
X211671428Y-101442580D02*
X211480952Y-101442580D01*
X211480952Y-101442580D02*
X211385714Y-101490200D01*
X211385714Y-101490200D02*
X211338095Y-101537819D01*
X211338095Y-101537819D02*
X211290476Y-101633057D01*
X211290476Y-101633057D02*
X211290476Y-102442580D01*
X210290476Y-101442580D02*
X210861904Y-101442580D01*
X210576190Y-101442580D02*
X210576190Y-102442580D01*
X210576190Y-102442580D02*
X210671428Y-102299723D01*
X210671428Y-102299723D02*
X210766666Y-102204485D01*
X210766666Y-102204485D02*
X210861904Y-102156866D01*
D10*
X205838095Y-62641616D02*
X205838095Y-61641616D01*
X205838095Y-62117806D02*
X206409523Y-62117806D01*
X206409523Y-62641616D02*
X206409523Y-61641616D01*
X206790476Y-61641616D02*
X207409523Y-61641616D01*
X207409523Y-61641616D02*
X207076190Y-62022568D01*
X207076190Y-62022568D02*
X207219047Y-62022568D01*
X207219047Y-62022568D02*
X207314285Y-62070187D01*
X207314285Y-62070187D02*
X207361904Y-62117806D01*
X207361904Y-62117806D02*
X207409523Y-62213044D01*
X207409523Y-62213044D02*
X207409523Y-62451139D01*
X207409523Y-62451139D02*
X207361904Y-62546377D01*
X207361904Y-62546377D02*
X207314285Y-62593997D01*
X207314285Y-62593997D02*
X207219047Y-62641616D01*
X207219047Y-62641616D02*
X206933333Y-62641616D01*
X206933333Y-62641616D02*
X206838095Y-62593997D01*
X206838095Y-62593997D02*
X206790476Y-62546377D01*
X205738095Y-137554819D02*
X205738095Y-136554819D01*
X205738095Y-137031009D02*
X206309523Y-137031009D01*
X206309523Y-137554819D02*
X206309523Y-136554819D01*
X207309523Y-137554819D02*
X206738095Y-137554819D01*
X207023809Y-137554819D02*
X207023809Y-136554819D01*
X207023809Y-136554819D02*
X206928571Y-136697676D01*
X206928571Y-136697676D02*
X206833333Y-136792914D01*
X206833333Y-136792914D02*
X206738095Y-136840533D01*
D11*
X203903884Y-81572419D02*
X203903884Y-82381942D01*
X203903884Y-82381942D02*
X203951503Y-82477180D01*
X203951503Y-82477180D02*
X203999122Y-82524800D01*
X203999122Y-82524800D02*
X204094360Y-82572419D01*
X204094360Y-82572419D02*
X204284836Y-82572419D01*
X204284836Y-82572419D02*
X204380074Y-82524800D01*
X204380074Y-82524800D02*
X204427693Y-82477180D01*
X204427693Y-82477180D02*
X204475312Y-82381942D01*
X204475312Y-82381942D02*
X204475312Y-81572419D01*
X204856265Y-81572419D02*
X205475312Y-81572419D01*
X205475312Y-81572419D02*
X205141979Y-81953371D01*
X205141979Y-81953371D02*
X205284836Y-81953371D01*
X205284836Y-81953371D02*
X205380074Y-82000990D01*
X205380074Y-82000990D02*
X205427693Y-82048609D01*
X205427693Y-82048609D02*
X205475312Y-82143847D01*
X205475312Y-82143847D02*
X205475312Y-82381942D01*
X205475312Y-82381942D02*
X205427693Y-82477180D01*
X205427693Y-82477180D02*
X205380074Y-82524800D01*
X205380074Y-82524800D02*
X205284836Y-82572419D01*
X205284836Y-82572419D02*
X204999122Y-82572419D01*
X204999122Y-82572419D02*
X204903884Y-82524800D01*
X204903884Y-82524800D02*
X204856265Y-82477180D01*
X205761027Y-81572419D02*
X206094360Y-82572419D01*
X206094360Y-82572419D02*
X206427693Y-81572419D01*
X207189598Y-81905752D02*
X207189598Y-82572419D01*
X206951503Y-81524800D02*
X206713408Y-82239085D01*
X206713408Y-82239085D02*
X207332455Y-82239085D01*
X207903884Y-81572419D02*
X207999122Y-81572419D01*
X207999122Y-81572419D02*
X208094360Y-81620038D01*
X208094360Y-81620038D02*
X208141979Y-81667657D01*
X208141979Y-81667657D02*
X208189598Y-81762895D01*
X208189598Y-81762895D02*
X208237217Y-81953371D01*
X208237217Y-81953371D02*
X208237217Y-82191466D01*
X208237217Y-82191466D02*
X208189598Y-82381942D01*
X208189598Y-82381942D02*
X208141979Y-82477180D01*
X208141979Y-82477180D02*
X208094360Y-82524800D01*
X208094360Y-82524800D02*
X207999122Y-82572419D01*
X207999122Y-82572419D02*
X207903884Y-82572419D01*
X207903884Y-82572419D02*
X207808646Y-82524800D01*
X207808646Y-82524800D02*
X207761027Y-82477180D01*
X207761027Y-82477180D02*
X207713408Y-82381942D01*
X207713408Y-82381942D02*
X207665789Y-82191466D01*
X207665789Y-82191466D02*
X207665789Y-81953371D01*
X207665789Y-81953371D02*
X207713408Y-81762895D01*
X207713408Y-81762895D02*
X207761027Y-81667657D01*
X207761027Y-81667657D02*
X207808646Y-81620038D01*
X207808646Y-81620038D02*
X207903884Y-81572419D01*
X208999122Y-82048609D02*
X208665789Y-82048609D01*
X208665789Y-82572419D02*
X208665789Y-81572419D01*
X208665789Y-81572419D02*
X209141979Y-81572419D01*
X209999122Y-81572419D02*
X209522932Y-81572419D01*
X209522932Y-81572419D02*
X209475313Y-82048609D01*
X209475313Y-82048609D02*
X209522932Y-82000990D01*
X209522932Y-82000990D02*
X209618170Y-81953371D01*
X209618170Y-81953371D02*
X209856265Y-81953371D01*
X209856265Y-81953371D02*
X209951503Y-82000990D01*
X209951503Y-82000990D02*
X209999122Y-82048609D01*
X209999122Y-82048609D02*
X210046741Y-82143847D01*
X210046741Y-82143847D02*
X210046741Y-82381942D01*
X210046741Y-82381942D02*
X209999122Y-82477180D01*
X209999122Y-82477180D02*
X209951503Y-82524800D01*
X209951503Y-82524800D02*
X209856265Y-82572419D01*
X209856265Y-82572419D02*
X209618170Y-82572419D01*
X209618170Y-82572419D02*
X209522932Y-82524800D01*
X209522932Y-82524800D02*
X209475313Y-82477180D01*
%TO.C,U3*%
X94100000Y-89700000D02*
X170300000Y-89700000D01*
X170300000Y-109700000D01*
X94100000Y-109700000D01*
X94100000Y-89700000D01*
%TO.C,U4*%
X94100000Y-116600000D02*
X170300000Y-116600000D01*
X170300000Y-136600000D01*
X94100000Y-136600000D01*
X94100000Y-116600000D01*
%TO.C,U2*%
X94100000Y-62800000D02*
X170300000Y-62800000D01*
X170300000Y-82800000D01*
X94100000Y-82800000D01*
X94100000Y-62800000D01*
%TO.C,U1*%
X225300000Y-108800000D02*
X197300000Y-108800000D01*
X197300000Y-91600000D01*
X225300000Y-91600000D01*
X225300000Y-108800000D01*
%TO.C,U5*%
X199100000Y-74800000D02*
X214100000Y-74800000D01*
X214100000Y-89800000D01*
X199100000Y-89800000D01*
X199100000Y-74800000D01*
%TD*%
M02*
