%TF.GenerationSoftware,KiCad,Pcbnew,8.0.3*%
%TF.CreationDate,2024-06-25T13:40:25-04:00*%
%TF.ProjectId,StringsVR-SheepyHat,53747269-6e67-4735-9652-2d5368656570,rev?*%
%TF.SameCoordinates,Original*%
%TF.FileFunction,Copper,L2,Bot*%
%TF.FilePolarity,Positive*%
%FSLAX46Y46*%
G04 Gerber Fmt 4.6, Leading zero omitted, Abs format (unit mm)*
G04 Created by KiCad (PCBNEW 8.0.3) date 2024-06-25 13:40:25*
%MOMM*%
%LPD*%
G01*
G04 APERTURE LIST*
%TA.AperFunction,ComponentPad*%
%ADD10O,1.200000X5.300000*%
%TD*%
%TA.AperFunction,ComponentPad*%
%ADD11C,1.500000*%
%TD*%
%TA.AperFunction,ComponentPad*%
%ADD12C,2.000000*%
%TD*%
%TA.AperFunction,ComponentPad*%
%ADD13R,2.100000X2.100000*%
%TD*%
%TA.AperFunction,ComponentPad*%
%ADD14C,2.100000*%
%TD*%
%TA.AperFunction,ComponentPad*%
%ADD15R,1.070000X1.800000*%
%TD*%
%TA.AperFunction,ComponentPad*%
%ADD16O,1.070000X1.800000*%
%TD*%
%TA.AperFunction,ComponentPad*%
%ADD17C,1.700000*%
%TD*%
%TA.AperFunction,ComponentPad*%
%ADD18O,1.700000X1.700000*%
%TD*%
%TA.AperFunction,ComponentPad*%
%ADD19R,1.700000X1.700000*%
%TD*%
%TA.AperFunction,ViaPad*%
%ADD20C,0.200000*%
%TD*%
%TA.AperFunction,ViaPad*%
%ADD21C,0.600000*%
%TD*%
%TA.AperFunction,Conductor*%
%ADD22C,0.200000*%
%TD*%
%TA.AperFunction,Conductor*%
%ADD23C,1.000000*%
%TD*%
%TA.AperFunction,Conductor*%
%ADD24C,2.000000*%
%TD*%
G04 APERTURE END LIST*
D10*
%TO.P,SW2,1,1*%
%TO.N,Net-(U4-OUT+)*%
X78055000Y-71285000D03*
%TO.P,SW2,2,2*%
%TO.N,Net-(SW2-Pad2)*%
X85040000Y-71285000D03*
%TD*%
D11*
%TO.P,U2,1,TX0*%
%TO.N,unconnected-(U2-TX0-Pad1)*%
X157040000Y-109485000D03*
%TO.P,U2,2,RX1*%
%TO.N,unconnected-(U2-RX1-Pad2)*%
X154500000Y-109485000D03*
%TO.P,U2,3,GND*%
%TO.N,unconnected-(U2-GND-Pad3)*%
X151960000Y-109485000D03*
%TO.P,U2,4,GND*%
%TO.N,unconnected-(U2-GND-Pad4)*%
X149420000Y-109485000D03*
%TO.P,U2,5,SDA*%
%TO.N,SDA*%
X146880000Y-109485000D03*
%TO.P,U2,6,SCL*%
%TO.N,SCL*%
X144340000Y-109485000D03*
%TO.P,U2,7,Analog*%
%TO.N,unconnected-(U2-Analog-Pad7)*%
X141800000Y-109485000D03*
%TO.P,U2,8,Analog*%
%TO.N,LED_R*%
X139260000Y-109485000D03*
%TO.P,U2,9,Analog*%
%TO.N,LED_G*%
X136720000Y-109485000D03*
%TO.P,U2,10,Analog*%
%TO.N,unconnected-(U2-Analog-Pad10)*%
X134180000Y-109485000D03*
%TO.P,U2,11,Analog*%
%TO.N,unconnected-(U2-Analog-Pad11)*%
X131640000Y-109485000D03*
%TO.P,U2,12,Analog*%
%TO.N,LED_B*%
X129100000Y-109485000D03*
%TO.P,U2,13,RAW*%
%TO.N,unconnected-(U2-RAW-Pad13)*%
X129260000Y-94285000D03*
%TO.P,U2,14,GND*%
%TO.N,unconnected-(U2-GND-Pad14)*%
X131800000Y-94285000D03*
%TO.P,U2,15,RST*%
%TO.N,unconnected-(U2-RST-Pad15)*%
X134340000Y-94285000D03*
%TO.P,U2,16,VCC*%
%TO.N,+3.3V*%
X136880000Y-94285000D03*
%TO.P,U2,17,Analog*%
%TO.N,unconnected-(U2-Analog-Pad17)*%
X139420000Y-94285000D03*
%TO.P,U2,18,Analog*%
%TO.N,unconnected-(U2-Analog-Pad18)*%
X141960000Y-94285000D03*
%TO.P,U2,19,Analog*%
%TO.N,unconnected-(U2-Analog-Pad19)*%
X144500000Y-94285000D03*
%TO.P,U2,20,Analog*%
%TO.N,CE*%
X147040000Y-94285000D03*
%TO.P,U2,21,SCLK*%
%TO.N,SCK*%
X149580000Y-94285000D03*
%TO.P,U2,22,MISO*%
%TO.N,MISO*%
X152120000Y-94285000D03*
%TO.P,U2,23,MOSI*%
%TO.N,MOSI*%
X154660000Y-94285000D03*
%TO.P,U2,24,Analog*%
%TO.N,CSN*%
X157200000Y-94285000D03*
%TD*%
D12*
%TO.P,J1,1,Pin_1*%
%TO.N,+3.3V*%
X147428857Y-113253425D03*
%TO.P,J1,2,Pin_2*%
%TO.N,GND*%
X144888857Y-113253425D03*
%TO.P,J1,3,Pin_3*%
%TO.N,SCL*%
X142348857Y-113253425D03*
%TO.P,J1,4,Pin_4*%
%TO.N,SDA*%
X139808857Y-113253425D03*
%TO.P,J1,5,Pin_5*%
%TO.N,unconnected-(J1-Pin_5-Pad5)*%
X137268857Y-113253425D03*
%TO.P,J1,6,Pin_6*%
%TO.N,unconnected-(J1-Pin_6-Pad6)*%
X134728857Y-113253425D03*
%TO.P,J1,7,Pin_7*%
%TO.N,unconnected-(J1-Pin_7-Pad7)*%
X132188857Y-113253425D03*
%TO.P,J1,8,Pin_8*%
%TO.N,unconnected-(J1-Pin_8-Pad8)*%
X129648857Y-113253425D03*
%TD*%
D13*
%TO.P,J3,1,Pin_1*%
%TO.N,GND*%
X118540000Y-97035000D03*
D14*
%TO.P,J3,2,Pin_2*%
%TO.N,5V regulated*%
X113540000Y-97035000D03*
%TD*%
D13*
%TO.P,J4,1,Pin_1*%
%TO.N,GND*%
X83402500Y-114535000D03*
D14*
%TO.P,J4,2,Pin_2*%
%TO.N,5V regulated*%
X83402500Y-119535000D03*
%TD*%
D12*
%TO.P,U1,1,GND*%
%TO.N,GND*%
X143080000Y-79845000D03*
%TO.P,U1,2,CE*%
%TO.N,CE*%
X143080000Y-82305000D03*
%TO.P,U1,3,SCK*%
%TO.N,SCK*%
X143080000Y-84765000D03*
%TO.P,U1,4,MISO*%
%TO.N,MISO*%
X143080000Y-87225000D03*
%TO.P,U1,5,VCC*%
%TO.N,+3.3V*%
X145540000Y-79825000D03*
%TO.P,U1,6,CSN*%
%TO.N,CSN*%
X145540000Y-82285000D03*
%TO.P,U1,7,MOSI*%
%TO.N,MOSI*%
X145540000Y-84745000D03*
%TO.P,U1,8,IRQ*%
%TO.N,unconnected-(U1-IRQ-Pad8)*%
X145540000Y-87205000D03*
%TD*%
D15*
%TO.P,D1,1,RK*%
%TO.N,Net-(D1-RK)*%
X140828070Y-127925458D03*
D16*
%TO.P,D1,2,A*%
%TO.N,+3.3V*%
X139558070Y-127925458D03*
%TO.P,D1,3,BK*%
%TO.N,Net-(D1-BK)*%
X138288070Y-127925458D03*
%TO.P,D1,4,GK*%
%TO.N,Net-(D1-GK)*%
X137018070Y-127925458D03*
%TD*%
D12*
%TO.P,U3,1,GND*%
%TO.N,GND*%
X134000000Y-90645000D03*
%TO.P,U3,2,CE*%
%TO.N,CE*%
X134000000Y-88185000D03*
%TO.P,U3,3,SCK*%
%TO.N,SCK*%
X134000000Y-85725000D03*
%TO.P,U3,4,MISO*%
%TO.N,MISO*%
X134000000Y-83265000D03*
%TO.P,U3,5,VCC*%
%TO.N,+3.3V*%
X131540000Y-90665000D03*
%TO.P,U3,6,CSN*%
%TO.N,CSN*%
X131540000Y-88205000D03*
%TO.P,U3,7,MOSI*%
%TO.N,MOSI*%
X131540000Y-85745000D03*
%TO.P,U3,8,IRQ*%
%TO.N,unconnected-(U3-IRQ-Pad8)*%
X131540000Y-83285000D03*
%TD*%
D11*
%TO.P,U4,1,+*%
%TO.N,unconnected-(U4-+-Pad1)*%
X69140000Y-80885000D03*
%TO.P,U4,2,-*%
%TO.N,unconnected-(U4---Pad2)*%
X69140000Y-94885000D03*
%TO.P,U4,3,OUT+*%
%TO.N,Net-(U4-OUT+)*%
X92140000Y-80885000D03*
%TO.P,U4,4,B+*%
%TO.N,/B+*%
X92140000Y-83425000D03*
%TO.P,U4,5,B-*%
%TO.N,/B-*%
X92140000Y-92345000D03*
%TO.P,U4,6,OUT-*%
%TO.N,GND*%
X92140000Y-94885000D03*
%TD*%
%TO.P,U5,1,EN*%
%TO.N,unconnected-(U5-EN-Pad1)*%
X92040000Y-110285000D03*
%TO.P,U5,2,VIN*%
%TO.N,Net-(SW2-Pad2)*%
X92040000Y-107885000D03*
%TO.P,U5,3,VIN*%
X92040000Y-105555000D03*
%TO.P,U5,4,GND*%
%TO.N,GND*%
X92040000Y-103015000D03*
%TO.P,U5,5,GND*%
X92040000Y-100685000D03*
%TO.P,U5,6,VOUT*%
%TO.N,5V regulated*%
X92040000Y-98285000D03*
%TD*%
D17*
%TO.P,J2,1,Pin_1*%
%TO.N,unconnected-(J2-Pin_1-Pad1)*%
X114420000Y-73245000D03*
D18*
%TO.P,J2,2,Pin_2*%
%TO.N,5V regulated*%
X114420000Y-75785000D03*
%TO.P,J2,3,Pin_3*%
%TO.N,unconnected-(J2-Pin_3-Pad3)*%
X116960000Y-73245000D03*
%TO.P,J2,4,Pin_4*%
%TO.N,5V regulated*%
X116960000Y-75785000D03*
%TO.P,J2,5,Pin_5*%
%TO.N,unconnected-(J2-Pin_5-Pad5)*%
X119500000Y-73245000D03*
D19*
%TO.P,J2,6,Pin_6*%
%TO.N,GND*%
X119500000Y-75785000D03*
D18*
%TO.P,J2,7,Pin_7*%
%TO.N,unconnected-(J2-Pin_7-Pad7)*%
X122040000Y-73245000D03*
%TO.P,J2,8,Pin_8*%
%TO.N,unconnected-(J2-Pin_8-Pad8)*%
X122040000Y-75785000D03*
D19*
%TO.P,J2,9,Pin_9*%
%TO.N,GND*%
X124580000Y-73245000D03*
D18*
%TO.P,J2,10,Pin_10*%
%TO.N,unconnected-(J2-Pin_10-Pad10)*%
X124580000Y-75785000D03*
%TO.P,J2,11,Pin_11*%
%TO.N,unconnected-(J2-Pin_11-Pad11)*%
X127120000Y-73245000D03*
%TO.P,J2,12,Pin_12*%
%TO.N,unconnected-(J2-Pin_12-Pad12)*%
X127120000Y-75785000D03*
%TO.P,J2,13,Pin_13*%
%TO.N,unconnected-(J2-Pin_13-Pad13)*%
X129660000Y-73245000D03*
D19*
%TO.P,J2,14,Pin_14*%
%TO.N,unconnected-(J2-Pin_14-Pad14)*%
X129660000Y-75785000D03*
D18*
%TO.P,J2,15,Pin_15*%
%TO.N,unconnected-(J2-Pin_15-Pad15)*%
X132200000Y-73245000D03*
%TO.P,J2,16,Pin_16*%
%TO.N,unconnected-(J2-Pin_16-Pad16)*%
X132200000Y-75785000D03*
%TO.P,J2,17,Pin_17*%
%TO.N,+3.3V*%
X134740000Y-73245000D03*
%TO.P,J2,18,Pin_18*%
%TO.N,unconnected-(J2-Pin_18-Pad18)*%
X134740000Y-75785000D03*
%TO.P,J2,19,Pin_19*%
%TO.N,unconnected-(J2-Pin_19-Pad19)*%
X137280000Y-73245000D03*
D19*
%TO.P,J2,20,Pin_20*%
%TO.N,unconnected-(J2-Pin_20-Pad20)*%
X137280000Y-75785000D03*
D18*
%TO.P,J2,21,Pin_21*%
%TO.N,unconnected-(J2-Pin_21-Pad21)*%
X139820000Y-73245000D03*
%TO.P,J2,22,Pin_22*%
%TO.N,unconnected-(J2-Pin_22-Pad22)*%
X139820000Y-75785000D03*
%TO.P,J2,23,Pin_23*%
%TO.N,unconnected-(J2-Pin_23-Pad23)*%
X142360000Y-73245000D03*
%TO.P,J2,24,Pin_24*%
%TO.N,unconnected-(J2-Pin_24-Pad24)*%
X142360000Y-75785000D03*
D19*
%TO.P,J2,25,Pin_25*%
%TO.N,GND*%
X144900000Y-73245000D03*
D18*
%TO.P,J2,26,Pin_26*%
%TO.N,unconnected-(J2-Pin_26-Pad26)*%
X144900000Y-75785000D03*
%TO.P,J2,27,Pin_27*%
%TO.N,unconnected-(J2-Pin_27-Pad27)*%
X147440000Y-73245000D03*
%TO.P,J2,28,Pin_28*%
%TO.N,unconnected-(J2-Pin_28-Pad28)*%
X147440000Y-75785000D03*
%TO.P,J2,29,Pin_29*%
%TO.N,unconnected-(J2-Pin_29-Pad29)*%
X149980000Y-73245000D03*
D19*
%TO.P,J2,30,Pin_30*%
%TO.N,GND*%
X149980000Y-75785000D03*
D18*
%TO.P,J2,31,Pin_31*%
%TO.N,unconnected-(J2-Pin_31-Pad31)*%
X152520000Y-73245000D03*
%TO.P,J2,32,Pin_32*%
%TO.N,unconnected-(J2-Pin_32-Pad32)*%
X152520000Y-75785000D03*
%TO.P,J2,33,Pin_33*%
%TO.N,unconnected-(J2-Pin_33-Pad33)*%
X155060000Y-73245000D03*
D19*
%TO.P,J2,34,Pin_34*%
%TO.N,GND*%
X155060000Y-75785000D03*
D18*
%TO.P,J2,35,Pin_35*%
%TO.N,unconnected-(J2-Pin_35-Pad35)*%
X157600000Y-73245000D03*
%TO.P,J2,36,Pin_36*%
%TO.N,unconnected-(J2-Pin_36-Pad36)*%
X157600000Y-75785000D03*
%TO.P,J2,37,Pin_37*%
%TO.N,unconnected-(J2-Pin_37-Pad37)*%
X160140000Y-73245000D03*
%TO.P,J2,38,Pin_38*%
%TO.N,unconnected-(J2-Pin_38-Pad38)*%
X160140000Y-75785000D03*
D19*
%TO.P,J2,39,Pin_39*%
%TO.N,GND*%
X162680000Y-73245000D03*
D18*
%TO.P,J2,40,Pin_40*%
%TO.N,unconnected-(J2-Pin_40-Pad40)*%
X162680000Y-75785000D03*
%TD*%
D20*
%TO.N,*%
X115040000Y-127535000D03*
D21*
%TO.N,MOSI*%
X143040000Y-90535000D03*
X152540000Y-90535000D03*
%TO.N,SCK*%
X143540000Y-91935000D03*
%TO.N,CE*%
X143040000Y-92635000D03*
%TO.N,CSN*%
X152540000Y-89535000D03*
X143138527Y-89535000D03*
%TD*%
D22*
%TO.N,LED_B*%
X132040000Y-125035000D02*
X133040000Y-125035000D01*
X127240000Y-120235000D02*
X132040000Y-125035000D01*
X129100000Y-109485000D02*
X127240000Y-111345000D01*
X127240000Y-111345000D02*
X127240000Y-120235000D01*
%TO.N,LED_G*%
X127640000Y-118135000D02*
X134540000Y-125035000D01*
X128944693Y-111553425D02*
X127640000Y-112858118D01*
X127640000Y-112858118D02*
X127640000Y-118135000D01*
X134651575Y-111553425D02*
X128944693Y-111553425D01*
X136720000Y-109485000D02*
X134651575Y-111553425D01*
D23*
%TO.N,+3.3V*%
X129840000Y-88965000D02*
X131540000Y-90665000D01*
X134385836Y-78035000D02*
X129840000Y-82580836D01*
X143750000Y-78035000D02*
X134385836Y-78035000D01*
X145540000Y-79825000D02*
X143750000Y-78035000D01*
X129840000Y-82580836D02*
X129840000Y-88965000D01*
D22*
%TO.N,LED_R*%
X136540000Y-126035000D02*
X143040000Y-126035000D01*
X129110379Y-111953425D02*
X128040000Y-113023804D01*
X128040000Y-117535000D02*
X136540000Y-126035000D01*
X139260000Y-109485000D02*
X136791575Y-111953425D01*
X136791575Y-111953425D02*
X129110379Y-111953425D01*
X128040000Y-113023804D02*
X128040000Y-117535000D01*
D24*
%TO.N,5V regulated*%
X114420000Y-75785000D02*
X116960000Y-75785000D01*
X113540000Y-79205000D02*
X114540000Y-78205000D01*
X113540000Y-96785000D02*
X113540000Y-79205000D01*
X116960000Y-75785000D02*
X114540000Y-78205000D01*
X114540000Y-78205000D02*
X114420000Y-78085000D01*
X114420000Y-78085000D02*
X114420000Y-75785000D01*
D22*
%TO.N,MOSI*%
X143040000Y-90535000D02*
X152540000Y-90535000D01*
%TO.N,SCK*%
X141540000Y-86305000D02*
X143080000Y-84765000D01*
X141540000Y-89935000D02*
X141540000Y-86305000D01*
X143540000Y-91935000D02*
X141540000Y-89935000D01*
%TO.N,CE*%
X143040000Y-92635000D02*
X140540000Y-90135000D01*
X140540000Y-84845000D02*
X143080000Y-82305000D01*
X140540000Y-90135000D02*
X140540000Y-84845000D01*
%TO.N,SCL*%
X142348857Y-111476143D02*
X142348857Y-113253425D01*
X144340000Y-109485000D02*
X142348857Y-111476143D01*
%TO.N,CSN*%
X143138527Y-89535000D02*
X152540000Y-89535000D01*
D24*
%TO.N,Net-(SW2-Pad2)*%
X85040000Y-100885000D02*
X89710000Y-105555000D01*
X85040000Y-71285000D02*
X85040000Y-100885000D01*
X92040000Y-107885000D02*
X89710000Y-105555000D01*
X89710000Y-105555000D02*
X92040000Y-105555000D01*
X92040000Y-107885000D02*
X92040000Y-105555000D01*
%TD*%
%TA.AperFunction,Conductor*%
%TO.N,GND*%
G36*
X132817700Y-89139550D02*
G01*
X132870433Y-89173439D01*
X132980256Y-89292738D01*
X133048285Y-89345687D01*
X133079003Y-89369596D01*
X133088893Y-89383339D01*
X133090393Y-89381840D01*
X133870590Y-90162037D01*
X133807007Y-90179075D01*
X133692993Y-90244901D01*
X133599901Y-90337993D01*
X133534075Y-90452007D01*
X133517037Y-90515589D01*
X132759955Y-89758507D01*
X132754872Y-89757570D01*
X132719576Y-89730886D01*
X132559744Y-89557262D01*
X132528381Y-89532851D01*
X132487570Y-89476143D01*
X132483895Y-89406370D01*
X132518526Y-89345687D01*
X132528370Y-89337157D01*
X132559744Y-89312738D01*
X132687978Y-89173437D01*
X132747862Y-89137450D01*
X132817700Y-89139550D01*
G37*
%TD.AperFunction*%
%TA.AperFunction,Conductor*%
G36*
X144320038Y-80731486D02*
G01*
X144325114Y-80732422D01*
X144360424Y-80759114D01*
X144520256Y-80932738D01*
X144536810Y-80945622D01*
X144551616Y-80957147D01*
X144592429Y-81013858D01*
X144596102Y-81083631D01*
X144561470Y-81144314D01*
X144551616Y-81152853D01*
X144520258Y-81177260D01*
X144520256Y-81177261D01*
X144520256Y-81177262D01*
X144501847Y-81197260D01*
X144392024Y-81316559D01*
X144332136Y-81352550D01*
X144262298Y-81350449D01*
X144209565Y-81316559D01*
X144099744Y-81197262D01*
X144042689Y-81152854D01*
X144000995Y-81120402D01*
X143991105Y-81106659D01*
X143989606Y-81108159D01*
X143209409Y-80327962D01*
X143272993Y-80310925D01*
X143387007Y-80245099D01*
X143480099Y-80152007D01*
X143545925Y-80037993D01*
X143562962Y-79974410D01*
X144320038Y-80731486D01*
G37*
%TD.AperFunction*%
%TA.AperFunction,Conductor*%
G36*
X167847050Y-71026466D02*
G01*
X167859955Y-71027823D01*
X168157208Y-71074902D01*
X168169903Y-71077600D01*
X168253606Y-71100028D01*
X168460629Y-71155499D01*
X168472963Y-71159507D01*
X168753943Y-71267364D01*
X168765796Y-71272641D01*
X168899884Y-71340962D01*
X169033971Y-71409283D01*
X169045199Y-71415765D01*
X169297640Y-71579701D01*
X169308108Y-71587307D01*
X169397460Y-71659662D01*
X169542020Y-71776724D01*
X169551665Y-71785409D01*
X169764476Y-71998219D01*
X169773161Y-72007864D01*
X169962569Y-72241760D01*
X169970197Y-72252259D01*
X170102559Y-72456077D01*
X170134121Y-72504677D01*
X170140604Y-72515906D01*
X170224100Y-72679773D01*
X170277245Y-72784075D01*
X170282524Y-72795932D01*
X170390383Y-73076911D01*
X170394394Y-73089254D01*
X170472294Y-73379971D01*
X170474992Y-73392667D01*
X170522075Y-73689922D01*
X170523432Y-73702830D01*
X170539330Y-74006137D01*
X170539500Y-74012628D01*
X170539500Y-103410500D01*
X170519815Y-103477539D01*
X170467011Y-103523294D01*
X170415500Y-103534500D01*
X166105892Y-103534500D01*
X166040000Y-103534500D01*
X165868031Y-103534500D01*
X165789966Y-103542188D01*
X165525750Y-103568210D01*
X165188427Y-103635308D01*
X164859293Y-103735150D01*
X164541535Y-103866770D01*
X164541530Y-103866772D01*
X164238224Y-104028893D01*
X164238206Y-104028904D01*
X163952248Y-104219975D01*
X163952234Y-104219985D01*
X163686367Y-104438176D01*
X163443176Y-104681367D01*
X163224985Y-104947234D01*
X163224975Y-104947248D01*
X163033904Y-105233206D01*
X163033893Y-105233224D01*
X162871772Y-105536530D01*
X162871770Y-105536535D01*
X162740150Y-105854293D01*
X162640308Y-106183427D01*
X162573210Y-106520750D01*
X162550147Y-106754923D01*
X162539500Y-106863031D01*
X162539500Y-106969108D01*
X162539500Y-109969108D01*
X162539500Y-110035000D01*
X162539500Y-110206969D01*
X162547863Y-110291877D01*
X162573210Y-110549249D01*
X162640308Y-110886572D01*
X162740150Y-111215706D01*
X162815280Y-111397086D01*
X162866692Y-111521206D01*
X162871770Y-111533464D01*
X162871772Y-111533469D01*
X163033893Y-111836775D01*
X163033904Y-111836793D01*
X163224975Y-112122751D01*
X163224985Y-112122765D01*
X163443176Y-112388632D01*
X163686367Y-112631823D01*
X163686372Y-112631827D01*
X163686373Y-112631828D01*
X163952240Y-112850019D01*
X164238213Y-113041100D01*
X164238222Y-113041105D01*
X164238224Y-113041106D01*
X164541530Y-113203227D01*
X164541532Y-113203227D01*
X164541538Y-113203231D01*
X164859295Y-113334850D01*
X165188422Y-113434690D01*
X165525750Y-113501789D01*
X165868031Y-113535500D01*
X165974108Y-113535500D01*
X170415500Y-113535500D01*
X170482539Y-113555185D01*
X170528294Y-113607989D01*
X170539500Y-113659500D01*
X170539500Y-123531753D01*
X170539330Y-123538242D01*
X170523409Y-123842043D01*
X170522052Y-123854952D01*
X170474971Y-124152205D01*
X170472273Y-124164901D01*
X170394374Y-124455623D01*
X170390363Y-124467966D01*
X170282510Y-124748934D01*
X170277231Y-124760792D01*
X170140591Y-125028964D01*
X170134101Y-125040204D01*
X169970188Y-125292607D01*
X169962559Y-125303108D01*
X169773149Y-125537010D01*
X169764464Y-125546655D01*
X169551651Y-125759469D01*
X169542005Y-125768154D01*
X169308114Y-125957554D01*
X169297614Y-125965183D01*
X169045203Y-126129101D01*
X169033963Y-126135591D01*
X168765793Y-126272231D01*
X168753935Y-126277510D01*
X168472967Y-126385363D01*
X168460624Y-126389374D01*
X168169902Y-126467273D01*
X168157205Y-126469971D01*
X167859953Y-126517050D01*
X167847046Y-126518407D01*
X167543244Y-126534330D01*
X167536754Y-126534500D01*
X164974108Y-126534500D01*
X164846812Y-126568608D01*
X164732686Y-126634500D01*
X164639494Y-126727691D01*
X164636770Y-126731242D01*
X164580341Y-126772442D01*
X164546842Y-126778279D01*
X164546920Y-126778971D01*
X164371943Y-126798685D01*
X164256941Y-126838927D01*
X164212310Y-126854544D01*
X164212309Y-126854544D01*
X164205955Y-126856768D01*
X164136176Y-126860329D01*
X164124045Y-126856768D01*
X164117690Y-126854544D01*
X164073045Y-126838922D01*
X163958056Y-126798685D01*
X163790003Y-126779751D01*
X163789997Y-126779751D01*
X163621943Y-126798685D01*
X163506941Y-126838927D01*
X163462310Y-126854544D01*
X163462309Y-126854544D01*
X163455955Y-126856768D01*
X163386176Y-126860329D01*
X163374045Y-126856768D01*
X163367690Y-126854544D01*
X163323045Y-126838922D01*
X163208056Y-126798685D01*
X163040003Y-126779751D01*
X163039997Y-126779751D01*
X162871943Y-126798685D01*
X162756941Y-126838927D01*
X162712310Y-126854544D01*
X162712309Y-126854544D01*
X162705955Y-126856768D01*
X162636176Y-126860329D01*
X162624045Y-126856768D01*
X162617690Y-126854544D01*
X162573045Y-126838922D01*
X162458056Y-126798685D01*
X162283080Y-126778971D01*
X162283267Y-126777304D01*
X162224562Y-126760066D01*
X162193228Y-126731240D01*
X162190503Y-126727689D01*
X162097316Y-126634502D01*
X162097314Y-126634500D01*
X162022185Y-126591124D01*
X161983187Y-126568608D01*
X161919539Y-126551554D01*
X161855892Y-126534500D01*
X146605892Y-126534500D01*
X146540000Y-126534500D01*
X146388748Y-126534500D01*
X146388746Y-126534500D01*
X146238598Y-126552731D01*
X146088449Y-126570963D01*
X145992647Y-126594576D01*
X145794727Y-126643358D01*
X145511882Y-126750628D01*
X145244035Y-126891206D01*
X145244026Y-126891212D01*
X144995078Y-127063047D01*
X144995072Y-127063052D01*
X144768648Y-127263646D01*
X144768646Y-127263648D01*
X144568052Y-127490072D01*
X144568047Y-127490078D01*
X144396212Y-127739026D01*
X144396206Y-127739035D01*
X144255628Y-128006882D01*
X144148358Y-128289727D01*
X144127150Y-128375774D01*
X144075963Y-128583449D01*
X144069347Y-128637937D01*
X144049356Y-128802568D01*
X144046036Y-128819709D01*
X144039501Y-128844101D01*
X144039500Y-128844110D01*
X144039500Y-129405572D01*
X144039184Y-129414419D01*
X144024869Y-129614557D01*
X144022351Y-129632068D01*
X143980646Y-129823787D01*
X143975662Y-129840763D01*
X143907090Y-130024609D01*
X143899740Y-130040701D01*
X143805711Y-130212904D01*
X143796146Y-130227789D01*
X143678558Y-130384867D01*
X143666972Y-130398237D01*
X143528237Y-130536972D01*
X143514867Y-130548558D01*
X143357789Y-130666146D01*
X143342904Y-130675711D01*
X143170701Y-130769740D01*
X143154609Y-130777090D01*
X142970763Y-130845662D01*
X142953787Y-130850646D01*
X142762068Y-130892351D01*
X142744557Y-130894869D01*
X142563779Y-130907799D01*
X142544417Y-130909184D01*
X142535572Y-130909500D01*
X134544428Y-130909500D01*
X134535582Y-130909184D01*
X134513622Y-130907613D01*
X134335442Y-130894869D01*
X134317931Y-130892351D01*
X134126212Y-130850646D01*
X134109236Y-130845662D01*
X133925390Y-130777090D01*
X133909298Y-130769740D01*
X133737095Y-130675711D01*
X133722210Y-130666146D01*
X133706213Y-130654171D01*
X133565132Y-130548558D01*
X133551762Y-130536972D01*
X133413027Y-130398237D01*
X133401441Y-130384867D01*
X133283849Y-130227784D01*
X133274288Y-130212904D01*
X133180259Y-130040701D01*
X133172909Y-130024609D01*
X133167371Y-130009761D01*
X133104334Y-129840755D01*
X133099355Y-129823797D01*
X133057647Y-129632063D01*
X133055130Y-129614556D01*
X133052799Y-129581969D01*
X133040816Y-129414418D01*
X133040500Y-129405572D01*
X133040500Y-128883745D01*
X133028017Y-128780944D01*
X133004037Y-128583449D01*
X132931643Y-128289734D01*
X132931642Y-128289731D01*
X132931641Y-128289727D01*
X132824371Y-128006882D01*
X132683793Y-127739035D01*
X132683787Y-127739026D01*
X132511952Y-127490078D01*
X132511947Y-127490072D01*
X132311353Y-127263648D01*
X132311351Y-127263646D01*
X132084927Y-127063052D01*
X132084921Y-127063047D01*
X131835973Y-126891212D01*
X131835964Y-126891206D01*
X131568117Y-126750628D01*
X131285272Y-126643358D01*
X131169820Y-126614902D01*
X130991551Y-126570963D01*
X130811371Y-126549085D01*
X130691254Y-126534500D01*
X130691252Y-126534500D01*
X130605892Y-126534500D01*
X115355892Y-126534500D01*
X115224108Y-126534500D01*
X115096812Y-126568608D01*
X114982686Y-126634500D01*
X114889494Y-126727691D01*
X114886770Y-126731242D01*
X114830341Y-126772442D01*
X114796842Y-126778279D01*
X114796920Y-126778971D01*
X114621943Y-126798685D01*
X114506941Y-126838927D01*
X114462310Y-126854544D01*
X114462309Y-126854544D01*
X114455955Y-126856768D01*
X114386176Y-126860329D01*
X114374045Y-126856768D01*
X114367690Y-126854544D01*
X114323045Y-126838922D01*
X114208056Y-126798685D01*
X114040003Y-126779751D01*
X114039997Y-126779751D01*
X113871943Y-126798685D01*
X113756941Y-126838927D01*
X113712310Y-126854544D01*
X113712309Y-126854544D01*
X113705955Y-126856768D01*
X113636176Y-126860329D01*
X113624045Y-126856768D01*
X113617690Y-126854544D01*
X113573045Y-126838922D01*
X113458056Y-126798685D01*
X113290003Y-126779751D01*
X113289997Y-126779751D01*
X113121943Y-126798685D01*
X113006941Y-126838927D01*
X112962310Y-126854544D01*
X112962309Y-126854544D01*
X112955955Y-126856768D01*
X112886176Y-126860329D01*
X112874045Y-126856768D01*
X112867690Y-126854544D01*
X112823045Y-126838922D01*
X112708056Y-126798685D01*
X112533080Y-126778971D01*
X112533267Y-126777304D01*
X112474562Y-126760066D01*
X112443228Y-126731240D01*
X112440503Y-126727689D01*
X112347316Y-126634502D01*
X112347314Y-126634500D01*
X112272185Y-126591124D01*
X112233187Y-126568608D01*
X112169539Y-126551554D01*
X112105892Y-126534500D01*
X112105890Y-126534499D01*
X112105889Y-126534499D01*
X109605893Y-126534499D01*
X109543246Y-126534499D01*
X109536757Y-126534329D01*
X109232956Y-126518408D01*
X109220047Y-126517051D01*
X108922794Y-126469970D01*
X108910098Y-126467272D01*
X108619376Y-126389373D01*
X108607033Y-126385362D01*
X108326065Y-126277509D01*
X108314207Y-126272230D01*
X108175703Y-126201659D01*
X108046030Y-126135587D01*
X108034811Y-126129110D01*
X107782385Y-125965182D01*
X107771891Y-125957558D01*
X107537990Y-125768148D01*
X107528345Y-125759463D01*
X107315536Y-125546655D01*
X107306851Y-125537010D01*
X107117442Y-125303109D01*
X107109820Y-125292619D01*
X106945886Y-125040183D01*
X106939416Y-125028976D01*
X106802768Y-124760790D01*
X106797490Y-124748934D01*
X106689637Y-124467966D01*
X106685626Y-124455623D01*
X106679966Y-124434500D01*
X106607725Y-124164896D01*
X106605029Y-124152205D01*
X106557950Y-123854953D01*
X106556593Y-123842046D01*
X106540671Y-123538243D01*
X106540586Y-123534998D01*
X107684773Y-123534998D01*
X107684773Y-123535001D01*
X107703657Y-123799027D01*
X107703658Y-123799034D01*
X107759921Y-124057673D01*
X107852426Y-124305690D01*
X107852428Y-124305694D01*
X107979280Y-124538005D01*
X107979285Y-124538013D01*
X108137906Y-124749907D01*
X108137922Y-124749925D01*
X108325074Y-124937077D01*
X108325092Y-124937093D01*
X108536986Y-125095714D01*
X108536994Y-125095719D01*
X108769305Y-125222571D01*
X108769309Y-125222573D01*
X108769311Y-125222574D01*
X109017322Y-125315077D01*
X109017325Y-125315077D01*
X109017326Y-125315078D01*
X109212552Y-125357546D01*
X109275974Y-125371343D01*
X109519660Y-125388772D01*
X109539999Y-125390227D01*
X109540000Y-125390227D01*
X109540001Y-125390227D01*
X109558885Y-125388876D01*
X109804026Y-125371343D01*
X110062678Y-125315077D01*
X110310689Y-125222574D01*
X110543011Y-125095716D01*
X110754915Y-124937087D01*
X110942087Y-124749915D01*
X111100716Y-124538011D01*
X111227574Y-124305689D01*
X111320077Y-124057678D01*
X111376343Y-123799026D01*
X111395227Y-123535000D01*
X111376343Y-123270974D01*
X111356159Y-123178189D01*
X111320078Y-123012326D01*
X111287029Y-122923718D01*
X111227574Y-122764311D01*
X111205762Y-122724366D01*
X111100719Y-122531994D01*
X111100714Y-122531986D01*
X110942093Y-122320092D01*
X110942077Y-122320074D01*
X110754925Y-122132922D01*
X110754907Y-122132906D01*
X110543013Y-121974285D01*
X110543005Y-121974280D01*
X110310694Y-121847428D01*
X110310690Y-121847426D01*
X110062673Y-121754921D01*
X109804034Y-121698658D01*
X109804027Y-121698657D01*
X109540001Y-121679773D01*
X109539999Y-121679773D01*
X109275972Y-121698657D01*
X109275965Y-121698658D01*
X109017326Y-121754921D01*
X108769309Y-121847426D01*
X108769305Y-121847428D01*
X108536994Y-121974280D01*
X108536986Y-121974285D01*
X108325092Y-122132906D01*
X108325074Y-122132922D01*
X108137922Y-122320074D01*
X108137906Y-122320092D01*
X107979285Y-122531986D01*
X107979280Y-122531994D01*
X107852428Y-122764305D01*
X107852426Y-122764309D01*
X107759921Y-123012326D01*
X107703658Y-123270965D01*
X107703657Y-123270972D01*
X107684773Y-123534998D01*
X106540586Y-123534998D01*
X106540501Y-123531753D01*
X106540501Y-123461513D01*
X106540500Y-123461495D01*
X106540500Y-120314054D01*
X126639498Y-120314054D01*
X126680423Y-120466785D01*
X126709358Y-120516900D01*
X126709359Y-120516904D01*
X126709360Y-120516904D01*
X126759479Y-120603714D01*
X126759481Y-120603717D01*
X126878349Y-120722585D01*
X126878355Y-120722590D01*
X131555139Y-125399374D01*
X131555149Y-125399385D01*
X131559479Y-125403715D01*
X131559480Y-125403716D01*
X131671284Y-125515520D01*
X131708507Y-125537010D01*
X131758095Y-125565639D01*
X131758097Y-125565641D01*
X131796151Y-125587611D01*
X131808215Y-125594577D01*
X131960943Y-125635500D01*
X131960945Y-125635500D01*
X133119055Y-125635500D01*
X133119057Y-125635500D01*
X133271784Y-125594577D01*
X133408716Y-125515520D01*
X133520520Y-125403716D01*
X133599577Y-125266784D01*
X133612241Y-125219519D01*
X133648604Y-125159860D01*
X133711450Y-125129330D01*
X133780826Y-125137624D01*
X133819696Y-125163932D01*
X133922545Y-125266781D01*
X134171284Y-125515520D01*
X134171286Y-125515521D01*
X134171290Y-125515524D01*
X134308209Y-125594573D01*
X134308212Y-125594575D01*
X134308216Y-125594577D01*
X134460943Y-125635501D01*
X134460945Y-125635501D01*
X134619056Y-125635501D01*
X134619058Y-125635501D01*
X134771785Y-125594577D01*
X134908716Y-125515520D01*
X134952320Y-125471915D01*
X135013641Y-125438431D01*
X135083332Y-125443415D01*
X135127681Y-125471916D01*
X136055139Y-126399374D01*
X136055149Y-126399385D01*
X136059479Y-126403715D01*
X136059480Y-126403716D01*
X136171284Y-126515520D01*
X136256557Y-126564752D01*
X136302235Y-126591124D01*
X136350450Y-126641691D01*
X136363674Y-126710298D01*
X136337706Y-126775162D01*
X136327917Y-126786192D01*
X136213744Y-126900365D01*
X136100425Y-127069958D01*
X136100418Y-127069971D01*
X136022365Y-127258409D01*
X136022362Y-127258419D01*
X135982570Y-127458467D01*
X135982570Y-127458470D01*
X135982570Y-128392446D01*
X135982570Y-128392448D01*
X135982569Y-128392448D01*
X136022362Y-128592496D01*
X136022365Y-128592506D01*
X136100418Y-128780944D01*
X136100425Y-128780957D01*
X136213744Y-128950550D01*
X136213747Y-128950554D01*
X136357973Y-129094780D01*
X136357977Y-129094783D01*
X136527570Y-129208102D01*
X136527583Y-129208109D01*
X136675204Y-129269255D01*
X136716026Y-129286164D01*
X136716030Y-129286164D01*
X136716031Y-129286165D01*
X136916079Y-129325958D01*
X136916082Y-129325958D01*
X137120060Y-129325958D01*
X137315589Y-129287064D01*
X137320114Y-129286164D01*
X137508563Y-129208106D01*
X137584179Y-129157581D01*
X137650856Y-129136703D01*
X137718236Y-129155187D01*
X137721961Y-129157581D01*
X137797577Y-129208106D01*
X137797579Y-129208107D01*
X137797583Y-129208109D01*
X137945204Y-129269255D01*
X137986026Y-129286164D01*
X137986030Y-129286164D01*
X137986031Y-129286165D01*
X138186079Y-129325958D01*
X138186082Y-129325958D01*
X138390060Y-129325958D01*
X138585589Y-129287064D01*
X138590114Y-129286164D01*
X138778563Y-129208106D01*
X138854179Y-129157581D01*
X138920856Y-129136703D01*
X138988236Y-129155187D01*
X138991961Y-129157581D01*
X139067577Y-129208106D01*
X139067579Y-129208107D01*
X139067583Y-129208109D01*
X139215204Y-129269255D01*
X139256026Y-129286164D01*
X139256030Y-129286164D01*
X139256031Y-129286165D01*
X139456079Y-129325958D01*
X139456082Y-129325958D01*
X139660060Y-129325958D01*
X139855589Y-129287064D01*
X139860114Y-129286164D01*
X139932141Y-129256328D01*
X140001609Y-129248860D01*
X140042137Y-129266502D01*
X140042956Y-129265004D01*
X140050741Y-129269255D01*
X140185587Y-129319549D01*
X140185586Y-129319549D01*
X140192514Y-129320293D01*
X140245197Y-129325958D01*
X141410942Y-129325957D01*
X141470553Y-129319549D01*
X141605401Y-129269254D01*
X141720616Y-129183004D01*
X141806866Y-129067789D01*
X141857161Y-128932941D01*
X141863570Y-128873331D01*
X141863569Y-126977586D01*
X141857161Y-126917975D01*
X141844590Y-126884271D01*
X141814216Y-126802833D01*
X141809232Y-126733141D01*
X141842717Y-126671818D01*
X141904040Y-126638334D01*
X141930398Y-126635500D01*
X143119055Y-126635500D01*
X143119057Y-126635500D01*
X143271784Y-126594577D01*
X143408716Y-126515520D01*
X143520520Y-126403716D01*
X143599577Y-126266784D01*
X143640500Y-126114057D01*
X143640500Y-125955943D01*
X143599577Y-125803216D01*
X143574320Y-125759469D01*
X143520524Y-125666290D01*
X143520518Y-125666282D01*
X143408717Y-125554481D01*
X143408709Y-125554475D01*
X143271790Y-125475426D01*
X143271786Y-125475424D01*
X143271784Y-125475423D01*
X143119057Y-125434500D01*
X143119056Y-125434500D01*
X136840097Y-125434500D01*
X136773058Y-125414815D01*
X136752416Y-125398181D01*
X134889233Y-123534998D01*
X165684773Y-123534998D01*
X165684773Y-123535001D01*
X165703657Y-123799027D01*
X165703658Y-123799034D01*
X165759921Y-124057673D01*
X165852426Y-124305690D01*
X165852428Y-124305694D01*
X165979280Y-124538005D01*
X165979285Y-124538013D01*
X166137906Y-124749907D01*
X166137922Y-124749925D01*
X166325074Y-124937077D01*
X166325092Y-124937093D01*
X166536986Y-125095714D01*
X166536994Y-125095719D01*
X166769305Y-125222571D01*
X166769309Y-125222573D01*
X166769311Y-125222574D01*
X167017322Y-125315077D01*
X167017325Y-125315077D01*
X167017326Y-125315078D01*
X167212552Y-125357546D01*
X167275974Y-125371343D01*
X167519660Y-125388772D01*
X167539999Y-125390227D01*
X167540000Y-125390227D01*
X167540001Y-125390227D01*
X167558885Y-125388876D01*
X167804026Y-125371343D01*
X168062678Y-125315077D01*
X168310689Y-125222574D01*
X168543011Y-125095716D01*
X168754915Y-124937087D01*
X168942087Y-124749915D01*
X169100716Y-124538011D01*
X169227574Y-124305689D01*
X169320077Y-124057678D01*
X169376343Y-123799026D01*
X169395227Y-123535000D01*
X169376343Y-123270974D01*
X169356159Y-123178189D01*
X169320078Y-123012326D01*
X169287029Y-122923718D01*
X169227574Y-122764311D01*
X169205762Y-122724366D01*
X169100719Y-122531994D01*
X169100714Y-122531986D01*
X168942093Y-122320092D01*
X168942077Y-122320074D01*
X168754925Y-122132922D01*
X168754907Y-122132906D01*
X168543013Y-121974285D01*
X168543005Y-121974280D01*
X168310694Y-121847428D01*
X168310690Y-121847426D01*
X168062673Y-121754921D01*
X167804034Y-121698658D01*
X167804027Y-121698657D01*
X167540001Y-121679773D01*
X167539999Y-121679773D01*
X167275972Y-121698657D01*
X167275965Y-121698658D01*
X167017326Y-121754921D01*
X166769309Y-121847426D01*
X166769305Y-121847428D01*
X166536994Y-121974280D01*
X166536986Y-121974285D01*
X166325092Y-122132906D01*
X166325074Y-122132922D01*
X166137922Y-122320074D01*
X166137906Y-122320092D01*
X165979285Y-122531986D01*
X165979280Y-122531994D01*
X165852428Y-122764305D01*
X165852426Y-122764309D01*
X165759921Y-123012326D01*
X165703658Y-123270965D01*
X165703657Y-123270972D01*
X165684773Y-123534998D01*
X134889233Y-123534998D01*
X128676819Y-117322584D01*
X128643334Y-117261261D01*
X128640500Y-117234903D01*
X128640500Y-114621963D01*
X128660185Y-114554924D01*
X128712989Y-114509169D01*
X128782147Y-114499225D01*
X128823518Y-114512908D01*
X128825345Y-114513896D01*
X128825348Y-114513899D01*
X129044047Y-114632253D01*
X129262998Y-114707419D01*
X129277821Y-114712508D01*
X129279243Y-114712996D01*
X129524522Y-114753925D01*
X129773192Y-114753925D01*
X130018471Y-114712996D01*
X130253667Y-114632253D01*
X130472366Y-114513899D01*
X130668601Y-114361163D01*
X130827628Y-114188413D01*
X130887514Y-114152424D01*
X130957352Y-114154524D01*
X131010085Y-114188413D01*
X131169113Y-114361163D01*
X131365348Y-114513899D01*
X131365350Y-114513900D01*
X131583189Y-114631789D01*
X131584047Y-114632253D01*
X131802998Y-114707419D01*
X131817821Y-114712508D01*
X131819243Y-114712996D01*
X132064522Y-114753925D01*
X132313192Y-114753925D01*
X132558471Y-114712996D01*
X132793667Y-114632253D01*
X133012366Y-114513899D01*
X133208601Y-114361163D01*
X133367628Y-114188413D01*
X133427514Y-114152424D01*
X133497352Y-114154524D01*
X133550085Y-114188413D01*
X133709113Y-114361163D01*
X133905348Y-114513899D01*
X133905350Y-114513900D01*
X134123189Y-114631789D01*
X134124047Y-114632253D01*
X134342998Y-114707419D01*
X134357821Y-114712508D01*
X134359243Y-114712996D01*
X134604522Y-114753925D01*
X134853192Y-114753925D01*
X135098471Y-114712996D01*
X135333667Y-114632253D01*
X135552366Y-114513899D01*
X135748601Y-114361163D01*
X135907628Y-114188413D01*
X135967514Y-114152424D01*
X136037352Y-114154524D01*
X136090085Y-114188413D01*
X136249113Y-114361163D01*
X136445348Y-114513899D01*
X136445350Y-114513900D01*
X136663189Y-114631789D01*
X136664047Y-114632253D01*
X136882998Y-114707419D01*
X136897821Y-114712508D01*
X136899243Y-114712996D01*
X137144522Y-114753925D01*
X137393192Y-114753925D01*
X137638471Y-114712996D01*
X137873667Y-114632253D01*
X138092366Y-114513899D01*
X138288601Y-114361163D01*
X138447628Y-114188413D01*
X138507514Y-114152424D01*
X138577352Y-114154524D01*
X138630085Y-114188413D01*
X138789113Y-114361163D01*
X138985348Y-114513899D01*
X138985350Y-114513900D01*
X139203189Y-114631789D01*
X139204047Y-114632253D01*
X139422998Y-114707419D01*
X139437821Y-114712508D01*
X139439243Y-114712996D01*
X139684522Y-114753925D01*
X139933192Y-114753925D01*
X140178471Y-114712996D01*
X140413667Y-114632253D01*
X140632366Y-114513899D01*
X140828601Y-114361163D01*
X140987628Y-114188413D01*
X141047514Y-114152424D01*
X141117352Y-114154524D01*
X141170085Y-114188413D01*
X141329113Y-114361163D01*
X141525348Y-114513899D01*
X141525350Y-114513900D01*
X141743189Y-114631789D01*
X141744047Y-114632253D01*
X141962998Y-114707419D01*
X141977821Y-114712508D01*
X141979243Y-114712996D01*
X142224522Y-114753925D01*
X142473192Y-114753925D01*
X142718471Y-114712996D01*
X142953667Y-114632253D01*
X143172366Y-114513899D01*
X143368601Y-114361163D01*
X143537021Y-114178210D01*
X143537390Y-114177644D01*
X143537602Y-114177463D01*
X143540179Y-114174154D01*
X143540859Y-114174683D01*
X143590533Y-114132285D01*
X143653995Y-114122122D01*
X143665421Y-114123307D01*
X144405894Y-113382834D01*
X144422932Y-113446418D01*
X144488758Y-113560432D01*
X144581850Y-113653524D01*
X144695864Y-113719350D01*
X144759447Y-113736387D01*
X144018799Y-114477034D01*
X144065625Y-114513480D01*
X144065627Y-114513481D01*
X144284242Y-114631789D01*
X144284253Y-114631794D01*
X144519363Y-114712508D01*
X144764564Y-114753425D01*
X145013150Y-114753425D01*
X145258350Y-114712508D01*
X145493460Y-114631794D01*
X145493471Y-114631789D01*
X145712085Y-114513482D01*
X145712088Y-114513480D01*
X145758913Y-114477034D01*
X145018266Y-113736387D01*
X145081850Y-113719350D01*
X145195864Y-113653524D01*
X145288956Y-113560432D01*
X145354782Y-113446418D01*
X145371819Y-113382834D01*
X146112291Y-114123307D01*
X146123718Y-114122122D01*
X146192430Y-114134785D01*
X146236949Y-114174619D01*
X146237540Y-114174160D01*
X146240075Y-114177417D01*
X146240313Y-114177630D01*
X146240688Y-114178205D01*
X146240693Y-114178210D01*
X146409113Y-114361163D01*
X146605348Y-114513899D01*
X146605350Y-114513900D01*
X146823189Y-114631789D01*
X146824047Y-114632253D01*
X147042998Y-114707419D01*
X147057821Y-114712508D01*
X147059243Y-114712996D01*
X147304522Y-114753925D01*
X147553192Y-114753925D01*
X147798471Y-114712996D01*
X148033667Y-114632253D01*
X148252366Y-114513899D01*
X148448601Y-114361163D01*
X148617021Y-114178210D01*
X148753030Y-113970032D01*
X148852920Y-113742306D01*
X148913965Y-113501246D01*
X148918508Y-113446418D01*
X148934500Y-113253430D01*
X148934500Y-113253419D01*
X148913966Y-113005612D01*
X148913964Y-113005600D01*
X148852920Y-112764543D01*
X148753030Y-112536818D01*
X148617023Y-112328642D01*
X148595414Y-112305169D01*
X148448601Y-112145687D01*
X148252366Y-111992951D01*
X148252364Y-111992950D01*
X148252363Y-111992949D01*
X148033668Y-111874597D01*
X148033659Y-111874594D01*
X147798473Y-111793854D01*
X147553192Y-111752925D01*
X147304522Y-111752925D01*
X147059240Y-111793854D01*
X146824054Y-111874594D01*
X146824045Y-111874597D01*
X146605350Y-111992949D01*
X146409114Y-112145686D01*
X146240694Y-112328638D01*
X146240686Y-112328649D01*
X146240312Y-112329222D01*
X146240099Y-112329403D01*
X146237547Y-112332683D01*
X146236871Y-112332157D01*
X146187161Y-112374572D01*
X146123722Y-112384727D01*
X146112291Y-112383541D01*
X145371819Y-113124014D01*
X145354782Y-113060432D01*
X145288956Y-112946418D01*
X145195864Y-112853326D01*
X145081850Y-112787500D01*
X145018267Y-112770462D01*
X145758914Y-112029815D01*
X145758913Y-112029814D01*
X145712086Y-111993368D01*
X145493471Y-111875060D01*
X145493460Y-111875055D01*
X145258350Y-111794341D01*
X145013150Y-111753425D01*
X144764564Y-111753425D01*
X144519363Y-111794341D01*
X144284253Y-111875055D01*
X144284247Y-111875057D01*
X144065618Y-111993374D01*
X144018799Y-112029813D01*
X144018799Y-112029815D01*
X144759447Y-112770462D01*
X144695864Y-112787500D01*
X144581850Y-112853326D01*
X144488758Y-112946418D01*
X144422932Y-113060432D01*
X144405894Y-113124014D01*
X143665421Y-112383541D01*
X143653992Y-112384727D01*
X143585280Y-112372062D01*
X143540767Y-112332227D01*
X143540174Y-112332690D01*
X143537625Y-112329416D01*
X143537392Y-112329207D01*
X143537023Y-112328643D01*
X143537022Y-112328642D01*
X143537021Y-112328640D01*
X143368601Y-112145687D01*
X143172366Y-111992951D01*
X143172364Y-111992950D01*
X143172363Y-111992949D01*
X143014339Y-111907431D01*
X142964749Y-111858211D01*
X142949357Y-111798376D01*
X142949357Y-111776239D01*
X142969042Y-111709200D01*
X142985671Y-111688562D01*
X143938117Y-110736116D01*
X143999440Y-110702632D01*
X144057891Y-110704023D01*
X144122023Y-110721207D01*
X144292450Y-110736117D01*
X144339998Y-110740277D01*
X144340000Y-110740277D01*
X144340002Y-110740277D01*
X144368254Y-110737805D01*
X144557977Y-110721207D01*
X144769330Y-110664575D01*
X144967639Y-110572102D01*
X145146877Y-110446598D01*
X145301598Y-110291877D01*
X145427102Y-110112639D01*
X145497618Y-109961414D01*
X145543790Y-109908977D01*
X145610984Y-109889825D01*
X145677865Y-109910041D01*
X145722381Y-109961414D01*
X145792898Y-110112639D01*
X145918402Y-110291877D01*
X146073123Y-110446598D01*
X146252361Y-110572102D01*
X146450670Y-110664575D01*
X146662023Y-110721207D01*
X146832450Y-110736117D01*
X146879998Y-110740277D01*
X146880000Y-110740277D01*
X146880002Y-110740277D01*
X146908254Y-110737805D01*
X147097977Y-110721207D01*
X147309330Y-110664575D01*
X147507639Y-110572102D01*
X147686877Y-110446598D01*
X147841598Y-110291877D01*
X147967102Y-110112639D01*
X148037618Y-109961414D01*
X148083790Y-109908977D01*
X148150984Y-109889825D01*
X148217865Y-109910041D01*
X148262381Y-109961414D01*
X148332898Y-110112639D01*
X148458402Y-110291877D01*
X148613123Y-110446598D01*
X148792361Y-110572102D01*
X148990670Y-110664575D01*
X149202023Y-110721207D01*
X149372450Y-110736117D01*
X149419998Y-110740277D01*
X149420000Y-110740277D01*
X149420002Y-110740277D01*
X149448254Y-110737805D01*
X149637977Y-110721207D01*
X149849330Y-110664575D01*
X150047639Y-110572102D01*
X150226877Y-110446598D01*
X150381598Y-110291877D01*
X150507102Y-110112639D01*
X150577618Y-109961414D01*
X150623790Y-109908977D01*
X150690984Y-109889825D01*
X150757865Y-109910041D01*
X150802381Y-109961414D01*
X150872898Y-110112639D01*
X150998402Y-110291877D01*
X151153123Y-110446598D01*
X151332361Y-110572102D01*
X151530670Y-110664575D01*
X151742023Y-110721207D01*
X151912450Y-110736117D01*
X151959998Y-110740277D01*
X151960000Y-110740277D01*
X151960002Y-110740277D01*
X151988254Y-110737805D01*
X152177977Y-110721207D01*
X152389330Y-110664575D01*
X152587639Y-110572102D01*
X152766877Y-110446598D01*
X152921598Y-110291877D01*
X153047102Y-110112639D01*
X153117618Y-109961414D01*
X153163790Y-109908977D01*
X153230984Y-109889825D01*
X153297865Y-109910041D01*
X153342381Y-109961414D01*
X153412898Y-110112639D01*
X153538402Y-110291877D01*
X153693123Y-110446598D01*
X153872361Y-110572102D01*
X154070670Y-110664575D01*
X154282023Y-110721207D01*
X154452450Y-110736117D01*
X154499998Y-110740277D01*
X154500000Y-110740277D01*
X154500002Y-110740277D01*
X154528254Y-110737805D01*
X154717977Y-110721207D01*
X154929330Y-110664575D01*
X155127639Y-110572102D01*
X155306877Y-110446598D01*
X155461598Y-110291877D01*
X155587102Y-110112639D01*
X155657618Y-109961414D01*
X155703790Y-109908977D01*
X155770984Y-109889825D01*
X155837865Y-109910041D01*
X155882381Y-109961414D01*
X155952898Y-110112639D01*
X156078402Y-110291877D01*
X156233123Y-110446598D01*
X156412361Y-110572102D01*
X156610670Y-110664575D01*
X156822023Y-110721207D01*
X156992450Y-110736117D01*
X157039998Y-110740277D01*
X157040000Y-110740277D01*
X157040002Y-110740277D01*
X157068254Y-110737805D01*
X157257977Y-110721207D01*
X157469330Y-110664575D01*
X157667639Y-110572102D01*
X157846877Y-110446598D01*
X158001598Y-110291877D01*
X158127102Y-110112639D01*
X158219575Y-109914330D01*
X158276207Y-109702977D01*
X158295277Y-109485000D01*
X158294675Y-109478124D01*
X158291569Y-109442618D01*
X158276207Y-109267023D01*
X158219575Y-109055670D01*
X158127102Y-108857362D01*
X158127100Y-108857359D01*
X158127099Y-108857357D01*
X158001599Y-108678124D01*
X157994909Y-108671434D01*
X157846877Y-108523402D01*
X157667639Y-108397898D01*
X157667640Y-108397898D01*
X157667638Y-108397897D01*
X157556305Y-108345982D01*
X157469330Y-108305425D01*
X157469326Y-108305424D01*
X157469322Y-108305422D01*
X157257977Y-108248793D01*
X157040002Y-108229723D01*
X157039998Y-108229723D01*
X156894682Y-108242436D01*
X156822023Y-108248793D01*
X156822020Y-108248793D01*
X156610677Y-108305422D01*
X156610668Y-108305426D01*
X156412361Y-108397898D01*
X156412357Y-108397900D01*
X156233121Y-108523402D01*
X156078402Y-108678121D01*
X155952900Y-108857357D01*
X155952898Y-108857361D01*
X155882382Y-109008583D01*
X155836209Y-109061022D01*
X155769016Y-109080174D01*
X155702135Y-109059958D01*
X155657618Y-109008583D01*
X155603165Y-108891810D01*
X155587102Y-108857362D01*
X155587100Y-108857359D01*
X155587099Y-108857357D01*
X155461599Y-108678124D01*
X155454909Y-108671434D01*
X155306877Y-108523402D01*
X155127639Y-108397898D01*
X155127640Y-108397898D01*
X155127638Y-108397897D01*
X155016305Y-108345982D01*
X154929330Y-108305425D01*
X154929326Y-108305424D01*
X154929322Y-108305422D01*
X154717977Y-108248793D01*
X154500002Y-108229723D01*
X154499998Y-108229723D01*
X154354682Y-108242436D01*
X154282023Y-108248793D01*
X154282020Y-108248793D01*
X154070677Y-108305422D01*
X154070668Y-108305426D01*
X153872361Y-108397898D01*
X153872357Y-108397900D01*
X153693121Y-108523402D01*
X153538402Y-108678121D01*
X153412900Y-108857357D01*
X153412898Y-108857361D01*
X153342382Y-109008583D01*
X153296209Y-109061022D01*
X153229016Y-109080174D01*
X153162135Y-109059958D01*
X153117618Y-109008583D01*
X153063165Y-108891810D01*
X153047102Y-108857362D01*
X153047100Y-108857359D01*
X153047099Y-108857357D01*
X152921599Y-108678124D01*
X152914909Y-108671434D01*
X152766877Y-108523402D01*
X152587639Y-108397898D01*
X152587640Y-108397898D01*
X152587638Y-108397897D01*
X152476305Y-108345982D01*
X152389330Y-108305425D01*
X152389326Y-108305424D01*
X152389322Y-108305422D01*
X152177977Y-108248793D01*
X151960002Y-108229723D01*
X151959998Y-108229723D01*
X151814682Y-108242436D01*
X151742023Y-108248793D01*
X151742020Y-108248793D01*
X151530677Y-108305422D01*
X151530668Y-108305426D01*
X151332361Y-108397898D01*
X151332357Y-108397900D01*
X151153121Y-108523402D01*
X150998402Y-108678121D01*
X150872900Y-108857357D01*
X150872898Y-108857361D01*
X150802382Y-109008583D01*
X150756209Y-109061022D01*
X150689016Y-109080174D01*
X150622135Y-109059958D01*
X150577618Y-109008583D01*
X150523165Y-108891810D01*
X150507102Y-108857362D01*
X150507100Y-108857359D01*
X150507099Y-108857357D01*
X150381599Y-108678124D01*
X150374909Y-108671434D01*
X150226877Y-108523402D01*
X150047639Y-108397898D01*
X150047640Y-108397898D01*
X150047638Y-108397897D01*
X149936305Y-108345982D01*
X149849330Y-108305425D01*
X149849326Y-108305424D01*
X149849322Y-108305422D01*
X149637977Y-108248793D01*
X149420002Y-108229723D01*
X149419998Y-108229723D01*
X149274682Y-108242436D01*
X149202023Y-108248793D01*
X149202020Y-108248793D01*
X148990677Y-108305422D01*
X148990668Y-108305426D01*
X148792361Y-108397898D01*
X148792357Y-108397900D01*
X148613121Y-108523402D01*
X148458402Y-108678121D01*
X148332900Y-108857357D01*
X148332898Y-108857361D01*
X148262382Y-109008583D01*
X148216209Y-109061022D01*
X148149016Y-109080174D01*
X148082135Y-109059958D01*
X148037618Y-109008583D01*
X147983165Y-108891810D01*
X147967102Y-108857362D01*
X147967100Y-108857359D01*
X147967099Y-108857357D01*
X147841599Y-108678124D01*
X147834909Y-108671434D01*
X147686877Y-108523402D01*
X147507639Y-108397898D01*
X147507640Y-108397898D01*
X147507638Y-108397897D01*
X147396305Y-108345982D01*
X147309330Y-108305425D01*
X147309326Y-108305424D01*
X147309322Y-108305422D01*
X147097977Y-108248793D01*
X146880002Y-108229723D01*
X146879998Y-108229723D01*
X146734682Y-108242436D01*
X146662023Y-108248793D01*
X146662020Y-108248793D01*
X146450677Y-108305422D01*
X146450668Y-108305426D01*
X146252361Y-108397898D01*
X146252357Y-108397900D01*
X146073121Y-108523402D01*
X145918402Y-108678121D01*
X145792900Y-108857357D01*
X145792898Y-108857361D01*
X145722382Y-109008583D01*
X145676209Y-109061022D01*
X145609016Y-109080174D01*
X145542135Y-109059958D01*
X145497618Y-109008583D01*
X145443165Y-108891810D01*
X145427102Y-108857362D01*
X145427100Y-108857359D01*
X145427099Y-108857357D01*
X145301599Y-108678124D01*
X145294909Y-108671434D01*
X145146877Y-108523402D01*
X144967639Y-108397898D01*
X144967640Y-108397898D01*
X144967638Y-108397897D01*
X144856305Y-108345982D01*
X144769330Y-108305425D01*
X144769326Y-108305424D01*
X144769322Y-108305422D01*
X144557977Y-108248793D01*
X144340002Y-108229723D01*
X144339998Y-108229723D01*
X144194682Y-108242436D01*
X144122023Y-108248793D01*
X144122020Y-108248793D01*
X143910677Y-108305422D01*
X143910668Y-108305426D01*
X143712361Y-108397898D01*
X143712357Y-108397900D01*
X143533121Y-108523402D01*
X143378402Y-108678121D01*
X143252900Y-108857357D01*
X143252898Y-108857361D01*
X143182382Y-109008583D01*
X143136209Y-109061022D01*
X143069016Y-109080174D01*
X143002135Y-109059958D01*
X142957618Y-109008583D01*
X142903165Y-108891810D01*
X142887102Y-108857362D01*
X142887100Y-108857359D01*
X142887099Y-108857357D01*
X142761599Y-108678124D01*
X142754909Y-108671434D01*
X142606877Y-108523402D01*
X142427639Y-108397898D01*
X142427640Y-108397898D01*
X142427638Y-108397897D01*
X142316305Y-108345982D01*
X142229330Y-108305425D01*
X142229326Y-108305424D01*
X142229322Y-108305422D01*
X142017977Y-108248793D01*
X141800002Y-108229723D01*
X141799998Y-108229723D01*
X141654682Y-108242436D01*
X141582023Y-108248793D01*
X141582020Y-108248793D01*
X141370677Y-108305422D01*
X141370668Y-108305426D01*
X141172361Y-108397898D01*
X141172357Y-108397900D01*
X140993121Y-108523402D01*
X140838402Y-108678121D01*
X140712900Y-108857357D01*
X140712898Y-108857361D01*
X140642382Y-109008583D01*
X140596209Y-109061022D01*
X140529016Y-109080174D01*
X140462135Y-109059958D01*
X140417618Y-109008583D01*
X140363165Y-108891810D01*
X140347102Y-108857362D01*
X140347100Y-108857359D01*
X140347099Y-108857357D01*
X140221599Y-108678124D01*
X140214909Y-108671434D01*
X140066877Y-108523402D01*
X139887639Y-108397898D01*
X139887640Y-108397898D01*
X139887638Y-108397897D01*
X139776305Y-108345982D01*
X139689330Y-108305425D01*
X139689326Y-108305424D01*
X139689322Y-108305422D01*
X139477977Y-108248793D01*
X139260002Y-108229723D01*
X139259998Y-108229723D01*
X139114682Y-108242436D01*
X139042023Y-108248793D01*
X139042020Y-108248793D01*
X138830677Y-108305422D01*
X138830668Y-108305426D01*
X138632361Y-108397898D01*
X138632357Y-108397900D01*
X138453121Y-108523402D01*
X138298402Y-108678121D01*
X138172900Y-108857357D01*
X138172898Y-108857361D01*
X138102382Y-109008583D01*
X138056209Y-109061022D01*
X137989016Y-109080174D01*
X137922135Y-109059958D01*
X137877618Y-109008583D01*
X137823165Y-108891810D01*
X137807102Y-108857362D01*
X137807100Y-108857359D01*
X137807099Y-108857357D01*
X137681599Y-108678124D01*
X137674909Y-108671434D01*
X137526877Y-108523402D01*
X137347639Y-108397898D01*
X137347640Y-108397898D01*
X137347638Y-108397897D01*
X137236305Y-108345982D01*
X137149330Y-108305425D01*
X137149326Y-108305424D01*
X137149322Y-108305422D01*
X136937977Y-108248793D01*
X136720002Y-108229723D01*
X136719998Y-108229723D01*
X136574682Y-108242436D01*
X136502023Y-108248793D01*
X136502020Y-108248793D01*
X136290677Y-108305422D01*
X136290668Y-108305426D01*
X136092361Y-108397898D01*
X136092357Y-108397900D01*
X135913121Y-108523402D01*
X135758402Y-108678121D01*
X135632900Y-108857357D01*
X135632898Y-108857361D01*
X135562382Y-109008583D01*
X135516209Y-109061022D01*
X135449016Y-109080174D01*
X135382135Y-109059958D01*
X135337618Y-109008583D01*
X135283165Y-108891810D01*
X135267102Y-108857362D01*
X135267100Y-108857359D01*
X135267099Y-108857357D01*
X135141599Y-108678124D01*
X135134909Y-108671434D01*
X134986877Y-108523402D01*
X134807639Y-108397898D01*
X134807640Y-108397898D01*
X134807638Y-108397897D01*
X134696305Y-108345982D01*
X134609330Y-108305425D01*
X134609326Y-108305424D01*
X134609322Y-108305422D01*
X134397977Y-108248793D01*
X134180002Y-108229723D01*
X134179998Y-108229723D01*
X134034682Y-108242436D01*
X133962023Y-108248793D01*
X133962020Y-108248793D01*
X133750677Y-108305422D01*
X133750668Y-108305426D01*
X133552361Y-108397898D01*
X133552357Y-108397900D01*
X133373121Y-108523402D01*
X133218402Y-108678121D01*
X133092900Y-108857357D01*
X133092898Y-108857361D01*
X133022382Y-109008583D01*
X132976209Y-109061022D01*
X132909016Y-109080174D01*
X132842135Y-109059958D01*
X132797618Y-109008583D01*
X132743165Y-108891810D01*
X132727102Y-108857362D01*
X132727100Y-108857359D01*
X132727099Y-108857357D01*
X132601599Y-108678124D01*
X132594909Y-108671434D01*
X132446877Y-108523402D01*
X132267639Y-108397898D01*
X132267640Y-108397898D01*
X132267638Y-108397897D01*
X132156305Y-108345982D01*
X132069330Y-108305425D01*
X132069326Y-108305424D01*
X132069322Y-108305422D01*
X131857977Y-108248793D01*
X131640002Y-108229723D01*
X131639998Y-108229723D01*
X131494682Y-108242436D01*
X131422023Y-108248793D01*
X131422020Y-108248793D01*
X131210677Y-108305422D01*
X131210668Y-108305426D01*
X131012361Y-108397898D01*
X131012357Y-108397900D01*
X130833121Y-108523402D01*
X130678402Y-108678121D01*
X130552900Y-108857357D01*
X130552898Y-108857361D01*
X130482382Y-109008583D01*
X130436209Y-109061022D01*
X130369016Y-109080174D01*
X130302135Y-109059958D01*
X130257618Y-109008583D01*
X130203165Y-108891810D01*
X130187102Y-108857362D01*
X130187100Y-108857359D01*
X130187099Y-108857357D01*
X130061599Y-108678124D01*
X130054909Y-108671434D01*
X129906877Y-108523402D01*
X129727639Y-108397898D01*
X129727640Y-108397898D01*
X129727638Y-108397897D01*
X129616305Y-108345982D01*
X129529330Y-108305425D01*
X129529326Y-108305424D01*
X129529322Y-108305422D01*
X129317977Y-108248793D01*
X129100002Y-108229723D01*
X129099998Y-108229723D01*
X128954682Y-108242436D01*
X128882023Y-108248793D01*
X128882020Y-108248793D01*
X128670677Y-108305422D01*
X128670668Y-108305426D01*
X128472361Y-108397898D01*
X128472357Y-108397900D01*
X128293121Y-108523402D01*
X128138402Y-108678121D01*
X128012900Y-108857357D01*
X128012898Y-108857361D01*
X127920426Y-109055668D01*
X127920422Y-109055677D01*
X127863793Y-109267020D01*
X127863793Y-109267024D01*
X127844723Y-109484997D01*
X127844723Y-109485002D01*
X127863792Y-109702970D01*
X127863795Y-109702984D01*
X127880976Y-109767108D01*
X127879313Y-109836958D01*
X127848882Y-109886881D01*
X126871286Y-110864478D01*
X126759481Y-110976282D01*
X126759477Y-110976287D01*
X126740093Y-111009864D01*
X126735994Y-111016964D01*
X126680423Y-111113215D01*
X126639499Y-111265943D01*
X126639499Y-111265945D01*
X126639499Y-111434046D01*
X126639500Y-111434059D01*
X126639500Y-120148330D01*
X126639499Y-120148348D01*
X126639499Y-120314054D01*
X126639498Y-120314054D01*
X106540500Y-120314054D01*
X106540500Y-113659501D01*
X106560185Y-113592462D01*
X106612989Y-113546707D01*
X106664500Y-113535501D01*
X111113488Y-113535501D01*
X111113504Y-113535500D01*
X111211966Y-113535500D01*
X111211969Y-113535500D01*
X111554249Y-113501789D01*
X111619914Y-113488727D01*
X111891557Y-113434695D01*
X111891568Y-113434692D01*
X111891568Y-113434691D01*
X111891578Y-113434690D01*
X112220705Y-113334850D01*
X112538461Y-113203231D01*
X112841787Y-113041101D01*
X113127760Y-112850019D01*
X113393627Y-112631828D01*
X113636827Y-112388628D01*
X113855019Y-112122761D01*
X114046100Y-111836788D01*
X114208231Y-111533463D01*
X114339850Y-111215706D01*
X114439690Y-110886579D01*
X114506789Y-110549251D01*
X114540500Y-110206970D01*
X114540500Y-110035001D01*
X114540500Y-109969109D01*
X114540500Y-109969108D01*
X114540500Y-106969109D01*
X114540500Y-106969108D01*
X114540500Y-106961514D01*
X114540499Y-106961496D01*
X114540499Y-106863036D01*
X114535564Y-106812932D01*
X114506788Y-106520752D01*
X114483624Y-106404298D01*
X114439694Y-106183443D01*
X114439691Y-106183432D01*
X114439690Y-106183429D01*
X114439689Y-106183423D01*
X114339850Y-105854296D01*
X114208231Y-105536539D01*
X114189444Y-105501392D01*
X114046106Y-105233225D01*
X114046105Y-105233223D01*
X114046100Y-105233214D01*
X113855019Y-104947241D01*
X113636827Y-104681374D01*
X113636826Y-104681373D01*
X113636822Y-104681368D01*
X113393632Y-104438177D01*
X113127765Y-104219986D01*
X113127764Y-104219985D01*
X113127760Y-104219982D01*
X112841787Y-104028901D01*
X112841782Y-104028898D01*
X112841775Y-104028894D01*
X112538469Y-103866773D01*
X112538464Y-103866771D01*
X112538459Y-103866769D01*
X112445394Y-103828220D01*
X112220706Y-103735151D01*
X111891568Y-103635308D01*
X111891557Y-103635305D01*
X111554248Y-103568211D01*
X111296456Y-103542822D01*
X111211969Y-103534501D01*
X111211966Y-103534501D01*
X106664500Y-103534501D01*
X106597461Y-103514816D01*
X106551706Y-103462012D01*
X106540500Y-103410501D01*
X106540500Y-97035000D01*
X111984706Y-97035000D01*
X112003853Y-97278297D01*
X112060830Y-97515619D01*
X112154222Y-97741089D01*
X112281737Y-97949173D01*
X112281738Y-97949176D01*
X112281741Y-97949179D01*
X112440241Y-98134759D01*
X112583897Y-98257453D01*
X112625823Y-98293261D01*
X112625826Y-98293262D01*
X112833910Y-98420777D01*
X113059381Y-98514169D01*
X113059378Y-98514169D01*
X113059384Y-98514170D01*
X113059388Y-98514172D01*
X113296698Y-98571146D01*
X113540000Y-98590294D01*
X113783302Y-98571146D01*
X114020612Y-98514172D01*
X114246089Y-98420777D01*
X114454179Y-98293259D01*
X114639759Y-98134759D01*
X114798259Y-97949179D01*
X114925777Y-97741089D01*
X115019172Y-97515612D01*
X115076146Y-97278302D01*
X115095294Y-97035000D01*
X115076146Y-96791698D01*
X115043926Y-96657493D01*
X115040500Y-96628546D01*
X115040500Y-95937155D01*
X116990000Y-95937155D01*
X116990000Y-96785000D01*
X117885879Y-96785000D01*
X117866901Y-96830818D01*
X117840000Y-96966056D01*
X117840000Y-97103944D01*
X117866901Y-97239182D01*
X117885879Y-97285000D01*
X116990000Y-97285000D01*
X116990000Y-98132844D01*
X116996401Y-98192372D01*
X116996403Y-98192379D01*
X117046645Y-98327086D01*
X117046649Y-98327093D01*
X117132809Y-98442187D01*
X117132812Y-98442190D01*
X117247906Y-98528350D01*
X117247913Y-98528354D01*
X117382620Y-98578596D01*
X117382627Y-98578598D01*
X117442155Y-98584999D01*
X117442172Y-98585000D01*
X118290000Y-98585000D01*
X118290000Y-97689120D01*
X118335818Y-97708099D01*
X118471056Y-97735000D01*
X118608944Y-97735000D01*
X118744182Y-97708099D01*
X118790000Y-97689120D01*
X118790000Y-98585000D01*
X119637828Y-98585000D01*
X119637844Y-98584999D01*
X119697372Y-98578598D01*
X119697379Y-98578596D01*
X119832086Y-98528354D01*
X119832093Y-98528350D01*
X119947187Y-98442190D01*
X119947190Y-98442187D01*
X120033350Y-98327093D01*
X120033354Y-98327086D01*
X120083596Y-98192379D01*
X120083598Y-98192372D01*
X120089999Y-98132844D01*
X120090000Y-98132827D01*
X120090000Y-97285000D01*
X119194121Y-97285000D01*
X119213099Y-97239182D01*
X119240000Y-97103944D01*
X119240000Y-96966056D01*
X119213099Y-96830818D01*
X119194121Y-96785000D01*
X120090000Y-96785000D01*
X120090000Y-95937172D01*
X120089999Y-95937155D01*
X120083598Y-95877627D01*
X120083596Y-95877620D01*
X120033354Y-95742913D01*
X120033350Y-95742906D01*
X119947190Y-95627812D01*
X119947187Y-95627809D01*
X119832093Y-95541649D01*
X119832086Y-95541645D01*
X119697379Y-95491403D01*
X119697372Y-95491401D01*
X119637844Y-95485000D01*
X118790000Y-95485000D01*
X118790000Y-96380879D01*
X118744182Y-96361901D01*
X118608944Y-96335000D01*
X118471056Y-96335000D01*
X118335818Y-96361901D01*
X118290000Y-96380879D01*
X118290000Y-95485000D01*
X117442155Y-95485000D01*
X117382627Y-95491401D01*
X117382620Y-95491403D01*
X117247913Y-95541645D01*
X117247906Y-95541649D01*
X117132812Y-95627809D01*
X117132809Y-95627812D01*
X117046649Y-95742906D01*
X117046645Y-95742913D01*
X116996403Y-95877620D01*
X116996401Y-95877627D01*
X116990000Y-95937155D01*
X115040500Y-95937155D01*
X115040500Y-79877889D01*
X115060185Y-79810850D01*
X115076819Y-79790208D01*
X115329034Y-79537993D01*
X115684518Y-79182510D01*
X115684519Y-79182508D01*
X115691579Y-79175448D01*
X115691584Y-79175441D01*
X118012982Y-76854045D01*
X118074303Y-76820562D01*
X118143995Y-76825546D01*
X118199928Y-76867418D01*
X118203090Y-76872339D01*
X118292809Y-76992187D01*
X118292812Y-76992190D01*
X118407906Y-77078350D01*
X118407913Y-77078354D01*
X118542620Y-77128596D01*
X118542627Y-77128598D01*
X118602155Y-77134999D01*
X118602172Y-77135000D01*
X119250000Y-77135000D01*
X119250000Y-76218012D01*
X119307007Y-76250925D01*
X119434174Y-76285000D01*
X119565826Y-76285000D01*
X119692993Y-76250925D01*
X119750000Y-76218012D01*
X119750000Y-77135000D01*
X120397828Y-77135000D01*
X120397844Y-77134999D01*
X120457372Y-77128598D01*
X120457379Y-77128596D01*
X120592086Y-77078354D01*
X120592093Y-77078350D01*
X120707187Y-76992190D01*
X120707190Y-76992187D01*
X120793350Y-76877093D01*
X120793354Y-76877086D01*
X120842422Y-76745529D01*
X120884293Y-76689595D01*
X120949757Y-76665178D01*
X121018030Y-76680030D01*
X121046285Y-76701181D01*
X121168599Y-76823495D01*
X121255212Y-76884142D01*
X121362165Y-76959032D01*
X121362167Y-76959033D01*
X121362170Y-76959035D01*
X121576337Y-77058903D01*
X121804592Y-77120063D01*
X121981034Y-77135500D01*
X122039999Y-77140659D01*
X122040000Y-77140659D01*
X122040001Y-77140659D01*
X122098966Y-77135500D01*
X122275408Y-77120063D01*
X122503663Y-77058903D01*
X122717830Y-76959035D01*
X122911401Y-76823495D01*
X123078495Y-76656401D01*
X123208425Y-76470842D01*
X123263002Y-76427217D01*
X123332500Y-76420023D01*
X123394855Y-76451546D01*
X123411575Y-76470842D01*
X123541500Y-76656395D01*
X123541505Y-76656401D01*
X123708599Y-76823495D01*
X123795212Y-76884142D01*
X123902165Y-76959032D01*
X123902167Y-76959033D01*
X123902170Y-76959035D01*
X124116337Y-77058903D01*
X124344592Y-77120063D01*
X124521034Y-77135500D01*
X124579999Y-77140659D01*
X124580000Y-77140659D01*
X124580001Y-77140659D01*
X124638966Y-77135500D01*
X124815408Y-77120063D01*
X125043663Y-77058903D01*
X125257830Y-76959035D01*
X125451401Y-76823495D01*
X125618495Y-76656401D01*
X125748425Y-76470842D01*
X125803002Y-76427217D01*
X125872500Y-76420023D01*
X125934855Y-76451546D01*
X125951575Y-76470842D01*
X126081500Y-76656395D01*
X126081505Y-76656401D01*
X126248599Y-76823495D01*
X126335212Y-76884142D01*
X126442165Y-76959032D01*
X126442167Y-76959033D01*
X126442170Y-76959035D01*
X126656337Y-77058903D01*
X126884592Y-77120063D01*
X127061034Y-77135500D01*
X127119999Y-77140659D01*
X127120000Y-77140659D01*
X127120001Y-77140659D01*
X127178966Y-77135500D01*
X127355408Y-77120063D01*
X127583663Y-77058903D01*
X127797830Y-76959035D01*
X127991401Y-76823495D01*
X128113329Y-76701566D01*
X128174648Y-76668084D01*
X128244340Y-76673068D01*
X128300274Y-76714939D01*
X128317189Y-76745917D01*
X128366202Y-76877328D01*
X128366206Y-76877335D01*
X128452452Y-76992544D01*
X128452455Y-76992547D01*
X128567664Y-77078793D01*
X128567671Y-77078797D01*
X128702517Y-77129091D01*
X128702516Y-77129091D01*
X128709444Y-77129835D01*
X128762127Y-77135500D01*
X130557872Y-77135499D01*
X130617483Y-77129091D01*
X130752331Y-77078796D01*
X130867546Y-76992546D01*
X130953796Y-76877331D01*
X131002810Y-76745916D01*
X131044681Y-76689984D01*
X131110145Y-76665566D01*
X131178418Y-76680417D01*
X131206673Y-76701569D01*
X131328599Y-76823495D01*
X131415212Y-76884142D01*
X131522165Y-76959032D01*
X131522167Y-76959033D01*
X131522170Y-76959035D01*
X131736337Y-77058903D01*
X131964592Y-77120063D01*
X132141034Y-77135500D01*
X132199999Y-77140659D01*
X132200000Y-77140659D01*
X132200001Y-77140659D01*
X132258966Y-77135500D01*
X132435408Y-77120063D01*
X132663663Y-77058903D01*
X132877830Y-76959035D01*
X133071401Y-76823495D01*
X133238495Y-76656401D01*
X133368425Y-76470842D01*
X133423002Y-76427217D01*
X133492500Y-76420023D01*
X133554855Y-76451546D01*
X133571575Y-76470842D01*
X133701501Y-76656396D01*
X133701506Y-76656402D01*
X133868597Y-76823493D01*
X133868603Y-76823498D01*
X133991071Y-76909251D01*
X134034696Y-76963828D01*
X134041890Y-77033326D01*
X134010367Y-77095681D01*
X133967402Y-77125387D01*
X133911922Y-77148368D01*
X133911915Y-77148371D01*
X133748055Y-77257859D01*
X133710378Y-77295537D01*
X133608697Y-77397218D01*
X133608694Y-77397221D01*
X129202221Y-81803694D01*
X129202218Y-81803697D01*
X129159322Y-81846593D01*
X129062859Y-81943055D01*
X128953371Y-82106916D01*
X128953364Y-82106929D01*
X128912139Y-82206458D01*
X128912139Y-82206459D01*
X128879604Y-82285005D01*
X128877949Y-82289000D01*
X128871196Y-82322949D01*
X128868222Y-82337900D01*
X128839500Y-82482292D01*
X128839500Y-82482295D01*
X128839500Y-89063541D01*
X128839500Y-89063543D01*
X128839499Y-89063543D01*
X128877947Y-89256829D01*
X128877950Y-89256839D01*
X128953364Y-89438907D01*
X128953371Y-89438920D01*
X129062860Y-89602781D01*
X129062863Y-89602785D01*
X129206537Y-89746459D01*
X129206559Y-89746479D01*
X130000657Y-90540577D01*
X130034142Y-90601900D01*
X130036553Y-90638495D01*
X130034357Y-90665002D01*
X130034357Y-90665005D01*
X130054890Y-90912812D01*
X130054892Y-90912824D01*
X130115936Y-91153881D01*
X130215826Y-91381606D01*
X130351833Y-91589782D01*
X130351836Y-91589785D01*
X130520256Y-91772738D01*
X130716491Y-91925474D01*
X130935190Y-92043828D01*
X131170386Y-92124571D01*
X131415665Y-92165500D01*
X131664335Y-92165500D01*
X131909614Y-92124571D01*
X132144810Y-92043828D01*
X132363509Y-91925474D01*
X132559744Y-91772738D01*
X132728164Y-91589785D01*
X132771084Y-91524090D01*
X132787203Y-91504242D01*
X133517037Y-90774409D01*
X133534075Y-90837993D01*
X133599901Y-90952007D01*
X133692993Y-91045099D01*
X133807007Y-91110925D01*
X133870590Y-91127962D01*
X133129942Y-91868609D01*
X133176768Y-91905055D01*
X133176770Y-91905056D01*
X133395385Y-92023364D01*
X133395396Y-92023369D01*
X133630506Y-92104083D01*
X133875707Y-92145000D01*
X134124293Y-92145000D01*
X134369493Y-92104083D01*
X134604603Y-92023369D01*
X134604614Y-92023364D01*
X134823228Y-91905057D01*
X134823231Y-91905055D01*
X134870056Y-91868609D01*
X134129409Y-91127962D01*
X134192993Y-91110925D01*
X134307007Y-91045099D01*
X134400099Y-90952007D01*
X134465925Y-90837993D01*
X134482962Y-90774410D01*
X135223434Y-91514882D01*
X135323731Y-91361369D01*
X135423587Y-91133717D01*
X135484612Y-90892738D01*
X135484614Y-90892729D01*
X135505141Y-90645005D01*
X135505141Y-90644994D01*
X135484614Y-90397270D01*
X135484612Y-90397261D01*
X135423587Y-90156282D01*
X135323731Y-89928630D01*
X135223434Y-89775116D01*
X134482962Y-90515589D01*
X134465925Y-90452007D01*
X134400099Y-90337993D01*
X134307007Y-90244901D01*
X134192993Y-90179075D01*
X134129410Y-90162037D01*
X134909606Y-89381840D01*
X134910081Y-89382315D01*
X134920994Y-89369598D01*
X135019744Y-89292738D01*
X135188164Y-89109785D01*
X135324173Y-88901607D01*
X135424063Y-88673881D01*
X135485108Y-88432821D01*
X135493401Y-88332738D01*
X135505643Y-88185005D01*
X135505643Y-88184994D01*
X135485109Y-87937187D01*
X135485107Y-87937175D01*
X135424063Y-87696118D01*
X135324173Y-87468393D01*
X135188166Y-87260217D01*
X135137335Y-87205000D01*
X135019744Y-87077262D01*
X134988381Y-87052851D01*
X134947570Y-86996143D01*
X134943895Y-86926370D01*
X134978526Y-86865687D01*
X134988370Y-86857157D01*
X135019744Y-86832738D01*
X135188164Y-86649785D01*
X135324173Y-86441607D01*
X135424063Y-86213881D01*
X135485108Y-85972821D01*
X135493401Y-85872738D01*
X135505643Y-85725005D01*
X135505643Y-85724994D01*
X135485109Y-85477187D01*
X135485107Y-85477175D01*
X135424063Y-85236118D01*
X135324173Y-85008393D01*
X135188166Y-84800217D01*
X135137335Y-84745000D01*
X135019744Y-84617262D01*
X134988381Y-84592851D01*
X134947570Y-84536143D01*
X134943895Y-84466370D01*
X134978526Y-84405687D01*
X134988370Y-84397157D01*
X135019744Y-84372738D01*
X135188164Y-84189785D01*
X135324173Y-83981607D01*
X135424063Y-83753881D01*
X135485108Y-83512821D01*
X135492385Y-83425000D01*
X135505643Y-83265005D01*
X135505643Y-83264994D01*
X135485109Y-83017187D01*
X135485107Y-83017175D01*
X135424063Y-82776118D01*
X135324173Y-82548393D01*
X135188166Y-82340217D01*
X135141016Y-82288999D01*
X135019744Y-82157262D01*
X134823509Y-82004526D01*
X134823507Y-82004525D01*
X134823506Y-82004524D01*
X134604811Y-81886172D01*
X134604802Y-81886169D01*
X134369616Y-81805429D01*
X134124335Y-81764500D01*
X133875665Y-81764500D01*
X133630383Y-81805429D01*
X133395197Y-81886169D01*
X133395188Y-81886172D01*
X133176493Y-82004524D01*
X132980257Y-82157261D01*
X132852024Y-82296559D01*
X132792136Y-82332550D01*
X132722298Y-82330449D01*
X132669565Y-82296559D01*
X132559744Y-82177262D01*
X132363509Y-82024526D01*
X132363507Y-82024525D01*
X132363506Y-82024524D01*
X132151410Y-81909744D01*
X132101820Y-81860524D01*
X132086712Y-81792308D01*
X132110882Y-81726752D01*
X132122747Y-81713008D01*
X134763937Y-79071819D01*
X134825260Y-79038334D01*
X134851618Y-79035500D01*
X141607323Y-79035500D01*
X141674362Y-79055185D01*
X141720117Y-79107989D01*
X141730061Y-79177147D01*
X141720879Y-79209309D01*
X141656412Y-79356279D01*
X141656412Y-79356281D01*
X141595387Y-79597261D01*
X141595385Y-79597270D01*
X141574859Y-79844994D01*
X141574859Y-79845005D01*
X141595385Y-80092729D01*
X141595387Y-80092738D01*
X141656412Y-80333717D01*
X141756266Y-80561364D01*
X141856564Y-80714882D01*
X142597037Y-79974408D01*
X142614075Y-80037993D01*
X142679901Y-80152007D01*
X142772993Y-80245099D01*
X142887007Y-80310925D01*
X142950590Y-80327962D01*
X142170393Y-81108158D01*
X142169920Y-81107685D01*
X142159004Y-81120401D01*
X142060259Y-81197259D01*
X141891833Y-81380217D01*
X141755826Y-81588393D01*
X141655936Y-81816118D01*
X141594892Y-82057175D01*
X141594890Y-82057187D01*
X141574357Y-82304994D01*
X141574357Y-82305005D01*
X141594890Y-82552812D01*
X141594892Y-82552824D01*
X141656007Y-82794160D01*
X141653382Y-82863980D01*
X141623482Y-82912281D01*
X140171286Y-84364478D01*
X140059481Y-84476282D01*
X140059479Y-84476285D01*
X140019535Y-84545472D01*
X140019534Y-84545473D01*
X139985411Y-84604575D01*
X139980423Y-84613215D01*
X139939499Y-84765943D01*
X139939499Y-84765945D01*
X139939499Y-84934046D01*
X139939500Y-84934059D01*
X139939500Y-90048330D01*
X139939499Y-90048348D01*
X139939499Y-90214054D01*
X139939498Y-90214054D01*
X139980423Y-90366786D01*
X139980424Y-90366787D01*
X140008560Y-90415520D01*
X140059480Y-90503716D01*
X140059482Y-90503718D01*
X140178349Y-90622585D01*
X140178355Y-90622590D01*
X142209298Y-92653533D01*
X142242783Y-92714856D01*
X142244837Y-92727330D01*
X142254630Y-92814249D01*
X142278303Y-92881903D01*
X142281864Y-92951682D01*
X142247135Y-93012309D01*
X142185141Y-93044536D01*
X142150454Y-93046385D01*
X141960002Y-93029723D01*
X141959998Y-93029723D01*
X141814682Y-93042436D01*
X141742023Y-93048793D01*
X141742020Y-93048793D01*
X141530677Y-93105422D01*
X141530668Y-93105426D01*
X141332361Y-93197898D01*
X141332357Y-93197900D01*
X141153121Y-93323402D01*
X140998402Y-93478121D01*
X140872900Y-93657357D01*
X140872898Y-93657361D01*
X140802382Y-93808583D01*
X140756209Y-93861022D01*
X140689016Y-93880174D01*
X140622135Y-93859958D01*
X140577618Y-93808583D01*
X140539882Y-93727658D01*
X140507102Y-93657362D01*
X140507100Y-93657359D01*
X140507099Y-93657357D01*
X140381599Y-93478124D01*
X140315474Y-93411999D01*
X140226877Y-93323402D01*
X140047639Y-93197898D01*
X140047640Y-93197898D01*
X140047638Y-93197897D01*
X139948484Y-93151661D01*
X139849330Y-93105425D01*
X139849326Y-93105424D01*
X139849322Y-93105422D01*
X139637977Y-93048793D01*
X139420002Y-93029723D01*
X139419998Y-93029723D01*
X139274682Y-93042436D01*
X139202023Y-93048793D01*
X139202020Y-93048793D01*
X138990677Y-93105422D01*
X138990668Y-93105426D01*
X138792361Y-93197898D01*
X138792357Y-93197900D01*
X138613121Y-93323402D01*
X138458402Y-93478121D01*
X138332900Y-93657357D01*
X138332898Y-93657361D01*
X138262382Y-93808583D01*
X138216209Y-93861022D01*
X138149016Y-93880174D01*
X138082135Y-93859958D01*
X138037618Y-93808583D01*
X137999882Y-93727658D01*
X137967102Y-93657362D01*
X137967100Y-93657359D01*
X137967099Y-93657357D01*
X137841599Y-93478124D01*
X137775474Y-93411999D01*
X137686877Y-93323402D01*
X137507639Y-93197898D01*
X137507640Y-93197898D01*
X137507638Y-93197897D01*
X137408484Y-93151661D01*
X137309330Y-93105425D01*
X137309326Y-93105424D01*
X137309322Y-93105422D01*
X137097977Y-93048793D01*
X136880002Y-93029723D01*
X136879998Y-93029723D01*
X136734682Y-93042436D01*
X136662023Y-93048793D01*
X136662020Y-93048793D01*
X136450677Y-93105422D01*
X136450668Y-93105426D01*
X136252361Y-93197898D01*
X136252357Y-93197900D01*
X136073121Y-93323402D01*
X135918402Y-93478121D01*
X135792900Y-93657357D01*
X135792898Y-93657361D01*
X135722382Y-93808583D01*
X135676209Y-93861022D01*
X135609016Y-93880174D01*
X135542135Y-93859958D01*
X135497618Y-93808583D01*
X135459882Y-93727658D01*
X135427102Y-93657362D01*
X135427100Y-93657359D01*
X135427099Y-93657357D01*
X135301599Y-93478124D01*
X135235474Y-93411999D01*
X135146877Y-93323402D01*
X134967639Y-93197898D01*
X134967640Y-93197898D01*
X134967638Y-93197897D01*
X134868484Y-93151661D01*
X134769330Y-93105425D01*
X134769326Y-93105424D01*
X134769322Y-93105422D01*
X134557977Y-93048793D01*
X134340002Y-93029723D01*
X134339998Y-93029723D01*
X134194682Y-93042436D01*
X134122023Y-93048793D01*
X134122020Y-93048793D01*
X133910677Y-93105422D01*
X133910668Y-93105426D01*
X133712361Y-93197898D01*
X133712357Y-93197900D01*
X133533121Y-93323402D01*
X133378402Y-93478121D01*
X133252900Y-93657357D01*
X133252898Y-93657361D01*
X133182382Y-93808583D01*
X133136209Y-93861022D01*
X133069016Y-93880174D01*
X133002135Y-93859958D01*
X132957618Y-93808583D01*
X132919882Y-93727658D01*
X132887102Y-93657362D01*
X132887100Y-93657359D01*
X132887099Y-93657357D01*
X132761599Y-93478124D01*
X132695474Y-93411999D01*
X132606877Y-93323402D01*
X132427639Y-93197898D01*
X132427640Y-93197898D01*
X132427638Y-93197897D01*
X132328484Y-93151661D01*
X132229330Y-93105425D01*
X132229326Y-93105424D01*
X132229322Y-93105422D01*
X132017977Y-93048793D01*
X131800002Y-93029723D01*
X131799998Y-93029723D01*
X131654682Y-93042436D01*
X131582023Y-93048793D01*
X131582020Y-93048793D01*
X131370677Y-93105422D01*
X131370668Y-93105426D01*
X131172361Y-93197898D01*
X131172357Y-93197900D01*
X130993121Y-93323402D01*
X130838402Y-93478121D01*
X130712900Y-93657357D01*
X130712898Y-93657361D01*
X130642382Y-93808583D01*
X130596209Y-93861022D01*
X130529016Y-93880174D01*
X130462135Y-93859958D01*
X130417618Y-93808583D01*
X130379882Y-93727658D01*
X130347102Y-93657362D01*
X130347100Y-93657359D01*
X130347099Y-93657357D01*
X130221599Y-93478124D01*
X130155474Y-93411999D01*
X130066877Y-93323402D01*
X129887639Y-93197898D01*
X129887640Y-93197898D01*
X129887638Y-93197897D01*
X129788484Y-93151661D01*
X129689330Y-93105425D01*
X129689326Y-93105424D01*
X129689322Y-93105422D01*
X129477977Y-93048793D01*
X129260002Y-93029723D01*
X129259998Y-93029723D01*
X129114682Y-93042436D01*
X129042023Y-93048793D01*
X129042020Y-93048793D01*
X128830677Y-93105422D01*
X128830668Y-93105426D01*
X128632361Y-93197898D01*
X128632357Y-93197900D01*
X128453121Y-93323402D01*
X128298402Y-93478121D01*
X128172900Y-93657357D01*
X128172898Y-93657361D01*
X128080426Y-93855668D01*
X128080422Y-93855677D01*
X128023793Y-94067020D01*
X128023793Y-94067024D01*
X128004723Y-94284997D01*
X128004723Y-94285002D01*
X128023793Y-94502975D01*
X128023793Y-94502979D01*
X128080422Y-94714322D01*
X128080424Y-94714326D01*
X128080425Y-94714330D01*
X128102382Y-94761416D01*
X128172897Y-94912638D01*
X128172898Y-94912639D01*
X128298402Y-95091877D01*
X128453123Y-95246598D01*
X128632361Y-95372102D01*
X128830670Y-95464575D01*
X129042023Y-95521207D01*
X129224926Y-95537208D01*
X129259998Y-95540277D01*
X129260000Y-95540277D01*
X129260002Y-95540277D01*
X129288254Y-95537805D01*
X129477977Y-95521207D01*
X129689330Y-95464575D01*
X129887639Y-95372102D01*
X130066877Y-95246598D01*
X130221598Y-95091877D01*
X130347102Y-94912639D01*
X130417618Y-94761414D01*
X130463790Y-94708977D01*
X130530984Y-94689825D01*
X130597865Y-94710041D01*
X130642381Y-94761414D01*
X130712898Y-94912639D01*
X130838402Y-95091877D01*
X130993123Y-95246598D01*
X131172361Y-95372102D01*
X131370670Y-95464575D01*
X131582023Y-95521207D01*
X131764926Y-95537208D01*
X131799998Y-95540277D01*
X131800000Y-95540277D01*
X131800002Y-95540277D01*
X131828254Y-95537805D01*
X132017977Y-95521207D01*
X132229330Y-95464575D01*
X132427639Y-95372102D01*
X132606877Y-95246598D01*
X132761598Y-95091877D01*
X132887102Y-94912639D01*
X132957618Y-94761414D01*
X133003790Y-94708977D01*
X133070984Y-94689825D01*
X133137865Y-94710041D01*
X133182381Y-94761414D01*
X133252898Y-94912639D01*
X133378402Y-95091877D01*
X133533123Y-95246598D01*
X133712361Y-95372102D01*
X133910670Y-95464575D01*
X134122023Y-95521207D01*
X134304926Y-95537208D01*
X134339998Y-95540277D01*
X134340000Y-95540277D01*
X134340002Y-95540277D01*
X134368254Y-95537805D01*
X134557977Y-95521207D01*
X134769330Y-95464575D01*
X134967639Y-95372102D01*
X135146877Y-95246598D01*
X135301598Y-95091877D01*
X135427102Y-94912639D01*
X135497618Y-94761414D01*
X135543790Y-94708977D01*
X135610984Y-94689825D01*
X135677865Y-94710041D01*
X135722381Y-94761414D01*
X135792898Y-94912639D01*
X135918402Y-95091877D01*
X136073123Y-95246598D01*
X136252361Y-95372102D01*
X136450670Y-95464575D01*
X136662023Y-95521207D01*
X136844926Y-95537208D01*
X136879998Y-95540277D01*
X136880000Y-95540277D01*
X136880002Y-95540277D01*
X136908254Y-95537805D01*
X137097977Y-95521207D01*
X137309330Y-95464575D01*
X137507639Y-95372102D01*
X137686877Y-95246598D01*
X137841598Y-95091877D01*
X137967102Y-94912639D01*
X138037618Y-94761414D01*
X138083790Y-94708977D01*
X138150984Y-94689825D01*
X138217865Y-94710041D01*
X138262381Y-94761414D01*
X138332898Y-94912639D01*
X138458402Y-95091877D01*
X138613123Y-95246598D01*
X138792361Y-95372102D01*
X138990670Y-95464575D01*
X139202023Y-95521207D01*
X139384926Y-95537208D01*
X139419998Y-95540277D01*
X139420000Y-95540277D01*
X139420002Y-95540277D01*
X139448254Y-95537805D01*
X139637977Y-95521207D01*
X139849330Y-95464575D01*
X140047639Y-95372102D01*
X140226877Y-95246598D01*
X140381598Y-95091877D01*
X140507102Y-94912639D01*
X140577618Y-94761414D01*
X140623790Y-94708977D01*
X140690984Y-94689825D01*
X140757865Y-94710041D01*
X140802381Y-94761414D01*
X140872898Y-94912639D01*
X140998402Y-95091877D01*
X141153123Y-95246598D01*
X141332361Y-95372102D01*
X141530670Y-95464575D01*
X141742023Y-95521207D01*
X141924926Y-95537208D01*
X141959998Y-95540277D01*
X141960000Y-95540277D01*
X141960002Y-95540277D01*
X141988254Y-95537805D01*
X142177977Y-95521207D01*
X142389330Y-95464575D01*
X142587639Y-95372102D01*
X142766877Y-95246598D01*
X142921598Y-95091877D01*
X143047102Y-94912639D01*
X143117618Y-94761414D01*
X143163790Y-94708977D01*
X143230984Y-94689825D01*
X143297865Y-94710041D01*
X143342381Y-94761414D01*
X143412898Y-94912639D01*
X143538402Y-95091877D01*
X143693123Y-95246598D01*
X143872361Y-95372102D01*
X144070670Y-95464575D01*
X144282023Y-95521207D01*
X144464926Y-95537208D01*
X144499998Y-95540277D01*
X144500000Y-95540277D01*
X144500002Y-95540277D01*
X144528254Y-95537805D01*
X144717977Y-95521207D01*
X144929330Y-95464575D01*
X145127639Y-95372102D01*
X145306877Y-95246598D01*
X145461598Y-95091877D01*
X145587102Y-94912639D01*
X145657618Y-94761414D01*
X145703790Y-94708977D01*
X145770984Y-94689825D01*
X145837865Y-94710041D01*
X145882381Y-94761414D01*
X145952898Y-94912639D01*
X146078402Y-95091877D01*
X146233123Y-95246598D01*
X146412361Y-95372102D01*
X146610670Y-95464575D01*
X146822023Y-95521207D01*
X147004926Y-95537208D01*
X147039998Y-95540277D01*
X147040000Y-95540277D01*
X147040002Y-95540277D01*
X147068254Y-95537805D01*
X147257977Y-95521207D01*
X147469330Y-95464575D01*
X147667639Y-95372102D01*
X147846877Y-95246598D01*
X148001598Y-95091877D01*
X148127102Y-94912639D01*
X148197618Y-94761414D01*
X148243790Y-94708977D01*
X148310984Y-94689825D01*
X148377865Y-94710041D01*
X148422381Y-94761414D01*
X148492898Y-94912639D01*
X148618402Y-95091877D01*
X148773123Y-95246598D01*
X148952361Y-95372102D01*
X149150670Y-95464575D01*
X149362023Y-95521207D01*
X149544926Y-95537208D01*
X149579998Y-95540277D01*
X149580000Y-95540277D01*
X149580002Y-95540277D01*
X149608254Y-95537805D01*
X149797977Y-95521207D01*
X150009330Y-95464575D01*
X150207639Y-95372102D01*
X150386877Y-95246598D01*
X150541598Y-95091877D01*
X150667102Y-94912639D01*
X150737618Y-94761414D01*
X150783790Y-94708977D01*
X150850984Y-94689825D01*
X150917865Y-94710041D01*
X150962381Y-94761414D01*
X151032898Y-94912639D01*
X151158402Y-95091877D01*
X151313123Y-95246598D01*
X151492361Y-95372102D01*
X151690670Y-95464575D01*
X151902023Y-95521207D01*
X152084926Y-95537208D01*
X152119998Y-95540277D01*
X152120000Y-95540277D01*
X152120002Y-95540277D01*
X152148254Y-95537805D01*
X152337977Y-95521207D01*
X152549330Y-95464575D01*
X152747639Y-95372102D01*
X152926877Y-95246598D01*
X153081598Y-95091877D01*
X153207102Y-94912639D01*
X153277618Y-94761414D01*
X153323790Y-94708977D01*
X153390984Y-94689825D01*
X153457865Y-94710041D01*
X153502381Y-94761414D01*
X153572898Y-94912639D01*
X153698402Y-95091877D01*
X153853123Y-95246598D01*
X154032361Y-95372102D01*
X154230670Y-95464575D01*
X154442023Y-95521207D01*
X154624926Y-95537208D01*
X154659998Y-95540277D01*
X154660000Y-95540277D01*
X154660002Y-95540277D01*
X154688254Y-95537805D01*
X154877977Y-95521207D01*
X155089330Y-95464575D01*
X155287639Y-95372102D01*
X155466877Y-95246598D01*
X155621598Y-95091877D01*
X155747102Y-94912639D01*
X155817618Y-94761414D01*
X155863790Y-94708977D01*
X155930984Y-94689825D01*
X155997865Y-94710041D01*
X156042381Y-94761414D01*
X156112898Y-94912639D01*
X156238402Y-95091877D01*
X156393123Y-95246598D01*
X156572361Y-95372102D01*
X156770670Y-95464575D01*
X156982023Y-95521207D01*
X157164926Y-95537208D01*
X157199998Y-95540277D01*
X157200000Y-95540277D01*
X157200002Y-95540277D01*
X157228254Y-95537805D01*
X157417977Y-95521207D01*
X157629330Y-95464575D01*
X157827639Y-95372102D01*
X158006877Y-95246598D01*
X158161598Y-95091877D01*
X158287102Y-94912639D01*
X158379575Y-94714330D01*
X158436207Y-94502977D01*
X158455277Y-94285000D01*
X158436207Y-94067023D01*
X158379575Y-93855670D01*
X158287102Y-93657362D01*
X158287100Y-93657359D01*
X158287099Y-93657357D01*
X158161599Y-93478124D01*
X158095474Y-93411999D01*
X158006877Y-93323402D01*
X157827639Y-93197898D01*
X157827640Y-93197898D01*
X157827638Y-93197897D01*
X157728484Y-93151661D01*
X157629330Y-93105425D01*
X157629326Y-93105424D01*
X157629322Y-93105422D01*
X157417977Y-93048793D01*
X157200002Y-93029723D01*
X157199998Y-93029723D01*
X157054682Y-93042436D01*
X156982023Y-93048793D01*
X156982020Y-93048793D01*
X156770677Y-93105422D01*
X156770668Y-93105426D01*
X156572361Y-93197898D01*
X156572357Y-93197900D01*
X156393121Y-93323402D01*
X156238402Y-93478121D01*
X156112900Y-93657357D01*
X156112898Y-93657361D01*
X156042382Y-93808583D01*
X155996209Y-93861022D01*
X155929016Y-93880174D01*
X155862135Y-93859958D01*
X155817618Y-93808583D01*
X155779882Y-93727658D01*
X155747102Y-93657362D01*
X155747100Y-93657359D01*
X155747099Y-93657357D01*
X155621599Y-93478124D01*
X155555474Y-93411999D01*
X155466877Y-93323402D01*
X155287639Y-93197898D01*
X155287640Y-93197898D01*
X155287638Y-93197897D01*
X155188484Y-93151661D01*
X155089330Y-93105425D01*
X155089326Y-93105424D01*
X155089322Y-93105422D01*
X154877977Y-93048793D01*
X154660002Y-93029723D01*
X154659998Y-93029723D01*
X154514682Y-93042436D01*
X154442023Y-93048793D01*
X154442020Y-93048793D01*
X154230677Y-93105422D01*
X154230668Y-93105426D01*
X154032361Y-93197898D01*
X154032357Y-93197900D01*
X153853121Y-93323402D01*
X153698402Y-93478121D01*
X153572900Y-93657357D01*
X153572898Y-93657361D01*
X153502382Y-93808583D01*
X153456209Y-93861022D01*
X153389016Y-93880174D01*
X153322135Y-93859958D01*
X153277618Y-93808583D01*
X153239882Y-93727658D01*
X153207102Y-93657362D01*
X153207100Y-93657359D01*
X153207099Y-93657357D01*
X153081599Y-93478124D01*
X153015474Y-93411999D01*
X152926877Y-93323402D01*
X152747639Y-93197898D01*
X152747640Y-93197898D01*
X152747638Y-93197897D01*
X152648484Y-93151661D01*
X152549330Y-93105425D01*
X152549326Y-93105424D01*
X152549322Y-93105422D01*
X152337977Y-93048793D01*
X152120002Y-93029723D01*
X152119998Y-93029723D01*
X151974682Y-93042436D01*
X151902023Y-93048793D01*
X151902020Y-93048793D01*
X151690677Y-93105422D01*
X151690668Y-93105426D01*
X151492361Y-93197898D01*
X151492357Y-93197900D01*
X151313121Y-93323402D01*
X151158402Y-93478121D01*
X151032900Y-93657357D01*
X151032898Y-93657361D01*
X150962382Y-93808583D01*
X150916209Y-93861022D01*
X150849016Y-93880174D01*
X150782135Y-93859958D01*
X150737618Y-93808583D01*
X150699882Y-93727658D01*
X150667102Y-93657362D01*
X150667100Y-93657359D01*
X150667099Y-93657357D01*
X150541599Y-93478124D01*
X150475474Y-93411999D01*
X150386877Y-93323402D01*
X150207639Y-93197898D01*
X150207640Y-93197898D01*
X150207638Y-93197897D01*
X150108484Y-93151661D01*
X150009330Y-93105425D01*
X150009326Y-93105424D01*
X150009322Y-93105422D01*
X149797977Y-93048793D01*
X149580002Y-93029723D01*
X149579998Y-93029723D01*
X149434682Y-93042436D01*
X149362023Y-93048793D01*
X149362020Y-93048793D01*
X149150677Y-93105422D01*
X149150668Y-93105426D01*
X148952361Y-93197898D01*
X148952357Y-93197900D01*
X148773121Y-93323402D01*
X148618402Y-93478121D01*
X148492900Y-93657357D01*
X148492898Y-93657361D01*
X148422382Y-93808583D01*
X148376209Y-93861022D01*
X148309016Y-93880174D01*
X148242135Y-93859958D01*
X148197618Y-93808583D01*
X148159882Y-93727658D01*
X148127102Y-93657362D01*
X148127100Y-93657359D01*
X148127099Y-93657357D01*
X148001599Y-93478124D01*
X147935474Y-93411999D01*
X147846877Y-93323402D01*
X147667639Y-93197898D01*
X147667640Y-93197898D01*
X147667638Y-93197897D01*
X147568484Y-93151661D01*
X147469330Y-93105425D01*
X147469326Y-93105424D01*
X147469322Y-93105422D01*
X147257977Y-93048793D01*
X147040002Y-93029723D01*
X147039998Y-93029723D01*
X146894682Y-93042436D01*
X146822023Y-93048793D01*
X146822020Y-93048793D01*
X146610677Y-93105422D01*
X146610668Y-93105426D01*
X146412361Y-93197898D01*
X146412357Y-93197900D01*
X146233121Y-93323402D01*
X146078402Y-93478121D01*
X145952900Y-93657357D01*
X145952898Y-93657361D01*
X145882382Y-93808583D01*
X145836209Y-93861022D01*
X145769016Y-93880174D01*
X145702135Y-93859958D01*
X145657618Y-93808583D01*
X145619882Y-93727658D01*
X145587102Y-93657362D01*
X145587100Y-93657359D01*
X145587099Y-93657357D01*
X145461599Y-93478124D01*
X145395474Y-93411999D01*
X145306877Y-93323402D01*
X145127639Y-93197898D01*
X145127640Y-93197898D01*
X145127638Y-93197897D01*
X145028484Y-93151661D01*
X144929330Y-93105425D01*
X144929326Y-93105424D01*
X144929322Y-93105422D01*
X144717977Y-93048793D01*
X144500002Y-93029723D01*
X144499998Y-93029723D01*
X144354682Y-93042436D01*
X144282023Y-93048793D01*
X144282020Y-93048793D01*
X144070677Y-93105422D01*
X144070668Y-93105426D01*
X143913126Y-93178889D01*
X143844048Y-93189381D01*
X143780264Y-93160861D01*
X143742025Y-93102385D01*
X143741470Y-93032517D01*
X143755729Y-93000533D01*
X143765788Y-92984523D01*
X143765789Y-92984522D01*
X143825368Y-92814255D01*
X143832402Y-92751817D01*
X143859467Y-92687407D01*
X143889647Y-92660709D01*
X144042262Y-92564816D01*
X144169816Y-92437262D01*
X144265789Y-92284522D01*
X144325368Y-92114255D01*
X144333303Y-92043828D01*
X144345565Y-91935003D01*
X144345565Y-91934996D01*
X144325369Y-91755750D01*
X144325368Y-91755745D01*
X144265788Y-91585476D01*
X144169815Y-91432737D01*
X144084259Y-91347181D01*
X144050774Y-91285858D01*
X144055758Y-91216166D01*
X144097630Y-91160233D01*
X144163094Y-91135816D01*
X144171940Y-91135500D01*
X151957588Y-91135500D01*
X152024627Y-91155185D01*
X152034903Y-91162555D01*
X152037736Y-91164814D01*
X152037738Y-91164816D01*
X152190478Y-91260789D01*
X152317352Y-91305184D01*
X152360745Y-91320368D01*
X152360750Y-91320369D01*
X152539996Y-91340565D01*
X152540000Y-91340565D01*
X152540004Y-91340565D01*
X152719249Y-91320369D01*
X152719252Y-91320368D01*
X152719255Y-91320368D01*
X152889522Y-91260789D01*
X153042262Y-91164816D01*
X153169816Y-91037262D01*
X153265789Y-90884522D01*
X153325368Y-90714255D01*
X153325369Y-90714249D01*
X153345565Y-90535003D01*
X153345565Y-90534996D01*
X153325369Y-90355750D01*
X153325368Y-90355745D01*
X153265788Y-90185475D01*
X153212691Y-90100973D01*
X153193690Y-90033736D01*
X153212691Y-89969027D01*
X153265788Y-89884524D01*
X153265789Y-89884522D01*
X153325368Y-89714255D01*
X153328608Y-89685500D01*
X153345565Y-89535003D01*
X153345565Y-89534996D01*
X153325369Y-89355750D01*
X153325368Y-89355745D01*
X153265788Y-89185476D01*
X153169815Y-89032737D01*
X153042262Y-88905184D01*
X152889523Y-88809211D01*
X152719254Y-88749631D01*
X152719249Y-88749630D01*
X152540004Y-88729435D01*
X152539996Y-88729435D01*
X152360750Y-88749630D01*
X152360745Y-88749631D01*
X152190476Y-88809211D01*
X152037736Y-88905185D01*
X152034903Y-88907445D01*
X152032724Y-88908334D01*
X152031842Y-88908889D01*
X152031744Y-88908734D01*
X151970217Y-88933855D01*
X151957588Y-88934500D01*
X145788474Y-88934500D01*
X145721435Y-88914815D01*
X145675680Y-88862011D01*
X145665736Y-88792853D01*
X145694761Y-88729297D01*
X145753539Y-88691523D01*
X145768065Y-88688191D01*
X145790609Y-88684428D01*
X145909614Y-88664571D01*
X146144810Y-88583828D01*
X146363509Y-88465474D01*
X146559744Y-88312738D01*
X146728164Y-88129785D01*
X146864173Y-87921607D01*
X146964063Y-87693881D01*
X147025108Y-87452821D01*
X147041877Y-87250449D01*
X147045643Y-87205005D01*
X147045643Y-87204994D01*
X147025109Y-86957187D01*
X147025107Y-86957175D01*
X146964063Y-86716118D01*
X146864173Y-86488393D01*
X146728166Y-86280217D01*
X146667099Y-86213881D01*
X146559744Y-86097262D01*
X146528381Y-86072851D01*
X146487570Y-86016143D01*
X146483895Y-85946370D01*
X146518526Y-85885687D01*
X146528370Y-85877157D01*
X146559744Y-85852738D01*
X146728164Y-85669785D01*
X146864173Y-85461607D01*
X146964063Y-85233881D01*
X147025108Y-84992821D01*
X147025109Y-84992812D01*
X147045643Y-84745005D01*
X147045643Y-84744994D01*
X147025109Y-84497187D01*
X147025107Y-84497175D01*
X146964063Y-84256118D01*
X146864173Y-84028393D01*
X146728166Y-83820217D01*
X146667099Y-83753881D01*
X146559744Y-83637262D01*
X146528381Y-83612851D01*
X146487570Y-83556143D01*
X146483895Y-83486370D01*
X146518526Y-83425687D01*
X146528370Y-83417157D01*
X146559744Y-83392738D01*
X146728164Y-83209785D01*
X146729969Y-83207023D01*
X146853999Y-83017179D01*
X146864173Y-83001607D01*
X146964063Y-82773881D01*
X147025108Y-82532821D01*
X147030860Y-82463403D01*
X147045643Y-82285005D01*
X147045643Y-82284994D01*
X147025109Y-82037187D01*
X147025107Y-82037175D01*
X146964063Y-81796118D01*
X146864173Y-81568393D01*
X146728166Y-81360217D01*
X146685924Y-81314330D01*
X146559744Y-81177262D01*
X146528381Y-81152851D01*
X146487570Y-81096143D01*
X146483895Y-81026370D01*
X146518526Y-80965687D01*
X146528370Y-80957157D01*
X146559744Y-80932738D01*
X146728164Y-80749785D01*
X146864173Y-80541607D01*
X146964063Y-80313881D01*
X147025108Y-80072821D01*
X147037489Y-79923403D01*
X147045643Y-79825005D01*
X147045643Y-79824994D01*
X147025109Y-79577187D01*
X147025107Y-79577175D01*
X146964063Y-79336118D01*
X146864173Y-79108393D01*
X146728166Y-78900217D01*
X146685280Y-78853631D01*
X146559744Y-78717262D01*
X146363509Y-78564526D01*
X146363507Y-78564525D01*
X146363506Y-78564524D01*
X146144811Y-78446172D01*
X146144802Y-78446169D01*
X145909616Y-78365429D01*
X145664335Y-78324500D01*
X145505783Y-78324500D01*
X145438744Y-78304815D01*
X145418102Y-78288181D01*
X144534209Y-77404289D01*
X144534206Y-77404285D01*
X144534206Y-77404286D01*
X144527139Y-77397219D01*
X144527139Y-77397218D01*
X144425458Y-77295537D01*
X144391974Y-77234214D01*
X144396958Y-77164522D01*
X144438830Y-77108589D01*
X144504295Y-77084172D01*
X144545231Y-77088080D01*
X144664592Y-77120063D01*
X144841034Y-77135500D01*
X144899999Y-77140659D01*
X144900000Y-77140659D01*
X144900001Y-77140659D01*
X144958966Y-77135500D01*
X145135408Y-77120063D01*
X145363663Y-77058903D01*
X145577830Y-76959035D01*
X145771401Y-76823495D01*
X145938495Y-76656401D01*
X146068425Y-76470842D01*
X146123002Y-76427217D01*
X146192500Y-76420023D01*
X146254855Y-76451546D01*
X146271575Y-76470842D01*
X146401500Y-76656395D01*
X146401505Y-76656401D01*
X146568599Y-76823495D01*
X146655212Y-76884142D01*
X146762165Y-76959032D01*
X146762167Y-76959033D01*
X146762170Y-76959035D01*
X146976337Y-77058903D01*
X147204592Y-77120063D01*
X147381034Y-77135500D01*
X147439999Y-77140659D01*
X147440000Y-77140659D01*
X147440001Y-77140659D01*
X147498966Y-77135500D01*
X147675408Y-77120063D01*
X147903663Y-77058903D01*
X148117830Y-76959035D01*
X148311401Y-76823495D01*
X148433717Y-76701178D01*
X148495036Y-76667696D01*
X148564728Y-76672680D01*
X148620662Y-76714551D01*
X148637577Y-76745528D01*
X148686646Y-76877088D01*
X148686649Y-76877093D01*
X148772809Y-76992187D01*
X148772812Y-76992190D01*
X148887906Y-77078350D01*
X148887913Y-77078354D01*
X149022620Y-77128596D01*
X149022627Y-77128598D01*
X149082155Y-77134999D01*
X149082172Y-77135000D01*
X149730000Y-77135000D01*
X149730000Y-76218012D01*
X149787007Y-76250925D01*
X149914174Y-76285000D01*
X150045826Y-76285000D01*
X150172993Y-76250925D01*
X150230000Y-76218012D01*
X150230000Y-77135000D01*
X150877828Y-77135000D01*
X150877844Y-77134999D01*
X150937372Y-77128598D01*
X150937379Y-77128596D01*
X151072086Y-77078354D01*
X151072093Y-77078350D01*
X151187187Y-76992190D01*
X151187190Y-76992187D01*
X151273350Y-76877093D01*
X151273354Y-76877086D01*
X151322422Y-76745529D01*
X151364293Y-76689595D01*
X151429757Y-76665178D01*
X151498030Y-76680030D01*
X151526285Y-76701181D01*
X151648599Y-76823495D01*
X151735212Y-76884142D01*
X151842165Y-76959032D01*
X151842167Y-76959033D01*
X151842170Y-76959035D01*
X152056337Y-77058903D01*
X152284592Y-77120063D01*
X152461034Y-77135500D01*
X152519999Y-77140659D01*
X152520000Y-77140659D01*
X152520001Y-77140659D01*
X152578966Y-77135500D01*
X152755408Y-77120063D01*
X152983663Y-77058903D01*
X153197830Y-76959035D01*
X153391401Y-76823495D01*
X153513717Y-76701178D01*
X153575036Y-76667696D01*
X153644728Y-76672680D01*
X153700662Y-76714551D01*
X153717577Y-76745528D01*
X153766646Y-76877088D01*
X153766649Y-76877093D01*
X153852809Y-76992187D01*
X153852812Y-76992190D01*
X153967906Y-77078350D01*
X153967913Y-77078354D01*
X154102620Y-77128596D01*
X154102627Y-77128598D01*
X154162155Y-77134999D01*
X154162172Y-77135000D01*
X154810000Y-77135000D01*
X154810000Y-76218012D01*
X154867007Y-76250925D01*
X154994174Y-76285000D01*
X155125826Y-76285000D01*
X155252993Y-76250925D01*
X155310000Y-76218012D01*
X155310000Y-77135000D01*
X155957828Y-77135000D01*
X155957844Y-77134999D01*
X156017372Y-77128598D01*
X156017379Y-77128596D01*
X156152086Y-77078354D01*
X156152093Y-77078350D01*
X156267187Y-76992190D01*
X156267190Y-76992187D01*
X156353350Y-76877093D01*
X156353354Y-76877086D01*
X156402422Y-76745529D01*
X156444293Y-76689595D01*
X156509757Y-76665178D01*
X156578030Y-76680030D01*
X156606285Y-76701181D01*
X156728599Y-76823495D01*
X156815212Y-76884142D01*
X156922165Y-76959032D01*
X156922167Y-76959033D01*
X156922170Y-76959035D01*
X157136337Y-77058903D01*
X157364592Y-77120063D01*
X157541034Y-77135500D01*
X157599999Y-77140659D01*
X157600000Y-77140659D01*
X157600001Y-77140659D01*
X157658966Y-77135500D01*
X157835408Y-77120063D01*
X158063663Y-77058903D01*
X158277830Y-76959035D01*
X158471401Y-76823495D01*
X158638495Y-76656401D01*
X158768425Y-76470842D01*
X158823002Y-76427217D01*
X158892500Y-76420023D01*
X158954855Y-76451546D01*
X158971575Y-76470842D01*
X159101500Y-76656395D01*
X159101505Y-76656401D01*
X159268599Y-76823495D01*
X159355212Y-76884142D01*
X159462165Y-76959032D01*
X159462167Y-76959033D01*
X159462170Y-76959035D01*
X159676337Y-77058903D01*
X159904592Y-77120063D01*
X160081034Y-77135500D01*
X160139999Y-77140659D01*
X160140000Y-77140659D01*
X160140001Y-77140659D01*
X160198966Y-77135500D01*
X160375408Y-77120063D01*
X160603663Y-77058903D01*
X160817830Y-76959035D01*
X161011401Y-76823495D01*
X161178495Y-76656401D01*
X161308425Y-76470842D01*
X161363002Y-76427217D01*
X161432500Y-76420023D01*
X161494855Y-76451546D01*
X161511575Y-76470842D01*
X161641500Y-76656395D01*
X161641505Y-76656401D01*
X161808599Y-76823495D01*
X161895212Y-76884142D01*
X162002165Y-76959032D01*
X162002167Y-76959033D01*
X162002170Y-76959035D01*
X162216337Y-77058903D01*
X162444592Y-77120063D01*
X162621034Y-77135500D01*
X162679999Y-77140659D01*
X162680000Y-77140659D01*
X162680001Y-77140659D01*
X162738966Y-77135500D01*
X162915408Y-77120063D01*
X163143663Y-77058903D01*
X163357830Y-76959035D01*
X163551401Y-76823495D01*
X163718495Y-76656401D01*
X163854035Y-76462830D01*
X163953903Y-76248663D01*
X164015063Y-76020408D01*
X164035659Y-75785000D01*
X164015063Y-75549592D01*
X163953903Y-75321337D01*
X163854035Y-75107171D01*
X163848424Y-75099158D01*
X163718496Y-74913600D01*
X163659954Y-74855058D01*
X163596179Y-74791283D01*
X163562696Y-74729963D01*
X163567680Y-74660271D01*
X163609551Y-74604337D01*
X163640529Y-74587422D01*
X163772086Y-74538354D01*
X163772093Y-74538350D01*
X163776571Y-74534998D01*
X165684773Y-74534998D01*
X165684773Y-74535001D01*
X165703657Y-74799027D01*
X165703658Y-74799034D01*
X165759921Y-75057673D01*
X165852426Y-75305690D01*
X165852428Y-75305694D01*
X165979280Y-75538005D01*
X165979285Y-75538013D01*
X166137906Y-75749907D01*
X166137922Y-75749925D01*
X166325074Y-75937077D01*
X166325092Y-75937093D01*
X166536986Y-76095714D01*
X166536994Y-76095719D01*
X166769305Y-76222571D01*
X166769309Y-76222573D01*
X166769311Y-76222574D01*
X167017322Y-76315077D01*
X167017325Y-76315077D01*
X167017326Y-76315078D01*
X167212552Y-76357546D01*
X167275974Y-76371343D01*
X167519660Y-76388772D01*
X167539999Y-76390227D01*
X167540000Y-76390227D01*
X167540001Y-76390227D01*
X167558885Y-76388876D01*
X167804026Y-76371343D01*
X168062678Y-76315077D01*
X168310689Y-76222574D01*
X168543011Y-76095716D01*
X168754915Y-75937087D01*
X168942087Y-75749915D01*
X169100716Y-75538011D01*
X169227574Y-75305689D01*
X169320077Y-75057678D01*
X169376343Y-74799026D01*
X169395227Y-74535000D01*
X169376343Y-74270974D01*
X169348470Y-74142844D01*
X169320078Y-74012326D01*
X169289686Y-73930842D01*
X169227574Y-73764311D01*
X169217029Y-73745000D01*
X169100719Y-73531994D01*
X169100714Y-73531986D01*
X168942093Y-73320092D01*
X168942077Y-73320074D01*
X168754925Y-73132922D01*
X168754907Y-73132906D01*
X168543013Y-72974285D01*
X168543005Y-72974280D01*
X168310694Y-72847428D01*
X168310690Y-72847426D01*
X168062673Y-72754921D01*
X167804034Y-72698658D01*
X167804027Y-72698657D01*
X167540001Y-72679773D01*
X167539999Y-72679773D01*
X167275972Y-72698657D01*
X167275965Y-72698658D01*
X167017326Y-72754921D01*
X166769309Y-72847426D01*
X166769305Y-72847428D01*
X166536994Y-72974280D01*
X166536986Y-72974285D01*
X166325092Y-73132906D01*
X166325074Y-73132922D01*
X166137922Y-73320074D01*
X166137906Y-73320092D01*
X165979285Y-73531986D01*
X165979280Y-73531994D01*
X165852428Y-73764305D01*
X165852426Y-73764309D01*
X165759921Y-74012326D01*
X165703658Y-74270965D01*
X165703657Y-74270972D01*
X165684773Y-74534998D01*
X163776571Y-74534998D01*
X163887187Y-74452190D01*
X163887190Y-74452187D01*
X163973350Y-74337093D01*
X163973354Y-74337086D01*
X164023596Y-74202379D01*
X164023598Y-74202372D01*
X164029999Y-74142844D01*
X164030000Y-74142827D01*
X164030000Y-73495000D01*
X163113012Y-73495000D01*
X163145925Y-73437993D01*
X163180000Y-73310826D01*
X163180000Y-73179174D01*
X163145925Y-73052007D01*
X163113012Y-72995000D01*
X164030000Y-72995000D01*
X164030000Y-72347172D01*
X164029999Y-72347155D01*
X164023598Y-72287627D01*
X164023596Y-72287620D01*
X163973354Y-72152913D01*
X163973350Y-72152906D01*
X163887190Y-72037812D01*
X163887187Y-72037809D01*
X163772093Y-71951649D01*
X163772086Y-71951645D01*
X163637379Y-71901403D01*
X163637372Y-71901401D01*
X163577844Y-71895000D01*
X162930000Y-71895000D01*
X162930000Y-72811988D01*
X162872993Y-72779075D01*
X162745826Y-72745000D01*
X162614174Y-72745000D01*
X162487007Y-72779075D01*
X162430000Y-72811988D01*
X162430000Y-71895000D01*
X161782155Y-71895000D01*
X161722627Y-71901401D01*
X161722620Y-71901403D01*
X161587913Y-71951645D01*
X161587906Y-71951649D01*
X161472812Y-72037809D01*
X161472809Y-72037812D01*
X161386649Y-72152906D01*
X161386645Y-72152913D01*
X161337578Y-72284470D01*
X161295707Y-72340404D01*
X161230242Y-72364821D01*
X161161969Y-72349969D01*
X161133715Y-72328819D01*
X161076835Y-72271939D01*
X161011401Y-72206505D01*
X161011397Y-72206502D01*
X161011396Y-72206501D01*
X160817834Y-72070967D01*
X160817830Y-72070965D01*
X160725569Y-72027943D01*
X160603663Y-71971097D01*
X160603659Y-71971096D01*
X160603655Y-71971094D01*
X160375413Y-71909938D01*
X160375403Y-71909936D01*
X160140001Y-71889341D01*
X160139999Y-71889341D01*
X159904596Y-71909936D01*
X159904586Y-71909938D01*
X159676344Y-71971094D01*
X159676335Y-71971098D01*
X159462171Y-72070964D01*
X159462169Y-72070965D01*
X159268597Y-72206505D01*
X159101505Y-72373597D01*
X158971575Y-72559158D01*
X158916998Y-72602783D01*
X158847500Y-72609977D01*
X158785145Y-72578454D01*
X158768425Y-72559158D01*
X158638494Y-72373597D01*
X158471402Y-72206506D01*
X158471395Y-72206501D01*
X158277834Y-72070967D01*
X158277830Y-72070965D01*
X158185569Y-72027943D01*
X158063663Y-71971097D01*
X158063659Y-71971096D01*
X158063655Y-71971094D01*
X157835413Y-71909938D01*
X157835403Y-71909936D01*
X157600001Y-71889341D01*
X157599999Y-71889341D01*
X157364596Y-71909936D01*
X157364586Y-71909938D01*
X157136344Y-71971094D01*
X157136335Y-71971098D01*
X156922171Y-72070964D01*
X156922169Y-72070965D01*
X156728597Y-72206505D01*
X156561505Y-72373597D01*
X156431575Y-72559158D01*
X156376998Y-72602783D01*
X156307500Y-72609977D01*
X156245145Y-72578454D01*
X156228425Y-72559158D01*
X156098494Y-72373597D01*
X155931402Y-72206506D01*
X155931395Y-72206501D01*
X155737834Y-72070967D01*
X155737830Y-72070965D01*
X155645569Y-72027943D01*
X155523663Y-71971097D01*
X155523659Y-71971096D01*
X155523655Y-71971094D01*
X155295413Y-71909938D01*
X155295403Y-71909936D01*
X155060001Y-71889341D01*
X155059999Y-71889341D01*
X154824596Y-71909936D01*
X154824586Y-71909938D01*
X154596344Y-71971094D01*
X154596335Y-71971098D01*
X154382171Y-72070964D01*
X154382169Y-72070965D01*
X154188597Y-72206505D01*
X154021505Y-72373597D01*
X153891575Y-72559158D01*
X153836998Y-72602783D01*
X153767500Y-72609977D01*
X153705145Y-72578454D01*
X153688425Y-72559158D01*
X153558494Y-72373597D01*
X153391402Y-72206506D01*
X153391395Y-72206501D01*
X153197834Y-72070967D01*
X153197830Y-72070965D01*
X153105569Y-72027943D01*
X152983663Y-71971097D01*
X152983659Y-71971096D01*
X152983655Y-71971094D01*
X152755413Y-71909938D01*
X152755403Y-71909936D01*
X152520001Y-71889341D01*
X152519999Y-71889341D01*
X152284596Y-71909936D01*
X152284586Y-71909938D01*
X152056344Y-71971094D01*
X152056335Y-71971098D01*
X151842171Y-72070964D01*
X151842169Y-72070965D01*
X151648597Y-72206505D01*
X151481505Y-72373597D01*
X151351575Y-72559158D01*
X151296998Y-72602783D01*
X151227500Y-72609977D01*
X151165145Y-72578454D01*
X151148425Y-72559158D01*
X151018494Y-72373597D01*
X150851402Y-72206506D01*
X150851395Y-72206501D01*
X150657834Y-72070967D01*
X150657830Y-72070965D01*
X150565569Y-72027943D01*
X150443663Y-71971097D01*
X150443659Y-71971096D01*
X150443655Y-71971094D01*
X150215413Y-71909938D01*
X150215403Y-71909936D01*
X149980001Y-71889341D01*
X149979999Y-71889341D01*
X149744596Y-71909936D01*
X149744586Y-71909938D01*
X149516344Y-71971094D01*
X149516335Y-71971098D01*
X149302171Y-72070964D01*
X149302169Y-72070965D01*
X149108597Y-72206505D01*
X148941505Y-72373597D01*
X148811575Y-72559158D01*
X148756998Y-72602783D01*
X148687500Y-72609977D01*
X148625145Y-72578454D01*
X148608425Y-72559158D01*
X148478494Y-72373597D01*
X148311402Y-72206506D01*
X148311395Y-72206501D01*
X148117834Y-72070967D01*
X148117830Y-72070965D01*
X148025569Y-72027943D01*
X147903663Y-71971097D01*
X147903659Y-71971096D01*
X147903655Y-71971094D01*
X147675413Y-71909938D01*
X147675403Y-71909936D01*
X147440001Y-71889341D01*
X147439999Y-71889341D01*
X147204596Y-71909936D01*
X147204586Y-71909938D01*
X146976344Y-71971094D01*
X146976335Y-71971098D01*
X146762171Y-72070964D01*
X146762169Y-72070965D01*
X146568600Y-72206503D01*
X146446284Y-72328819D01*
X146384961Y-72362303D01*
X146315269Y-72357319D01*
X146259336Y-72315447D01*
X146242421Y-72284470D01*
X146193354Y-72152913D01*
X146193350Y-72152906D01*
X146107190Y-72037812D01*
X146107187Y-72037809D01*
X145992093Y-71951649D01*
X145992086Y-71951645D01*
X145857379Y-71901403D01*
X145857372Y-71901401D01*
X145797844Y-71895000D01*
X145150000Y-71895000D01*
X145150000Y-72811988D01*
X145092993Y-72779075D01*
X144965826Y-72745000D01*
X144834174Y-72745000D01*
X144707007Y-72779075D01*
X144650000Y-72811988D01*
X144650000Y-71895000D01*
X144002155Y-71895000D01*
X143942627Y-71901401D01*
X143942620Y-71901403D01*
X143807913Y-71951645D01*
X143807906Y-71951649D01*
X143692812Y-72037809D01*
X143692809Y-72037812D01*
X143606649Y-72152906D01*
X143606645Y-72152913D01*
X143557578Y-72284470D01*
X143515707Y-72340404D01*
X143450242Y-72364821D01*
X143381969Y-72349969D01*
X143353715Y-72328819D01*
X143296835Y-72271939D01*
X143231401Y-72206505D01*
X143231397Y-72206502D01*
X143231396Y-72206501D01*
X143037834Y-72070967D01*
X143037830Y-72070965D01*
X142945569Y-72027943D01*
X142823663Y-71971097D01*
X142823659Y-71971096D01*
X142823655Y-71971094D01*
X142595413Y-71909938D01*
X142595403Y-71909936D01*
X142360001Y-71889341D01*
X142359999Y-71889341D01*
X142124596Y-71909936D01*
X142124586Y-71909938D01*
X141896344Y-71971094D01*
X141896335Y-71971098D01*
X141682171Y-72070964D01*
X141682169Y-72070965D01*
X141488597Y-72206505D01*
X141321505Y-72373597D01*
X141191575Y-72559158D01*
X141136998Y-72602783D01*
X141067500Y-72609977D01*
X141005145Y-72578454D01*
X140988425Y-72559158D01*
X140858494Y-72373597D01*
X140691402Y-72206506D01*
X140691395Y-72206501D01*
X140497834Y-72070967D01*
X140497830Y-72070965D01*
X140405569Y-72027943D01*
X140283663Y-71971097D01*
X140283659Y-71971096D01*
X140283655Y-71971094D01*
X140055413Y-71909938D01*
X140055403Y-71909936D01*
X139820001Y-71889341D01*
X139819999Y-71889341D01*
X139584596Y-71909936D01*
X139584586Y-71909938D01*
X139356344Y-71971094D01*
X139356335Y-71971098D01*
X139142171Y-72070964D01*
X139142169Y-72070965D01*
X138948597Y-72206505D01*
X138781505Y-72373597D01*
X138651575Y-72559158D01*
X138596998Y-72602783D01*
X138527500Y-72609977D01*
X138465145Y-72578454D01*
X138448425Y-72559158D01*
X138318494Y-72373597D01*
X138151402Y-72206506D01*
X138151395Y-72206501D01*
X137957834Y-72070967D01*
X137957830Y-72070965D01*
X137865569Y-72027943D01*
X137743663Y-71971097D01*
X137743659Y-71971096D01*
X137743655Y-71971094D01*
X137515413Y-71909938D01*
X137515403Y-71909936D01*
X137280001Y-71889341D01*
X137279999Y-71889341D01*
X137044596Y-71909936D01*
X137044586Y-71909938D01*
X136816344Y-71971094D01*
X136816335Y-71971098D01*
X136602171Y-72070964D01*
X136602169Y-72070965D01*
X136408597Y-72206505D01*
X136241505Y-72373597D01*
X136111575Y-72559158D01*
X136056998Y-72602783D01*
X135987500Y-72609977D01*
X135925145Y-72578454D01*
X135908425Y-72559158D01*
X135778494Y-72373597D01*
X135611402Y-72206506D01*
X135611395Y-72206501D01*
X135417834Y-72070967D01*
X135417830Y-72070965D01*
X135325569Y-72027943D01*
X135203663Y-71971097D01*
X135203659Y-71971096D01*
X135203655Y-71971094D01*
X134975413Y-71909938D01*
X134975403Y-71909936D01*
X134740001Y-71889341D01*
X134739999Y-71889341D01*
X134504596Y-71909936D01*
X134504586Y-71909938D01*
X134276344Y-71971094D01*
X134276335Y-71971098D01*
X134062171Y-72070964D01*
X134062169Y-72070965D01*
X133868597Y-72206505D01*
X133701505Y-72373597D01*
X133571575Y-72559158D01*
X133516998Y-72602783D01*
X133447500Y-72609977D01*
X133385145Y-72578454D01*
X133368425Y-72559158D01*
X133238494Y-72373597D01*
X133071402Y-72206506D01*
X133071395Y-72206501D01*
X132877834Y-72070967D01*
X132877830Y-72070965D01*
X132785569Y-72027943D01*
X132663663Y-71971097D01*
X132663659Y-71971096D01*
X132663655Y-71971094D01*
X132435413Y-71909938D01*
X132435403Y-71909936D01*
X132200001Y-71889341D01*
X132199999Y-71889341D01*
X131964596Y-71909936D01*
X131964586Y-71909938D01*
X131736344Y-71971094D01*
X131736335Y-71971098D01*
X131522171Y-72070964D01*
X131522169Y-72070965D01*
X131328597Y-72206505D01*
X131161505Y-72373597D01*
X131031575Y-72559158D01*
X130976998Y-72602783D01*
X130907500Y-72609977D01*
X130845145Y-72578454D01*
X130828425Y-72559158D01*
X130698494Y-72373597D01*
X130531402Y-72206506D01*
X130531395Y-72206501D01*
X130337834Y-72070967D01*
X130337830Y-72070965D01*
X130245569Y-72027943D01*
X130123663Y-71971097D01*
X130123659Y-71971096D01*
X130123655Y-71971094D01*
X129895413Y-71909938D01*
X129895403Y-71909936D01*
X129660001Y-71889341D01*
X129659999Y-71889341D01*
X129424596Y-71909936D01*
X129424586Y-71909938D01*
X129196344Y-71971094D01*
X129196335Y-71971098D01*
X128982171Y-72070964D01*
X128982169Y-72070965D01*
X128788597Y-72206505D01*
X128621505Y-72373597D01*
X128491575Y-72559158D01*
X128436998Y-72602783D01*
X128367500Y-72609977D01*
X128305145Y-72578454D01*
X128288425Y-72559158D01*
X128158494Y-72373597D01*
X127991402Y-72206506D01*
X127991395Y-72206501D01*
X127797834Y-72070967D01*
X127797830Y-72070965D01*
X127705569Y-72027943D01*
X127583663Y-71971097D01*
X127583659Y-71971096D01*
X127583655Y-71971094D01*
X127355413Y-71909938D01*
X127355403Y-71909936D01*
X127120001Y-71889341D01*
X127119999Y-71889341D01*
X126884596Y-71909936D01*
X126884586Y-71909938D01*
X126656344Y-71971094D01*
X126656335Y-71971098D01*
X126442171Y-72070964D01*
X126442169Y-72070965D01*
X126248600Y-72206503D01*
X126126284Y-72328819D01*
X126064961Y-72362303D01*
X125995269Y-72357319D01*
X125939336Y-72315447D01*
X125922421Y-72284470D01*
X125873354Y-72152913D01*
X125873350Y-72152906D01*
X125787190Y-72037812D01*
X125787187Y-72037809D01*
X125672093Y-71951649D01*
X125672086Y-71951645D01*
X125537379Y-71901403D01*
X125537372Y-71901401D01*
X125477844Y-71895000D01*
X124830000Y-71895000D01*
X124830000Y-72811988D01*
X124772993Y-72779075D01*
X124645826Y-72745000D01*
X124514174Y-72745000D01*
X124387007Y-72779075D01*
X124330000Y-72811988D01*
X124330000Y-71895000D01*
X123682155Y-71895000D01*
X123622627Y-71901401D01*
X123622620Y-71901403D01*
X123487913Y-71951645D01*
X123487906Y-71951649D01*
X123372812Y-72037809D01*
X123372809Y-72037812D01*
X123286649Y-72152906D01*
X123286645Y-72152913D01*
X123237578Y-72284470D01*
X123195707Y-72340404D01*
X123130242Y-72364821D01*
X123061969Y-72349969D01*
X123033715Y-72328819D01*
X122976835Y-72271939D01*
X122911401Y-72206505D01*
X122911397Y-72206502D01*
X122911396Y-72206501D01*
X122717834Y-72070967D01*
X122717830Y-72070965D01*
X122625569Y-72027943D01*
X122503663Y-71971097D01*
X122503659Y-71971096D01*
X122503655Y-71971094D01*
X122275413Y-71909938D01*
X122275403Y-71909936D01*
X122040001Y-71889341D01*
X122039999Y-71889341D01*
X121804596Y-71909936D01*
X121804586Y-71909938D01*
X121576344Y-71971094D01*
X121576335Y-71971098D01*
X121362171Y-72070964D01*
X121362169Y-72070965D01*
X121168597Y-72206505D01*
X121001505Y-72373597D01*
X120871575Y-72559158D01*
X120816998Y-72602783D01*
X120747500Y-72609977D01*
X120685145Y-72578454D01*
X120668425Y-72559158D01*
X120538494Y-72373597D01*
X120371402Y-72206506D01*
X120371395Y-72206501D01*
X120177834Y-72070967D01*
X120177830Y-72070965D01*
X120085569Y-72027943D01*
X119963663Y-71971097D01*
X119963659Y-71971096D01*
X119963655Y-71971094D01*
X119735413Y-71909938D01*
X119735403Y-71909936D01*
X119500001Y-71889341D01*
X119499999Y-71889341D01*
X119264596Y-71909936D01*
X119264586Y-71909938D01*
X119036344Y-71971094D01*
X119036335Y-71971098D01*
X118822171Y-72070964D01*
X118822169Y-72070965D01*
X118628597Y-72206505D01*
X118461505Y-72373597D01*
X118331575Y-72559158D01*
X118276998Y-72602783D01*
X118207500Y-72609977D01*
X118145145Y-72578454D01*
X118128425Y-72559158D01*
X117998494Y-72373597D01*
X117831402Y-72206506D01*
X117831395Y-72206501D01*
X117637834Y-72070967D01*
X117637830Y-72070965D01*
X117545569Y-72027943D01*
X117423663Y-71971097D01*
X117423659Y-71971096D01*
X117423655Y-71971094D01*
X117195413Y-71909938D01*
X117195403Y-71909936D01*
X116960001Y-71889341D01*
X116959999Y-71889341D01*
X116724596Y-71909936D01*
X116724586Y-71909938D01*
X116496344Y-71971094D01*
X116496335Y-71971098D01*
X116282171Y-72070964D01*
X116282169Y-72070965D01*
X116088597Y-72206505D01*
X115921505Y-72373597D01*
X115791575Y-72559158D01*
X115736998Y-72602783D01*
X115667500Y-72609977D01*
X115605145Y-72578454D01*
X115588425Y-72559158D01*
X115458494Y-72373597D01*
X115291402Y-72206506D01*
X115291395Y-72206501D01*
X115097834Y-72070967D01*
X115097830Y-72070965D01*
X115005569Y-72027943D01*
X114883663Y-71971097D01*
X114883659Y-71971096D01*
X114883655Y-71971094D01*
X114655413Y-71909938D01*
X114655403Y-71909936D01*
X114420001Y-71889341D01*
X114419999Y-71889341D01*
X114184596Y-71909936D01*
X114184586Y-71909938D01*
X113956344Y-71971094D01*
X113956335Y-71971098D01*
X113742171Y-72070964D01*
X113742169Y-72070965D01*
X113548597Y-72206505D01*
X113381505Y-72373597D01*
X113245965Y-72567169D01*
X113245964Y-72567171D01*
X113146098Y-72781335D01*
X113146094Y-72781344D01*
X113084938Y-73009586D01*
X113084936Y-73009596D01*
X113064341Y-73244999D01*
X113064341Y-73245000D01*
X113084936Y-73480403D01*
X113084938Y-73480413D01*
X113146094Y-73708655D01*
X113146096Y-73708659D01*
X113146097Y-73708663D01*
X113201823Y-73828167D01*
X113245965Y-73922830D01*
X113245967Y-73922834D01*
X113332883Y-74046962D01*
X113381501Y-74116396D01*
X113381506Y-74116402D01*
X113548597Y-74283493D01*
X113548603Y-74283498D01*
X113602372Y-74321147D01*
X113645997Y-74375723D01*
X113653191Y-74445222D01*
X113621669Y-74507576D01*
X113604135Y-74523040D01*
X113442488Y-74640484D01*
X113275485Y-74807487D01*
X113275485Y-74807488D01*
X113275483Y-74807490D01*
X113230925Y-74868819D01*
X113136657Y-74998566D01*
X113029433Y-75209003D01*
X112956446Y-75433631D01*
X112919500Y-75666902D01*
X112919500Y-77652110D01*
X112899815Y-77719149D01*
X112883181Y-77739791D01*
X112395484Y-78227488D01*
X112256659Y-78418562D01*
X112256658Y-78418564D01*
X112210623Y-78508914D01*
X112149433Y-78629003D01*
X112076446Y-78853631D01*
X112039500Y-79086902D01*
X112039500Y-96628546D01*
X112036074Y-96657493D01*
X112003853Y-96791701D01*
X111984706Y-97035000D01*
X106540500Y-97035000D01*
X106540500Y-74534998D01*
X107684773Y-74534998D01*
X107684773Y-74535001D01*
X107703657Y-74799027D01*
X107703658Y-74799034D01*
X107759921Y-75057673D01*
X107852426Y-75305690D01*
X107852428Y-75305694D01*
X107979280Y-75538005D01*
X107979285Y-75538013D01*
X108137906Y-75749907D01*
X108137922Y-75749925D01*
X108325074Y-75937077D01*
X108325092Y-75937093D01*
X108536986Y-76095714D01*
X108536994Y-76095719D01*
X108769305Y-76222571D01*
X108769309Y-76222573D01*
X108769311Y-76222574D01*
X109017322Y-76315077D01*
X109017325Y-76315077D01*
X109017326Y-76315078D01*
X109212552Y-76357546D01*
X109275974Y-76371343D01*
X109519660Y-76388772D01*
X109539999Y-76390227D01*
X109540000Y-76390227D01*
X109540001Y-76390227D01*
X109558885Y-76388876D01*
X109804026Y-76371343D01*
X110062678Y-76315077D01*
X110310689Y-76222574D01*
X110543011Y-76095716D01*
X110754915Y-75937087D01*
X110942087Y-75749915D01*
X111100716Y-75538011D01*
X111227574Y-75305689D01*
X111320077Y-75057678D01*
X111376343Y-74799026D01*
X111395227Y-74535000D01*
X111376343Y-74270974D01*
X111348470Y-74142844D01*
X111320078Y-74012326D01*
X111289686Y-73930842D01*
X111227574Y-73764311D01*
X111217029Y-73745000D01*
X111100719Y-73531994D01*
X111100714Y-73531986D01*
X110942093Y-73320092D01*
X110942077Y-73320074D01*
X110754925Y-73132922D01*
X110754907Y-73132906D01*
X110543013Y-72974285D01*
X110543005Y-72974280D01*
X110310694Y-72847428D01*
X110310690Y-72847426D01*
X110062673Y-72754921D01*
X109804034Y-72698658D01*
X109804027Y-72698657D01*
X109540001Y-72679773D01*
X109539999Y-72679773D01*
X109275972Y-72698657D01*
X109275965Y-72698658D01*
X109017326Y-72754921D01*
X108769309Y-72847426D01*
X108769305Y-72847428D01*
X108536994Y-72974280D01*
X108536986Y-72974285D01*
X108325092Y-73132906D01*
X108325074Y-73132922D01*
X108137922Y-73320074D01*
X108137906Y-73320092D01*
X107979285Y-73531986D01*
X107979280Y-73531994D01*
X107852428Y-73764305D01*
X107852426Y-73764309D01*
X107759921Y-74012326D01*
X107703658Y-74270965D01*
X107703657Y-74270972D01*
X107684773Y-74534998D01*
X106540500Y-74534998D01*
X106540500Y-74038245D01*
X106540670Y-74031756D01*
X106540972Y-74025990D01*
X106556591Y-73727937D01*
X106557945Y-73715065D01*
X106605030Y-73417784D01*
X106607723Y-73405108D01*
X106685627Y-73114368D01*
X106689636Y-73102033D01*
X106797493Y-72821055D01*
X106802763Y-72809216D01*
X106939419Y-72541014D01*
X106945885Y-72529816D01*
X107109818Y-72277381D01*
X107117433Y-72266900D01*
X107306858Y-72032979D01*
X107315526Y-72023353D01*
X107528358Y-71810520D01*
X107537983Y-71801854D01*
X107771894Y-71612437D01*
X107782376Y-71604822D01*
X108034808Y-71440891D01*
X108046023Y-71434415D01*
X108314215Y-71297763D01*
X108326054Y-71292493D01*
X108607039Y-71184633D01*
X108619367Y-71180627D01*
X108910107Y-71102723D01*
X108922786Y-71100029D01*
X109220046Y-71052949D01*
X109232951Y-71051592D01*
X109536756Y-71035669D01*
X109543246Y-71035500D01*
X167605889Y-71035500D01*
X167605892Y-71035500D01*
X167654578Y-71022453D01*
X167693149Y-71018399D01*
X167847050Y-71026466D01*
G37*
%TD.AperFunction*%
%TA.AperFunction,Conductor*%
G36*
X191041374Y-56535529D02*
G01*
X191887849Y-56553999D01*
X191893212Y-56554233D01*
X192736830Y-56609526D01*
X192742165Y-56609993D01*
X193582516Y-56702027D01*
X193587855Y-56702730D01*
X194423395Y-56831331D01*
X194428713Y-56832270D01*
X194520527Y-56850533D01*
X195257810Y-56997188D01*
X195263089Y-56998358D01*
X196084216Y-57199286D01*
X196089424Y-57200681D01*
X196901016Y-57437239D01*
X196906176Y-57438866D01*
X197706659Y-57710594D01*
X197711743Y-57712444D01*
X198385063Y-57974284D01*
X198499601Y-58018825D01*
X198504592Y-58020892D01*
X198891490Y-58191131D01*
X199278381Y-58361367D01*
X199283284Y-58363654D01*
X200030978Y-58732376D01*
X200041436Y-58737533D01*
X200046230Y-58740028D01*
X200605695Y-59046962D01*
X200787379Y-59146637D01*
X200792058Y-59149338D01*
X201514775Y-59587894D01*
X201519311Y-59590783D01*
X202222229Y-60060458D01*
X202226602Y-60063520D01*
X202908368Y-60563412D01*
X202912647Y-60566696D01*
X203571925Y-61095821D01*
X203576070Y-61099299D01*
X204211633Y-61656674D01*
X204215622Y-61660329D01*
X204826274Y-62244900D01*
X204830099Y-62248725D01*
X205414670Y-62859377D01*
X205418325Y-62863366D01*
X205975700Y-63498929D01*
X205979178Y-63503074D01*
X206508303Y-64162352D01*
X206511592Y-64166638D01*
X207011473Y-64848388D01*
X207014547Y-64852780D01*
X207056676Y-64915829D01*
X207484207Y-65555675D01*
X207487114Y-65560238D01*
X207925657Y-66282935D01*
X207928362Y-66287620D01*
X208334968Y-67028764D01*
X208337466Y-67033563D01*
X208711345Y-67791715D01*
X208713632Y-67796618D01*
X209054104Y-68570399D01*
X209056174Y-68575398D01*
X209362555Y-69363257D01*
X209364405Y-69368340D01*
X209636133Y-70168823D01*
X209637760Y-70173983D01*
X209874315Y-70985566D01*
X209875715Y-70990792D01*
X210076640Y-71811907D01*
X210077811Y-71817189D01*
X210242728Y-72646281D01*
X210243668Y-72651609D01*
X210372267Y-73487132D01*
X210372973Y-73492495D01*
X210465003Y-74332807D01*
X210465475Y-74338197D01*
X210520765Y-75181766D01*
X210521000Y-75187171D01*
X210539470Y-76033625D01*
X210539500Y-76036330D01*
X210539500Y-119533669D01*
X210539470Y-119536374D01*
X210521000Y-120382828D01*
X210520765Y-120388233D01*
X210465475Y-121231802D01*
X210465003Y-121237192D01*
X210372973Y-122077504D01*
X210372267Y-122082867D01*
X210243668Y-122918390D01*
X210242728Y-122923718D01*
X210077811Y-123752810D01*
X210076640Y-123758092D01*
X209875715Y-124579207D01*
X209874315Y-124584433D01*
X209637760Y-125396016D01*
X209636133Y-125401176D01*
X209364405Y-126201659D01*
X209362555Y-126206742D01*
X209056174Y-126994601D01*
X209054104Y-126999600D01*
X208713632Y-127773381D01*
X208711345Y-127778284D01*
X208337466Y-128536436D01*
X208334968Y-128541235D01*
X207928362Y-129282379D01*
X207925657Y-129287064D01*
X207487114Y-130009761D01*
X207484207Y-130014324D01*
X207014554Y-130717210D01*
X207011457Y-130721632D01*
X206884899Y-130894237D01*
X206511596Y-131403356D01*
X206508303Y-131407647D01*
X205979178Y-132066925D01*
X205975700Y-132071070D01*
X205418325Y-132706633D01*
X205414670Y-132710622D01*
X204830099Y-133321274D01*
X204826274Y-133325099D01*
X204215622Y-133909670D01*
X204211633Y-133913325D01*
X203576070Y-134470700D01*
X203571925Y-134474178D01*
X202912647Y-135003303D01*
X202908356Y-135006596D01*
X202226642Y-135506451D01*
X202222210Y-135509554D01*
X201519324Y-135979207D01*
X201514761Y-135982114D01*
X200792064Y-136420657D01*
X200787379Y-136423362D01*
X200046235Y-136829968D01*
X200041436Y-136832466D01*
X199283284Y-137206345D01*
X199278381Y-137208632D01*
X198504600Y-137549104D01*
X198499601Y-137551174D01*
X197711742Y-137857555D01*
X197706659Y-137859405D01*
X196906176Y-138131133D01*
X196901016Y-138132760D01*
X196089433Y-138369315D01*
X196084207Y-138370715D01*
X195263092Y-138571640D01*
X195257810Y-138572811D01*
X194428718Y-138737728D01*
X194423390Y-138738668D01*
X193587867Y-138867267D01*
X193582504Y-138867973D01*
X192742192Y-138960003D01*
X192736802Y-138960475D01*
X191893233Y-139015765D01*
X191887828Y-139016000D01*
X191041375Y-139034470D01*
X191038670Y-139034500D01*
X86041330Y-139034500D01*
X86038625Y-139034470D01*
X85192171Y-139016000D01*
X85186766Y-139015765D01*
X84343197Y-138960475D01*
X84337807Y-138960003D01*
X83497495Y-138867973D01*
X83492132Y-138867267D01*
X82656609Y-138738668D01*
X82651281Y-138737728D01*
X81822189Y-138572811D01*
X81816907Y-138571640D01*
X80995792Y-138370715D01*
X80990566Y-138369315D01*
X80178983Y-138132760D01*
X80173823Y-138131133D01*
X79373340Y-137859405D01*
X79368257Y-137857555D01*
X78580398Y-137551174D01*
X78575399Y-137549104D01*
X77801618Y-137208632D01*
X77796715Y-137206345D01*
X77038563Y-136832466D01*
X77033764Y-136829968D01*
X76292620Y-136423362D01*
X76287935Y-136420657D01*
X75565238Y-135982114D01*
X75560675Y-135979207D01*
X74857789Y-135509554D01*
X74853388Y-135506473D01*
X74171638Y-135006592D01*
X74167352Y-135003303D01*
X73508074Y-134474178D01*
X73503929Y-134470700D01*
X72868366Y-133913325D01*
X72864377Y-133909670D01*
X72253725Y-133325099D01*
X72249900Y-133321274D01*
X71665329Y-132710622D01*
X71661674Y-132706633D01*
X71104299Y-132071070D01*
X71100821Y-132066925D01*
X70571696Y-131407647D01*
X70568403Y-131403356D01*
X70547871Y-131375354D01*
X70068520Y-130721602D01*
X70065458Y-130717229D01*
X69595783Y-130014311D01*
X69592885Y-130009761D01*
X69540102Y-129922778D01*
X69154338Y-129287058D01*
X69151637Y-129282379D01*
X69144436Y-129269254D01*
X68745028Y-128541230D01*
X68742533Y-128536436D01*
X68742073Y-128535504D01*
X68368654Y-127778284D01*
X68366367Y-127773381D01*
X68172229Y-127332168D01*
X68025892Y-126999592D01*
X68023825Y-126994601D01*
X67994026Y-126917974D01*
X67717444Y-126206742D01*
X67715594Y-126201659D01*
X67482680Y-125515517D01*
X67443865Y-125401175D01*
X67442239Y-125396016D01*
X67437284Y-125379015D01*
X67205681Y-124584424D01*
X67204284Y-124579207D01*
X67194203Y-124538011D01*
X67003358Y-123758089D01*
X67002188Y-123752810D01*
X66958217Y-123531753D01*
X66837270Y-122923713D01*
X66836331Y-122918390D01*
X66834070Y-122903698D01*
X66707730Y-122082855D01*
X66707026Y-122077504D01*
X66695722Y-121974285D01*
X66614993Y-121237165D01*
X66614526Y-121231830D01*
X66559233Y-120388212D01*
X66558999Y-120382828D01*
X66557498Y-120314057D01*
X66540530Y-119536374D01*
X66540515Y-119535000D01*
X81847206Y-119535000D01*
X81866353Y-119778297D01*
X81866353Y-119778300D01*
X81866354Y-119778302D01*
X81916282Y-119986265D01*
X81923330Y-120015619D01*
X82016722Y-120241089D01*
X82144237Y-120449173D01*
X82144238Y-120449176D01*
X82144241Y-120449179D01*
X82302741Y-120634759D01*
X82405578Y-120722590D01*
X82488323Y-120793261D01*
X82488326Y-120793262D01*
X82696410Y-120920777D01*
X82921881Y-121014169D01*
X82921878Y-121014169D01*
X82921884Y-121014170D01*
X82921888Y-121014172D01*
X83159198Y-121071146D01*
X83402500Y-121090294D01*
X83645802Y-121071146D01*
X83883112Y-121014172D01*
X84108589Y-120920777D01*
X84316679Y-120793259D01*
X84502259Y-120634759D01*
X84660759Y-120449179D01*
X84788277Y-120241089D01*
X84881672Y-120015612D01*
X84938646Y-119778302D01*
X84957794Y-119535000D01*
X84938646Y-119291698D01*
X84881672Y-119054388D01*
X84821751Y-118909724D01*
X84788277Y-118828910D01*
X84660762Y-118620826D01*
X84660761Y-118620823D01*
X84538937Y-118478186D01*
X84502259Y-118435241D01*
X84379563Y-118330449D01*
X84316676Y-118276738D01*
X84316673Y-118276737D01*
X84108589Y-118149222D01*
X83883118Y-118055830D01*
X83883121Y-118055830D01*
X83777492Y-118030470D01*
X83645802Y-117998854D01*
X83645800Y-117998853D01*
X83645797Y-117998853D01*
X83402500Y-117979706D01*
X83159202Y-117998853D01*
X82921880Y-118055830D01*
X82696410Y-118149222D01*
X82488326Y-118276737D01*
X82488323Y-118276738D01*
X82302741Y-118435241D01*
X82144238Y-118620823D01*
X82144237Y-118620826D01*
X82016722Y-118828910D01*
X81923330Y-119054380D01*
X81866353Y-119291702D01*
X81847206Y-119535000D01*
X66540515Y-119535000D01*
X66540500Y-119533669D01*
X66540500Y-98119108D01*
X67889500Y-98119108D01*
X67889500Y-118350891D01*
X67923608Y-118478187D01*
X67956554Y-118535250D01*
X67989500Y-118592314D01*
X68082686Y-118685500D01*
X68196814Y-118751392D01*
X68324108Y-118785500D01*
X68324110Y-118785500D01*
X78755890Y-118785500D01*
X78755892Y-118785500D01*
X78883186Y-118751392D01*
X78997314Y-118685500D01*
X79090500Y-118592314D01*
X79156392Y-118478186D01*
X79190500Y-118350892D01*
X79190500Y-113437155D01*
X81852500Y-113437155D01*
X81852500Y-114285000D01*
X82748379Y-114285000D01*
X82729401Y-114330818D01*
X82702500Y-114466056D01*
X82702500Y-114603944D01*
X82729401Y-114739182D01*
X82748379Y-114785000D01*
X81852500Y-114785000D01*
X81852500Y-115632844D01*
X81858901Y-115692372D01*
X81858903Y-115692379D01*
X81909145Y-115827086D01*
X81909149Y-115827093D01*
X81995309Y-115942187D01*
X81995312Y-115942190D01*
X82110406Y-116028350D01*
X82110413Y-116028354D01*
X82245120Y-116078596D01*
X82245127Y-116078598D01*
X82304655Y-116084999D01*
X82304672Y-116085000D01*
X83152500Y-116085000D01*
X83152500Y-115189120D01*
X83198318Y-115208099D01*
X83333556Y-115235000D01*
X83471444Y-115235000D01*
X83606682Y-115208099D01*
X83652500Y-115189120D01*
X83652500Y-116085000D01*
X84500328Y-116085000D01*
X84500344Y-116084999D01*
X84559872Y-116078598D01*
X84559879Y-116078596D01*
X84694586Y-116028354D01*
X84694593Y-116028350D01*
X84809687Y-115942190D01*
X84809690Y-115942187D01*
X84895850Y-115827093D01*
X84895854Y-115827086D01*
X84946096Y-115692379D01*
X84946098Y-115692372D01*
X84952499Y-115632844D01*
X84952500Y-115632827D01*
X84952500Y-114785000D01*
X84056621Y-114785000D01*
X84075599Y-114739182D01*
X84102500Y-114603944D01*
X84102500Y-114466056D01*
X84075599Y-114330818D01*
X84056621Y-114285000D01*
X84952500Y-114285000D01*
X84952500Y-113437172D01*
X84952499Y-113437155D01*
X84946098Y-113377627D01*
X84946096Y-113377620D01*
X84895854Y-113242913D01*
X84895850Y-113242906D01*
X84809690Y-113127812D01*
X84809687Y-113127809D01*
X84694593Y-113041649D01*
X84694586Y-113041645D01*
X84559879Y-112991403D01*
X84559872Y-112991401D01*
X84500344Y-112985000D01*
X83652500Y-112985000D01*
X83652500Y-113880879D01*
X83606682Y-113861901D01*
X83471444Y-113835000D01*
X83333556Y-113835000D01*
X83198318Y-113861901D01*
X83152500Y-113880879D01*
X83152500Y-112985000D01*
X82304655Y-112985000D01*
X82245127Y-112991401D01*
X82245120Y-112991403D01*
X82110413Y-113041645D01*
X82110406Y-113041649D01*
X81995312Y-113127809D01*
X81995309Y-113127812D01*
X81909149Y-113242906D01*
X81909145Y-113242913D01*
X81858903Y-113377620D01*
X81858901Y-113377627D01*
X81852500Y-113437155D01*
X79190500Y-113437155D01*
X79190500Y-98119108D01*
X79156392Y-97991814D01*
X79090500Y-97877686D01*
X78997314Y-97784500D01*
X78911578Y-97735000D01*
X78883187Y-97718608D01*
X78819539Y-97701554D01*
X78755892Y-97684500D01*
X68455892Y-97684500D01*
X68324108Y-97684500D01*
X68196812Y-97718608D01*
X68082686Y-97784500D01*
X68082683Y-97784502D01*
X67989502Y-97877683D01*
X67989500Y-97877686D01*
X67923608Y-97991812D01*
X67889500Y-98119108D01*
X66540500Y-98119108D01*
X66540500Y-94884997D01*
X67884723Y-94884997D01*
X67884723Y-94885002D01*
X67903793Y-95102975D01*
X67903793Y-95102979D01*
X67960422Y-95314322D01*
X67960424Y-95314326D01*
X67960425Y-95314330D01*
X67977490Y-95350925D01*
X68052897Y-95512638D01*
X68058897Y-95521207D01*
X68178402Y-95691877D01*
X68333123Y-95846598D01*
X68512361Y-95972102D01*
X68710670Y-96064575D01*
X68922023Y-96121207D01*
X69104926Y-96137208D01*
X69139998Y-96140277D01*
X69140000Y-96140277D01*
X69140002Y-96140277D01*
X69168254Y-96137805D01*
X69357977Y-96121207D01*
X69569330Y-96064575D01*
X69767639Y-95972102D01*
X69946877Y-95846598D01*
X70101598Y-95691877D01*
X70227102Y-95512639D01*
X70319575Y-95314330D01*
X70376207Y-95102977D01*
X70395277Y-94885000D01*
X70376207Y-94667023D01*
X70332250Y-94502975D01*
X70319577Y-94455677D01*
X70319576Y-94455676D01*
X70319575Y-94455670D01*
X70227102Y-94257362D01*
X70227100Y-94257359D01*
X70227099Y-94257357D01*
X70101599Y-94078124D01*
X70090495Y-94067020D01*
X69946877Y-93923402D01*
X69782899Y-93808583D01*
X69767638Y-93797897D01*
X69668484Y-93751661D01*
X69569330Y-93705425D01*
X69569326Y-93705424D01*
X69569322Y-93705422D01*
X69357977Y-93648793D01*
X69140002Y-93629723D01*
X69139998Y-93629723D01*
X68994682Y-93642436D01*
X68922023Y-93648793D01*
X68922020Y-93648793D01*
X68710677Y-93705422D01*
X68710668Y-93705426D01*
X68512361Y-93797898D01*
X68512357Y-93797900D01*
X68333121Y-93923402D01*
X68178402Y-94078121D01*
X68052900Y-94257357D01*
X68052898Y-94257361D01*
X67960426Y-94455668D01*
X67960422Y-94455677D01*
X67903793Y-94667020D01*
X67903793Y-94667024D01*
X67884723Y-94884997D01*
X66540500Y-94884997D01*
X66540500Y-80884997D01*
X67884723Y-80884997D01*
X67884723Y-80885002D01*
X67891035Y-80957146D01*
X67902100Y-81083631D01*
X67903793Y-81102975D01*
X67903793Y-81102979D01*
X67960422Y-81314322D01*
X67960424Y-81314326D01*
X67960425Y-81314330D01*
X67991148Y-81380215D01*
X68052897Y-81512638D01*
X68052898Y-81512639D01*
X68178402Y-81691877D01*
X68333123Y-81846598D01*
X68512361Y-81972102D01*
X68710670Y-82064575D01*
X68922023Y-82121207D01*
X69104926Y-82137208D01*
X69139998Y-82140277D01*
X69140000Y-82140277D01*
X69140002Y-82140277D01*
X69168254Y-82137805D01*
X69357977Y-82121207D01*
X69569330Y-82064575D01*
X69767639Y-81972102D01*
X69946877Y-81846598D01*
X70101598Y-81691877D01*
X70227102Y-81512639D01*
X70319575Y-81314330D01*
X70376207Y-81102977D01*
X70395277Y-80885000D01*
X70376207Y-80667023D01*
X70319575Y-80455670D01*
X70227102Y-80257362D01*
X70227100Y-80257359D01*
X70227099Y-80257357D01*
X70101599Y-80078124D01*
X70061468Y-80037993D01*
X69946877Y-79923402D01*
X69806336Y-79824994D01*
X69767638Y-79797897D01*
X69646090Y-79741219D01*
X69569330Y-79705425D01*
X69569326Y-79705424D01*
X69569322Y-79705422D01*
X69357977Y-79648793D01*
X69140002Y-79629723D01*
X69139998Y-79629723D01*
X68994682Y-79642436D01*
X68922023Y-79648793D01*
X68922020Y-79648793D01*
X68710677Y-79705422D01*
X68710668Y-79705426D01*
X68512361Y-79797898D01*
X68512357Y-79797900D01*
X68333121Y-79923402D01*
X68178402Y-80078121D01*
X68052900Y-80257357D01*
X68052898Y-80257361D01*
X67960426Y-80455668D01*
X67960422Y-80455677D01*
X67903793Y-80667020D01*
X67903793Y-80667024D01*
X67884723Y-80884997D01*
X66540500Y-80884997D01*
X66540500Y-76036330D01*
X66540530Y-76033625D01*
X66540818Y-76020408D01*
X66558999Y-75187148D01*
X66559232Y-75181789D01*
X66614526Y-74338165D01*
X66614993Y-74332838D01*
X66707028Y-73492477D01*
X66707732Y-73487132D01*
X66708767Y-73480413D01*
X66836333Y-72651596D01*
X66837271Y-72646281D01*
X66844493Y-72609977D01*
X67002190Y-71817176D01*
X67003359Y-71811907D01*
X67010968Y-71780811D01*
X67204289Y-70990771D01*
X67205684Y-70985566D01*
X67220822Y-70933632D01*
X67442243Y-70173968D01*
X67443866Y-70168823D01*
X67493460Y-70022726D01*
X67715598Y-69368327D01*
X67717444Y-69363257D01*
X67766041Y-69238290D01*
X67801001Y-69148389D01*
X76954500Y-69148389D01*
X76954500Y-73421610D01*
X76975152Y-73552007D01*
X76981598Y-73592701D01*
X77035127Y-73757445D01*
X77113768Y-73911788D01*
X77215586Y-74051928D01*
X77338072Y-74174414D01*
X77478212Y-74276232D01*
X77632555Y-74354873D01*
X77797299Y-74408402D01*
X77968389Y-74435500D01*
X77968390Y-74435500D01*
X78141610Y-74435500D01*
X78141611Y-74435500D01*
X78312701Y-74408402D01*
X78477445Y-74354873D01*
X78631788Y-74276232D01*
X78771928Y-74174414D01*
X78894414Y-74051928D01*
X78996232Y-73911788D01*
X79074873Y-73757445D01*
X79128402Y-73592701D01*
X79155500Y-73421611D01*
X79155500Y-71166902D01*
X83539500Y-71166902D01*
X83539500Y-101003097D01*
X83576446Y-101236368D01*
X83649433Y-101460996D01*
X83756657Y-101671434D01*
X83895483Y-101862510D01*
X88565483Y-106532510D01*
X91062490Y-109029518D01*
X91214078Y-109139652D01*
X91256743Y-109194981D01*
X91262722Y-109264594D01*
X91230117Y-109326390D01*
X91228873Y-109327651D01*
X91078402Y-109478121D01*
X90952900Y-109657357D01*
X90952898Y-109657361D01*
X90860426Y-109855668D01*
X90860422Y-109855677D01*
X90803793Y-110067020D01*
X90803793Y-110067023D01*
X90801282Y-110095720D01*
X90784723Y-110284997D01*
X90784723Y-110285002D01*
X90803793Y-110502975D01*
X90803793Y-110502979D01*
X90860422Y-110714322D01*
X90860424Y-110714326D01*
X90860425Y-110714330D01*
X90874967Y-110745515D01*
X90952897Y-110912638D01*
X90952898Y-110912639D01*
X91078402Y-111091877D01*
X91233123Y-111246598D01*
X91412361Y-111372102D01*
X91610670Y-111464575D01*
X91822023Y-111521207D01*
X92004926Y-111537208D01*
X92039998Y-111540277D01*
X92040000Y-111540277D01*
X92040002Y-111540277D01*
X92068254Y-111537805D01*
X92257977Y-111521207D01*
X92469330Y-111464575D01*
X92667639Y-111372102D01*
X92846877Y-111246598D01*
X93001598Y-111091877D01*
X93127102Y-110912639D01*
X93219575Y-110714330D01*
X93276207Y-110502977D01*
X93295277Y-110285000D01*
X93292833Y-110257069D01*
X93289816Y-110222575D01*
X93276207Y-110067023D01*
X93219575Y-109855670D01*
X93127102Y-109657362D01*
X93127100Y-109657359D01*
X93127099Y-109657357D01*
X93001599Y-109478124D01*
X93001596Y-109478121D01*
X92851125Y-109327650D01*
X92817642Y-109266329D01*
X92822626Y-109196638D01*
X92864497Y-109140704D01*
X92865922Y-109139653D01*
X92865925Y-109139651D01*
X93017510Y-109029518D01*
X93184518Y-108862510D01*
X93323343Y-108671434D01*
X93392860Y-108534999D01*
X107684773Y-108534999D01*
X107684773Y-108535002D01*
X107703657Y-108799028D01*
X107703658Y-108799035D01*
X107759921Y-109057674D01*
X107852426Y-109305691D01*
X107852428Y-109305695D01*
X107979280Y-109538006D01*
X107979285Y-109538014D01*
X108137906Y-109749908D01*
X108137922Y-109749926D01*
X108325074Y-109937078D01*
X108325092Y-109937094D01*
X108536986Y-110095715D01*
X108536994Y-110095720D01*
X108769305Y-110222572D01*
X108769307Y-110222573D01*
X108769311Y-110222575D01*
X109017322Y-110315078D01*
X109017325Y-110315078D01*
X109017326Y-110315079D01*
X109212552Y-110357547D01*
X109275974Y-110371344D01*
X109519660Y-110388773D01*
X109539999Y-110390228D01*
X109540000Y-110390228D01*
X109540001Y-110390228D01*
X109558885Y-110388877D01*
X109804026Y-110371344D01*
X110062678Y-110315078D01*
X110310689Y-110222575D01*
X110543011Y-110095717D01*
X110754915Y-109937088D01*
X110942087Y-109749916D01*
X111100716Y-109538012D01*
X111227574Y-109305690D01*
X111320077Y-109057679D01*
X111376343Y-108799027D01*
X111395227Y-108535001D01*
X111394397Y-108523403D01*
X111389934Y-108460994D01*
X111376343Y-108270975D01*
X111356159Y-108178189D01*
X111320078Y-108012327D01*
X111320076Y-108012322D01*
X111227574Y-107764312D01*
X111227573Y-107764310D01*
X111227571Y-107764306D01*
X111100719Y-107531995D01*
X111100714Y-107531987D01*
X110942093Y-107320093D01*
X110942077Y-107320075D01*
X110754925Y-107132923D01*
X110754907Y-107132907D01*
X110543013Y-106974286D01*
X110543005Y-106974281D01*
X110310694Y-106847429D01*
X110310690Y-106847427D01*
X110062673Y-106754922D01*
X109804034Y-106698659D01*
X109804027Y-106698658D01*
X109540001Y-106679774D01*
X109539999Y-106679774D01*
X109275972Y-106698658D01*
X109275965Y-106698659D01*
X109017326Y-106754922D01*
X108769309Y-106847427D01*
X108769305Y-106847429D01*
X108536994Y-106974281D01*
X108536986Y-106974286D01*
X108325092Y-107132907D01*
X108325074Y-107132923D01*
X108137922Y-107320075D01*
X108137906Y-107320093D01*
X107979285Y-107531987D01*
X107979280Y-107531995D01*
X107852428Y-107764306D01*
X107852426Y-107764310D01*
X107759921Y-108012327D01*
X107703658Y-108270966D01*
X107703657Y-108270973D01*
X107684773Y-108534999D01*
X93392860Y-108534999D01*
X93430568Y-108460992D01*
X93503553Y-108236369D01*
X93533552Y-108046962D01*
X93540500Y-108003097D01*
X93540500Y-105436902D01*
X93503553Y-105203631D01*
X93430566Y-104979003D01*
X93323342Y-104768566D01*
X93259993Y-104681374D01*
X93184517Y-104577490D01*
X93017510Y-104410483D01*
X92826433Y-104271657D01*
X92777733Y-104246843D01*
X92726937Y-104198868D01*
X92710142Y-104131047D01*
X92727698Y-104079529D01*
X92729571Y-104058124D01*
X92169410Y-103497962D01*
X92232993Y-103480925D01*
X92347007Y-103415099D01*
X92440099Y-103322007D01*
X92505925Y-103207993D01*
X92522962Y-103144409D01*
X93083124Y-103704570D01*
X93126668Y-103642385D01*
X93126669Y-103642383D01*
X93219100Y-103444164D01*
X93219105Y-103444150D01*
X93275710Y-103232894D01*
X93275712Y-103232884D01*
X93294775Y-103015000D01*
X93294775Y-103014999D01*
X93275712Y-102797115D01*
X93275710Y-102797105D01*
X93219105Y-102585849D01*
X93219101Y-102585840D01*
X93126667Y-102387614D01*
X93126666Y-102387612D01*
X93083124Y-102325428D01*
X93083124Y-102325427D01*
X92522962Y-102885589D01*
X92505925Y-102822007D01*
X92440099Y-102707993D01*
X92347007Y-102614901D01*
X92232993Y-102549075D01*
X92169409Y-102532037D01*
X92729571Y-101971874D01*
X92700579Y-101951574D01*
X92656955Y-101896997D01*
X92649762Y-101827498D01*
X92681284Y-101765144D01*
X92700579Y-101748424D01*
X92729570Y-101728124D01*
X92169409Y-101167962D01*
X92232993Y-101150925D01*
X92347007Y-101085099D01*
X92440099Y-100992007D01*
X92505925Y-100877993D01*
X92522962Y-100814409D01*
X93083124Y-101374570D01*
X93126668Y-101312385D01*
X93126669Y-101312383D01*
X93219100Y-101114164D01*
X93219105Y-101114150D01*
X93275710Y-100902894D01*
X93275712Y-100902884D01*
X93294775Y-100685000D01*
X93294775Y-100684999D01*
X93275712Y-100467115D01*
X93275710Y-100467105D01*
X93219105Y-100255849D01*
X93219101Y-100255840D01*
X93126667Y-100057614D01*
X93126666Y-100057612D01*
X93083124Y-99995428D01*
X93083124Y-99995427D01*
X92522962Y-100555589D01*
X92505925Y-100492007D01*
X92440099Y-100377993D01*
X92347007Y-100284901D01*
X92232993Y-100219075D01*
X92169409Y-100202037D01*
X92729571Y-99641874D01*
X92667389Y-99598334D01*
X92665945Y-99597661D01*
X92665414Y-99597193D01*
X92662702Y-99595628D01*
X92663016Y-99595082D01*
X92613503Y-99551491D01*
X92594348Y-99484298D01*
X92614560Y-99417416D01*
X92663213Y-99375257D01*
X92662953Y-99374807D01*
X92665292Y-99373456D01*
X92665942Y-99372893D01*
X92667639Y-99372102D01*
X92846877Y-99246598D01*
X93001598Y-99091877D01*
X93127102Y-98912639D01*
X93219575Y-98714330D01*
X93276207Y-98502977D01*
X93294554Y-98293261D01*
X93295277Y-98285002D01*
X93295277Y-98284997D01*
X93287173Y-98192372D01*
X93276207Y-98067023D01*
X93219575Y-97855670D01*
X93127102Y-97657362D01*
X93127100Y-97657359D01*
X93127099Y-97657357D01*
X93001599Y-97478124D01*
X93001596Y-97478121D01*
X92846877Y-97323402D01*
X92667639Y-97197898D01*
X92667640Y-97197898D01*
X92667638Y-97197897D01*
X92568484Y-97151661D01*
X92469330Y-97105425D01*
X92469326Y-97105424D01*
X92469322Y-97105422D01*
X92257977Y-97048793D01*
X92040002Y-97029723D01*
X92039998Y-97029723D01*
X91894682Y-97042436D01*
X91822023Y-97048793D01*
X91822020Y-97048793D01*
X91610677Y-97105422D01*
X91610668Y-97105426D01*
X91412361Y-97197898D01*
X91412357Y-97197900D01*
X91233121Y-97323402D01*
X91078402Y-97478121D01*
X90952900Y-97657357D01*
X90952898Y-97657361D01*
X90860426Y-97855668D01*
X90860422Y-97855677D01*
X90803793Y-98067020D01*
X90803793Y-98067024D01*
X90784723Y-98284997D01*
X90784723Y-98285002D01*
X90803793Y-98502975D01*
X90803793Y-98502979D01*
X90860422Y-98714322D01*
X90860424Y-98714326D01*
X90860425Y-98714330D01*
X90906661Y-98813484D01*
X90952897Y-98912638D01*
X90952898Y-98912639D01*
X91078402Y-99091877D01*
X91233123Y-99246598D01*
X91412361Y-99372102D01*
X91414060Y-99372894D01*
X91414681Y-99373441D01*
X91417047Y-99374807D01*
X91416772Y-99375282D01*
X91466499Y-99419067D01*
X91485651Y-99486260D01*
X91465435Y-99553141D01*
X91417002Y-99595111D01*
X91417300Y-99595627D01*
X91414624Y-99597171D01*
X91414068Y-99597654D01*
X91412616Y-99598331D01*
X91350428Y-99641874D01*
X91910591Y-100202037D01*
X91847007Y-100219075D01*
X91732993Y-100284901D01*
X91639901Y-100377993D01*
X91574075Y-100492007D01*
X91557037Y-100555591D01*
X90996874Y-99995428D01*
X90953333Y-100057613D01*
X90860898Y-100255840D01*
X90860894Y-100255849D01*
X90804289Y-100467105D01*
X90804287Y-100467115D01*
X90785225Y-100684999D01*
X90785225Y-100685000D01*
X90804287Y-100902884D01*
X90804289Y-100902894D01*
X90860894Y-101114150D01*
X90860898Y-101114159D01*
X90953333Y-101312387D01*
X90996874Y-101374571D01*
X91557037Y-100814408D01*
X91574075Y-100877993D01*
X91639901Y-100992007D01*
X91732993Y-101085099D01*
X91847007Y-101150925D01*
X91910590Y-101167962D01*
X91350427Y-101728124D01*
X91379418Y-101748424D01*
X91423043Y-101803001D01*
X91430237Y-101872499D01*
X91398714Y-101934854D01*
X91379418Y-101951574D01*
X91350428Y-101971872D01*
X91350427Y-101971873D01*
X91910591Y-102532037D01*
X91847007Y-102549075D01*
X91732993Y-102614901D01*
X91639901Y-102707993D01*
X91574075Y-102822007D01*
X91557037Y-102885591D01*
X90996874Y-102325428D01*
X90953333Y-102387613D01*
X90860898Y-102585840D01*
X90860894Y-102585849D01*
X90804289Y-102797105D01*
X90804287Y-102797115D01*
X90785225Y-103014999D01*
X90785225Y-103015000D01*
X90804287Y-103232884D01*
X90804289Y-103232894D01*
X90860894Y-103444150D01*
X90860898Y-103444159D01*
X90953333Y-103642387D01*
X90996874Y-103704571D01*
X91557037Y-103144408D01*
X91574075Y-103207993D01*
X91639901Y-103322007D01*
X91732993Y-103415099D01*
X91847007Y-103480925D01*
X91910590Y-103497962D01*
X91390373Y-104018181D01*
X91329050Y-104051666D01*
X91302692Y-104054500D01*
X90382889Y-104054500D01*
X90315850Y-104034815D01*
X90295208Y-104018181D01*
X86576819Y-100299792D01*
X86543334Y-100238469D01*
X86540500Y-100212111D01*
X86540500Y-92344997D01*
X90884723Y-92344997D01*
X90884723Y-92345002D01*
X90903793Y-92562975D01*
X90903793Y-92562979D01*
X90960422Y-92774322D01*
X90960424Y-92774326D01*
X90960425Y-92774330D01*
X90979043Y-92814256D01*
X91052897Y-92972638D01*
X91061219Y-92984523D01*
X91178402Y-93151877D01*
X91333123Y-93306598D01*
X91512360Y-93432101D01*
X91512361Y-93432102D01*
X91664175Y-93502894D01*
X91716614Y-93549066D01*
X91735766Y-93616260D01*
X91715550Y-93683141D01*
X91664175Y-93727658D01*
X91512613Y-93798333D01*
X91450428Y-93841874D01*
X92010591Y-94402037D01*
X91947007Y-94419075D01*
X91832993Y-94484901D01*
X91739901Y-94577993D01*
X91674075Y-94692007D01*
X91657037Y-94755591D01*
X91096874Y-94195428D01*
X91053333Y-94257613D01*
X90960898Y-94455840D01*
X90960894Y-94455849D01*
X90904289Y-94667105D01*
X90904287Y-94667115D01*
X90885225Y-94884999D01*
X90885225Y-94885000D01*
X90904287Y-95102884D01*
X90904289Y-95102894D01*
X90960894Y-95314150D01*
X90960898Y-95314159D01*
X91053333Y-95512387D01*
X91096874Y-95574571D01*
X91657037Y-95014408D01*
X91674075Y-95077993D01*
X91739901Y-95192007D01*
X91832993Y-95285099D01*
X91947007Y-95350925D01*
X92010590Y-95367962D01*
X91450427Y-95928124D01*
X91512612Y-95971666D01*
X91710840Y-96064101D01*
X91710849Y-96064105D01*
X91922105Y-96120710D01*
X91922115Y-96120712D01*
X92139999Y-96139775D01*
X92140001Y-96139775D01*
X92357884Y-96120712D01*
X92357894Y-96120710D01*
X92569150Y-96064105D01*
X92569164Y-96064100D01*
X92767383Y-95971669D01*
X92767385Y-95971668D01*
X92829571Y-95928124D01*
X92269410Y-95367962D01*
X92332993Y-95350925D01*
X92447007Y-95285099D01*
X92540099Y-95192007D01*
X92605925Y-95077993D01*
X92622962Y-95014409D01*
X93183124Y-95574570D01*
X93226668Y-95512385D01*
X93226669Y-95512383D01*
X93319100Y-95314164D01*
X93319105Y-95314150D01*
X93375710Y-95102894D01*
X93375712Y-95102884D01*
X93394775Y-94885000D01*
X93394775Y-94884999D01*
X93375712Y-94667115D01*
X93375710Y-94667105D01*
X93319105Y-94455849D01*
X93319101Y-94455840D01*
X93226667Y-94257614D01*
X93226666Y-94257612D01*
X93183124Y-94195428D01*
X93183124Y-94195427D01*
X92622962Y-94755589D01*
X92605925Y-94692007D01*
X92540099Y-94577993D01*
X92447007Y-94484901D01*
X92332993Y-94419075D01*
X92269409Y-94402037D01*
X92829571Y-93841874D01*
X92767387Y-93798333D01*
X92615824Y-93727658D01*
X92563385Y-93681486D01*
X92544233Y-93614292D01*
X92564449Y-93547411D01*
X92615822Y-93502895D01*
X92767639Y-93432102D01*
X92946877Y-93306598D01*
X93101598Y-93151877D01*
X93227102Y-92972639D01*
X93319575Y-92774330D01*
X93376207Y-92562977D01*
X93395277Y-92345000D01*
X93376207Y-92127023D01*
X93324755Y-91935003D01*
X93319577Y-91915677D01*
X93319576Y-91915676D01*
X93319575Y-91915670D01*
X93227102Y-91717362D01*
X93227100Y-91717359D01*
X93227099Y-91717357D01*
X93101599Y-91538124D01*
X93067717Y-91504242D01*
X92946877Y-91383402D01*
X92771768Y-91260789D01*
X92767638Y-91257897D01*
X92663229Y-91209211D01*
X92569330Y-91165425D01*
X92569326Y-91165424D01*
X92569322Y-91165422D01*
X92357977Y-91108793D01*
X92140002Y-91089723D01*
X92139998Y-91089723D01*
X91994682Y-91102436D01*
X91922023Y-91108793D01*
X91922020Y-91108793D01*
X91710677Y-91165422D01*
X91710668Y-91165426D01*
X91512361Y-91257898D01*
X91512357Y-91257900D01*
X91333121Y-91383402D01*
X91178402Y-91538121D01*
X91052900Y-91717357D01*
X91052898Y-91717361D01*
X90960426Y-91915668D01*
X90960422Y-91915677D01*
X90903793Y-92127020D01*
X90903793Y-92127024D01*
X90884723Y-92344997D01*
X86540500Y-92344997D01*
X86540500Y-80884997D01*
X90884723Y-80884997D01*
X90884723Y-80885002D01*
X90891035Y-80957146D01*
X90902100Y-81083631D01*
X90903793Y-81102975D01*
X90903793Y-81102979D01*
X90960422Y-81314322D01*
X90960424Y-81314326D01*
X90960425Y-81314330D01*
X90991148Y-81380215D01*
X91052897Y-81512638D01*
X91052898Y-81512639D01*
X91178402Y-81691877D01*
X91333123Y-81846598D01*
X91470878Y-81943055D01*
X91512361Y-81972102D01*
X91663583Y-82042618D01*
X91716022Y-82088790D01*
X91735174Y-82155984D01*
X91714958Y-82222865D01*
X91663583Y-82267382D01*
X91512361Y-82337898D01*
X91512357Y-82337900D01*
X91333121Y-82463402D01*
X91178402Y-82618121D01*
X91052900Y-82797357D01*
X91052898Y-82797361D01*
X90960426Y-82995668D01*
X90960422Y-82995677D01*
X90903793Y-83207020D01*
X90903793Y-83207024D01*
X90884723Y-83424997D01*
X90884723Y-83425002D01*
X90886533Y-83445687D01*
X90902907Y-83632854D01*
X90903793Y-83642975D01*
X90903793Y-83642979D01*
X90960422Y-83854322D01*
X90960424Y-83854326D01*
X90960425Y-83854330D01*
X90979040Y-83894249D01*
X91052897Y-84052638D01*
X91052898Y-84052639D01*
X91178402Y-84231877D01*
X91333123Y-84386598D01*
X91512361Y-84512102D01*
X91710670Y-84604575D01*
X91922023Y-84661207D01*
X92104926Y-84677208D01*
X92139998Y-84680277D01*
X92140000Y-84680277D01*
X92140002Y-84680277D01*
X92168254Y-84677805D01*
X92357977Y-84661207D01*
X92569330Y-84604575D01*
X92767639Y-84512102D01*
X92946877Y-84386598D01*
X93101598Y-84231877D01*
X93227102Y-84052639D01*
X93319575Y-83854330D01*
X93376207Y-83642977D01*
X93395277Y-83425000D01*
X93376207Y-83207023D01*
X93341548Y-83077675D01*
X93319577Y-82995677D01*
X93319576Y-82995676D01*
X93319575Y-82995670D01*
X93227102Y-82797362D01*
X93227100Y-82797359D01*
X93227099Y-82797357D01*
X93101599Y-82618124D01*
X93031868Y-82548393D01*
X92946877Y-82463402D01*
X92767639Y-82337898D01*
X92616414Y-82267381D01*
X92563977Y-82221210D01*
X92544825Y-82154016D01*
X92565041Y-82087135D01*
X92616414Y-82042618D01*
X92767639Y-81972102D01*
X92946877Y-81846598D01*
X93101598Y-81691877D01*
X93227102Y-81512639D01*
X93319575Y-81314330D01*
X93376207Y-81102977D01*
X93395277Y-80885000D01*
X93376207Y-80667023D01*
X93319575Y-80455670D01*
X93227102Y-80257362D01*
X93227100Y-80257359D01*
X93227099Y-80257357D01*
X93101599Y-80078124D01*
X93061468Y-80037993D01*
X92946877Y-79923402D01*
X92806336Y-79824994D01*
X92767638Y-79797897D01*
X92646090Y-79741219D01*
X92569330Y-79705425D01*
X92569326Y-79705424D01*
X92569322Y-79705422D01*
X92357977Y-79648793D01*
X92140002Y-79629723D01*
X92139998Y-79629723D01*
X91994682Y-79642436D01*
X91922023Y-79648793D01*
X91922020Y-79648793D01*
X91710677Y-79705422D01*
X91710668Y-79705426D01*
X91512361Y-79797898D01*
X91512357Y-79797900D01*
X91333121Y-79923402D01*
X91178402Y-80078121D01*
X91052900Y-80257357D01*
X91052898Y-80257361D01*
X90960426Y-80455668D01*
X90960422Y-80455677D01*
X90903793Y-80667020D01*
X90903793Y-80667024D01*
X90884723Y-80884997D01*
X86540500Y-80884997D01*
X86540500Y-73828167D01*
X104539500Y-73828167D01*
X104539500Y-105100892D01*
X104573608Y-105228188D01*
X104606554Y-105285251D01*
X104639500Y-105342315D01*
X104732686Y-105435501D01*
X104831521Y-105492564D01*
X104846810Y-105501391D01*
X104846814Y-105501393D01*
X104974108Y-105535501D01*
X110974108Y-105535501D01*
X111035572Y-105535501D01*
X111044418Y-105535817D01*
X111244561Y-105550131D01*
X111262063Y-105552648D01*
X111453797Y-105594356D01*
X111470755Y-105599335D01*
X111654606Y-105667909D01*
X111654609Y-105667910D01*
X111670701Y-105675260D01*
X111842904Y-105769289D01*
X111857784Y-105778850D01*
X111958567Y-105854296D01*
X112014866Y-105896441D01*
X112028236Y-105908027D01*
X112166974Y-106046765D01*
X112178560Y-106060136D01*
X112296143Y-106217209D01*
X112305708Y-106232092D01*
X112399739Y-106404298D01*
X112407089Y-106420391D01*
X112475661Y-106604237D01*
X112480645Y-106621213D01*
X112522350Y-106812932D01*
X112524868Y-106830443D01*
X112532507Y-106937246D01*
X112535156Y-106974285D01*
X112539184Y-107030591D01*
X112539500Y-107039438D01*
X112539500Y-110030573D01*
X112539184Y-110039420D01*
X112524869Y-110239558D01*
X112522351Y-110257069D01*
X112480646Y-110448788D01*
X112475662Y-110465764D01*
X112407091Y-110649608D01*
X112399741Y-110665701D01*
X112305708Y-110837908D01*
X112296143Y-110852791D01*
X112178560Y-111009864D01*
X112166974Y-111023235D01*
X112028236Y-111161973D01*
X112014866Y-111173559D01*
X111857789Y-111291146D01*
X111842904Y-111300711D01*
X111670701Y-111394740D01*
X111654609Y-111402090D01*
X111470763Y-111470662D01*
X111453787Y-111475646D01*
X111262068Y-111517351D01*
X111244557Y-111519869D01*
X111130806Y-111528005D01*
X111044398Y-111534185D01*
X111035563Y-111534501D01*
X104974108Y-111534501D01*
X104846812Y-111568609D01*
X104732686Y-111634501D01*
X104732683Y-111634503D01*
X104639502Y-111727684D01*
X104639500Y-111727687D01*
X104573608Y-111841813D01*
X104556026Y-111907431D01*
X104539500Y-111969109D01*
X104539500Y-128100892D01*
X104556554Y-128164539D01*
X104573608Y-128228187D01*
X104598507Y-128271313D01*
X104639500Y-128342314D01*
X104732686Y-128435500D01*
X104846814Y-128501392D01*
X104974108Y-128535500D01*
X104974110Y-128535500D01*
X112105890Y-128535500D01*
X112105892Y-128535500D01*
X112233186Y-128501392D01*
X112347314Y-128435500D01*
X112440500Y-128342314D01*
X112440501Y-128342311D01*
X112440503Y-128342310D01*
X112443228Y-128338760D01*
X112499657Y-128297558D01*
X112533157Y-128291720D01*
X112533080Y-128291029D01*
X112659213Y-128276816D01*
X112708059Y-128271313D01*
X112708060Y-128271313D01*
X112797237Y-128240108D01*
X112867690Y-128215456D01*
X112867690Y-128215455D01*
X112874045Y-128213232D01*
X112943824Y-128209670D01*
X112955955Y-128213232D01*
X112962309Y-128215455D01*
X112962310Y-128215456D01*
X112998693Y-128228187D01*
X113121939Y-128271313D01*
X113289997Y-128290249D01*
X113290000Y-128290249D01*
X113290003Y-128290249D01*
X113458059Y-128271313D01*
X113458060Y-128271313D01*
X113547237Y-128240108D01*
X113617690Y-128215456D01*
X113617690Y-128215455D01*
X113624045Y-128213232D01*
X113693824Y-128209670D01*
X113705955Y-128213232D01*
X113712309Y-128215455D01*
X113712310Y-128215456D01*
X113748693Y-128228187D01*
X113871939Y-128271313D01*
X114039997Y-128290249D01*
X114040000Y-128290249D01*
X114040003Y-128290249D01*
X114208059Y-128271313D01*
X114208060Y-128271313D01*
X114297237Y-128240108D01*
X114367690Y-128215456D01*
X114367690Y-128215455D01*
X114374045Y-128213232D01*
X114443824Y-128209670D01*
X114455955Y-128213232D01*
X114462309Y-128215455D01*
X114462310Y-128215456D01*
X114532762Y-128240108D01*
X114621940Y-128271313D01*
X114796920Y-128291029D01*
X114796732Y-128292695D01*
X114855438Y-128309934D01*
X114886772Y-128338760D01*
X114889496Y-128342310D01*
X114889499Y-128342313D01*
X114889500Y-128342314D01*
X114982686Y-128435500D01*
X115096814Y-128501392D01*
X115224108Y-128535500D01*
X130474108Y-128535500D01*
X130533038Y-128535500D01*
X130546922Y-128536280D01*
X130548307Y-128536436D01*
X130637266Y-128546459D01*
X130664331Y-128552636D01*
X130743540Y-128580352D01*
X130768553Y-128592398D01*
X130839606Y-128637043D01*
X130861313Y-128654355D01*
X130920644Y-128713686D01*
X130937957Y-128735395D01*
X130982600Y-128806444D01*
X130994648Y-128831462D01*
X131022362Y-128910666D01*
X131028540Y-128937735D01*
X131038720Y-129028076D01*
X131039500Y-129041961D01*
X131039500Y-129100891D01*
X131045673Y-129123929D01*
X131049898Y-129156022D01*
X131049898Y-129336560D01*
X131049897Y-129336578D01*
X131049898Y-129410000D01*
X131049898Y-129483538D01*
X131049899Y-129483557D01*
X131049900Y-129581514D01*
X131083518Y-129922782D01*
X131083519Y-129922788D01*
X131150422Y-130259102D01*
X131188575Y-130384867D01*
X131234718Y-130536972D01*
X131249970Y-130587246D01*
X131249971Y-130587249D01*
X131377396Y-130894869D01*
X131381200Y-130904051D01*
X131542851Y-131206470D01*
X131733365Y-131491589D01*
X131733368Y-131491593D01*
X131733373Y-131491600D01*
X131950912Y-131756665D01*
X132193361Y-131999109D01*
X132193386Y-131999134D01*
X132275991Y-132066925D01*
X132458459Y-132216670D01*
X132458466Y-132216675D01*
X132600049Y-132311276D01*
X132743584Y-132407182D01*
X133046006Y-132568827D01*
X133362815Y-132700052D01*
X133690961Y-132799593D01*
X133690975Y-132799595D01*
X133690980Y-132799597D01*
X133763235Y-132813969D01*
X134027284Y-132866491D01*
X134368544Y-132900102D01*
X134418977Y-132900102D01*
X134451069Y-132904327D01*
X134459337Y-132906542D01*
X134474108Y-132910500D01*
X134474110Y-132910500D01*
X142711966Y-132910500D01*
X142711969Y-132910500D01*
X143054250Y-132876789D01*
X143391578Y-132809690D01*
X143720705Y-132709850D01*
X144038462Y-132578231D01*
X144341787Y-132416100D01*
X144627760Y-132225019D01*
X144893627Y-132006828D01*
X145136828Y-131763627D01*
X145355019Y-131497760D01*
X145546100Y-131211787D01*
X145708231Y-130908462D01*
X145839850Y-130590705D01*
X145939690Y-130261578D01*
X146006789Y-129924250D01*
X146040500Y-129581969D01*
X146040500Y-129529925D01*
X146044506Y-129498662D01*
X146051343Y-129472421D01*
X146047900Y-128975891D01*
X146048589Y-128961960D01*
X146050845Y-128940706D01*
X146056889Y-128913488D01*
X146084289Y-128833793D01*
X146096260Y-128808615D01*
X146140786Y-128737051D01*
X146158083Y-128715187D01*
X146217467Y-128655392D01*
X146239210Y-128637946D01*
X146310472Y-128592926D01*
X146335560Y-128580785D01*
X146415068Y-128552835D01*
X146442242Y-128546606D01*
X146533480Y-128536285D01*
X146547405Y-128535500D01*
X146605820Y-128535504D01*
X146605825Y-128535502D01*
X146613872Y-128535503D01*
X146613935Y-128535500D01*
X161855890Y-128535500D01*
X161855892Y-128535500D01*
X161983186Y-128501392D01*
X162097314Y-128435500D01*
X162190500Y-128342314D01*
X162190501Y-128342311D01*
X162190503Y-128342310D01*
X162193228Y-128338760D01*
X162249657Y-128297558D01*
X162283157Y-128291720D01*
X162283080Y-128291029D01*
X162409213Y-128276816D01*
X162458059Y-128271313D01*
X162458060Y-128271313D01*
X162547237Y-128240108D01*
X162617690Y-128215456D01*
X162617690Y-128215455D01*
X162624045Y-128213232D01*
X162693824Y-128209670D01*
X162705955Y-128213232D01*
X162712309Y-128215455D01*
X162712310Y-128215456D01*
X162748693Y-128228187D01*
X162871939Y-128271313D01*
X163039997Y-128290249D01*
X163040000Y-128290249D01*
X163040003Y-128290249D01*
X163208059Y-128271313D01*
X163208060Y-128271313D01*
X163297237Y-128240108D01*
X163367690Y-128215456D01*
X163367690Y-128215455D01*
X163374045Y-128213232D01*
X163443824Y-128209670D01*
X163455955Y-128213232D01*
X163462309Y-128215455D01*
X163462310Y-128215456D01*
X163498693Y-128228187D01*
X163621939Y-128271313D01*
X163789997Y-128290249D01*
X163790000Y-128290249D01*
X163790003Y-128290249D01*
X163958059Y-128271313D01*
X163958060Y-128271313D01*
X164047237Y-128240108D01*
X164117690Y-128215456D01*
X164117690Y-128215455D01*
X164124045Y-128213232D01*
X164193824Y-128209670D01*
X164205955Y-128213232D01*
X164212309Y-128215455D01*
X164212310Y-128215456D01*
X164282762Y-128240108D01*
X164371940Y-128271313D01*
X164546920Y-128291029D01*
X164546732Y-128292695D01*
X164605438Y-128309934D01*
X164636772Y-128338760D01*
X164639496Y-128342310D01*
X164639499Y-128342313D01*
X164639500Y-128342314D01*
X164732686Y-128435500D01*
X164846814Y-128501392D01*
X164974108Y-128535500D01*
X164974110Y-128535500D01*
X165114318Y-128535500D01*
X165114417Y-128535493D01*
X171949443Y-128535498D01*
X171949447Y-128535500D01*
X171974108Y-128535500D01*
X172105890Y-128535500D01*
X172105891Y-128535500D01*
X172105892Y-128535500D01*
X172233186Y-128501392D01*
X172347314Y-128435500D01*
X172440500Y-128342314D01*
X172506392Y-128228186D01*
X172509803Y-128215456D01*
X172540500Y-128100893D01*
X172540500Y-127969109D01*
X172540500Y-127969108D01*
X172540500Y-111969108D01*
X172506392Y-111841814D01*
X172440500Y-111727686D01*
X172347314Y-111634500D01*
X172276707Y-111593735D01*
X172233187Y-111568608D01*
X172127452Y-111540277D01*
X172105892Y-111534500D01*
X172105891Y-111534500D01*
X166044428Y-111534500D01*
X166035582Y-111534184D01*
X166013622Y-111532613D01*
X165835442Y-111519869D01*
X165817931Y-111517351D01*
X165626212Y-111475646D01*
X165609236Y-111470662D01*
X165425390Y-111402090D01*
X165409298Y-111394740D01*
X165237095Y-111300711D01*
X165222210Y-111291146D01*
X165207903Y-111280436D01*
X165065132Y-111173558D01*
X165051762Y-111161972D01*
X164913027Y-111023237D01*
X164901441Y-111009867D01*
X164890778Y-110995623D01*
X164783849Y-110852784D01*
X164774288Y-110837904D01*
X164680259Y-110665701D01*
X164672909Y-110649609D01*
X164635477Y-110549251D01*
X164604334Y-110465755D01*
X164599355Y-110448797D01*
X164557647Y-110257063D01*
X164555130Y-110239561D01*
X164540816Y-110039418D01*
X164540500Y-110030572D01*
X164540500Y-108534998D01*
X165684773Y-108534998D01*
X165684773Y-108535001D01*
X165703657Y-108799027D01*
X165703658Y-108799034D01*
X165759921Y-109057673D01*
X165852426Y-109305690D01*
X165852428Y-109305694D01*
X165979280Y-109538005D01*
X165979285Y-109538013D01*
X166137906Y-109749907D01*
X166137922Y-109749925D01*
X166325074Y-109937077D01*
X166325092Y-109937093D01*
X166536986Y-110095714D01*
X166536994Y-110095719D01*
X166769305Y-110222571D01*
X166769307Y-110222572D01*
X166769311Y-110222574D01*
X167017322Y-110315077D01*
X167017325Y-110315077D01*
X167017326Y-110315078D01*
X167017331Y-110315079D01*
X167275974Y-110371343D01*
X167519660Y-110388772D01*
X167539999Y-110390227D01*
X167540000Y-110390227D01*
X167540001Y-110390227D01*
X167558885Y-110388876D01*
X167804026Y-110371343D01*
X168062678Y-110315077D01*
X168310689Y-110222574D01*
X168543011Y-110095716D01*
X168754915Y-109937087D01*
X168942087Y-109749915D01*
X169100716Y-109538011D01*
X169227574Y-109305689D01*
X169320077Y-109057678D01*
X169376343Y-108799026D01*
X169395227Y-108535000D01*
X169394397Y-108523402D01*
X169385421Y-108397897D01*
X169376343Y-108270974D01*
X169327613Y-108046963D01*
X169320078Y-108012326D01*
X169283174Y-107913383D01*
X169227574Y-107764311D01*
X169205762Y-107724366D01*
X169100719Y-107531994D01*
X169100714Y-107531986D01*
X168942093Y-107320092D01*
X168942077Y-107320074D01*
X168754925Y-107132922D01*
X168754907Y-107132906D01*
X168543013Y-106974285D01*
X168543005Y-106974280D01*
X168310694Y-106847428D01*
X168310690Y-106847426D01*
X168062673Y-106754921D01*
X167804034Y-106698658D01*
X167804027Y-106698657D01*
X167540001Y-106679773D01*
X167539999Y-106679773D01*
X167275972Y-106698657D01*
X167275965Y-106698658D01*
X167017326Y-106754921D01*
X166769309Y-106847426D01*
X166769305Y-106847428D01*
X166536994Y-106974280D01*
X166536986Y-106974285D01*
X166325092Y-107132906D01*
X166325074Y-107132922D01*
X166137922Y-107320074D01*
X166137906Y-107320092D01*
X165979285Y-107531986D01*
X165979280Y-107531994D01*
X165852428Y-107764305D01*
X165852426Y-107764309D01*
X165759921Y-108012326D01*
X165703658Y-108270965D01*
X165703657Y-108270972D01*
X165684773Y-108534998D01*
X164540500Y-108534998D01*
X164540500Y-107039427D01*
X164540816Y-107030581D01*
X164544842Y-106974285D01*
X164555130Y-106830436D01*
X164557648Y-106812932D01*
X164599356Y-106621199D01*
X164604333Y-106604248D01*
X164672911Y-106420385D01*
X164680259Y-106404298D01*
X164774291Y-106232089D01*
X164783845Y-106217221D01*
X164901448Y-106060123D01*
X164913020Y-106046769D01*
X165051769Y-105908020D01*
X165065123Y-105896448D01*
X165222221Y-105778845D01*
X165237089Y-105769291D01*
X165409298Y-105675258D01*
X165425388Y-105667910D01*
X165609248Y-105599333D01*
X165626199Y-105594356D01*
X165817938Y-105552646D01*
X165835436Y-105550130D01*
X166035582Y-105535816D01*
X166044428Y-105535500D01*
X172105890Y-105535500D01*
X172105892Y-105535500D01*
X172233186Y-105501392D01*
X172347314Y-105435500D01*
X172440500Y-105342314D01*
X172506392Y-105228186D01*
X172540500Y-105100892D01*
X172540498Y-74026472D01*
X172541299Y-74012938D01*
X172541291Y-74012326D01*
X172540508Y-73950499D01*
X172540498Y-73948928D01*
X172540498Y-73886446D01*
X172539535Y-73873100D01*
X172537688Y-73729994D01*
X172494776Y-73298968D01*
X172414761Y-72873267D01*
X172298242Y-72456077D01*
X172267299Y-72373599D01*
X172146095Y-72050532D01*
X172146094Y-72050529D01*
X171959458Y-71659662D01*
X171959450Y-71659647D01*
X171959449Y-71659645D01*
X171959447Y-71659641D01*
X171739709Y-71286359D01*
X171726187Y-71267363D01*
X171608997Y-71102726D01*
X171488521Y-70933472D01*
X171297466Y-70709008D01*
X171207771Y-70603628D01*
X171207770Y-70603627D01*
X170907855Y-70307487D01*
X170899544Y-70299281D01*
X170566165Y-70022726D01*
X170328805Y-69858261D01*
X170210127Y-69776030D01*
X169834092Y-69561038D01*
X169440885Y-69379364D01*
X169440873Y-69379359D01*
X169033427Y-69232358D01*
X168614792Y-69121131D01*
X168614785Y-69121130D01*
X168188118Y-69046516D01*
X167818225Y-69014417D01*
X167756578Y-69009068D01*
X167540000Y-69009015D01*
X167474108Y-69009015D01*
X167394764Y-69030275D01*
X167362671Y-69034500D01*
X109333167Y-69034500D01*
X108920956Y-69068657D01*
X108920950Y-69068658D01*
X108512946Y-69136741D01*
X108512942Y-69136742D01*
X108369502Y-69173066D01*
X108111956Y-69238286D01*
X108111950Y-69238287D01*
X108111942Y-69238290D01*
X107720720Y-69372597D01*
X107341924Y-69538753D01*
X107341910Y-69538759D01*
X106978134Y-69735625D01*
X106631833Y-69961875D01*
X106631832Y-69961876D01*
X106305417Y-70215936D01*
X106001089Y-70496089D01*
X105720936Y-70800417D01*
X105466876Y-71126832D01*
X105466875Y-71126833D01*
X105240625Y-71473134D01*
X105043759Y-71836910D01*
X105043753Y-71836924D01*
X104877597Y-72215720D01*
X104743290Y-72606942D01*
X104743287Y-72606950D01*
X104743286Y-72606956D01*
X104689066Y-72821065D01*
X104641742Y-73007942D01*
X104641741Y-73007946D01*
X104573658Y-73415950D01*
X104573657Y-73415956D01*
X104539500Y-73828167D01*
X86540500Y-73828167D01*
X86540500Y-71166902D01*
X86503553Y-70933631D01*
X86430566Y-70709003D01*
X86323342Y-70498566D01*
X86321543Y-70496090D01*
X86184517Y-70307490D01*
X86176819Y-70299792D01*
X86143334Y-70238469D01*
X86140500Y-70212111D01*
X86140500Y-69148389D01*
X86127872Y-69068658D01*
X86113402Y-68977299D01*
X86059873Y-68812555D01*
X85981232Y-68658212D01*
X85879414Y-68518072D01*
X85756928Y-68395586D01*
X85616788Y-68293768D01*
X85462445Y-68215127D01*
X85297701Y-68161598D01*
X85297699Y-68161597D01*
X85297698Y-68161597D01*
X85166271Y-68140781D01*
X85126611Y-68134500D01*
X84953389Y-68134500D01*
X84913728Y-68140781D01*
X84782302Y-68161597D01*
X84617552Y-68215128D01*
X84463211Y-68293768D01*
X84383256Y-68351859D01*
X84323072Y-68395586D01*
X84323070Y-68395588D01*
X84323069Y-68395588D01*
X84200588Y-68518069D01*
X84200588Y-68518070D01*
X84200586Y-68518072D01*
X84162568Y-68570399D01*
X84098768Y-68658211D01*
X84020128Y-68812552D01*
X83966597Y-68977302D01*
X83939500Y-69148389D01*
X83939500Y-70212111D01*
X83919815Y-70279150D01*
X83903181Y-70299792D01*
X83895485Y-70307487D01*
X83895485Y-70307488D01*
X83895483Y-70307490D01*
X83835862Y-70389550D01*
X83756657Y-70498566D01*
X83649433Y-70709003D01*
X83576446Y-70933631D01*
X83539500Y-71166902D01*
X79155500Y-71166902D01*
X79155500Y-69148389D01*
X79128402Y-68977299D01*
X79074873Y-68812555D01*
X78996232Y-68658212D01*
X78894414Y-68518072D01*
X78771928Y-68395586D01*
X78631788Y-68293768D01*
X78477445Y-68215127D01*
X78312701Y-68161598D01*
X78312699Y-68161597D01*
X78312698Y-68161597D01*
X78181271Y-68140781D01*
X78141611Y-68134500D01*
X77968389Y-68134500D01*
X77928728Y-68140781D01*
X77797302Y-68161597D01*
X77632552Y-68215128D01*
X77478211Y-68293768D01*
X77398256Y-68351859D01*
X77338072Y-68395586D01*
X77338070Y-68395588D01*
X77338069Y-68395588D01*
X77215588Y-68518069D01*
X77215588Y-68518070D01*
X77215586Y-68518072D01*
X77177568Y-68570399D01*
X77113768Y-68658211D01*
X77035128Y-68812552D01*
X76981597Y-68977302D01*
X76954500Y-69148389D01*
X67801001Y-69148389D01*
X68023834Y-68575374D01*
X68025885Y-68570423D01*
X68366371Y-67796608D01*
X68368654Y-67791715D01*
X68742545Y-67033539D01*
X68745018Y-67028788D01*
X69151652Y-66287593D01*
X69154326Y-66282961D01*
X69592906Y-65560203D01*
X69595770Y-65555709D01*
X70065472Y-64852749D01*
X70068504Y-64848418D01*
X70568428Y-64166609D01*
X70571696Y-64162352D01*
X71100838Y-63503053D01*
X71104281Y-63498949D01*
X71661687Y-62863350D01*
X71665314Y-62859392D01*
X72249910Y-62248714D01*
X72253725Y-62244900D01*
X72338105Y-62164124D01*
X72864392Y-61660314D01*
X72868350Y-61656687D01*
X73503949Y-61099281D01*
X73508053Y-61095838D01*
X74167364Y-60566686D01*
X74171609Y-60563428D01*
X74853418Y-60063504D01*
X74857749Y-60060472D01*
X75560709Y-59590770D01*
X75565203Y-59587906D01*
X75652393Y-59534998D01*
X107684773Y-59534998D01*
X107684773Y-59535001D01*
X107703657Y-59799027D01*
X107703658Y-59799034D01*
X107759921Y-60057673D01*
X107852426Y-60305690D01*
X107852428Y-60305694D01*
X107979280Y-60538005D01*
X107979285Y-60538013D01*
X108137906Y-60749907D01*
X108137922Y-60749925D01*
X108325074Y-60937077D01*
X108325092Y-60937093D01*
X108536986Y-61095714D01*
X108536994Y-61095719D01*
X108769305Y-61222571D01*
X108769309Y-61222573D01*
X108769311Y-61222574D01*
X109017322Y-61315077D01*
X109017325Y-61315077D01*
X109017326Y-61315078D01*
X109212552Y-61357546D01*
X109275974Y-61371343D01*
X109519660Y-61388772D01*
X109539999Y-61390227D01*
X109540000Y-61390227D01*
X109540001Y-61390227D01*
X109558885Y-61388876D01*
X109804026Y-61371343D01*
X110062678Y-61315077D01*
X110310689Y-61222574D01*
X110543011Y-61095716D01*
X110754915Y-60937087D01*
X110942087Y-60749915D01*
X111100716Y-60538011D01*
X111227574Y-60305689D01*
X111320077Y-60057678D01*
X111376343Y-59799026D01*
X111395227Y-59535000D01*
X111395227Y-59534998D01*
X165684773Y-59534998D01*
X165684773Y-59535001D01*
X165703657Y-59799027D01*
X165703658Y-59799034D01*
X165759921Y-60057673D01*
X165852426Y-60305690D01*
X165852428Y-60305694D01*
X165979280Y-60538005D01*
X165979285Y-60538013D01*
X166137906Y-60749907D01*
X166137922Y-60749925D01*
X166325074Y-60937077D01*
X166325092Y-60937093D01*
X166536986Y-61095714D01*
X166536994Y-61095719D01*
X166769305Y-61222571D01*
X166769309Y-61222573D01*
X166769311Y-61222574D01*
X167017322Y-61315077D01*
X167017325Y-61315077D01*
X167017326Y-61315078D01*
X167212552Y-61357546D01*
X167275974Y-61371343D01*
X167519660Y-61388772D01*
X167539999Y-61390227D01*
X167540000Y-61390227D01*
X167540001Y-61390227D01*
X167558885Y-61388876D01*
X167804026Y-61371343D01*
X168062678Y-61315077D01*
X168310689Y-61222574D01*
X168543011Y-61095716D01*
X168754915Y-60937087D01*
X168942087Y-60749915D01*
X169100716Y-60538011D01*
X169227574Y-60305689D01*
X169320077Y-60057678D01*
X169376343Y-59799026D01*
X169395227Y-59535000D01*
X169376343Y-59270974D01*
X169349295Y-59146637D01*
X169320078Y-59012326D01*
X169276704Y-58896036D01*
X169227574Y-58764311D01*
X169205762Y-58724366D01*
X169100719Y-58531994D01*
X169100714Y-58531986D01*
X168942093Y-58320092D01*
X168942077Y-58320074D01*
X168754925Y-58132922D01*
X168754907Y-58132906D01*
X168543013Y-57974285D01*
X168543005Y-57974280D01*
X168310694Y-57847428D01*
X168310690Y-57847426D01*
X168062673Y-57754921D01*
X167804034Y-57698658D01*
X167804027Y-57698657D01*
X167540001Y-57679773D01*
X167539999Y-57679773D01*
X167275972Y-57698657D01*
X167275965Y-57698658D01*
X167017326Y-57754921D01*
X166769309Y-57847426D01*
X166769305Y-57847428D01*
X166536994Y-57974280D01*
X166536986Y-57974285D01*
X166325092Y-58132906D01*
X166325074Y-58132922D01*
X166137922Y-58320074D01*
X166137906Y-58320092D01*
X165979285Y-58531986D01*
X165979280Y-58531994D01*
X165852428Y-58764305D01*
X165852426Y-58764309D01*
X165759921Y-59012326D01*
X165703658Y-59270965D01*
X165703657Y-59270972D01*
X165684773Y-59534998D01*
X111395227Y-59534998D01*
X111376343Y-59270974D01*
X111349295Y-59146637D01*
X111320078Y-59012326D01*
X111276704Y-58896036D01*
X111227574Y-58764311D01*
X111205762Y-58724366D01*
X111100719Y-58531994D01*
X111100714Y-58531986D01*
X110942093Y-58320092D01*
X110942077Y-58320074D01*
X110754925Y-58132922D01*
X110754907Y-58132906D01*
X110543013Y-57974285D01*
X110543005Y-57974280D01*
X110310694Y-57847428D01*
X110310690Y-57847426D01*
X110062673Y-57754921D01*
X109804034Y-57698658D01*
X109804027Y-57698657D01*
X109540001Y-57679773D01*
X109539999Y-57679773D01*
X109275972Y-57698657D01*
X109275965Y-57698658D01*
X109017326Y-57754921D01*
X108769309Y-57847426D01*
X108769305Y-57847428D01*
X108536994Y-57974280D01*
X108536986Y-57974285D01*
X108325092Y-58132906D01*
X108325074Y-58132922D01*
X108137922Y-58320074D01*
X108137906Y-58320092D01*
X107979285Y-58531986D01*
X107979280Y-58531994D01*
X107852428Y-58764305D01*
X107852426Y-58764309D01*
X107759921Y-59012326D01*
X107703658Y-59270965D01*
X107703657Y-59270972D01*
X107684773Y-59534998D01*
X75652393Y-59534998D01*
X76287961Y-59149326D01*
X76292593Y-59146652D01*
X77033788Y-58740018D01*
X77038539Y-58737545D01*
X77796725Y-58363649D01*
X77801608Y-58361371D01*
X78575423Y-58020885D01*
X78580374Y-58018834D01*
X79368271Y-57712438D01*
X79373327Y-57710598D01*
X80173838Y-57438861D01*
X80178968Y-57437243D01*
X80990587Y-57200678D01*
X80995771Y-57199289D01*
X81816920Y-56998356D01*
X81822176Y-56997190D01*
X82651294Y-56832268D01*
X82656596Y-56831333D01*
X83492150Y-56702729D01*
X83497477Y-56702028D01*
X84337838Y-56609993D01*
X84343165Y-56609526D01*
X85186789Y-56554232D01*
X85192148Y-56553999D01*
X86038625Y-56535529D01*
X86041330Y-56535500D01*
X86105892Y-56535500D01*
X190974108Y-56535500D01*
X191038670Y-56535500D01*
X191041374Y-56535529D01*
G37*
%TD.AperFunction*%
%TD*%
M02*
