%TF.GenerationSoftware,KiCad,Pcbnew,8.0.3*%
%TF.CreationDate,2024-06-25T13:40:25-04:00*%
%TF.ProjectId,StringsVR-SheepyHat,53747269-6e67-4735-9652-2d5368656570,rev?*%
%TF.SameCoordinates,Original*%
%TF.FileFunction,Legend,Top*%
%TF.FilePolarity,Positive*%
%FSLAX46Y46*%
G04 Gerber Fmt 4.6, Leading zero omitted, Abs format (unit mm)*
G04 Created by KiCad (PCBNEW 8.0.3) date 2024-06-25 13:40:25*
%MOMM*%
%LPD*%
G01*
G04 APERTURE LIST*
%ADD10C,0.150000*%
%ADD11C,0.100000*%
%ADD12C,0.300000*%
%ADD13C,0.250000*%
%ADD14C,0.050000*%
%ADD15C,0.152400*%
%ADD16C,0.120000*%
%ADD17C,0.127000*%
%ADD18C,0.200000*%
G04 APERTURE END LIST*
D10*
X115488684Y-128491533D02*
X115655350Y-129191533D01*
X115655350Y-129191533D02*
X115788684Y-128691533D01*
X115788684Y-128691533D02*
X115922017Y-129191533D01*
X115922017Y-129191533D02*
X116088684Y-128491533D01*
X116622017Y-129158200D02*
X116555350Y-129191533D01*
X116555350Y-129191533D02*
X116422017Y-129191533D01*
X116422017Y-129191533D02*
X116355350Y-129158200D01*
X116355350Y-129158200D02*
X116322017Y-129091533D01*
X116322017Y-129091533D02*
X116322017Y-128824866D01*
X116322017Y-128824866D02*
X116355350Y-128758200D01*
X116355350Y-128758200D02*
X116422017Y-128724866D01*
X116422017Y-128724866D02*
X116555350Y-128724866D01*
X116555350Y-128724866D02*
X116622017Y-128758200D01*
X116622017Y-128758200D02*
X116655350Y-128824866D01*
X116655350Y-128824866D02*
X116655350Y-128891533D01*
X116655350Y-128891533D02*
X116322017Y-128958200D01*
X117788683Y-129191533D02*
X117788683Y-128491533D01*
X117788683Y-129158200D02*
X117722017Y-129191533D01*
X117722017Y-129191533D02*
X117588683Y-129191533D01*
X117588683Y-129191533D02*
X117522017Y-129158200D01*
X117522017Y-129158200D02*
X117488683Y-129124866D01*
X117488683Y-129124866D02*
X117455350Y-129058200D01*
X117455350Y-129058200D02*
X117455350Y-128858200D01*
X117455350Y-128858200D02*
X117488683Y-128791533D01*
X117488683Y-128791533D02*
X117522017Y-128758200D01*
X117522017Y-128758200D02*
X117588683Y-128724866D01*
X117588683Y-128724866D02*
X117722017Y-128724866D01*
X117722017Y-128724866D02*
X117788683Y-128758200D01*
X118222016Y-129191533D02*
X118155350Y-129158200D01*
X118155350Y-129158200D02*
X118122016Y-129124866D01*
X118122016Y-129124866D02*
X118088683Y-129058200D01*
X118088683Y-129058200D02*
X118088683Y-128858200D01*
X118088683Y-128858200D02*
X118122016Y-128791533D01*
X118122016Y-128791533D02*
X118155350Y-128758200D01*
X118155350Y-128758200D02*
X118222016Y-128724866D01*
X118222016Y-128724866D02*
X118322016Y-128724866D01*
X118322016Y-128724866D02*
X118388683Y-128758200D01*
X118388683Y-128758200D02*
X118422016Y-128791533D01*
X118422016Y-128791533D02*
X118455350Y-128858200D01*
X118455350Y-128858200D02*
X118455350Y-129058200D01*
X118455350Y-129058200D02*
X118422016Y-129124866D01*
X118422016Y-129124866D02*
X118388683Y-129158200D01*
X118388683Y-129158200D02*
X118322016Y-129191533D01*
X118322016Y-129191533D02*
X118222016Y-129191533D01*
X119588682Y-129191533D02*
X119588682Y-128824866D01*
X119588682Y-128824866D02*
X119555349Y-128758200D01*
X119555349Y-128758200D02*
X119488682Y-128724866D01*
X119488682Y-128724866D02*
X119355349Y-128724866D01*
X119355349Y-128724866D02*
X119288682Y-128758200D01*
X119588682Y-129158200D02*
X119522016Y-129191533D01*
X119522016Y-129191533D02*
X119355349Y-129191533D01*
X119355349Y-129191533D02*
X119288682Y-129158200D01*
X119288682Y-129158200D02*
X119255349Y-129091533D01*
X119255349Y-129091533D02*
X119255349Y-129024866D01*
X119255349Y-129024866D02*
X119288682Y-128958200D01*
X119288682Y-128958200D02*
X119355349Y-128924866D01*
X119355349Y-128924866D02*
X119522016Y-128924866D01*
X119522016Y-128924866D02*
X119588682Y-128891533D01*
X120555348Y-129191533D02*
X120488682Y-129158200D01*
X120488682Y-129158200D02*
X120455348Y-129091533D01*
X120455348Y-129091533D02*
X120455348Y-128491533D01*
X120822015Y-129191533D02*
X120822015Y-128724866D01*
X120822015Y-128491533D02*
X120788682Y-128524866D01*
X120788682Y-128524866D02*
X120822015Y-128558200D01*
X120822015Y-128558200D02*
X120855349Y-128524866D01*
X120855349Y-128524866D02*
X120822015Y-128491533D01*
X120822015Y-128491533D02*
X120822015Y-128558200D01*
X121055348Y-128724866D02*
X121322015Y-128724866D01*
X121155348Y-128491533D02*
X121155348Y-129091533D01*
X121155348Y-129091533D02*
X121188682Y-129158200D01*
X121188682Y-129158200D02*
X121255348Y-129191533D01*
X121255348Y-129191533D02*
X121322015Y-129191533D01*
X121455348Y-128724866D02*
X121722015Y-128724866D01*
X121555348Y-128491533D02*
X121555348Y-129091533D01*
X121555348Y-129091533D02*
X121588682Y-129158200D01*
X121588682Y-129158200D02*
X121655348Y-129191533D01*
X121655348Y-129191533D02*
X121722015Y-129191533D01*
X122055348Y-129191533D02*
X121988682Y-129158200D01*
X121988682Y-129158200D02*
X121955348Y-129091533D01*
X121955348Y-129091533D02*
X121955348Y-128491533D01*
X122588682Y-129158200D02*
X122522015Y-129191533D01*
X122522015Y-129191533D02*
X122388682Y-129191533D01*
X122388682Y-129191533D02*
X122322015Y-129158200D01*
X122322015Y-129158200D02*
X122288682Y-129091533D01*
X122288682Y-129091533D02*
X122288682Y-128824866D01*
X122288682Y-128824866D02*
X122322015Y-128758200D01*
X122322015Y-128758200D02*
X122388682Y-128724866D01*
X122388682Y-128724866D02*
X122522015Y-128724866D01*
X122522015Y-128724866D02*
X122588682Y-128758200D01*
X122588682Y-128758200D02*
X122622015Y-128824866D01*
X122622015Y-128824866D02*
X122622015Y-128891533D01*
X122622015Y-128891533D02*
X122288682Y-128958200D01*
X123355348Y-128724866D02*
X123622015Y-128724866D01*
X123455348Y-128491533D02*
X123455348Y-129091533D01*
X123455348Y-129091533D02*
X123488682Y-129158200D01*
X123488682Y-129158200D02*
X123555348Y-129191533D01*
X123555348Y-129191533D02*
X123622015Y-129191533D01*
X123855348Y-129191533D02*
X123855348Y-128724866D01*
X123855348Y-128858200D02*
X123888682Y-128791533D01*
X123888682Y-128791533D02*
X123922015Y-128758200D01*
X123922015Y-128758200D02*
X123988682Y-128724866D01*
X123988682Y-128724866D02*
X124055348Y-128724866D01*
X124388681Y-129191533D02*
X124322015Y-129158200D01*
X124322015Y-129158200D02*
X124288681Y-129124866D01*
X124288681Y-129124866D02*
X124255348Y-129058200D01*
X124255348Y-129058200D02*
X124255348Y-128858200D01*
X124255348Y-128858200D02*
X124288681Y-128791533D01*
X124288681Y-128791533D02*
X124322015Y-128758200D01*
X124322015Y-128758200D02*
X124388681Y-128724866D01*
X124388681Y-128724866D02*
X124488681Y-128724866D01*
X124488681Y-128724866D02*
X124555348Y-128758200D01*
X124555348Y-128758200D02*
X124588681Y-128791533D01*
X124588681Y-128791533D02*
X124622015Y-128858200D01*
X124622015Y-128858200D02*
X124622015Y-129058200D01*
X124622015Y-129058200D02*
X124588681Y-129124866D01*
X124588681Y-129124866D02*
X124555348Y-129158200D01*
X124555348Y-129158200D02*
X124488681Y-129191533D01*
X124488681Y-129191533D02*
X124388681Y-129191533D01*
X125022014Y-129191533D02*
X124955348Y-129158200D01*
X124955348Y-129158200D02*
X124922014Y-129091533D01*
X124922014Y-129091533D02*
X124922014Y-128491533D01*
X125388681Y-129191533D02*
X125322015Y-129158200D01*
X125322015Y-129158200D02*
X125288681Y-129091533D01*
X125288681Y-129091533D02*
X125288681Y-128491533D01*
X125655348Y-129191533D02*
X125655348Y-128724866D01*
X125655348Y-128491533D02*
X125622015Y-128524866D01*
X125622015Y-128524866D02*
X125655348Y-128558200D01*
X125655348Y-128558200D02*
X125688682Y-128524866D01*
X125688682Y-128524866D02*
X125655348Y-128491533D01*
X125655348Y-128491533D02*
X125655348Y-128558200D01*
X125988681Y-128724866D02*
X125988681Y-129191533D01*
X125988681Y-128791533D02*
X126022015Y-128758200D01*
X126022015Y-128758200D02*
X126088681Y-128724866D01*
X126088681Y-128724866D02*
X126188681Y-128724866D01*
X126188681Y-128724866D02*
X126255348Y-128758200D01*
X126255348Y-128758200D02*
X126288681Y-128824866D01*
X126288681Y-128824866D02*
X126288681Y-129191533D01*
X126922014Y-128724866D02*
X126922014Y-129291533D01*
X126922014Y-129291533D02*
X126888681Y-129358200D01*
X126888681Y-129358200D02*
X126855348Y-129391533D01*
X126855348Y-129391533D02*
X126788681Y-129424866D01*
X126788681Y-129424866D02*
X126688681Y-129424866D01*
X126688681Y-129424866D02*
X126622014Y-129391533D01*
X126922014Y-129158200D02*
X126855348Y-129191533D01*
X126855348Y-129191533D02*
X126722014Y-129191533D01*
X126722014Y-129191533D02*
X126655348Y-129158200D01*
X126655348Y-129158200D02*
X126622014Y-129124866D01*
X126622014Y-129124866D02*
X126588681Y-129058200D01*
X126588681Y-129058200D02*
X126588681Y-128858200D01*
X126588681Y-128858200D02*
X126622014Y-128791533D01*
X126622014Y-128791533D02*
X126655348Y-128758200D01*
X126655348Y-128758200D02*
X126722014Y-128724866D01*
X126722014Y-128724866D02*
X126855348Y-128724866D01*
X126855348Y-128724866D02*
X126922014Y-128758200D01*
X85447200Y-72618332D02*
X85494819Y-72475475D01*
X85494819Y-72475475D02*
X85494819Y-72237380D01*
X85494819Y-72237380D02*
X85447200Y-72142142D01*
X85447200Y-72142142D02*
X85399580Y-72094523D01*
X85399580Y-72094523D02*
X85304342Y-72046904D01*
X85304342Y-72046904D02*
X85209104Y-72046904D01*
X85209104Y-72046904D02*
X85113866Y-72094523D01*
X85113866Y-72094523D02*
X85066247Y-72142142D01*
X85066247Y-72142142D02*
X85018628Y-72237380D01*
X85018628Y-72237380D02*
X84971009Y-72427856D01*
X84971009Y-72427856D02*
X84923390Y-72523094D01*
X84923390Y-72523094D02*
X84875771Y-72570713D01*
X84875771Y-72570713D02*
X84780533Y-72618332D01*
X84780533Y-72618332D02*
X84685295Y-72618332D01*
X84685295Y-72618332D02*
X84590057Y-72570713D01*
X84590057Y-72570713D02*
X84542438Y-72523094D01*
X84542438Y-72523094D02*
X84494819Y-72427856D01*
X84494819Y-72427856D02*
X84494819Y-72189761D01*
X84494819Y-72189761D02*
X84542438Y-72046904D01*
X84494819Y-71713570D02*
X85494819Y-71475475D01*
X85494819Y-71475475D02*
X84780533Y-71284999D01*
X84780533Y-71284999D02*
X85494819Y-71094523D01*
X85494819Y-71094523D02*
X84494819Y-70856428D01*
X84590057Y-70523094D02*
X84542438Y-70475475D01*
X84542438Y-70475475D02*
X84494819Y-70380237D01*
X84494819Y-70380237D02*
X84494819Y-70142142D01*
X84494819Y-70142142D02*
X84542438Y-70046904D01*
X84542438Y-70046904D02*
X84590057Y-69999285D01*
X84590057Y-69999285D02*
X84685295Y-69951666D01*
X84685295Y-69951666D02*
X84780533Y-69951666D01*
X84780533Y-69951666D02*
X84923390Y-69999285D01*
X84923390Y-69999285D02*
X85494819Y-70570713D01*
X85494819Y-70570713D02*
X85494819Y-69951666D01*
X81002319Y-79298699D02*
X81240414Y-79298699D01*
X81145176Y-79536794D02*
X81240414Y-79298699D01*
X81240414Y-79298699D02*
X81145176Y-79060604D01*
X81430890Y-79441556D02*
X81240414Y-79298699D01*
X81240414Y-79298699D02*
X81430890Y-79155842D01*
X81002319Y-79298699D02*
X81240414Y-79298699D01*
X81145176Y-79536794D02*
X81240414Y-79298699D01*
X81240414Y-79298699D02*
X81145176Y-79060604D01*
X81430890Y-79441556D02*
X81240414Y-79298699D01*
X81240414Y-79298699D02*
X81430890Y-79155842D01*
X143494819Y-124951666D02*
X143018628Y-125284999D01*
X143494819Y-125523094D02*
X142494819Y-125523094D01*
X142494819Y-125523094D02*
X142494819Y-125142142D01*
X142494819Y-125142142D02*
X142542438Y-125046904D01*
X142542438Y-125046904D02*
X142590057Y-124999285D01*
X142590057Y-124999285D02*
X142685295Y-124951666D01*
X142685295Y-124951666D02*
X142828152Y-124951666D01*
X142828152Y-124951666D02*
X142923390Y-124999285D01*
X142923390Y-124999285D02*
X142971009Y-125046904D01*
X142971009Y-125046904D02*
X143018628Y-125142142D01*
X143018628Y-125142142D02*
X143018628Y-125523094D01*
X143494819Y-123999285D02*
X143494819Y-124570713D01*
X143494819Y-124284999D02*
X142494819Y-124284999D01*
X142494819Y-124284999D02*
X142637676Y-124380237D01*
X142637676Y-124380237D02*
X142732914Y-124475475D01*
X142732914Y-124475475D02*
X142780533Y-124570713D01*
D11*
X125778095Y-93492419D02*
X125778095Y-94301942D01*
X125778095Y-94301942D02*
X125825714Y-94397180D01*
X125825714Y-94397180D02*
X125873333Y-94444800D01*
X125873333Y-94444800D02*
X125968571Y-94492419D01*
X125968571Y-94492419D02*
X126159047Y-94492419D01*
X126159047Y-94492419D02*
X126254285Y-94444800D01*
X126254285Y-94444800D02*
X126301904Y-94397180D01*
X126301904Y-94397180D02*
X126349523Y-94301942D01*
X126349523Y-94301942D02*
X126349523Y-93492419D01*
X126778095Y-93587657D02*
X126825714Y-93540038D01*
X126825714Y-93540038D02*
X126920952Y-93492419D01*
X126920952Y-93492419D02*
X127159047Y-93492419D01*
X127159047Y-93492419D02*
X127254285Y-93540038D01*
X127254285Y-93540038D02*
X127301904Y-93587657D01*
X127301904Y-93587657D02*
X127349523Y-93682895D01*
X127349523Y-93682895D02*
X127349523Y-93778133D01*
X127349523Y-93778133D02*
X127301904Y-93920990D01*
X127301904Y-93920990D02*
X126730476Y-94492419D01*
X126730476Y-94492419D02*
X127349523Y-94492419D01*
X136131979Y-102435038D02*
X136131979Y-100435038D01*
X136131979Y-100435038D02*
X136893884Y-100435038D01*
X136893884Y-100435038D02*
X137084360Y-100530276D01*
X137084360Y-100530276D02*
X137179598Y-100625514D01*
X137179598Y-100625514D02*
X137274836Y-100815990D01*
X137274836Y-100815990D02*
X137274836Y-101101704D01*
X137274836Y-101101704D02*
X137179598Y-101292180D01*
X137179598Y-101292180D02*
X137084360Y-101387419D01*
X137084360Y-101387419D02*
X136893884Y-101482657D01*
X136893884Y-101482657D02*
X136131979Y-101482657D01*
X138131979Y-102435038D02*
X138131979Y-101101704D01*
X138131979Y-101482657D02*
X138227217Y-101292180D01*
X138227217Y-101292180D02*
X138322455Y-101196942D01*
X138322455Y-101196942D02*
X138512931Y-101101704D01*
X138512931Y-101101704D02*
X138703408Y-101101704D01*
X139655788Y-102435038D02*
X139465312Y-102339800D01*
X139465312Y-102339800D02*
X139370074Y-102244561D01*
X139370074Y-102244561D02*
X139274836Y-102054085D01*
X139274836Y-102054085D02*
X139274836Y-101482657D01*
X139274836Y-101482657D02*
X139370074Y-101292180D01*
X139370074Y-101292180D02*
X139465312Y-101196942D01*
X139465312Y-101196942D02*
X139655788Y-101101704D01*
X139655788Y-101101704D02*
X139941503Y-101101704D01*
X139941503Y-101101704D02*
X140131979Y-101196942D01*
X140131979Y-101196942D02*
X140227217Y-101292180D01*
X140227217Y-101292180D02*
X140322455Y-101482657D01*
X140322455Y-101482657D02*
X140322455Y-102054085D01*
X140322455Y-102054085D02*
X140227217Y-102244561D01*
X140227217Y-102244561D02*
X140131979Y-102339800D01*
X140131979Y-102339800D02*
X139941503Y-102435038D01*
X139941503Y-102435038D02*
X139655788Y-102435038D01*
X142703408Y-102435038D02*
X142703408Y-100435038D01*
X142703408Y-100435038D02*
X143370075Y-101863609D01*
X143370075Y-101863609D02*
X144036741Y-100435038D01*
X144036741Y-100435038D02*
X144036741Y-102435038D01*
X144989122Y-102435038D02*
X144989122Y-101101704D01*
X144989122Y-100435038D02*
X144893884Y-100530276D01*
X144893884Y-100530276D02*
X144989122Y-100625514D01*
X144989122Y-100625514D02*
X145084360Y-100530276D01*
X145084360Y-100530276D02*
X144989122Y-100435038D01*
X144989122Y-100435038D02*
X144989122Y-100625514D01*
X146798646Y-102339800D02*
X146608170Y-102435038D01*
X146608170Y-102435038D02*
X146227217Y-102435038D01*
X146227217Y-102435038D02*
X146036741Y-102339800D01*
X146036741Y-102339800D02*
X145941503Y-102244561D01*
X145941503Y-102244561D02*
X145846265Y-102054085D01*
X145846265Y-102054085D02*
X145846265Y-101482657D01*
X145846265Y-101482657D02*
X145941503Y-101292180D01*
X145941503Y-101292180D02*
X146036741Y-101196942D01*
X146036741Y-101196942D02*
X146227217Y-101101704D01*
X146227217Y-101101704D02*
X146608170Y-101101704D01*
X146608170Y-101101704D02*
X146798646Y-101196942D01*
X147655789Y-102435038D02*
X147655789Y-101101704D01*
X147655789Y-101482657D02*
X147751027Y-101292180D01*
X147751027Y-101292180D02*
X147846265Y-101196942D01*
X147846265Y-101196942D02*
X148036741Y-101101704D01*
X148036741Y-101101704D02*
X148227218Y-101101704D01*
X149179598Y-102435038D02*
X148989122Y-102339800D01*
X148989122Y-102339800D02*
X148893884Y-102244561D01*
X148893884Y-102244561D02*
X148798646Y-102054085D01*
X148798646Y-102054085D02*
X148798646Y-101482657D01*
X148798646Y-101482657D02*
X148893884Y-101292180D01*
X148893884Y-101292180D02*
X148989122Y-101196942D01*
X148989122Y-101196942D02*
X149179598Y-101101704D01*
X149179598Y-101101704D02*
X149465313Y-101101704D01*
X149465313Y-101101704D02*
X149655789Y-101196942D01*
X149655789Y-101196942D02*
X149751027Y-101292180D01*
X149751027Y-101292180D02*
X149846265Y-101482657D01*
X149846265Y-101482657D02*
X149846265Y-102054085D01*
X149846265Y-102054085D02*
X149751027Y-102244561D01*
X149751027Y-102244561D02*
X149655789Y-102339800D01*
X149655789Y-102339800D02*
X149465313Y-102435038D01*
X149465313Y-102435038D02*
X149179598Y-102435038D01*
X148082580Y-125701666D02*
X147368295Y-125701666D01*
X147368295Y-125701666D02*
X147225438Y-125654047D01*
X147225438Y-125654047D02*
X147130200Y-125558809D01*
X147130200Y-125558809D02*
X147082580Y-125415952D01*
X147082580Y-125415952D02*
X147082580Y-125320714D01*
X147082580Y-126701666D02*
X147082580Y-126130238D01*
X147082580Y-126415952D02*
X148082580Y-126415952D01*
X148082580Y-126415952D02*
X147939723Y-126320714D01*
X147939723Y-126320714D02*
X147844485Y-126225476D01*
X147844485Y-126225476D02*
X147796866Y-126130238D01*
D10*
X140286057Y-117427710D02*
X140333676Y-117284853D01*
X140333676Y-117284853D02*
X140333676Y-117046758D01*
X140333676Y-117046758D02*
X140286057Y-116951520D01*
X140286057Y-116951520D02*
X140238437Y-116903901D01*
X140238437Y-116903901D02*
X140143199Y-116856282D01*
X140143199Y-116856282D02*
X140047961Y-116856282D01*
X140047961Y-116856282D02*
X139952723Y-116903901D01*
X139952723Y-116903901D02*
X139905104Y-116951520D01*
X139905104Y-116951520D02*
X139857485Y-117046758D01*
X139857485Y-117046758D02*
X139809866Y-117237234D01*
X139809866Y-117237234D02*
X139762247Y-117332472D01*
X139762247Y-117332472D02*
X139714628Y-117380091D01*
X139714628Y-117380091D02*
X139619390Y-117427710D01*
X139619390Y-117427710D02*
X139524152Y-117427710D01*
X139524152Y-117427710D02*
X139428914Y-117380091D01*
X139428914Y-117380091D02*
X139381295Y-117332472D01*
X139381295Y-117332472D02*
X139333676Y-117237234D01*
X139333676Y-117237234D02*
X139333676Y-116999139D01*
X139333676Y-116999139D02*
X139381295Y-116856282D01*
X140333676Y-116427710D02*
X139333676Y-116427710D01*
X139333676Y-116427710D02*
X139333676Y-116189615D01*
X139333676Y-116189615D02*
X139381295Y-116046758D01*
X139381295Y-116046758D02*
X139476533Y-115951520D01*
X139476533Y-115951520D02*
X139571771Y-115903901D01*
X139571771Y-115903901D02*
X139762247Y-115856282D01*
X139762247Y-115856282D02*
X139905104Y-115856282D01*
X139905104Y-115856282D02*
X140095580Y-115903901D01*
X140095580Y-115903901D02*
X140190818Y-115951520D01*
X140190818Y-115951520D02*
X140286057Y-116046758D01*
X140286057Y-116046758D02*
X140333676Y-116189615D01*
X140333676Y-116189615D02*
X140333676Y-116427710D01*
X140047961Y-115475329D02*
X140047961Y-114999139D01*
X140333676Y-115570567D02*
X139333676Y-115237234D01*
X139333676Y-115237234D02*
X140333676Y-114903901D01*
X142826057Y-117403900D02*
X142873676Y-117261043D01*
X142873676Y-117261043D02*
X142873676Y-117022948D01*
X142873676Y-117022948D02*
X142826057Y-116927710D01*
X142826057Y-116927710D02*
X142778437Y-116880091D01*
X142778437Y-116880091D02*
X142683199Y-116832472D01*
X142683199Y-116832472D02*
X142587961Y-116832472D01*
X142587961Y-116832472D02*
X142492723Y-116880091D01*
X142492723Y-116880091D02*
X142445104Y-116927710D01*
X142445104Y-116927710D02*
X142397485Y-117022948D01*
X142397485Y-117022948D02*
X142349866Y-117213424D01*
X142349866Y-117213424D02*
X142302247Y-117308662D01*
X142302247Y-117308662D02*
X142254628Y-117356281D01*
X142254628Y-117356281D02*
X142159390Y-117403900D01*
X142159390Y-117403900D02*
X142064152Y-117403900D01*
X142064152Y-117403900D02*
X141968914Y-117356281D01*
X141968914Y-117356281D02*
X141921295Y-117308662D01*
X141921295Y-117308662D02*
X141873676Y-117213424D01*
X141873676Y-117213424D02*
X141873676Y-116975329D01*
X141873676Y-116975329D02*
X141921295Y-116832472D01*
X142778437Y-115832472D02*
X142826057Y-115880091D01*
X142826057Y-115880091D02*
X142873676Y-116022948D01*
X142873676Y-116022948D02*
X142873676Y-116118186D01*
X142873676Y-116118186D02*
X142826057Y-116261043D01*
X142826057Y-116261043D02*
X142730818Y-116356281D01*
X142730818Y-116356281D02*
X142635580Y-116403900D01*
X142635580Y-116403900D02*
X142445104Y-116451519D01*
X142445104Y-116451519D02*
X142302247Y-116451519D01*
X142302247Y-116451519D02*
X142111771Y-116403900D01*
X142111771Y-116403900D02*
X142016533Y-116356281D01*
X142016533Y-116356281D02*
X141921295Y-116261043D01*
X141921295Y-116261043D02*
X141873676Y-116118186D01*
X141873676Y-116118186D02*
X141873676Y-116022948D01*
X141873676Y-116022948D02*
X141921295Y-115880091D01*
X141921295Y-115880091D02*
X141968914Y-115832472D01*
X142873676Y-114927710D02*
X142873676Y-115403900D01*
X142873676Y-115403900D02*
X141873676Y-115403900D01*
X130173676Y-117118186D02*
X129173676Y-117118186D01*
X130173676Y-116641996D02*
X129173676Y-116641996D01*
X129173676Y-116641996D02*
X130173676Y-116070568D01*
X130173676Y-116070568D02*
X129173676Y-116070568D01*
X129173676Y-115737234D02*
X129173676Y-115165806D01*
X130173676Y-115451520D02*
X129173676Y-115451520D01*
X132427961Y-117451519D02*
X132427961Y-116975329D01*
X132713676Y-117546757D02*
X131713676Y-117213424D01*
X131713676Y-117213424D02*
X132713676Y-116880091D01*
X132713676Y-116546757D02*
X131713676Y-116546757D01*
X131713676Y-116546757D02*
X131713676Y-116308662D01*
X131713676Y-116308662D02*
X131761295Y-116165805D01*
X131761295Y-116165805D02*
X131856533Y-116070567D01*
X131856533Y-116070567D02*
X131951771Y-116022948D01*
X131951771Y-116022948D02*
X132142247Y-115975329D01*
X132142247Y-115975329D02*
X132285104Y-115975329D01*
X132285104Y-115975329D02*
X132475580Y-116022948D01*
X132475580Y-116022948D02*
X132570818Y-116070567D01*
X132570818Y-116070567D02*
X132666057Y-116165805D01*
X132666057Y-116165805D02*
X132713676Y-116308662D01*
X132713676Y-116308662D02*
X132713676Y-116546757D01*
X132713676Y-115546757D02*
X131713676Y-115546757D01*
X131713676Y-115546757D02*
X131713676Y-115308662D01*
X131713676Y-115308662D02*
X131761295Y-115165805D01*
X131761295Y-115165805D02*
X131856533Y-115070567D01*
X131856533Y-115070567D02*
X131951771Y-115022948D01*
X131951771Y-115022948D02*
X132142247Y-114975329D01*
X132142247Y-114975329D02*
X132285104Y-114975329D01*
X132285104Y-114975329D02*
X132475580Y-115022948D01*
X132475580Y-115022948D02*
X132570818Y-115070567D01*
X132570818Y-115070567D02*
X132666057Y-115165805D01*
X132666057Y-115165805D02*
X132713676Y-115308662D01*
X132713676Y-115308662D02*
X132713676Y-115546757D01*
X144461295Y-116975329D02*
X144413676Y-117070567D01*
X144413676Y-117070567D02*
X144413676Y-117213424D01*
X144413676Y-117213424D02*
X144461295Y-117356281D01*
X144461295Y-117356281D02*
X144556533Y-117451519D01*
X144556533Y-117451519D02*
X144651771Y-117499138D01*
X144651771Y-117499138D02*
X144842247Y-117546757D01*
X144842247Y-117546757D02*
X144985104Y-117546757D01*
X144985104Y-117546757D02*
X145175580Y-117499138D01*
X145175580Y-117499138D02*
X145270818Y-117451519D01*
X145270818Y-117451519D02*
X145366057Y-117356281D01*
X145366057Y-117356281D02*
X145413676Y-117213424D01*
X145413676Y-117213424D02*
X145413676Y-117118186D01*
X145413676Y-117118186D02*
X145366057Y-116975329D01*
X145366057Y-116975329D02*
X145318437Y-116927710D01*
X145318437Y-116927710D02*
X144985104Y-116927710D01*
X144985104Y-116927710D02*
X144985104Y-117118186D01*
X145413676Y-116499138D02*
X144413676Y-116499138D01*
X144413676Y-116499138D02*
X145413676Y-115927710D01*
X145413676Y-115927710D02*
X144413676Y-115927710D01*
X145413676Y-115451519D02*
X144413676Y-115451519D01*
X144413676Y-115451519D02*
X144413676Y-115213424D01*
X144413676Y-115213424D02*
X144461295Y-115070567D01*
X144461295Y-115070567D02*
X144556533Y-114975329D01*
X144556533Y-114975329D02*
X144651771Y-114927710D01*
X144651771Y-114927710D02*
X144842247Y-114880091D01*
X144842247Y-114880091D02*
X144985104Y-114880091D01*
X144985104Y-114880091D02*
X145175580Y-114927710D01*
X145175580Y-114927710D02*
X145270818Y-114975329D01*
X145270818Y-114975329D02*
X145366057Y-115070567D01*
X145366057Y-115070567D02*
X145413676Y-115213424D01*
X145413676Y-115213424D02*
X145413676Y-115451519D01*
X134253676Y-117451519D02*
X135253676Y-116784853D01*
X134253676Y-116784853D02*
X135253676Y-117451519D01*
X135158437Y-115832472D02*
X135206057Y-115880091D01*
X135206057Y-115880091D02*
X135253676Y-116022948D01*
X135253676Y-116022948D02*
X135253676Y-116118186D01*
X135253676Y-116118186D02*
X135206057Y-116261043D01*
X135206057Y-116261043D02*
X135110818Y-116356281D01*
X135110818Y-116356281D02*
X135015580Y-116403900D01*
X135015580Y-116403900D02*
X134825104Y-116451519D01*
X134825104Y-116451519D02*
X134682247Y-116451519D01*
X134682247Y-116451519D02*
X134491771Y-116403900D01*
X134491771Y-116403900D02*
X134396533Y-116356281D01*
X134396533Y-116356281D02*
X134301295Y-116261043D01*
X134301295Y-116261043D02*
X134253676Y-116118186D01*
X134253676Y-116118186D02*
X134253676Y-116022948D01*
X134253676Y-116022948D02*
X134301295Y-115880091D01*
X134301295Y-115880091D02*
X134348914Y-115832472D01*
X135253676Y-114927710D02*
X135253676Y-115403900D01*
X135253676Y-115403900D02*
X134253676Y-115403900D01*
X136793676Y-117475329D02*
X137793676Y-116808663D01*
X136793676Y-116808663D02*
X137793676Y-117475329D01*
X137793676Y-116427710D02*
X136793676Y-116427710D01*
X136793676Y-116427710D02*
X136793676Y-116189615D01*
X136793676Y-116189615D02*
X136841295Y-116046758D01*
X136841295Y-116046758D02*
X136936533Y-115951520D01*
X136936533Y-115951520D02*
X137031771Y-115903901D01*
X137031771Y-115903901D02*
X137222247Y-115856282D01*
X137222247Y-115856282D02*
X137365104Y-115856282D01*
X137365104Y-115856282D02*
X137555580Y-115903901D01*
X137555580Y-115903901D02*
X137650818Y-115951520D01*
X137650818Y-115951520D02*
X137746057Y-116046758D01*
X137746057Y-116046758D02*
X137793676Y-116189615D01*
X137793676Y-116189615D02*
X137793676Y-116427710D01*
X137507961Y-115475329D02*
X137507961Y-114999139D01*
X137793676Y-115570567D02*
X136793676Y-115237234D01*
X136793676Y-115237234D02*
X137793676Y-114903901D01*
X146953676Y-117546757D02*
X147953676Y-117213424D01*
X147953676Y-117213424D02*
X146953676Y-116880091D01*
X147858437Y-115975329D02*
X147906057Y-116022948D01*
X147906057Y-116022948D02*
X147953676Y-116165805D01*
X147953676Y-116165805D02*
X147953676Y-116261043D01*
X147953676Y-116261043D02*
X147906057Y-116403900D01*
X147906057Y-116403900D02*
X147810818Y-116499138D01*
X147810818Y-116499138D02*
X147715580Y-116546757D01*
X147715580Y-116546757D02*
X147525104Y-116594376D01*
X147525104Y-116594376D02*
X147382247Y-116594376D01*
X147382247Y-116594376D02*
X147191771Y-116546757D01*
X147191771Y-116546757D02*
X147096533Y-116499138D01*
X147096533Y-116499138D02*
X147001295Y-116403900D01*
X147001295Y-116403900D02*
X146953676Y-116261043D01*
X146953676Y-116261043D02*
X146953676Y-116165805D01*
X146953676Y-116165805D02*
X147001295Y-116022948D01*
X147001295Y-116022948D02*
X147048914Y-115975329D01*
X147858437Y-114975329D02*
X147906057Y-115022948D01*
X147906057Y-115022948D02*
X147953676Y-115165805D01*
X147953676Y-115165805D02*
X147953676Y-115261043D01*
X147953676Y-115261043D02*
X147906057Y-115403900D01*
X147906057Y-115403900D02*
X147810818Y-115499138D01*
X147810818Y-115499138D02*
X147715580Y-115546757D01*
X147715580Y-115546757D02*
X147525104Y-115594376D01*
X147525104Y-115594376D02*
X147382247Y-115594376D01*
X147382247Y-115594376D02*
X147191771Y-115546757D01*
X147191771Y-115546757D02*
X147096533Y-115499138D01*
X147096533Y-115499138D02*
X147001295Y-115403900D01*
X147001295Y-115403900D02*
X146953676Y-115261043D01*
X146953676Y-115261043D02*
X146953676Y-115165805D01*
X146953676Y-115165805D02*
X147001295Y-115022948D01*
X147001295Y-115022948D02*
X147048914Y-114975329D01*
X134994819Y-123701666D02*
X134518628Y-124034999D01*
X134994819Y-124273094D02*
X133994819Y-124273094D01*
X133994819Y-124273094D02*
X133994819Y-123892142D01*
X133994819Y-123892142D02*
X134042438Y-123796904D01*
X134042438Y-123796904D02*
X134090057Y-123749285D01*
X134090057Y-123749285D02*
X134185295Y-123701666D01*
X134185295Y-123701666D02*
X134328152Y-123701666D01*
X134328152Y-123701666D02*
X134423390Y-123749285D01*
X134423390Y-123749285D02*
X134471009Y-123796904D01*
X134471009Y-123796904D02*
X134518628Y-123892142D01*
X134518628Y-123892142D02*
X134518628Y-124273094D01*
X134090057Y-123320713D02*
X134042438Y-123273094D01*
X134042438Y-123273094D02*
X133994819Y-123177856D01*
X133994819Y-123177856D02*
X133994819Y-122939761D01*
X133994819Y-122939761D02*
X134042438Y-122844523D01*
X134042438Y-122844523D02*
X134090057Y-122796904D01*
X134090057Y-122796904D02*
X134185295Y-122749285D01*
X134185295Y-122749285D02*
X134280533Y-122749285D01*
X134280533Y-122749285D02*
X134423390Y-122796904D01*
X134423390Y-122796904D02*
X134994819Y-123368332D01*
X134994819Y-123368332D02*
X134994819Y-122749285D01*
X119123333Y-98774866D02*
X119123333Y-99774866D01*
X119123333Y-99774866D02*
X119056666Y-99974866D01*
X119056666Y-99974866D02*
X118923333Y-100108200D01*
X118923333Y-100108200D02*
X118723333Y-100174866D01*
X118723333Y-100174866D02*
X118590000Y-100174866D01*
X119656667Y-98774866D02*
X120523333Y-98774866D01*
X120523333Y-98774866D02*
X120056667Y-99308200D01*
X120056667Y-99308200D02*
X120256667Y-99308200D01*
X120256667Y-99308200D02*
X120390000Y-99374866D01*
X120390000Y-99374866D02*
X120456667Y-99441533D01*
X120456667Y-99441533D02*
X120523333Y-99574866D01*
X120523333Y-99574866D02*
X120523333Y-99908200D01*
X120523333Y-99908200D02*
X120456667Y-100041533D01*
X120456667Y-100041533D02*
X120390000Y-100108200D01*
X120390000Y-100108200D02*
X120256667Y-100174866D01*
X120256667Y-100174866D02*
X119856667Y-100174866D01*
X119856667Y-100174866D02*
X119723333Y-100108200D01*
X119723333Y-100108200D02*
X119656667Y-100041533D01*
D12*
X118985489Y-95055600D02*
X117842632Y-95055600D01*
X113985489Y-95055600D02*
X112842632Y-95055600D01*
X113414060Y-94484171D02*
X113414060Y-95627028D01*
D11*
X95048020Y-122146866D02*
X93524211Y-122146866D01*
X94286115Y-121384961D02*
X94286115Y-122908771D01*
X98059365Y-126034122D02*
X98059365Y-125034122D01*
X98059365Y-125534122D02*
X99809365Y-125534122D01*
X99809365Y-125534122D02*
X99559365Y-125367455D01*
X99559365Y-125367455D02*
X99392699Y-125200789D01*
X99392699Y-125200789D02*
X99309365Y-125034122D01*
X99059365Y-127034122D02*
X99142699Y-126867456D01*
X99142699Y-126867456D02*
X99226032Y-126784122D01*
X99226032Y-126784122D02*
X99392699Y-126700789D01*
X99392699Y-126700789D02*
X99476032Y-126700789D01*
X99476032Y-126700789D02*
X99642699Y-126784122D01*
X99642699Y-126784122D02*
X99726032Y-126867456D01*
X99726032Y-126867456D02*
X99809365Y-127034122D01*
X99809365Y-127034122D02*
X99809365Y-127367456D01*
X99809365Y-127367456D02*
X99726032Y-127534122D01*
X99726032Y-127534122D02*
X99642699Y-127617456D01*
X99642699Y-127617456D02*
X99476032Y-127700789D01*
X99476032Y-127700789D02*
X99392699Y-127700789D01*
X99392699Y-127700789D02*
X99226032Y-127617456D01*
X99226032Y-127617456D02*
X99142699Y-127534122D01*
X99142699Y-127534122D02*
X99059365Y-127367456D01*
X99059365Y-127367456D02*
X99059365Y-127034122D01*
X99059365Y-127034122D02*
X98976032Y-126867456D01*
X98976032Y-126867456D02*
X98892699Y-126784122D01*
X98892699Y-126784122D02*
X98726032Y-126700789D01*
X98726032Y-126700789D02*
X98392699Y-126700789D01*
X98392699Y-126700789D02*
X98226032Y-126784122D01*
X98226032Y-126784122D02*
X98142699Y-126867456D01*
X98142699Y-126867456D02*
X98059365Y-127034122D01*
X98059365Y-127034122D02*
X98059365Y-127367456D01*
X98059365Y-127367456D02*
X98142699Y-127534122D01*
X98142699Y-127534122D02*
X98226032Y-127617456D01*
X98226032Y-127617456D02*
X98392699Y-127700789D01*
X98392699Y-127700789D02*
X98726032Y-127700789D01*
X98726032Y-127700789D02*
X98892699Y-127617456D01*
X98892699Y-127617456D02*
X98976032Y-127534122D01*
X98976032Y-127534122D02*
X99059365Y-127367456D01*
X99809365Y-129200789D02*
X99809365Y-128867456D01*
X99809365Y-128867456D02*
X99726032Y-128700789D01*
X99726032Y-128700789D02*
X99642699Y-128617456D01*
X99642699Y-128617456D02*
X99392699Y-128450789D01*
X99392699Y-128450789D02*
X99059365Y-128367456D01*
X99059365Y-128367456D02*
X98392699Y-128367456D01*
X98392699Y-128367456D02*
X98226032Y-128450789D01*
X98226032Y-128450789D02*
X98142699Y-128534123D01*
X98142699Y-128534123D02*
X98059365Y-128700789D01*
X98059365Y-128700789D02*
X98059365Y-129034123D01*
X98059365Y-129034123D02*
X98142699Y-129200789D01*
X98142699Y-129200789D02*
X98226032Y-129284123D01*
X98226032Y-129284123D02*
X98392699Y-129367456D01*
X98392699Y-129367456D02*
X98809365Y-129367456D01*
X98809365Y-129367456D02*
X98976032Y-129284123D01*
X98976032Y-129284123D02*
X99059365Y-129200789D01*
X99059365Y-129200789D02*
X99142699Y-129034123D01*
X99142699Y-129034123D02*
X99142699Y-128700789D01*
X99142699Y-128700789D02*
X99059365Y-128534123D01*
X99059365Y-128534123D02*
X98976032Y-128450789D01*
X98976032Y-128450789D02*
X98809365Y-128367456D01*
X99809365Y-130950790D02*
X99809365Y-130117456D01*
X99809365Y-130117456D02*
X98976032Y-130034123D01*
X98976032Y-130034123D02*
X99059365Y-130117456D01*
X99059365Y-130117456D02*
X99142699Y-130284123D01*
X99142699Y-130284123D02*
X99142699Y-130700790D01*
X99142699Y-130700790D02*
X99059365Y-130867456D01*
X99059365Y-130867456D02*
X98976032Y-130950790D01*
X98976032Y-130950790D02*
X98809365Y-131034123D01*
X98809365Y-131034123D02*
X98392699Y-131034123D01*
X98392699Y-131034123D02*
X98226032Y-130950790D01*
X98226032Y-130950790D02*
X98142699Y-130867456D01*
X98142699Y-130867456D02*
X98059365Y-130700790D01*
X98059365Y-130700790D02*
X98059365Y-130284123D01*
X98059365Y-130284123D02*
X98142699Y-130117456D01*
X98142699Y-130117456D02*
X98226032Y-130034123D01*
X99809365Y-132117457D02*
X99809365Y-132284123D01*
X99809365Y-132284123D02*
X99726032Y-132450790D01*
X99726032Y-132450790D02*
X99642699Y-132534123D01*
X99642699Y-132534123D02*
X99476032Y-132617457D01*
X99476032Y-132617457D02*
X99142699Y-132700790D01*
X99142699Y-132700790D02*
X98726032Y-132700790D01*
X98726032Y-132700790D02*
X98392699Y-132617457D01*
X98392699Y-132617457D02*
X98226032Y-132534123D01*
X98226032Y-132534123D02*
X98142699Y-132450790D01*
X98142699Y-132450790D02*
X98059365Y-132284123D01*
X98059365Y-132284123D02*
X98059365Y-132117457D01*
X98059365Y-132117457D02*
X98142699Y-131950790D01*
X98142699Y-131950790D02*
X98226032Y-131867457D01*
X98226032Y-131867457D02*
X98392699Y-131784123D01*
X98392699Y-131784123D02*
X98726032Y-131700790D01*
X98726032Y-131700790D02*
X99142699Y-131700790D01*
X99142699Y-131700790D02*
X99476032Y-131784123D01*
X99476032Y-131784123D02*
X99642699Y-131867457D01*
X99642699Y-131867457D02*
X99726032Y-131950790D01*
X99726032Y-131950790D02*
X99809365Y-132117457D01*
X179120634Y-117735877D02*
X179120634Y-118735877D01*
X179120634Y-118235877D02*
X177370634Y-118235877D01*
X177370634Y-118235877D02*
X177620634Y-118402544D01*
X177620634Y-118402544D02*
X177787301Y-118569211D01*
X177787301Y-118569211D02*
X177870634Y-118735877D01*
X178120634Y-116735877D02*
X178037301Y-116902544D01*
X178037301Y-116902544D02*
X177953967Y-116985877D01*
X177953967Y-116985877D02*
X177787301Y-117069210D01*
X177787301Y-117069210D02*
X177703967Y-117069210D01*
X177703967Y-117069210D02*
X177537301Y-116985877D01*
X177537301Y-116985877D02*
X177453967Y-116902544D01*
X177453967Y-116902544D02*
X177370634Y-116735877D01*
X177370634Y-116735877D02*
X177370634Y-116402544D01*
X177370634Y-116402544D02*
X177453967Y-116235877D01*
X177453967Y-116235877D02*
X177537301Y-116152544D01*
X177537301Y-116152544D02*
X177703967Y-116069210D01*
X177703967Y-116069210D02*
X177787301Y-116069210D01*
X177787301Y-116069210D02*
X177953967Y-116152544D01*
X177953967Y-116152544D02*
X178037301Y-116235877D01*
X178037301Y-116235877D02*
X178120634Y-116402544D01*
X178120634Y-116402544D02*
X178120634Y-116735877D01*
X178120634Y-116735877D02*
X178203967Y-116902544D01*
X178203967Y-116902544D02*
X178287301Y-116985877D01*
X178287301Y-116985877D02*
X178453967Y-117069210D01*
X178453967Y-117069210D02*
X178787301Y-117069210D01*
X178787301Y-117069210D02*
X178953967Y-116985877D01*
X178953967Y-116985877D02*
X179037301Y-116902544D01*
X179037301Y-116902544D02*
X179120634Y-116735877D01*
X179120634Y-116735877D02*
X179120634Y-116402544D01*
X179120634Y-116402544D02*
X179037301Y-116235877D01*
X179037301Y-116235877D02*
X178953967Y-116152544D01*
X178953967Y-116152544D02*
X178787301Y-116069210D01*
X178787301Y-116069210D02*
X178453967Y-116069210D01*
X178453967Y-116069210D02*
X178287301Y-116152544D01*
X178287301Y-116152544D02*
X178203967Y-116235877D01*
X178203967Y-116235877D02*
X178120634Y-116402544D01*
X177370634Y-114569210D02*
X177370634Y-114902543D01*
X177370634Y-114902543D02*
X177453967Y-115069210D01*
X177453967Y-115069210D02*
X177537301Y-115152543D01*
X177537301Y-115152543D02*
X177787301Y-115319210D01*
X177787301Y-115319210D02*
X178120634Y-115402543D01*
X178120634Y-115402543D02*
X178787301Y-115402543D01*
X178787301Y-115402543D02*
X178953967Y-115319210D01*
X178953967Y-115319210D02*
X179037301Y-115235877D01*
X179037301Y-115235877D02*
X179120634Y-115069210D01*
X179120634Y-115069210D02*
X179120634Y-114735877D01*
X179120634Y-114735877D02*
X179037301Y-114569210D01*
X179037301Y-114569210D02*
X178953967Y-114485877D01*
X178953967Y-114485877D02*
X178787301Y-114402543D01*
X178787301Y-114402543D02*
X178370634Y-114402543D01*
X178370634Y-114402543D02*
X178203967Y-114485877D01*
X178203967Y-114485877D02*
X178120634Y-114569210D01*
X178120634Y-114569210D02*
X178037301Y-114735877D01*
X178037301Y-114735877D02*
X178037301Y-115069210D01*
X178037301Y-115069210D02*
X178120634Y-115235877D01*
X178120634Y-115235877D02*
X178203967Y-115319210D01*
X178203967Y-115319210D02*
X178370634Y-115402543D01*
X177370634Y-112819210D02*
X177370634Y-113652543D01*
X177370634Y-113652543D02*
X178203967Y-113735876D01*
X178203967Y-113735876D02*
X178120634Y-113652543D01*
X178120634Y-113652543D02*
X178037301Y-113485876D01*
X178037301Y-113485876D02*
X178037301Y-113069210D01*
X178037301Y-113069210D02*
X178120634Y-112902543D01*
X178120634Y-112902543D02*
X178203967Y-112819210D01*
X178203967Y-112819210D02*
X178370634Y-112735876D01*
X178370634Y-112735876D02*
X178787301Y-112735876D01*
X178787301Y-112735876D02*
X178953967Y-112819210D01*
X178953967Y-112819210D02*
X179037301Y-112902543D01*
X179037301Y-112902543D02*
X179120634Y-113069210D01*
X179120634Y-113069210D02*
X179120634Y-113485876D01*
X179120634Y-113485876D02*
X179037301Y-113652543D01*
X179037301Y-113652543D02*
X178953967Y-113735876D01*
X177370634Y-111652543D02*
X177370634Y-111485876D01*
X177370634Y-111485876D02*
X177453967Y-111319209D01*
X177453967Y-111319209D02*
X177537301Y-111235876D01*
X177537301Y-111235876D02*
X177703967Y-111152543D01*
X177703967Y-111152543D02*
X178037301Y-111069209D01*
X178037301Y-111069209D02*
X178453967Y-111069209D01*
X178453967Y-111069209D02*
X178787301Y-111152543D01*
X178787301Y-111152543D02*
X178953967Y-111235876D01*
X178953967Y-111235876D02*
X179037301Y-111319209D01*
X179037301Y-111319209D02*
X179120634Y-111485876D01*
X179120634Y-111485876D02*
X179120634Y-111652543D01*
X179120634Y-111652543D02*
X179037301Y-111819209D01*
X179037301Y-111819209D02*
X178953967Y-111902543D01*
X178953967Y-111902543D02*
X178787301Y-111985876D01*
X178787301Y-111985876D02*
X178453967Y-112069209D01*
X178453967Y-112069209D02*
X178037301Y-112069209D01*
X178037301Y-112069209D02*
X177703967Y-111985876D01*
X177703967Y-111985876D02*
X177537301Y-111902543D01*
X177537301Y-111902543D02*
X177453967Y-111819209D01*
X177453967Y-111819209D02*
X177370634Y-111652543D01*
X183548020Y-122146866D02*
X182024211Y-122146866D01*
D10*
X85279866Y-114001666D02*
X86279866Y-114001666D01*
X86279866Y-114001666D02*
X86479866Y-114068333D01*
X86479866Y-114068333D02*
X86613200Y-114201666D01*
X86613200Y-114201666D02*
X86679866Y-114401666D01*
X86679866Y-114401666D02*
X86679866Y-114535000D01*
X85746533Y-112734999D02*
X86679866Y-112734999D01*
X85213200Y-113068333D02*
X86213200Y-113401666D01*
X86213200Y-113401666D02*
X86213200Y-112534999D01*
D12*
X81423100Y-114089510D02*
X81423100Y-115232368D01*
X81423100Y-119089510D02*
X81423100Y-120232368D01*
X80851671Y-119660939D02*
X81994528Y-119660939D01*
D11*
X98028771Y-78093646D02*
X98028771Y-77236503D01*
X98028771Y-77665074D02*
X99528771Y-77665074D01*
X99528771Y-77665074D02*
X99314485Y-77522217D01*
X99314485Y-77522217D02*
X99171628Y-77379360D01*
X99171628Y-77379360D02*
X99100200Y-77236503D01*
X98885914Y-78950788D02*
X98957342Y-78807931D01*
X98957342Y-78807931D02*
X99028771Y-78736502D01*
X99028771Y-78736502D02*
X99171628Y-78665074D01*
X99171628Y-78665074D02*
X99243057Y-78665074D01*
X99243057Y-78665074D02*
X99385914Y-78736502D01*
X99385914Y-78736502D02*
X99457342Y-78807931D01*
X99457342Y-78807931D02*
X99528771Y-78950788D01*
X99528771Y-78950788D02*
X99528771Y-79236502D01*
X99528771Y-79236502D02*
X99457342Y-79379360D01*
X99457342Y-79379360D02*
X99385914Y-79450788D01*
X99385914Y-79450788D02*
X99243057Y-79522217D01*
X99243057Y-79522217D02*
X99171628Y-79522217D01*
X99171628Y-79522217D02*
X99028771Y-79450788D01*
X99028771Y-79450788D02*
X98957342Y-79379360D01*
X98957342Y-79379360D02*
X98885914Y-79236502D01*
X98885914Y-79236502D02*
X98885914Y-78950788D01*
X98885914Y-78950788D02*
X98814485Y-78807931D01*
X98814485Y-78807931D02*
X98743057Y-78736502D01*
X98743057Y-78736502D02*
X98600200Y-78665074D01*
X98600200Y-78665074D02*
X98314485Y-78665074D01*
X98314485Y-78665074D02*
X98171628Y-78736502D01*
X98171628Y-78736502D02*
X98100200Y-78807931D01*
X98100200Y-78807931D02*
X98028771Y-78950788D01*
X98028771Y-78950788D02*
X98028771Y-79236502D01*
X98028771Y-79236502D02*
X98100200Y-79379360D01*
X98100200Y-79379360D02*
X98171628Y-79450788D01*
X98171628Y-79450788D02*
X98314485Y-79522217D01*
X98314485Y-79522217D02*
X98600200Y-79522217D01*
X98600200Y-79522217D02*
X98743057Y-79450788D01*
X98743057Y-79450788D02*
X98814485Y-79379360D01*
X98814485Y-79379360D02*
X98885914Y-79236502D01*
X99528771Y-80807931D02*
X99528771Y-80522216D01*
X99528771Y-80522216D02*
X99457342Y-80379359D01*
X99457342Y-80379359D02*
X99385914Y-80307931D01*
X99385914Y-80307931D02*
X99171628Y-80165073D01*
X99171628Y-80165073D02*
X98885914Y-80093645D01*
X98885914Y-80093645D02*
X98314485Y-80093645D01*
X98314485Y-80093645D02*
X98171628Y-80165073D01*
X98171628Y-80165073D02*
X98100200Y-80236502D01*
X98100200Y-80236502D02*
X98028771Y-80379359D01*
X98028771Y-80379359D02*
X98028771Y-80665073D01*
X98028771Y-80665073D02*
X98100200Y-80807931D01*
X98100200Y-80807931D02*
X98171628Y-80879359D01*
X98171628Y-80879359D02*
X98314485Y-80950788D01*
X98314485Y-80950788D02*
X98671628Y-80950788D01*
X98671628Y-80950788D02*
X98814485Y-80879359D01*
X98814485Y-80879359D02*
X98885914Y-80807931D01*
X98885914Y-80807931D02*
X98957342Y-80665073D01*
X98957342Y-80665073D02*
X98957342Y-80379359D01*
X98957342Y-80379359D02*
X98885914Y-80236502D01*
X98885914Y-80236502D02*
X98814485Y-80165073D01*
X98814485Y-80165073D02*
X98671628Y-80093645D01*
X99528771Y-82307930D02*
X99528771Y-81593644D01*
X99528771Y-81593644D02*
X98814485Y-81522216D01*
X98814485Y-81522216D02*
X98885914Y-81593644D01*
X98885914Y-81593644D02*
X98957342Y-81736502D01*
X98957342Y-81736502D02*
X98957342Y-82093644D01*
X98957342Y-82093644D02*
X98885914Y-82236502D01*
X98885914Y-82236502D02*
X98814485Y-82307930D01*
X98814485Y-82307930D02*
X98671628Y-82379359D01*
X98671628Y-82379359D02*
X98314485Y-82379359D01*
X98314485Y-82379359D02*
X98171628Y-82307930D01*
X98171628Y-82307930D02*
X98100200Y-82236502D01*
X98100200Y-82236502D02*
X98028771Y-82093644D01*
X98028771Y-82093644D02*
X98028771Y-81736502D01*
X98028771Y-81736502D02*
X98100200Y-81593644D01*
X98100200Y-81593644D02*
X98171628Y-81522216D01*
X99528771Y-83307930D02*
X99528771Y-83450787D01*
X99528771Y-83450787D02*
X99457342Y-83593644D01*
X99457342Y-83593644D02*
X99385914Y-83665073D01*
X99385914Y-83665073D02*
X99243057Y-83736501D01*
X99243057Y-83736501D02*
X98957342Y-83807930D01*
X98957342Y-83807930D02*
X98600200Y-83807930D01*
X98600200Y-83807930D02*
X98314485Y-83736501D01*
X98314485Y-83736501D02*
X98171628Y-83665073D01*
X98171628Y-83665073D02*
X98100200Y-83593644D01*
X98100200Y-83593644D02*
X98028771Y-83450787D01*
X98028771Y-83450787D02*
X98028771Y-83307930D01*
X98028771Y-83307930D02*
X98100200Y-83165073D01*
X98100200Y-83165073D02*
X98171628Y-83093644D01*
X98171628Y-83093644D02*
X98314485Y-83022215D01*
X98314485Y-83022215D02*
X98600200Y-82950787D01*
X98600200Y-82950787D02*
X98957342Y-82950787D01*
X98957342Y-82950787D02*
X99243057Y-83022215D01*
X99243057Y-83022215D02*
X99385914Y-83093644D01*
X99385914Y-83093644D02*
X99457342Y-83165073D01*
X99457342Y-83165073D02*
X99528771Y-83307930D01*
X95048020Y-74396866D02*
X93524211Y-74396866D01*
X94286115Y-73634961D02*
X94286115Y-75158771D01*
X183548020Y-74396866D02*
X182024211Y-74396866D01*
X106997419Y-92296904D02*
X107806942Y-92296904D01*
X107806942Y-92296904D02*
X107902180Y-92249285D01*
X107902180Y-92249285D02*
X107949800Y-92201666D01*
X107949800Y-92201666D02*
X107997419Y-92106428D01*
X107997419Y-92106428D02*
X107997419Y-91915952D01*
X107997419Y-91915952D02*
X107949800Y-91820714D01*
X107949800Y-91820714D02*
X107902180Y-91773095D01*
X107902180Y-91773095D02*
X107806942Y-91725476D01*
X107806942Y-91725476D02*
X106997419Y-91725476D01*
X107997419Y-90725476D02*
X107997419Y-91296904D01*
X107997419Y-91011190D02*
X106997419Y-91011190D01*
X106997419Y-91011190D02*
X107140276Y-91106428D01*
X107140276Y-91106428D02*
X107235514Y-91201666D01*
X107235514Y-91201666D02*
X107283133Y-91296904D01*
X153921979Y-86255038D02*
X153921979Y-84255038D01*
X153921979Y-84255038D02*
X155064836Y-86255038D01*
X155064836Y-86255038D02*
X155064836Y-84255038D01*
X157160074Y-86255038D02*
X156493407Y-85302657D01*
X156017217Y-86255038D02*
X156017217Y-84255038D01*
X156017217Y-84255038D02*
X156779122Y-84255038D01*
X156779122Y-84255038D02*
X156969598Y-84350276D01*
X156969598Y-84350276D02*
X157064836Y-84445514D01*
X157064836Y-84445514D02*
X157160074Y-84635990D01*
X157160074Y-84635990D02*
X157160074Y-84921704D01*
X157160074Y-84921704D02*
X157064836Y-85112180D01*
X157064836Y-85112180D02*
X156969598Y-85207419D01*
X156969598Y-85207419D02*
X156779122Y-85302657D01*
X156779122Y-85302657D02*
X156017217Y-85302657D01*
X158683884Y-85207419D02*
X158017217Y-85207419D01*
X158017217Y-86255038D02*
X158017217Y-84255038D01*
X158017217Y-84255038D02*
X158969598Y-84255038D01*
X179120634Y-90485877D02*
X179120634Y-91485877D01*
X179120634Y-90985877D02*
X177370634Y-90985877D01*
X177370634Y-90985877D02*
X177620634Y-91152544D01*
X177620634Y-91152544D02*
X177787301Y-91319211D01*
X177787301Y-91319211D02*
X177870634Y-91485877D01*
X178120634Y-89485877D02*
X178037301Y-89652544D01*
X178037301Y-89652544D02*
X177953967Y-89735877D01*
X177953967Y-89735877D02*
X177787301Y-89819210D01*
X177787301Y-89819210D02*
X177703967Y-89819210D01*
X177703967Y-89819210D02*
X177537301Y-89735877D01*
X177537301Y-89735877D02*
X177453967Y-89652544D01*
X177453967Y-89652544D02*
X177370634Y-89485877D01*
X177370634Y-89485877D02*
X177370634Y-89152544D01*
X177370634Y-89152544D02*
X177453967Y-88985877D01*
X177453967Y-88985877D02*
X177537301Y-88902544D01*
X177537301Y-88902544D02*
X177703967Y-88819210D01*
X177703967Y-88819210D02*
X177787301Y-88819210D01*
X177787301Y-88819210D02*
X177953967Y-88902544D01*
X177953967Y-88902544D02*
X178037301Y-88985877D01*
X178037301Y-88985877D02*
X178120634Y-89152544D01*
X178120634Y-89152544D02*
X178120634Y-89485877D01*
X178120634Y-89485877D02*
X178203967Y-89652544D01*
X178203967Y-89652544D02*
X178287301Y-89735877D01*
X178287301Y-89735877D02*
X178453967Y-89819210D01*
X178453967Y-89819210D02*
X178787301Y-89819210D01*
X178787301Y-89819210D02*
X178953967Y-89735877D01*
X178953967Y-89735877D02*
X179037301Y-89652544D01*
X179037301Y-89652544D02*
X179120634Y-89485877D01*
X179120634Y-89485877D02*
X179120634Y-89152544D01*
X179120634Y-89152544D02*
X179037301Y-88985877D01*
X179037301Y-88985877D02*
X178953967Y-88902544D01*
X178953967Y-88902544D02*
X178787301Y-88819210D01*
X178787301Y-88819210D02*
X178453967Y-88819210D01*
X178453967Y-88819210D02*
X178287301Y-88902544D01*
X178287301Y-88902544D02*
X178203967Y-88985877D01*
X178203967Y-88985877D02*
X178120634Y-89152544D01*
X177370634Y-87319210D02*
X177370634Y-87652543D01*
X177370634Y-87652543D02*
X177453967Y-87819210D01*
X177453967Y-87819210D02*
X177537301Y-87902543D01*
X177537301Y-87902543D02*
X177787301Y-88069210D01*
X177787301Y-88069210D02*
X178120634Y-88152543D01*
X178120634Y-88152543D02*
X178787301Y-88152543D01*
X178787301Y-88152543D02*
X178953967Y-88069210D01*
X178953967Y-88069210D02*
X179037301Y-87985877D01*
X179037301Y-87985877D02*
X179120634Y-87819210D01*
X179120634Y-87819210D02*
X179120634Y-87485877D01*
X179120634Y-87485877D02*
X179037301Y-87319210D01*
X179037301Y-87319210D02*
X178953967Y-87235877D01*
X178953967Y-87235877D02*
X178787301Y-87152543D01*
X178787301Y-87152543D02*
X178370634Y-87152543D01*
X178370634Y-87152543D02*
X178203967Y-87235877D01*
X178203967Y-87235877D02*
X178120634Y-87319210D01*
X178120634Y-87319210D02*
X178037301Y-87485877D01*
X178037301Y-87485877D02*
X178037301Y-87819210D01*
X178037301Y-87819210D02*
X178120634Y-87985877D01*
X178120634Y-87985877D02*
X178203967Y-88069210D01*
X178203967Y-88069210D02*
X178370634Y-88152543D01*
X177370634Y-85569210D02*
X177370634Y-86402543D01*
X177370634Y-86402543D02*
X178203967Y-86485876D01*
X178203967Y-86485876D02*
X178120634Y-86402543D01*
X178120634Y-86402543D02*
X178037301Y-86235876D01*
X178037301Y-86235876D02*
X178037301Y-85819210D01*
X178037301Y-85819210D02*
X178120634Y-85652543D01*
X178120634Y-85652543D02*
X178203967Y-85569210D01*
X178203967Y-85569210D02*
X178370634Y-85485876D01*
X178370634Y-85485876D02*
X178787301Y-85485876D01*
X178787301Y-85485876D02*
X178953967Y-85569210D01*
X178953967Y-85569210D02*
X179037301Y-85652543D01*
X179037301Y-85652543D02*
X179120634Y-85819210D01*
X179120634Y-85819210D02*
X179120634Y-86235876D01*
X179120634Y-86235876D02*
X179037301Y-86402543D01*
X179037301Y-86402543D02*
X178953967Y-86485876D01*
X177370634Y-84402543D02*
X177370634Y-84235876D01*
X177370634Y-84235876D02*
X177453967Y-84069209D01*
X177453967Y-84069209D02*
X177537301Y-83985876D01*
X177537301Y-83985876D02*
X177703967Y-83902543D01*
X177703967Y-83902543D02*
X178037301Y-83819209D01*
X178037301Y-83819209D02*
X178453967Y-83819209D01*
X178453967Y-83819209D02*
X178787301Y-83902543D01*
X178787301Y-83902543D02*
X178953967Y-83985876D01*
X178953967Y-83985876D02*
X179037301Y-84069209D01*
X179037301Y-84069209D02*
X179120634Y-84235876D01*
X179120634Y-84235876D02*
X179120634Y-84402543D01*
X179120634Y-84402543D02*
X179037301Y-84569209D01*
X179037301Y-84569209D02*
X178953967Y-84652543D01*
X178953967Y-84652543D02*
X178787301Y-84735876D01*
X178787301Y-84735876D02*
X178453967Y-84819209D01*
X178453967Y-84819209D02*
X178037301Y-84819209D01*
X178037301Y-84819209D02*
X177703967Y-84735876D01*
X177703967Y-84735876D02*
X177537301Y-84652543D01*
X177537301Y-84652543D02*
X177453967Y-84569209D01*
X177453967Y-84569209D02*
X177370634Y-84402543D01*
X183548020Y-94896866D02*
X182024211Y-94896866D01*
X95048020Y-94896866D02*
X93524211Y-94896866D01*
X94286115Y-94134961D02*
X94286115Y-95658771D01*
X98059365Y-98784122D02*
X98059365Y-97784122D01*
X98059365Y-98284122D02*
X99809365Y-98284122D01*
X99809365Y-98284122D02*
X99559365Y-98117455D01*
X99559365Y-98117455D02*
X99392699Y-97950789D01*
X99392699Y-97950789D02*
X99309365Y-97784122D01*
X99059365Y-99784122D02*
X99142699Y-99617456D01*
X99142699Y-99617456D02*
X99226032Y-99534122D01*
X99226032Y-99534122D02*
X99392699Y-99450789D01*
X99392699Y-99450789D02*
X99476032Y-99450789D01*
X99476032Y-99450789D02*
X99642699Y-99534122D01*
X99642699Y-99534122D02*
X99726032Y-99617456D01*
X99726032Y-99617456D02*
X99809365Y-99784122D01*
X99809365Y-99784122D02*
X99809365Y-100117456D01*
X99809365Y-100117456D02*
X99726032Y-100284122D01*
X99726032Y-100284122D02*
X99642699Y-100367456D01*
X99642699Y-100367456D02*
X99476032Y-100450789D01*
X99476032Y-100450789D02*
X99392699Y-100450789D01*
X99392699Y-100450789D02*
X99226032Y-100367456D01*
X99226032Y-100367456D02*
X99142699Y-100284122D01*
X99142699Y-100284122D02*
X99059365Y-100117456D01*
X99059365Y-100117456D02*
X99059365Y-99784122D01*
X99059365Y-99784122D02*
X98976032Y-99617456D01*
X98976032Y-99617456D02*
X98892699Y-99534122D01*
X98892699Y-99534122D02*
X98726032Y-99450789D01*
X98726032Y-99450789D02*
X98392699Y-99450789D01*
X98392699Y-99450789D02*
X98226032Y-99534122D01*
X98226032Y-99534122D02*
X98142699Y-99617456D01*
X98142699Y-99617456D02*
X98059365Y-99784122D01*
X98059365Y-99784122D02*
X98059365Y-100117456D01*
X98059365Y-100117456D02*
X98142699Y-100284122D01*
X98142699Y-100284122D02*
X98226032Y-100367456D01*
X98226032Y-100367456D02*
X98392699Y-100450789D01*
X98392699Y-100450789D02*
X98726032Y-100450789D01*
X98726032Y-100450789D02*
X98892699Y-100367456D01*
X98892699Y-100367456D02*
X98976032Y-100284122D01*
X98976032Y-100284122D02*
X99059365Y-100117456D01*
X99809365Y-101950789D02*
X99809365Y-101617456D01*
X99809365Y-101617456D02*
X99726032Y-101450789D01*
X99726032Y-101450789D02*
X99642699Y-101367456D01*
X99642699Y-101367456D02*
X99392699Y-101200789D01*
X99392699Y-101200789D02*
X99059365Y-101117456D01*
X99059365Y-101117456D02*
X98392699Y-101117456D01*
X98392699Y-101117456D02*
X98226032Y-101200789D01*
X98226032Y-101200789D02*
X98142699Y-101284123D01*
X98142699Y-101284123D02*
X98059365Y-101450789D01*
X98059365Y-101450789D02*
X98059365Y-101784123D01*
X98059365Y-101784123D02*
X98142699Y-101950789D01*
X98142699Y-101950789D02*
X98226032Y-102034123D01*
X98226032Y-102034123D02*
X98392699Y-102117456D01*
X98392699Y-102117456D02*
X98809365Y-102117456D01*
X98809365Y-102117456D02*
X98976032Y-102034123D01*
X98976032Y-102034123D02*
X99059365Y-101950789D01*
X99059365Y-101950789D02*
X99142699Y-101784123D01*
X99142699Y-101784123D02*
X99142699Y-101450789D01*
X99142699Y-101450789D02*
X99059365Y-101284123D01*
X99059365Y-101284123D02*
X98976032Y-101200789D01*
X98976032Y-101200789D02*
X98809365Y-101117456D01*
X99809365Y-103700790D02*
X99809365Y-102867456D01*
X99809365Y-102867456D02*
X98976032Y-102784123D01*
X98976032Y-102784123D02*
X99059365Y-102867456D01*
X99059365Y-102867456D02*
X99142699Y-103034123D01*
X99142699Y-103034123D02*
X99142699Y-103450790D01*
X99142699Y-103450790D02*
X99059365Y-103617456D01*
X99059365Y-103617456D02*
X98976032Y-103700790D01*
X98976032Y-103700790D02*
X98809365Y-103784123D01*
X98809365Y-103784123D02*
X98392699Y-103784123D01*
X98392699Y-103784123D02*
X98226032Y-103700790D01*
X98226032Y-103700790D02*
X98142699Y-103617456D01*
X98142699Y-103617456D02*
X98059365Y-103450790D01*
X98059365Y-103450790D02*
X98059365Y-103034123D01*
X98059365Y-103034123D02*
X98142699Y-102867456D01*
X98142699Y-102867456D02*
X98226032Y-102784123D01*
X99809365Y-104867457D02*
X99809365Y-105034123D01*
X99809365Y-105034123D02*
X99726032Y-105200790D01*
X99726032Y-105200790D02*
X99642699Y-105284123D01*
X99642699Y-105284123D02*
X99476032Y-105367457D01*
X99476032Y-105367457D02*
X99142699Y-105450790D01*
X99142699Y-105450790D02*
X98726032Y-105450790D01*
X98726032Y-105450790D02*
X98392699Y-105367457D01*
X98392699Y-105367457D02*
X98226032Y-105284123D01*
X98226032Y-105284123D02*
X98142699Y-105200790D01*
X98142699Y-105200790D02*
X98059365Y-105034123D01*
X98059365Y-105034123D02*
X98059365Y-104867457D01*
X98059365Y-104867457D02*
X98142699Y-104700790D01*
X98142699Y-104700790D02*
X98226032Y-104617457D01*
X98226032Y-104617457D02*
X98392699Y-104534123D01*
X98392699Y-104534123D02*
X98726032Y-104450790D01*
X98726032Y-104450790D02*
X99142699Y-104450790D01*
X99142699Y-104450790D02*
X99476032Y-104534123D01*
X99476032Y-104534123D02*
X99642699Y-104617457D01*
X99642699Y-104617457D02*
X99726032Y-104700790D01*
X99726032Y-104700790D02*
X99809365Y-104867457D01*
D10*
X138184975Y-130130277D02*
X138184975Y-129130277D01*
X138184975Y-129130277D02*
X138423070Y-129130277D01*
X138423070Y-129130277D02*
X138565927Y-129177896D01*
X138565927Y-129177896D02*
X138661165Y-129273134D01*
X138661165Y-129273134D02*
X138708784Y-129368372D01*
X138708784Y-129368372D02*
X138756403Y-129558848D01*
X138756403Y-129558848D02*
X138756403Y-129701705D01*
X138756403Y-129701705D02*
X138708784Y-129892181D01*
X138708784Y-129892181D02*
X138661165Y-129987419D01*
X138661165Y-129987419D02*
X138565927Y-130082658D01*
X138565927Y-130082658D02*
X138423070Y-130130277D01*
X138423070Y-130130277D02*
X138184975Y-130130277D01*
X139708784Y-130130277D02*
X139137356Y-130130277D01*
X139423070Y-130130277D02*
X139423070Y-129130277D01*
X139423070Y-129130277D02*
X139327832Y-129273134D01*
X139327832Y-129273134D02*
X139232594Y-129368372D01*
X139232594Y-129368372D02*
X139137356Y-129415991D01*
D13*
G36*
X141113840Y-126509512D02*
G01*
X140793420Y-126511050D01*
X140718235Y-126474879D01*
X140686015Y-126444054D01*
X140647118Y-126369138D01*
X140645700Y-126249330D01*
X140681478Y-126174960D01*
X140712302Y-126142741D01*
X140786851Y-126104034D01*
X140937171Y-126103313D01*
X140941810Y-126104132D01*
X140945688Y-126103272D01*
X141113073Y-126102469D01*
X141113840Y-126509512D01*
G37*
G36*
X141500608Y-126897812D02*
G01*
X140258545Y-126897812D01*
X140258545Y-126217256D01*
X140397434Y-126217256D01*
X140399329Y-126377448D01*
X140398415Y-126380193D01*
X140399551Y-126396183D01*
X140399836Y-126420213D01*
X140401554Y-126424361D01*
X140401873Y-126428843D01*
X140410631Y-126451729D01*
X140472304Y-126570512D01*
X140478024Y-126584320D01*
X140481971Y-126589130D01*
X140483209Y-126591514D01*
X140485701Y-126593675D01*
X140493569Y-126603263D01*
X140556197Y-126663180D01*
X140564842Y-126673148D01*
X140570027Y-126676412D01*
X140572034Y-126678332D01*
X140575084Y-126679595D01*
X140585579Y-126686202D01*
X140689350Y-126736124D01*
X140691083Y-126737857D01*
X140704522Y-126743423D01*
X140727513Y-126754484D01*
X140731994Y-126754802D01*
X140736143Y-126756521D01*
X140760529Y-126758923D01*
X141261105Y-126756521D01*
X141306165Y-126737857D01*
X141340653Y-126703369D01*
X141359317Y-126658309D01*
X141361719Y-126633923D01*
X141359317Y-125359537D01*
X141340653Y-125314477D01*
X141306165Y-125279989D01*
X141261105Y-125261325D01*
X141212333Y-125261325D01*
X141167273Y-125279989D01*
X141132785Y-125314477D01*
X141114121Y-125359537D01*
X141111719Y-125383923D01*
X141112606Y-125854756D01*
X141004712Y-125855274D01*
X140608886Y-125293640D01*
X140567755Y-125267428D01*
X140519724Y-125258952D01*
X140472107Y-125269502D01*
X140432151Y-125297471D01*
X140405939Y-125338602D01*
X140397463Y-125386633D01*
X140408013Y-125434250D01*
X140420030Y-125455606D01*
X140709033Y-125865671D01*
X140704628Y-125867357D01*
X140585843Y-125929031D01*
X140572034Y-125934752D01*
X140567224Y-125938698D01*
X140564842Y-125939936D01*
X140562680Y-125942427D01*
X140553092Y-125950297D01*
X140493179Y-126012921D01*
X140483209Y-126021569D01*
X140479943Y-126026757D01*
X140478025Y-126028762D01*
X140476762Y-126031809D01*
X140470155Y-126042306D01*
X140420232Y-126146077D01*
X140418500Y-126147810D01*
X140412933Y-126161249D01*
X140401873Y-126184240D01*
X140401554Y-126188721D01*
X140399836Y-126192870D01*
X140397434Y-126217256D01*
X140258545Y-126217256D01*
X140258545Y-125120063D01*
X141500608Y-125120063D01*
X141500608Y-126897812D01*
G37*
G36*
X139588606Y-126242366D02*
G01*
X139462200Y-125865400D01*
X139713835Y-125864424D01*
X139588606Y-126242366D01*
G37*
G36*
X140267638Y-126896830D02*
G01*
X138908491Y-126896830D01*
X138908491Y-125399557D01*
X139047380Y-125399557D01*
X139052813Y-125423451D01*
X139466890Y-126658313D01*
X139467503Y-126666938D01*
X139474423Y-126680779D01*
X139479469Y-126695826D01*
X139485319Y-126702572D01*
X139489315Y-126710563D01*
X139501156Y-126720832D01*
X139511424Y-126732672D01*
X139519413Y-126736666D01*
X139526160Y-126742518D01*
X139541027Y-126747473D01*
X139555048Y-126754484D01*
X139563958Y-126755117D01*
X139572430Y-126757941D01*
X139588063Y-126756830D01*
X139603698Y-126757941D01*
X139612169Y-126755117D01*
X139621079Y-126754484D01*
X139635099Y-126747473D01*
X139649967Y-126742518D01*
X139656712Y-126736667D01*
X139664704Y-126732672D01*
X139674976Y-126720827D01*
X139686813Y-126710562D01*
X139690806Y-126702575D01*
X139696659Y-126695827D01*
X139706649Y-126673451D01*
X140004432Y-125774744D01*
X140008281Y-125765452D01*
X140008281Y-125763128D01*
X140128749Y-125399557D01*
X140125292Y-125350907D01*
X140103480Y-125307283D01*
X140066635Y-125275328D01*
X140020365Y-125259905D01*
X139971716Y-125263362D01*
X139928091Y-125285174D01*
X139896136Y-125322019D01*
X139886146Y-125344394D01*
X139796013Y-125616413D01*
X139379251Y-125618029D01*
X139279993Y-125322020D01*
X139248038Y-125285174D01*
X139204414Y-125263362D01*
X139155764Y-125259905D01*
X139109495Y-125275328D01*
X139072649Y-125307283D01*
X139050837Y-125350907D01*
X139047380Y-125399557D01*
X138908491Y-125399557D01*
X138908491Y-125121016D01*
X140267638Y-125121016D01*
X140267638Y-126896830D01*
G37*
G36*
X137225898Y-126517174D02*
G01*
X136964926Y-126518595D01*
X136889816Y-126482461D01*
X136857597Y-126451637D01*
X136818564Y-126376459D01*
X136817550Y-126315879D01*
X136853059Y-126242065D01*
X136883883Y-126209847D01*
X136958467Y-126171123D01*
X137225243Y-126169670D01*
X137225898Y-126517174D01*
G37*
G36*
X137224776Y-125921942D02*
G01*
X136958275Y-125923393D01*
X136822603Y-125879866D01*
X136798073Y-125856398D01*
X136759176Y-125781482D01*
X136757758Y-125661674D01*
X136793536Y-125587304D01*
X136824360Y-125555085D01*
X136898909Y-125516378D01*
X137224009Y-125514818D01*
X137224776Y-125921942D01*
G37*
G36*
X137612666Y-126905394D02*
G01*
X136370603Y-126905394D01*
X136370603Y-125629600D01*
X136509492Y-125629600D01*
X136511387Y-125789792D01*
X136510473Y-125792537D01*
X136511609Y-125808527D01*
X136511894Y-125832557D01*
X136513612Y-125836705D01*
X136513931Y-125841187D01*
X136522689Y-125864073D01*
X136584362Y-125982856D01*
X136590082Y-125996664D01*
X136594029Y-126001474D01*
X136595267Y-126003858D01*
X136597759Y-126006019D01*
X136605627Y-126015607D01*
X136654079Y-126061962D01*
X136654790Y-126063383D01*
X136663070Y-126070564D01*
X136668679Y-126075930D01*
X136664759Y-126080028D01*
X136654789Y-126088676D01*
X136651522Y-126093864D01*
X136649606Y-126095868D01*
X136648344Y-126098913D01*
X136641735Y-126109413D01*
X136591814Y-126213183D01*
X136590082Y-126214916D01*
X136584514Y-126228358D01*
X136573455Y-126251347D01*
X136573136Y-126255826D01*
X136571418Y-126259976D01*
X136569016Y-126284362D01*
X136570711Y-126385632D01*
X136569998Y-126387774D01*
X136570978Y-126401579D01*
X136571418Y-126427795D01*
X136573136Y-126431944D01*
X136573455Y-126436424D01*
X136582212Y-126459310D01*
X136643888Y-126578100D01*
X136649606Y-126591903D01*
X136653550Y-126596709D01*
X136654789Y-126599095D01*
X136657284Y-126601259D01*
X136665151Y-126610845D01*
X136727779Y-126670762D01*
X136736424Y-126680730D01*
X136741609Y-126683994D01*
X136743617Y-126685915D01*
X136746668Y-126687178D01*
X136757161Y-126693784D01*
X136860932Y-126743706D01*
X136862665Y-126745439D01*
X136876104Y-126751005D01*
X136899095Y-126762066D01*
X136903576Y-126762384D01*
X136907725Y-126764103D01*
X136932111Y-126766505D01*
X137373163Y-126764103D01*
X137418223Y-126745439D01*
X137452711Y-126710951D01*
X137471375Y-126665891D01*
X137473777Y-126641505D01*
X137471375Y-125367119D01*
X137452711Y-125322059D01*
X137418223Y-125287571D01*
X137373163Y-125268907D01*
X137348777Y-125266505D01*
X136891855Y-125268697D01*
X136888221Y-125267486D01*
X136869679Y-125268803D01*
X136848201Y-125268907D01*
X136844052Y-125270625D01*
X136839571Y-125270944D01*
X136816686Y-125279701D01*
X136697901Y-125341375D01*
X136684092Y-125347096D01*
X136679282Y-125351042D01*
X136676900Y-125352280D01*
X136674738Y-125354771D01*
X136665150Y-125362641D01*
X136605237Y-125425265D01*
X136595267Y-125433913D01*
X136592001Y-125439101D01*
X136590083Y-125441106D01*
X136588820Y-125444153D01*
X136582213Y-125454650D01*
X136532290Y-125558421D01*
X136530558Y-125560154D01*
X136524991Y-125573593D01*
X136513931Y-125596584D01*
X136513612Y-125601065D01*
X136511894Y-125605214D01*
X136509492Y-125629600D01*
X136370603Y-125629600D01*
X136370603Y-125127616D01*
X137612666Y-125127616D01*
X137612666Y-126905394D01*
G37*
G36*
X138911734Y-126905009D02*
G01*
X137610147Y-126905009D01*
X137610147Y-125510167D01*
X137749036Y-125510167D01*
X137751438Y-125951220D01*
X137770102Y-125996280D01*
X137804590Y-126030768D01*
X137849650Y-126049432D01*
X137874036Y-126051834D01*
X138136517Y-126049432D01*
X138181577Y-126030768D01*
X138216065Y-125996280D01*
X138234729Y-125951220D01*
X138234729Y-125902448D01*
X138216065Y-125857388D01*
X138181577Y-125822900D01*
X138136517Y-125804236D01*
X138112131Y-125801834D01*
X137998360Y-125802875D01*
X137997051Y-125562362D01*
X137999085Y-125560235D01*
X138127348Y-125515865D01*
X138206708Y-125514536D01*
X138340134Y-125557343D01*
X138424060Y-125639202D01*
X138468583Y-125724954D01*
X138522934Y-125934415D01*
X138524692Y-126082922D01*
X138474392Y-126292015D01*
X138429489Y-126385355D01*
X138345356Y-126471612D01*
X138216184Y-126516297D01*
X138084681Y-126517853D01*
X137966576Y-126461035D01*
X137917927Y-126457577D01*
X137871656Y-126473001D01*
X137834811Y-126504957D01*
X137812999Y-126548580D01*
X137809541Y-126597229D01*
X137824965Y-126643500D01*
X137856921Y-126680345D01*
X137877658Y-126693399D01*
X137981428Y-126743321D01*
X137983161Y-126745054D01*
X137996601Y-126750621D01*
X138019591Y-126761681D01*
X138024072Y-126761999D01*
X138028221Y-126763718D01*
X138052607Y-126766120D01*
X138230933Y-126764009D01*
X138246814Y-126765138D01*
X138252921Y-126763749D01*
X138255565Y-126763718D01*
X138258614Y-126762454D01*
X138270708Y-126759705D01*
X138431174Y-126704194D01*
X138434137Y-126704194D01*
X138449142Y-126697978D01*
X138471653Y-126690191D01*
X138475046Y-126687247D01*
X138479196Y-126685529D01*
X138498138Y-126669984D01*
X138615658Y-126549498D01*
X138627547Y-126539187D01*
X138630879Y-126533893D01*
X138632731Y-126531995D01*
X138633994Y-126528945D01*
X138640602Y-126518449D01*
X138694887Y-126405607D01*
X138701344Y-126396893D01*
X138707881Y-126378596D01*
X138708882Y-126376517D01*
X138708945Y-126375617D01*
X138709589Y-126373818D01*
X138765312Y-126142176D01*
X138770443Y-126129791D01*
X138771934Y-126114652D01*
X138772697Y-126111481D01*
X138772425Y-126109659D01*
X138772845Y-126105405D01*
X138770809Y-125933441D01*
X138772697Y-125920758D01*
X138770482Y-125905779D01*
X138770443Y-125902448D01*
X138769738Y-125900746D01*
X138769113Y-125896517D01*
X138709730Y-125667668D01*
X138708882Y-125655724D01*
X138701889Y-125637449D01*
X138701344Y-125635347D01*
X138700808Y-125634624D01*
X138700125Y-125632838D01*
X138638450Y-125514050D01*
X138632731Y-125500244D01*
X138628785Y-125495436D01*
X138627548Y-125493053D01*
X138625054Y-125490889D01*
X138617186Y-125481303D01*
X138509755Y-125376517D01*
X138508499Y-125374004D01*
X138496590Y-125363675D01*
X138479196Y-125346710D01*
X138475044Y-125344990D01*
X138471653Y-125342049D01*
X138449278Y-125332059D01*
X138270426Y-125274677D01*
X138255565Y-125268522D01*
X138249323Y-125267907D01*
X138246814Y-125267102D01*
X138243522Y-125267335D01*
X138231179Y-125266120D01*
X138110999Y-125268132D01*
X138096496Y-125267102D01*
X138090450Y-125268476D01*
X138087745Y-125268522D01*
X138084695Y-125269785D01*
X138072602Y-125272535D01*
X137912135Y-125328046D01*
X137909174Y-125328046D01*
X137894172Y-125334259D01*
X137871656Y-125342049D01*
X137868262Y-125344991D01*
X137864115Y-125346710D01*
X137845172Y-125362255D01*
X137770103Y-125440720D01*
X137770102Y-125440721D01*
X137768051Y-125445673D01*
X137751438Y-125485779D01*
X137751438Y-125485781D01*
X137749036Y-125510167D01*
X137610147Y-125510167D01*
X137610147Y-125127231D01*
X138911734Y-125127231D01*
X138911734Y-126905009D01*
G37*
D11*
X170082580Y-78273095D02*
X169273057Y-78273095D01*
X169273057Y-78273095D02*
X169177819Y-78320714D01*
X169177819Y-78320714D02*
X169130200Y-78368333D01*
X169130200Y-78368333D02*
X169082580Y-78463571D01*
X169082580Y-78463571D02*
X169082580Y-78654047D01*
X169082580Y-78654047D02*
X169130200Y-78749285D01*
X169130200Y-78749285D02*
X169177819Y-78796904D01*
X169177819Y-78796904D02*
X169273057Y-78844523D01*
X169273057Y-78844523D02*
X170082580Y-78844523D01*
X170082580Y-79225476D02*
X170082580Y-79844523D01*
X170082580Y-79844523D02*
X169701628Y-79511190D01*
X169701628Y-79511190D02*
X169701628Y-79654047D01*
X169701628Y-79654047D02*
X169654009Y-79749285D01*
X169654009Y-79749285D02*
X169606390Y-79796904D01*
X169606390Y-79796904D02*
X169511152Y-79844523D01*
X169511152Y-79844523D02*
X169273057Y-79844523D01*
X169273057Y-79844523D02*
X169177819Y-79796904D01*
X169177819Y-79796904D02*
X169130200Y-79749285D01*
X169130200Y-79749285D02*
X169082580Y-79654047D01*
X169082580Y-79654047D02*
X169082580Y-79368333D01*
X169082580Y-79368333D02*
X169130200Y-79273095D01*
X169130200Y-79273095D02*
X169177819Y-79225476D01*
X123158020Y-84234961D02*
X123158020Y-86234961D01*
X123158020Y-86234961D02*
X122015163Y-84234961D01*
X122015163Y-84234961D02*
X122015163Y-86234961D01*
X119919925Y-84234961D02*
X120586592Y-85187342D01*
X121062782Y-84234961D02*
X121062782Y-86234961D01*
X121062782Y-86234961D02*
X120300877Y-86234961D01*
X120300877Y-86234961D02*
X120110401Y-86139723D01*
X120110401Y-86139723D02*
X120015163Y-86044485D01*
X120015163Y-86044485D02*
X119919925Y-85854009D01*
X119919925Y-85854009D02*
X119919925Y-85568295D01*
X119919925Y-85568295D02*
X120015163Y-85377819D01*
X120015163Y-85377819D02*
X120110401Y-85282580D01*
X120110401Y-85282580D02*
X120300877Y-85187342D01*
X120300877Y-85187342D02*
X121062782Y-85187342D01*
X118396115Y-85282580D02*
X119062782Y-85282580D01*
X119062782Y-84234961D02*
X119062782Y-86234961D01*
X119062782Y-86234961D02*
X118110401Y-86234961D01*
X80978095Y-85642419D02*
X80978095Y-86451942D01*
X80978095Y-86451942D02*
X81025714Y-86547180D01*
X81025714Y-86547180D02*
X81073333Y-86594800D01*
X81073333Y-86594800D02*
X81168571Y-86642419D01*
X81168571Y-86642419D02*
X81359047Y-86642419D01*
X81359047Y-86642419D02*
X81454285Y-86594800D01*
X81454285Y-86594800D02*
X81501904Y-86547180D01*
X81501904Y-86547180D02*
X81549523Y-86451942D01*
X81549523Y-86451942D02*
X81549523Y-85642419D01*
X82454285Y-85975752D02*
X82454285Y-86642419D01*
X82216190Y-85594800D02*
X81978095Y-86309085D01*
X81978095Y-86309085D02*
X82597142Y-86309085D01*
D10*
X133494819Y-123701666D02*
X133018628Y-124034999D01*
X133494819Y-124273094D02*
X132494819Y-124273094D01*
X132494819Y-124273094D02*
X132494819Y-123892142D01*
X132494819Y-123892142D02*
X132542438Y-123796904D01*
X132542438Y-123796904D02*
X132590057Y-123749285D01*
X132590057Y-123749285D02*
X132685295Y-123701666D01*
X132685295Y-123701666D02*
X132828152Y-123701666D01*
X132828152Y-123701666D02*
X132923390Y-123749285D01*
X132923390Y-123749285D02*
X132971009Y-123796904D01*
X132971009Y-123796904D02*
X133018628Y-123892142D01*
X133018628Y-123892142D02*
X133018628Y-124273094D01*
X132494819Y-123368332D02*
X132494819Y-122749285D01*
X132494819Y-122749285D02*
X132875771Y-123082618D01*
X132875771Y-123082618D02*
X132875771Y-122939761D01*
X132875771Y-122939761D02*
X132923390Y-122844523D01*
X132923390Y-122844523D02*
X132971009Y-122796904D01*
X132971009Y-122796904D02*
X133066247Y-122749285D01*
X133066247Y-122749285D02*
X133304342Y-122749285D01*
X133304342Y-122749285D02*
X133399580Y-122796904D01*
X133399580Y-122796904D02*
X133447200Y-122844523D01*
X133447200Y-122844523D02*
X133494819Y-122939761D01*
X133494819Y-122939761D02*
X133494819Y-123225475D01*
X133494819Y-123225475D02*
X133447200Y-123320713D01*
X133447200Y-123320713D02*
X133399580Y-123368332D01*
D11*
X83343884Y-103407419D02*
X83343884Y-104216942D01*
X83343884Y-104216942D02*
X83391503Y-104312180D01*
X83391503Y-104312180D02*
X83439122Y-104359800D01*
X83439122Y-104359800D02*
X83534360Y-104407419D01*
X83534360Y-104407419D02*
X83724836Y-104407419D01*
X83724836Y-104407419D02*
X83820074Y-104359800D01*
X83820074Y-104359800D02*
X83867693Y-104312180D01*
X83867693Y-104312180D02*
X83915312Y-104216942D01*
X83915312Y-104216942D02*
X83915312Y-103407419D01*
X84296265Y-103407419D02*
X84915312Y-103407419D01*
X84915312Y-103407419D02*
X84581979Y-103788371D01*
X84581979Y-103788371D02*
X84724836Y-103788371D01*
X84724836Y-103788371D02*
X84820074Y-103835990D01*
X84820074Y-103835990D02*
X84867693Y-103883609D01*
X84867693Y-103883609D02*
X84915312Y-103978847D01*
X84915312Y-103978847D02*
X84915312Y-104216942D01*
X84915312Y-104216942D02*
X84867693Y-104312180D01*
X84867693Y-104312180D02*
X84820074Y-104359800D01*
X84820074Y-104359800D02*
X84724836Y-104407419D01*
X84724836Y-104407419D02*
X84439122Y-104407419D01*
X84439122Y-104407419D02*
X84343884Y-104359800D01*
X84343884Y-104359800D02*
X84296265Y-104312180D01*
X85201027Y-103407419D02*
X85534360Y-104407419D01*
X85534360Y-104407419D02*
X85867693Y-103407419D01*
X86629598Y-103740752D02*
X86629598Y-104407419D01*
X86391503Y-103359800D02*
X86153408Y-104074085D01*
X86153408Y-104074085D02*
X86772455Y-104074085D01*
X87343884Y-103407419D02*
X87439122Y-103407419D01*
X87439122Y-103407419D02*
X87534360Y-103455038D01*
X87534360Y-103455038D02*
X87581979Y-103502657D01*
X87581979Y-103502657D02*
X87629598Y-103597895D01*
X87629598Y-103597895D02*
X87677217Y-103788371D01*
X87677217Y-103788371D02*
X87677217Y-104026466D01*
X87677217Y-104026466D02*
X87629598Y-104216942D01*
X87629598Y-104216942D02*
X87581979Y-104312180D01*
X87581979Y-104312180D02*
X87534360Y-104359800D01*
X87534360Y-104359800D02*
X87439122Y-104407419D01*
X87439122Y-104407419D02*
X87343884Y-104407419D01*
X87343884Y-104407419D02*
X87248646Y-104359800D01*
X87248646Y-104359800D02*
X87201027Y-104312180D01*
X87201027Y-104312180D02*
X87153408Y-104216942D01*
X87153408Y-104216942D02*
X87105789Y-104026466D01*
X87105789Y-104026466D02*
X87105789Y-103788371D01*
X87105789Y-103788371D02*
X87153408Y-103597895D01*
X87153408Y-103597895D02*
X87201027Y-103502657D01*
X87201027Y-103502657D02*
X87248646Y-103455038D01*
X87248646Y-103455038D02*
X87343884Y-103407419D01*
X88439122Y-103883609D02*
X88105789Y-103883609D01*
X88105789Y-104407419D02*
X88105789Y-103407419D01*
X88105789Y-103407419D02*
X88581979Y-103407419D01*
X89439122Y-103407419D02*
X88962932Y-103407419D01*
X88962932Y-103407419D02*
X88915313Y-103883609D01*
X88915313Y-103883609D02*
X88962932Y-103835990D01*
X88962932Y-103835990D02*
X89058170Y-103788371D01*
X89058170Y-103788371D02*
X89296265Y-103788371D01*
X89296265Y-103788371D02*
X89391503Y-103835990D01*
X89391503Y-103835990D02*
X89439122Y-103883609D01*
X89439122Y-103883609D02*
X89486741Y-103978847D01*
X89486741Y-103978847D02*
X89486741Y-104216942D01*
X89486741Y-104216942D02*
X89439122Y-104312180D01*
X89439122Y-104312180D02*
X89391503Y-104359800D01*
X89391503Y-104359800D02*
X89296265Y-104407419D01*
X89296265Y-104407419D02*
X89058170Y-104407419D01*
X89058170Y-104407419D02*
X88962932Y-104359800D01*
X88962932Y-104359800D02*
X88915313Y-104312180D01*
D14*
%TO.C,REF\u002A\u002A*%
X112540000Y-59535000D02*
G75*
G02*
X106540000Y-59535000I-3000000J0D01*
G01*
X106540000Y-59535000D02*
G75*
G02*
X112540000Y-59535000I3000000J0D01*
G01*
X112540000Y-74535000D02*
G75*
G02*
X106540000Y-74535000I-3000000J0D01*
G01*
X106540000Y-74535000D02*
G75*
G02*
X112540000Y-74535000I3000000J0D01*
G01*
X112540000Y-108535001D02*
G75*
G02*
X106540000Y-108535001I-3000000J0D01*
G01*
X106540000Y-108535001D02*
G75*
G02*
X112540000Y-108535001I3000000J0D01*
G01*
X112540000Y-123535000D02*
G75*
G02*
X106540000Y-123535000I-3000000J0D01*
G01*
X106540000Y-123535000D02*
G75*
G02*
X112540000Y-123535000I3000000J0D01*
G01*
X170540000Y-59535000D02*
G75*
G02*
X164540000Y-59535000I-3000000J0D01*
G01*
X164540000Y-59535000D02*
G75*
G02*
X170540000Y-59535000I3000000J0D01*
G01*
X170540000Y-74535000D02*
G75*
G02*
X164540000Y-74535000I-3000000J0D01*
G01*
X164540000Y-74535000D02*
G75*
G02*
X170540000Y-74535000I3000000J0D01*
G01*
X170540000Y-108535000D02*
G75*
G02*
X164540000Y-108535000I-3000000J0D01*
G01*
X164540000Y-108535000D02*
G75*
G02*
X170540000Y-108535000I3000000J0D01*
G01*
X170540000Y-123535000D02*
G75*
G02*
X164540000Y-123535000I-3000000J0D01*
G01*
X164540000Y-123535000D02*
G75*
G02*
X170540000Y-123535000I3000000J0D01*
G01*
D15*
%TO.C,SW2*%
X75413400Y-78917700D02*
X94666600Y-78917700D01*
X94666600Y-78917700D02*
X94666600Y-63652300D01*
X75413400Y-63652300D02*
X75413400Y-78917700D01*
X94666600Y-63652300D02*
X75413400Y-63652300D01*
D16*
%TO.C,R1*%
X142517500Y-127197258D02*
X142517500Y-126722742D01*
X143562500Y-127197258D02*
X143562500Y-126722742D01*
%TO.C,U2*%
D11*
X125540000Y-110485000D02*
X158040000Y-110485000D01*
X158040000Y-92985000D01*
X125540000Y-92985000D01*
X125540000Y-110485000D01*
%TO.C,J1*%
X148693857Y-112003425D02*
X128443857Y-112003425D01*
X128443857Y-127503425D01*
X148693857Y-127503425D01*
X148693857Y-112003425D01*
D16*
%TO.C,R2*%
X134017500Y-126097258D02*
X134017500Y-125622742D01*
X135062500Y-126097258D02*
X135062500Y-125622742D01*
D17*
%TO.C,J3*%
X111040000Y-93035000D02*
X121040000Y-93035000D01*
X111040000Y-100835000D02*
X111040000Y-93035000D01*
X121040000Y-93035000D02*
X121040000Y-100835000D01*
X121040000Y-100835000D02*
X111040000Y-100835000D01*
D18*
X118640000Y-101835000D02*
G75*
G02*
X118440000Y-101835000I-100000J0D01*
G01*
X118440000Y-101835000D02*
G75*
G02*
X118640000Y-101835000I100000J0D01*
G01*
D17*
%TO.C,J4*%
X79402500Y-112035000D02*
X87202500Y-112035000D01*
X79402500Y-122035000D02*
X79402500Y-112035000D01*
X87202500Y-112035000D02*
X87202500Y-122035000D01*
X87202500Y-122035000D02*
X79402500Y-122035000D01*
D18*
X88302500Y-114535000D02*
G75*
G02*
X88102500Y-114535000I-100000J0D01*
G01*
X88102500Y-114535000D02*
G75*
G02*
X88302500Y-114535000I100000J0D01*
G01*
%TO.C,U1*%
D11*
X141580000Y-77805000D02*
X170580000Y-77805000D01*
X170580000Y-92805000D01*
X141580000Y-92805000D01*
X141580000Y-77805000D01*
D16*
%TO.C,D1*%
X141774132Y-128600229D02*
G75*
G02*
X136004582Y-128710804I-2904898J994684D01*
G01*
%TO.C,U3*%
D11*
X135500000Y-92685000D02*
X106500000Y-92685000D01*
X106500000Y-77685000D01*
X135500000Y-77685000D01*
X135500000Y-92685000D01*
%TO.C,U4*%
X67540000Y-79285000D02*
X95540000Y-79285000D01*
X95540000Y-96485000D01*
X67540000Y-96485000D01*
X67540000Y-79285000D01*
D16*
%TO.C,R3*%
X132517500Y-126097258D02*
X132517500Y-125622742D01*
X133562500Y-126097258D02*
X133562500Y-125622742D01*
%TO.C,U5*%
D11*
X93540000Y-111785000D02*
X78540000Y-111785000D01*
X78540000Y-96785000D01*
X93540000Y-96785000D01*
X93540000Y-111785000D01*
%TD*%
M02*
