%TF.GenerationSoftware,KiCad,Pcbnew,8.0.2*%
%TF.CreationDate,2024-06-19T11:28:36-04:00*%
%TF.ProjectId,StringsVR-Power,53747269-6e67-4735-9652-2d506f776572,rev?*%
%TF.SameCoordinates,Original*%
%TF.FileFunction,Copper,L1,Top*%
%TF.FilePolarity,Positive*%
%FSLAX46Y46*%
G04 Gerber Fmt 4.6, Leading zero omitted, Abs format (unit mm)*
G04 Created by KiCad (PCBNEW 8.0.2) date 2024-06-19 11:28:36*
%MOMM*%
%LPD*%
G01*
G04 APERTURE LIST*
G04 Aperture macros list*
%AMFreePoly0*
4,1,5,2.500000,-2.500000,-2.500000,-2.500000,-2.500000,2.500000,2.500000,2.500000,2.500000,-2.500000,2.500000,-2.500000,$1*%
%AMFreePoly1*
4,1,5,1.000000,-1.000000,-1.000000,-1.000000,-1.000000,1.000000,1.000000,1.000000,1.000000,-1.000000,1.000000,-1.000000,$1*%
G04 Aperture macros list end*
%TA.AperFunction,SMDPad,CuDef*%
%ADD10FreePoly0,0.000000*%
%TD*%
%TA.AperFunction,SMDPad,CuDef*%
%ADD11FreePoly1,180.000000*%
%TD*%
%TA.AperFunction,SMDPad,CuDef*%
%ADD12R,2.000000X2.000000*%
%TD*%
%TA.AperFunction,ComponentPad*%
%ADD13FreePoly1,180.000000*%
%TD*%
%TA.AperFunction,SMDPad,CuDef*%
%ADD14C,1.500000*%
%TD*%
%TA.AperFunction,ComponentPad*%
%ADD15C,1.500000*%
%TD*%
%TA.AperFunction,ComponentPad*%
%ADD16O,2.200000X3.500000*%
%TD*%
%TA.AperFunction,ComponentPad*%
%ADD17R,1.500000X2.500000*%
%TD*%
%TA.AperFunction,ComponentPad*%
%ADD18O,1.500000X2.500000*%
%TD*%
%TA.AperFunction,ComponentPad*%
%ADD19R,1.700000X1.700000*%
%TD*%
%TA.AperFunction,ComponentPad*%
%ADD20O,1.700000X1.700000*%
%TD*%
%TA.AperFunction,ViaPad*%
%ADD21C,1.500000*%
%TD*%
%TA.AperFunction,ViaPad*%
%ADD22C,0.600000*%
%TD*%
%TA.AperFunction,ViaPad*%
%ADD23C,5.000000*%
%TD*%
%TA.AperFunction,Conductor*%
%ADD24C,2.500000*%
%TD*%
%TA.AperFunction,Conductor*%
%ADD25C,2.000000*%
%TD*%
%TA.AperFunction,Conductor*%
%ADD26C,6.200000*%
%TD*%
G04 APERTURE END LIST*
D10*
%TO.P,U3,1,b+*%
%TO.N,/B+*%
X91700000Y-99700000D03*
%TO.P,U3,2,b-*%
%TO.N,/B-*%
X172700000Y-99700000D03*
%TD*%
%TO.P,U4,1,b+*%
%TO.N,/B+*%
X91700000Y-126600000D03*
%TO.P,U4,2,b-*%
%TO.N,/B-*%
X172700000Y-126600000D03*
%TD*%
%TO.P,U2,1,b+*%
%TO.N,/B+*%
X91700000Y-72800000D03*
%TO.P,U2,2,b-*%
%TO.N,/B-*%
X172700000Y-72800000D03*
%TD*%
D11*
%TO.P,U1,1,+*%
%TO.N,unconnected-(U1-+-Pad1)*%
X223700000Y-107200000D03*
%TO.P,U1,2,-*%
%TO.N,unconnected-(U1---Pad2)*%
X223700000Y-93200000D03*
D12*
%TO.P,U1,3,OUT+*%
%TO.N,3.3V*%
X200700000Y-107200000D03*
D13*
%TO.P,U1,4,B+*%
%TO.N,/B+*%
X200700000Y-104660000D03*
D11*
%TO.P,U1,5,B-*%
%TO.N,/B-*%
X200700000Y-95740000D03*
D13*
%TO.P,U1,6,OUT-*%
%TO.N,GND*%
X200700000Y-93200000D03*
%TD*%
D14*
%TO.P,U5,1,EN*%
%TO.N,unconnected-(U5-EN-Pad1)*%
X200600000Y-76300000D03*
%TO.P,U5,2,VIN*%
%TO.N,3.3V2*%
X200600000Y-78700000D03*
%TO.P,U5,3,VIN*%
X200600000Y-81030000D03*
%TO.P,U5,4,GND*%
%TO.N,GND*%
X200600000Y-83570000D03*
D15*
%TO.P,U5,5,GND*%
%TO.N,Net-(J1-Pin_1)*%
X200600000Y-85900000D03*
D14*
%TO.P,U5,6,VOUT*%
%TO.N,Net-(J1-Pin_2)*%
X200600000Y-88300000D03*
%TD*%
D16*
%TO.P,SW1,*%
%TO.N,*%
X180300000Y-59300000D03*
X188500000Y-59300000D03*
D17*
%TO.P,SW1,1,A*%
%TO.N,3.3V2*%
X182400000Y-59300000D03*
D18*
%TO.P,SW1,2,B*%
%TO.N,3.3V*%
X184400000Y-59300000D03*
%TO.P,SW1,3,C*%
%TO.N,unconnected-(SW1-C-Pad3)*%
X186400000Y-59300000D03*
%TD*%
D19*
%TO.P,J1,1,Pin_1*%
%TO.N,Net-(J1-Pin_1)*%
X219900000Y-85700000D03*
D20*
%TO.P,J1,2,Pin_2*%
%TO.N,Net-(J1-Pin_2)*%
X219900000Y-88240000D03*
%TD*%
D21*
%TO.N,Net-(J1-Pin_2)*%
X202300000Y-88300000D03*
D22*
%TO.N,3.3V2*%
X181100000Y-63200000D03*
D23*
%TO.N,/B+*%
X98000000Y-133300000D03*
D21*
%TO.N,GND*%
X193400000Y-88800000D03*
%TD*%
D24*
%TO.N,Net-(J1-Pin_2)*%
X200600000Y-88300000D02*
X202300000Y-88300000D01*
%TO.N,3.3V2*%
X200600000Y-78700000D02*
X197281624Y-78700000D01*
X197281624Y-78700000D02*
X186781624Y-68200000D01*
D25*
X186781624Y-68200000D02*
X186100000Y-68200000D01*
X200600000Y-81030000D02*
X200600000Y-78700000D01*
X186100000Y-68200000D02*
X181100000Y-63200000D01*
D24*
%TO.N,3.3V*%
X204200000Y-107200000D02*
X205250000Y-106150000D01*
X205250000Y-77450000D02*
X190300000Y-62500000D01*
D25*
X186342284Y-62500000D02*
X184400000Y-60557716D01*
X184400000Y-60557716D02*
X184400000Y-59300000D01*
D24*
X200700000Y-107200000D02*
X204200000Y-107200000D01*
D25*
X190300000Y-62500000D02*
X186342284Y-62500000D01*
D24*
X205250000Y-106150000D02*
X205250000Y-77450000D01*
D26*
%TO.N,/B+*%
X91700000Y-72800000D02*
X91700000Y-126600000D01*
X91700000Y-127000000D02*
X98000000Y-133300000D01*
X91700000Y-126600000D02*
X91700000Y-127000000D01*
D24*
%TO.N,GND*%
X193400000Y-88800000D02*
X198630000Y-83570000D01*
X198630000Y-83570000D02*
X200600000Y-83570000D01*
D26*
%TO.N,/B-*%
X172700000Y-126600000D02*
X172700000Y-72800000D01*
X193100000Y-97500000D02*
X200700000Y-97500000D01*
X172700000Y-117900000D02*
X193100000Y-97500000D01*
X172700000Y-126600000D02*
X172700000Y-117900000D01*
%TD*%
M02*
