M48
; DRILL file {KiCad 8.0.3} date 2024-06-25T13:40:21-0400
; FORMAT={-:-/ absolute / inch / decimal}
; #@! TF.CreationDate,2024-06-25T13:40:21-04:00
; #@! TF.GenerationSoftware,Kicad,Pcbnew,8.0.3
; #@! TF.FileFunction,Plated,1,2,PTH
FMAT,2
INCH
; #@! TA.AperFunction,Plated,PTH,ViaDrill
T1C0.0079
; #@! TA.AperFunction,Plated,PTH,ViaDrill
T2C0.0118
; #@! TA.AperFunction,Plated,PTH,ComponentDrill
T3C0.0276
; #@! TA.AperFunction,Plated,PTH,ComponentDrill
T4C0.0354
; #@! TA.AperFunction,Plated,PTH,ComponentDrill
T5C0.0394
; #@! TA.AperFunction,Plated,PTH,ComponentDrill
T6C0.0551
%
G90
G05
T1
X4.5291Y-5.0211
T2
X5.6315Y-3.5644
X5.6315Y-3.647
X5.6354Y-3.525
X5.6512Y-3.6195
X6.0055Y-3.525
X6.0055Y-3.5644
T4
X5.3944Y-5.0364
X5.4444Y-5.0364
X5.4944Y-5.0364
X5.5444Y-5.0364
T5
X2.722Y-3.1844
X2.722Y-3.7356
X3.6236Y-3.8695
X3.6236Y-3.964
X3.6236Y-4.0557
X3.6236Y-4.1557
X3.6236Y-4.2474
X3.6236Y-4.3419
X3.6276Y-3.1844
X3.6276Y-3.2844
X3.6276Y-3.6356
X3.6276Y-3.7356
X4.5047Y-2.8837
X4.5047Y-2.9837
X4.6047Y-2.8837
X4.6047Y-2.9837
X4.7047Y-2.8837
X4.7047Y-2.9837
X4.8047Y-2.8837
X4.8047Y-2.9837
X4.9047Y-2.8837
X4.9047Y-2.9837
X5.0047Y-2.8837
X5.0047Y-2.9837
X5.0827Y-4.3104
X5.089Y-3.712
X5.1043Y-4.4588
X5.1047Y-2.8837
X5.1047Y-2.9837
X5.1787Y-3.2789
X5.1787Y-3.3758
X5.1787Y-3.4726
X5.1787Y-3.5695
X5.1827Y-4.3104
X5.189Y-3.712
X5.2043Y-4.4588
X5.2047Y-2.8837
X5.2047Y-2.9837
X5.2756Y-3.2781
X5.2756Y-3.375
X5.2756Y-3.4719
X5.2756Y-3.5687
X5.2827Y-4.3104
X5.289Y-3.712
X5.3043Y-4.4588
X5.3047Y-2.8837
X5.3047Y-2.9837
X5.3827Y-4.3104
X5.389Y-3.712
X5.4043Y-4.4588
X5.4047Y-2.8837
X5.4047Y-2.9837
X5.4827Y-4.3104
X5.489Y-3.712
X5.5043Y-4.4588
X5.5047Y-2.8837
X5.5047Y-2.9837
X5.5827Y-4.3104
X5.589Y-3.712
X5.6043Y-4.4588
X5.6047Y-2.8837
X5.6047Y-2.9837
X5.6331Y-3.1435
X5.6331Y-3.2404
X5.6331Y-3.3372
X5.6331Y-3.4341
X5.6827Y-4.3104
X5.689Y-3.712
X5.7043Y-4.4588
X5.7047Y-2.8837
X5.7047Y-2.9837
X5.7299Y-3.1427
X5.7299Y-3.2396
X5.7299Y-3.3364
X5.7299Y-3.4333
X5.7827Y-4.3104
X5.789Y-3.712
X5.8043Y-4.4588
X5.8047Y-2.8837
X5.8047Y-2.9837
X5.8827Y-4.3104
X5.889Y-3.712
X5.9047Y-2.8837
X5.9047Y-2.9837
X5.9827Y-4.3104
X5.989Y-3.712
X6.0047Y-2.8837
X6.0047Y-2.9837
X6.0827Y-4.3104
X6.089Y-3.712
X6.1047Y-2.8837
X6.1047Y-2.9837
X6.1827Y-4.3104
X6.189Y-3.712
X6.2047Y-2.8837
X6.2047Y-2.9837
X6.3047Y-2.8837
X6.3047Y-2.9837
X6.4047Y-2.8837
X6.4047Y-2.9837
T6
X3.2836Y-4.5093
X3.2836Y-4.7061
X4.4701Y-3.8203
X4.6669Y-3.8203
T3
G00X3.073Y-2.8872
M15
G01X3.073Y-2.7258
M16
G05
G00X3.348Y-2.8872
M15
G01X3.348Y-2.7258
M16
G05
M30
